<svg width="631" height="663" viewBox="0 0 631 663" fill="none" xmlns="http://www.w3.org/2000/svg">
<rect width="631" height="663" rx="8" fill="#E5D3FF"/>
<path d="M546.64 540.793C608.078 494.077 635.44 364.538 535.682 301.016C469.639 258.971 428.563 282.956 354.265 255.142C263.563 221.195 250.044 118.629 139.717 169.097C81.2668 195.825 40.7478 271.158 33.6195 356.775C26.6334 440.621 56.3499 498.152 117.077 537.52C259.682 543.587 402.573 542.487 546.64 540.793Z" fill="#C59BFF"/>
<path d="M294.53 166.637C285.255 199.576 319.698 232.184 355.984 245.703C392.271 259.233 433.882 257.62 472.756 251.17C489.53 248.391 506.773 244.479 519.803 235.02C532.834 225.562 540.388 209.138 533.247 195.871C526.945 184.17 511.601 178.177 496.974 175.101C482.347 172.024 466.811 170.766 453.779 164.292C441.423 158.151 432.657 147.983 421.911 139.931C402.054 125.074 374.162 117.709 348.347 122.409C322.518 127.11 302.414 138.639 294.53 166.637Z" fill="#C59BFF"/>
<path d="M577.911 343.701V315.513H567.222C565.939 310.586 563.981 305.939 561.474 301.658L569.032 294.088L549.099 274.155L541.529 281.713C537.249 279.205 532.602 277.249 527.673 275.965V265.277H499.486V275.965C494.558 277.249 489.911 279.205 485.63 281.713L478.061 274.155L458.127 294.088L465.685 301.658C463.178 305.937 461.234 310.584 459.937 315.513H449.25V343.701H459.937C461.234 348.629 463.178 353.276 465.685 357.556L458.127 365.126L478.061 385.059L485.63 377.502C489.91 380.009 494.557 381.953 499.486 383.249V393.937H527.673V383.249C532.601 381.953 537.248 380.009 541.529 377.502L549.099 385.059L569.032 365.126L561.474 357.556C563.981 353.277 565.937 348.63 567.222 343.701H577.911ZM513.589 354.028C500.098 354.028 489.16 343.09 489.16 329.599C489.16 316.123 500.098 305.186 513.589 305.186C527.065 305.186 538.002 316.123 538.002 329.599C538.002 343.091 527.065 354.028 513.589 354.028Z" fill="#FFFDFB"/>
<path d="M492.733 414.327L487.371 400.349L482.071 402.382C480.496 400.183 478.642 398.25 476.584 396.605L478.892 391.413L465.215 385.319L462.899 390.507C460.3 390.078 457.623 389.992 454.935 390.293L452.901 384.992L438.923 390.355L440.956 395.655C438.757 397.229 436.824 399.083 435.179 401.142L429.987 398.834L423.894 412.511L429.081 414.826C428.653 417.426 428.573 420.101 428.867 422.791L423.566 424.824L428.929 438.803L434.229 436.769C435.81 438.967 437.657 440.901 439.716 442.547L437.408 447.738L451.085 453.832L453.401 448.644C456 449.074 458.675 449.152 461.365 448.859L463.398 454.159L477.377 448.797L475.343 443.496C477.541 441.915 479.475 440.068 481.121 438.01L486.313 440.318L492.406 426.641L487.218 424.325C487.648 421.726 487.733 419.049 487.433 416.361L492.733 414.327ZM462.799 431.687C456.11 434.254 448.604 430.911 446.037 424.22C443.473 417.537 446.816 410.032 453.507 407.465C460.19 404.901 467.695 408.245 470.259 414.927C472.826 421.617 469.483 429.123 462.799 431.687Z" stroke="#F68A3D" stroke-miterlimit="10"/>
<path d="M446.933 365.294L443.31 355.848L439.729 357.222C438.665 355.736 437.411 354.43 436.021 353.318L437.58 349.809L428.337 345.693L426.772 349.199C425.015 348.909 423.207 348.851 421.39 349.054L420.016 345.473L410.571 349.096L411.945 352.677C410.458 353.741 409.153 354.994 408.04 356.384L404.532 354.825L400.415 364.067L403.921 365.633C403.631 367.389 403.577 369.197 403.776 371.014L400.195 372.388L403.819 381.834L407.4 380.46C408.469 381.945 409.717 383.252 411.108 384.364L409.549 387.873L418.791 391.989L420.357 388.483C422.113 388.773 423.921 388.827 425.738 388.628L427.112 392.209L436.558 388.586L435.184 385.005C436.669 383.937 437.976 382.687 439.087 381.298L442.595 382.857L446.712 373.615L443.206 372.049C443.496 370.292 443.554 368.484 443.351 366.667L446.933 365.294ZM426.707 377.022C422.187 378.756 417.116 376.497 415.381 371.977C413.649 367.461 415.907 362.39 420.428 360.656C424.943 358.923 430.014 361.182 431.746 365.699C433.482 370.219 431.222 375.29 426.707 377.022Z" stroke="#F68A3D" stroke-miterlimit="10"/>
<path d="M443.643 199.92C443.643 214.084 437.023 226.709 426.724 234.867C419.14 240.885 409.551 244.456 399.106 244.456C388.687 244.456 379.097 240.885 371.488 234.867C361.175 226.709 354.568 214.084 354.568 199.92C354.568 175.324 374.51 155.383 399.106 155.383C423.702 155.383 443.643 175.324 443.643 199.92Z" fill="#6200EA" stroke="#6200EA" stroke-miterlimit="10"/>
<path d="M400.902 199.74C408.894 198.754 414.572 191.477 413.586 183.486C412.6 175.496 405.322 169.818 397.331 170.804C389.34 171.79 383.661 179.067 384.647 187.058C385.633 195.049 392.911 200.727 400.902 199.74Z" fill="#FFFDFB"/>
<path d="M426.725 229.25C419.141 235.268 409.552 238.84 399.106 238.84C388.688 238.84 379.098 235.27 371.488 229.25C374.337 216.718 376.958 205.898 379.687 203.157C383.538 199.306 393.77 197.059 399.092 197.059C404.415 197.059 415.128 199.787 417.107 201.766C421.147 205.791 424.625 216.905 426.725 229.25Z" fill="#FFFDFB"/>
<path d="M335.1 309.712V287.719C335.1 281.716 339.964 276.852 345.967 276.852H415.258C421.261 276.852 426.125 281.716 426.125 287.719V309.712C426.125 315.715 421.261 320.579 415.258 320.579H345.98C339.977 320.592 335.1 315.715 335.1 309.712Z" fill="#6200EA"/>
<path d="M364.363 308.559L330.83 341.225L385.179 313.759" fill="#6200EA"/>
<path d="M343.51 287.175V287.059C343.51 286.166 344.234 285.441 345.127 285.441H379.384C380.277 285.441 381.001 286.166 381.001 287.059V287.175C381.001 288.068 380.277 288.792 379.384 288.792H345.127C344.234 288.792 343.51 288.068 343.51 287.175Z" fill="#FFFDFB"/>
<path d="M382.541 287.175V287.059C382.541 286.166 383.265 285.441 384.158 285.441H414.056C414.948 285.441 415.673 286.166 415.673 287.059V287.175C415.673 288.068 414.948 288.792 414.056 288.792H384.158C383.265 288.792 382.541 288.068 382.541 287.175Z" fill="#FFFDFB"/>
<path d="M369.488 294.534V294.418C369.488 293.525 370.213 292.801 371.105 292.801H414.057C414.949 292.801 415.674 293.525 415.674 294.418V294.534C415.674 295.427 414.949 296.151 414.057 296.151H371.105C370.213 296.151 369.488 295.427 369.488 294.534Z" fill="#FFFDFB"/>
<path d="M343.51 294.534V294.418C343.51 293.525 344.234 292.801 345.127 292.801H364.313C365.205 292.801 365.93 293.525 365.93 294.418V294.534C365.93 295.427 365.205 296.151 364.313 296.151H345.127C344.234 296.151 343.51 295.427 343.51 294.534Z" fill="#FFFDFB"/>
<path d="M375.451 301.898V301.781C375.451 300.889 376.176 300.164 377.068 300.164H414.056C414.948 300.164 415.673 300.889 415.673 301.781V301.898C415.673 302.79 414.948 303.515 414.056 303.515H377.068C376.176 303.515 375.451 302.79 375.451 301.898Z" fill="#FFFDFB"/>
<path d="M343.51 301.898V301.781C343.51 300.889 344.234 300.164 345.127 300.164H370.678C371.57 300.164 372.295 300.889 372.295 301.781V301.898C372.295 302.79 371.57 303.515 370.678 303.515H345.127C344.234 303.515 343.51 302.79 343.51 301.898Z" fill="#FFFDFB"/>
<path d="M343.51 309.257V309.141C343.51 308.248 344.234 307.523 345.127 307.523H354.61C355.502 307.523 356.227 308.248 356.227 309.141V309.257C356.227 310.15 355.502 310.874 354.61 310.874H345.127C344.234 310.874 343.51 310.15 343.51 309.257Z" fill="#FFFDFB"/>
<path d="M359.578 309.257V309.141C359.578 308.248 360.303 307.523 361.195 307.523H414.056C414.949 307.523 415.673 308.248 415.673 309.141V309.257C415.673 310.15 414.949 310.874 414.056 310.874H361.195C360.303 310.874 359.578 310.15 359.578 309.257Z" fill="#FFFDFB"/>
<path d="M164.07 278.582C174.054 257.126 164.754 231.639 143.298 221.655C121.842 211.671 96.3543 220.971 86.3704 242.427C76.3865 263.884 85.6867 289.371 107.143 299.355C128.599 309.339 154.086 300.038 164.07 278.582Z" fill="#6200EA"/>
<path d="M118.552 291.332C123.962 289.432 126.808 283.505 124.907 278.094C123.007 272.684 117.08 269.838 111.67 271.739C106.259 273.639 103.414 279.566 105.314 284.976C107.215 290.387 113.141 293.232 118.552 291.332Z" fill="#FFFDFB"/>
<path d="M109.656 285.26L109.154 278.675L114.607 274.949L120.561 277.807L121.062 284.392L115.61 288.119L109.656 285.26Z" fill="#6200EA"/>
<path d="M138.787 249.242C144.186 247.312 146.999 241.37 145.068 235.97C143.138 230.571 137.196 227.758 131.796 229.689C126.397 231.619 123.584 237.561 125.515 242.961C127.445 248.36 133.387 251.173 138.787 249.242Z" fill="#FFFDFB"/>
<path d="M130.152 242.572L130.509 234.199L136.819 228.684L142.772 231.543L142.415 239.916L136.105 245.429L130.152 242.572Z" fill="#6200EA"/>
<path d="M122.301 276.736L114.359 272.922L120.229 259.381C120.602 258.522 121.006 257.677 121.444 256.849L128.34 243.801L136.283 247.615L130.621 260.95C130.184 261.981 129.698 262.992 129.167 263.979L122.301 276.736Z" fill="#FFFDFB"/>
<path d="M154.969 283.558C156.499 282.847 181.084 283.969 181.084 283.969L163.362 267.699L154.969 283.558Z" fill="#6200EA"/>
<path d="M263.458 188.048C272.691 166.701 262.872 141.91 241.525 132.676C220.177 123.442 195.387 133.262 186.153 154.609C176.919 175.956 186.739 200.747 208.086 209.981C229.433 219.215 254.224 209.395 263.458 188.048Z" fill="#6200EA"/>
<path d="M226.217 135.441H223.404V170.809H226.217V135.441Z" fill="#FFFDFB"/>
<path d="M193.735 191.227L195.336 193.539L224.811 173.138L223.21 170.825L193.735 191.227Z" fill="#FFFDFB"/>
<path d="M228.687 171.329C228.687 173.47 226.953 175.205 224.812 175.205C222.67 175.205 220.936 173.47 220.936 171.329C220.936 169.188 222.67 167.453 224.812 167.453C226.953 167.453 228.687 169.189 228.687 171.329Z" fill="#FFFDFB"/>
<path d="M339.15 456.494C336.653 417.993 353.497 378.147 381.868 355.352C382.748 394.046 366.072 433.207 339.15 456.494Z" fill="#4A2D5E" fill-opacity="0.4"/>
<path d="M377.237 365.715C365.284 387.993 354.947 411.305 346.357 435.355C335.916 464.554 327.701 495.577 309.822 520.054" stroke="#DF141C" stroke-opacity="0.3" stroke-miterlimit="10" stroke-linecap="round"/>
<path d="M330.197 480.712C344.557 448.589 373.058 424.319 404.482 417.449C391.105 451.875 361.013 478.137 330.197 480.712Z" fill="#4A2D5E" fill-opacity="0.4"/>
<path d="M396.772 424.523C375.309 443.412 353.484 461.769 331.297 479.584" stroke="#DF141C" stroke-opacity="0.3" stroke-miterlimit="10" stroke-linecap="round"/>
<path d="M321.727 508.696C340.912 480.041 376.308 465.085 405.598 473.262C384.058 501.555 348.584 516.549 321.727 508.696Z" fill="#4A2D5E" fill-opacity="0.4"/>
<path d="M398.571 475.332C373.421 491.064 346.292 502.681 318.322 509.667" stroke="#DF141C" stroke-opacity="0.3" stroke-miterlimit="10" stroke-linecap="round"/>
<path d="M332.083 470.971C338.215 438.706 329.017 402.741 308.538 378.949C300.142 410.658 308.15 447.813 332.083 470.971Z" fill="#4A2D5E" fill-opacity="0.4"/>
<path d="M310.646 387.18C314.683 417.194 321.863 445.306 332.989 472.784" stroke="#DF141C" stroke-opacity="0.3" stroke-miterlimit="10" stroke-linecap="round"/>
<path d="M321.554 498.446C318.941 465.276 301.941 434.123 277.076 416.93C278.512 434.498 283.182 451.433 290.595 466.828C299.121 484.513 311.644 495.73 321.554 498.446Z" fill="#4A2D5E" fill-opacity="0.4"/>
<path d="M280.764 423.645C290.544 451.304 304.62 476.945 322.175 499.145" stroke="#DF141C" stroke-opacity="0.3" stroke-miterlimit="10" stroke-linecap="round"/>
<path d="M513.574 490.496C527.145 455.19 558.362 426.548 592.788 417.828C577.703 452.655 546.913 480.728 513.574 490.496Z" fill="#4A2D5E" fill-opacity="0.4"/>
<path d="M584.444 425.164C564.754 440.132 546.047 456.679 528.608 474.597C507.417 496.357 487.429 520.627 461.594 535.142" stroke="#DF141C" stroke-opacity="0.3" stroke-miterlimit="10" stroke-linecap="round"/>
<path d="M495.736 508.414C521.598 485.657 556.735 475.67 587.318 482.371C561.392 507.586 524.03 518.699 495.736 508.414Z" fill="#4A2D5E" fill-opacity="0.4"/>
<path d="M577.601 485.539C550.886 493.612 524.067 501.051 497.158 507.869" stroke="#DF141C" stroke-opacity="0.3" stroke-miterlimit="10" stroke-linecap="round"/>
<path d="M476.77 529.887C505.477 512.189 542.891 513.314 565.427 532.552C534.792 548.956 497.288 547.831 476.77 529.887Z" fill="#4A2D5E" fill-opacity="0.4"/>
<path d="M558.378 531.516C529.709 535.268 500.95 534.543 473.381 529.355" stroke="#DF141C" stroke-opacity="0.3" stroke-miterlimit="10" stroke-linecap="round"/>
<path d="M501.405 500.508C520.047 474.271 526.658 438.474 518.313 408.926C497.886 433.739 489.735 470.105 501.405 500.508Z" fill="#4A2D5E" fill-opacity="0.4"/>
<path d="M516.799 417.102C508.054 445.486 502.892 473.456 501.469 502.486" stroke="#DF141C" stroke-opacity="0.3" stroke-miterlimit="10" stroke-linecap="round"/>
<path d="M480.832 520.689C492.113 490.079 489.862 455.382 474.932 429.922C469.007 446.158 466.187 463.144 466.433 479.885C466.704 499.109 473.173 514.22 480.832 520.689Z" fill="#A2C7EB"/>
<path d="M475.425 437.398C472.734 466.028 474.662 494.619 481.079 521.554" stroke="#DF141C" stroke-opacity="0.3" stroke-miterlimit="10" stroke-linecap="round"/>
<path d="M128.953 428.765C115.118 386.449 76.5094 352.258 31.5957 342.555C50.4787 379.163 84.7271 408.298 128.953 428.765Z" fill="#4A2D5E" fill-opacity="0.4"/>
<path d="M131.297 435.329C100.992 418.191 63.0213 414.412 30.1055 425.246C60.6357 440.496 96.8104 444.744 131.297 435.329Z" fill="#4A2D5E" fill-opacity="0.4"/>
<path d="M139.679 444.504C106.926 439.964 72.6273 448.038 46.0273 466.545C76.1902 477.509 112.377 470.399 139.679 444.504Z" fill="#4A2D5E" fill-opacity="0.4"/>
<path d="M149.893 464.552C117.458 464.417 85.568 479.832 66.5039 504.861C80.9391 507.754 96.2683 506.024 109.511 500.028C122.753 494.029 133.848 483.794 149.893 464.552Z" fill="#4A2D5E" fill-opacity="0.4"/>
<path d="M172.759 498.092C140.777 492.61 106.701 502.519 83.6406 524.014C97.4057 529.242 112.818 530.078 126.9 526.364C140.983 522.651 153.663 514.404 172.759 498.092Z" fill="#4A2D5E" fill-opacity="0.4"/>
<path d="M138.229 430.769C117.11 402.304 111.379 363.945 123.377 331.312C132.539 346.828 140.445 363.232 144.134 380.669C147.824 398.107 147.107 416.697 138.229 430.769Z" fill="#4A2D5E" fill-opacity="0.4"/>
<path d="M151.133 458.234C146.131 427.991 156.472 395.938 178.313 374.035C180.827 405.324 171.254 437.198 151.133 458.234Z" fill="#A2C7EB"/>
<path d="M41.4297 350.137C105.706 391.262 155.975 452.562 182.51 522.208" stroke="#DF141C" stroke-opacity="0.3" stroke-miterlimit="10" stroke-linecap="round"/>
<path d="M125.375 346.32C133.193 378.067 137.95 410.478 139.559 442.985" stroke="#DF141C" stroke-opacity="0.3" stroke-miterlimit="10" stroke-linecap="round"/>
<path d="M173.51 386.312C170.948 411.925 163.033 436.959 150.389 459.507" stroke="#DF141C" stroke-opacity="0.3" stroke-miterlimit="10" stroke-linecap="round"/>
<path d="M43.6348 425.984C73.1029 431.587 103.055 434.625 133.012 435.071" stroke="#DF141C" stroke-opacity="0.3" stroke-miterlimit="10" stroke-linecap="round"/>
<path d="M61.3945 464.03C88.5663 462.055 115.298 455.473 140.008 444.66" stroke="#DF141C" stroke-opacity="0.3" stroke-miterlimit="10" stroke-linecap="round"/>
<path d="M77.6719 500.292C102.744 487.786 127.819 475.264 152.891 462.758" stroke="#DF141C" stroke-opacity="0.3" stroke-miterlimit="10" stroke-linecap="round"/>
<path d="M93.9785 522.377C126.713 516.061 136.439 508.524 172.771 498.094" stroke="#DF141C" stroke-opacity="0.3" stroke-miterlimit="10" stroke-linecap="round"/>
<path d="M301.218 462.422C301.218 462.422 304.051 488.387 307.221 490.469C312.887 494.208 378.479 502.85 378.479 502.85L376.331 519.914C376.331 519.914 286.496 527.987 282.679 523.498C276.055 515.71 264.412 478.14 264.412 478.14L301.218 462.422Z" fill="#FFB698"/>
<path d="M257.906 395.575L265.164 378.148C265.164 378.148 284.854 387.398 291.349 398.822C298.296 411.035 306.796 475.966 306.796 475.966C306.796 475.966 272.034 483.974 265.643 480.571C259.252 477.169 257.906 395.575 257.906 395.575Z" fill="#430672"/>
<path d="M202.624 314.691C197.54 312.828 192.158 311.198 186.711 311.612C181.265 312.026 175.702 314.911 173.852 319.697C172.532 323.087 173.14 327.085 171.058 330.138C169.065 333.061 165.107 334.278 161.407 334.523C157.694 334.782 153.955 334.291 150.268 334.769C138.883 336.283 130.759 348.651 134.497 358.78C135.985 362.817 139.038 366.672 138.34 370.877C137.602 375.379 132.88 378.341 130.94 382.52C128.365 388.083 131.444 394.823 136.528 398.614C141.613 402.391 148.224 403.827 154.64 404.785C163.476 406.104 172.597 406.725 181.33 404.862C190.062 402.999 198.407 398.394 202.922 391.201C204.927 388.018 206.143 384.422 208.472 381.433C213.284 375.262 221.81 372.869 228.524 368.496C235.86 363.697 241.241 354.356 236.92 347.047C232.755 340.022 221.913 338.456 217.566 331.535C215.768 328.676 215.341 325.273 214.177 322.156C212.987 319.025 210.141 317.446 202.624 314.691Z" fill="#0A2240"/>
<path d="M232.249 400.864C233.53 402.339 235.044 403.956 237.139 404.099C239.352 404.254 241.202 402.689 242.625 401.175C249.973 393.4 254.824 383.852 256.791 374.007C254.967 372.972 253.207 371.976 251.616 371.044C250.141 370.165 249.029 368.936 248.395 367.5C247.955 366.439 247.8 365.326 247.916 364.162C248.951 354.433 249.87 349.012 253.285 339.141C237.062 335.48 221.757 331.133 212.96 323.785C211.886 328.313 210.618 337.175 207.915 345.959C205.03 355.261 200.527 364.459 192.895 368.418C207.876 377.267 221.24 388.264 232.249 400.864Z" fill="#F9A07B"/>
<path d="M247.916 364.174C247.799 365.338 247.954 366.463 248.394 367.511C238.795 379.155 217.332 363.941 207.914 345.971C210.618 337.187 211.886 328.325 212.96 323.797C221.744 331.145 237.061 335.505 253.284 339.153C249.869 349.024 248.951 354.432 247.916 364.174Z" fill="#E06A58"/>
<path d="M274.644 504.933C272.522 518.982 287.684 534.106 288.06 541.609C255.859 541.609 188.405 543.576 154.057 538.905C152.492 530.237 169.452 510.741 169.452 491.491C169.452 488.942 169.349 486.148 169.142 483.146C168.598 474.556 167.331 464.336 165.92 453.857C162.091 425.745 156.994 395.679 160.759 389.443C168.133 377.295 185.378 369.041 193.929 365.496C196.866 364.28 198.781 363.621 198.923 363.543C209.648 381.836 231.473 397.438 239.714 396.74C242.004 396.558 248.796 394.191 253.285 371.59C255.031 372.586 256.778 373.505 258.511 374.397C267.037 378.835 275.032 382.496 277.335 388.201C283.415 403.221 289.379 441.088 288.06 454.555C286.727 468.139 281.268 478.515 277.438 492.151C276.546 495.346 275.731 498.736 275.071 502.384C274.903 503.199 274.773 504.053 274.644 504.933Z" fill="#6200EA"/>
<path d="M288.06 541.609C255.859 541.609 188.405 543.575 154.057 538.905C152.492 530.237 169.452 510.741 169.452 491.491C169.452 488.942 169.349 486.148 169.142 483.146C168.598 474.556 167.331 464.336 165.92 453.857C172.014 460.286 180.902 433.118 184.835 441.075C206.116 484.026 222.895 495.32 252.056 495.32C260.749 495.32 268.77 494.117 277.438 492.15C276.546 495.346 275.731 498.735 275.071 502.384C274.916 503.212 274.773 504.065 274.644 504.945C272.522 518.969 287.684 534.092 288.06 541.609Z" fill="#430672"/>
<path d="M258.51 374.397C257.125 384.449 253.024 397.994 241.096 401.565C224.977 406.391 201.651 376.273 193.928 365.496C196.864 364.28 198.779 363.621 198.921 363.543C209.646 381.836 231.471 397.438 239.712 396.74C242.002 396.558 248.794 394.191 253.283 371.59C255.03 372.573 256.776 373.492 258.51 374.397Z" fill="#430672"/>
<path d="M265.134 526.482L265.018 537.699L465.543 538.889L465.957 526.172L265.134 526.482Z" fill="#CBCBCB"/>
<path d="M552.453 426.415L547.99 421.887L401.93 420.93L328.654 526.897L332.484 529.977L552.453 426.415Z" fill="#CBCBCB"/>
<path d="M404.751 424.852L332.484 529.978L470.523 530.664L552.454 426.417L404.751 424.852Z" fill="#667085"/>
<path d="M446.5 496C451.747 496 456 491.747 456 486.5C456 481.253 451.747 477 446.5 477C441.253 477 437 481.253 437 486.5C437 491.747 441.253 496 446.5 496Z" fill="white"/>
<path d="M268.102 321.076C270.379 308.86 278.754 300.176 286.812 301.676C294.869 303.178 299.555 314.297 297.278 326.512C295.001 338.727 286.625 347.412 278.568 345.911C270.512 344.41 265.826 333.291 268.102 321.076Z" fill="#3F10AC"/>
<path d="M297.3 288.172C295.8 298.806 291.052 310.527 284.13 323.477C281.698 312.868 280.146 299.944 277.998 287.02C275.812 274.07 273.03 261.12 268.205 250.538C267.118 248.196 265.941 245.958 264.66 243.888C267.519 243.616 270.417 243.888 273.173 244.651C277.481 245.803 281.517 248.028 284.816 251.003C290.301 255.881 293.976 262.53 296.162 269.542C297.96 275.364 298.284 281.548 297.3 288.172Z" fill="#0B2D50"/>
<path d="M289.172 299.167C289.094 301.262 288.952 303.397 288.758 305.519C285.808 339.931 271.357 363.542 249.248 363.542C218.031 363.542 197.797 328.534 197.797 294.237C197.797 260.407 218.522 235.917 242.779 238.75C256.764 240.354 266.984 244.999 274.242 251.804C279.042 256.332 282.509 261.804 284.876 268.027C287.58 275 288.887 282.892 289.159 291.391C289.159 291.417 289.185 291.443 289.185 291.469C289.288 293.979 289.262 296.54 289.172 299.167Z" fill="#F9A07B"/>
<path d="M289.173 299.167C288.242 295.842 286.857 292.595 284.968 289.684C266.559 299.309 244.618 303.022 223.815 299.503C219.856 302.802 215.988 306.05 212.094 309.297C212.171 293.643 212.391 283.047 218.498 275.466C224.229 268.351 233.789 265.673 242.845 264.509C253.04 263.176 263.402 263.228 273.571 264.703C277.465 265.246 281.501 266.087 284.891 268.053C287.595 275.026 288.901 282.918 289.173 291.418C289.173 291.444 289.199 291.469 289.199 291.495C289.289 293.979 289.264 296.541 289.173 299.167Z" fill="#E06A58"/>
<path d="M293.676 277.975C289.394 281.597 284.025 284.599 277.996 287.031C260.842 293.952 238.551 296.242 221.176 295.401C212.638 314.16 209.184 320.887 206.997 337.253C198.653 329.426 191.861 315.091 189.843 303.823C187.85 292.594 188.045 280.808 191.175 269.773C196.104 252.372 208.537 243.058 217.153 238.53C219.301 237.352 221.241 236.537 222.742 235.942C233.751 231.686 246.158 232.074 257.452 235.528C263.61 237.443 268.798 240.677 273.158 244.662C281.968 252.618 287.414 263.395 290.933 271.467C292.046 273.938 292.939 276.177 293.676 277.975Z" fill="#0B2D50"/>
<path d="M297.297 288.17C296.586 284.406 295.525 280.758 294.024 277.239C293.183 275.246 292.148 273.319 290.945 271.456C287.025 265.298 281.32 260.226 274.424 257.988C272.458 255.233 270.388 252.749 268.215 250.549C260.388 242.593 251.202 238.039 241.474 236.448C233.375 235.141 224.953 235.879 217.178 238.518C219.325 237.341 221.266 236.526 222.767 235.93C233.776 231.674 246.183 232.062 257.477 235.516C263.635 237.431 268.823 240.665 273.182 244.65C277.49 245.801 281.527 248.027 284.826 251.002C290.311 255.879 293.985 262.529 296.172 269.541C297.957 275.363 298.28 281.547 297.297 288.17Z" fill="#225570"/>
<path d="M231.125 309.273C236.895 305.974 242.885 304.486 251.281 307.552" stroke="#0B2D50" stroke-width="2" stroke-miterlimit="10" stroke-linecap="round"/>
<path d="M270.633 309.041C275.575 305.353 282.897 304.978 286.714 309.041" stroke="#0B2D50" stroke-width="2" stroke-miterlimit="10" stroke-linecap="round"/>
<path d="M264.671 327.852C265.176 330.465 264.904 336.248 263.662 338.848" stroke="#CC454E" stroke-width="2" stroke-miterlimit="10" stroke-linecap="round"/>
<path d="M245.173 329.609C246.488 329.609 247.554 327.929 247.554 325.857C247.554 323.785 246.488 322.105 245.173 322.105C243.859 322.105 242.793 323.785 242.793 325.857C242.793 327.929 243.859 329.609 245.173 329.609Z" fill="#262D40"/>
<path d="M276.289 327.863C277.603 327.863 278.669 326.183 278.669 324.111C278.669 322.039 277.603 320.359 276.289 320.359C274.974 320.359 273.908 322.039 273.908 324.111C273.908 326.183 274.974 327.863 276.289 327.863Z" fill="#262D40"/>
<path d="M261.722 343.957C261.722 343.957 261.256 344.862 260.364 346.091C258.966 347.967 256.586 350.555 253.339 351.564H253.326C251.954 352.003 250.467 352.159 248.811 351.861C243.946 350.994 242.666 346.505 242.433 343.051C242.381 342.378 242.381 341.757 242.394 341.188C242.42 339.791 242.575 338.859 242.575 338.859C250.324 343.129 261.722 343.957 261.722 343.957Z" fill="#CC454E"/>
<path d="M261.723 343.957C261.723 343.957 261.257 344.862 260.364 346.091C256.405 346.039 248.307 344.008 242.395 341.188C242.42 339.791 242.576 338.859 242.576 338.859C250.325 343.129 261.723 343.957 261.723 343.957Z" fill="white"/>
<path d="M253.325 351.552C251.953 351.992 250.466 352.147 248.81 351.849C243.945 350.982 242.665 346.493 242.432 343.039C244.786 343.324 247.063 344.229 248.952 345.665C250.931 347.179 252.445 349.236 253.325 351.552Z" fill="#E8729B"/>
<path d="M207.076 303.331C207.076 303.331 206.805 287.198 213.519 271.169C221.941 251.052 239.108 242.449 255.759 241.867C275.824 241.155 288.386 254.623 288.386 254.623C288.386 254.623 281.853 243.096 268.967 239.784C260.506 237.61 247.738 237.261 237.491 241.427C226.935 245.709 213.778 257.598 209.017 270.16C204.269 282.722 201.953 302.283 201.953 302.283L207.076 303.331Z" fill="#6200EA"/>
<path d="M206.731 345.323C215.323 344.429 221.19 333.152 219.837 320.134C218.484 307.116 210.422 297.286 201.83 298.18C193.238 299.073 187.371 310.35 188.724 323.368C190.077 336.387 198.139 346.216 206.731 345.323Z" fill="#3F10AC"/>
<path d="M197.476 305.815C203.022 304.982 208.708 312.217 210.174 321.974C211.639 331.731 208.333 340.317 202.785 341.15C197.239 341.984 191.553 334.749 190.088 324.992C188.622 315.235 191.93 306.648 197.476 305.815Z" fill="#6200EA"/>
<path d="M255.886 364.02C260.488 364.02 264.218 361.697 264.218 358.832C264.218 355.967 260.488 353.645 255.886 353.645C251.285 353.645 247.555 355.967 247.555 358.832C247.555 361.697 251.285 364.02 255.886 364.02Z" fill="#6B04EE"/>
<path d="M214.035 341.484C214.035 341.484 226.274 357.216 247.555 358.833" stroke="#6B04EE" stroke-width="2" stroke-miterlimit="10" stroke-linecap="round"/>
<path d="M265.021 496.534L264.219 517.22C264.219 517.22 189.403 539.64 177.049 532.551C171.02 529.083 165.392 510.014 161.188 491.398C156.789 471.837 153.969 452.793 153.969 452.793L197.826 444.203C197.826 444.203 197.851 470.944 199.339 486.404C199.87 492.161 200.633 496.353 201.655 497.038C205.523 499.587 265.021 496.534 265.021 496.534Z" fill="#F9A07B"/>
<path d="M199.339 486.379C191.37 488.967 175.988 492.964 161.188 491.386C156.789 471.825 153.969 452.782 153.969 452.782L197.826 444.191C197.826 444.178 197.851 470.919 199.339 486.379Z" fill="#F9A07B"/>
<path d="M262.888 496.743C274.014 494.362 292.85 488.644 300.664 486.678C306.214 485.28 320.665 492.758 324.481 499.809C326.15 502.888 327.729 520.327 321.946 518.529C319.048 517.623 319.527 510.146 318.621 507.092C317.884 504.608 315.529 502.202 311.945 500.132C314.339 506.096 314.248 511.297 313.99 517.74C313.938 519.163 313.847 520.65 313.162 521.879C312.463 523.108 310.962 523.988 309.669 523.445C308.349 522.901 307.896 521.258 307.599 519.822C306.577 514.855 305.542 509.887 305.128 504.272C305.231 509.796 305.115 515.333 304.765 520.845C304.507 525.062 302.411 527.378 299.836 526.64C298.685 526.317 298.219 525.256 297.728 523.859C296.951 526.563 295.011 529.551 292.501 528.413C290.974 527.727 290.03 522.216 290.302 516.549C285.489 519.538 280.056 520.806 273.794 521.09C268.179 521.349 262.435 520.301 259.059 516.485C259.395 510.521 261.361 501.698 262.888 496.743Z" fill="#F9A07B"/>
<path d="M297.845 523.006C298.22 518.53 297.832 513.989 296.693 509.668" stroke="#CC454E" stroke-miterlimit="10" stroke-linecap="round"/>
<path d="M192.895 400.814C189.712 391.849 178.056 373.504 178.056 373.504C178.056 373.504 160.267 380.904 153.954 393.466C143.268 414.734 148.702 475.798 148.702 475.798C163.101 481.826 192.002 481.917 204.305 480.183C204.305 480.183 199.273 418.732 192.895 400.814Z" fill="#430672"/>
<path d="M195.16 404.566C200.012 427.788 202.612 449.445 203.44 470.662" stroke="white" stroke-opacity="0.39" stroke-miterlimit="10" stroke-linecap="round"/>
<path d="M575.896 535.203H65.8125V547.998H575.896V535.203Z" fill="#667085"/>
</svg>
