<svg width="16" height="16" viewBox="0 0 16 16" fill="none" xmlns="http://www.w3.org/2000/svg">
<path fill-rule="evenodd" clip-rule="evenodd" d="M14.6965 0.223987C14.6257 0.152979 14.5415 0.0966489 14.4489 0.0582156C14.3563 0.0197823 14.257 0 14.1568 0C14.0565 0 13.9572 0.0197823 13.8646 0.0582156C13.772 0.0966489 13.6878 0.152979 13.617 0.223987L12.9517 0.889944C12.5244 0.685846 12.0444 0.619362 11.5778 0.699647C11.1112 0.779932 10.681 1.00304 10.3463 1.33824L2.25391 9.43818L6.5698 13.7585L14.663 5.6578C15.3679 4.9529 15.5167 3.90126 15.11 3.05049L15.7761 2.38377C15.9191 2.24055 15.9994 2.04633 15.9994 1.84382C15.9994 1.64131 15.9191 1.44709 15.7761 1.30388L14.6965 0.223987ZM11.4403 6.72318L6.5698 11.5987L4.41223 9.43818L9.28201 4.5634L11.4403 6.72395V6.72318ZM12.8273 5.33475L13.5827 4.57868C13.6536 4.50775 13.7099 4.42352 13.7483 4.33081C13.7866 4.23809 13.8064 4.13871 13.8064 4.03835C13.8064 3.93799 13.7866 3.83861 13.7483 3.74589C13.7099 3.65318 13.6536 3.56895 13.5827 3.49802L12.5046 2.41813C12.4338 2.34713 12.3496 2.2908 12.257 2.25236C12.1644 2.21393 12.0651 2.19415 11.9649 2.19415C11.8646 2.19415 11.7653 2.21393 11.6727 2.25236C11.5801 2.2908 11.4959 2.34713 11.4251 2.41813L10.6698 3.17421L12.8273 5.33552V5.33475Z" fill="#00A551"/>
<path d="M0 16.0007L1.61894 10.0605L5.93407 14.3809L0 16.0007Z" fill="#00A551"/>
</svg>
