<svg width="16" height="18" viewBox="0 0 16 18" fill="none" xmlns="http://www.w3.org/2000/svg">
<path d="M15.9987 17.9994H14.6654V11.5709H6.66536V17.9994H5.33203V11.5709C5.33238 11.23 5.47297 10.9032 5.72295 10.6621C5.97292 10.4211 6.31185 10.2855 6.66536 10.2852H14.6654C15.0189 10.2855 15.3578 10.4211 15.6078 10.6621C15.8578 10.9032 15.9983 11.23 15.9987 11.5709V17.9994Z" fill="#00A551"/>
<path d="M2.11333 8.99897L0 11.0368L0.940667 11.949L4 8.99897L0.946667 6.05469L0 6.96112L2.11333 8.99897Z" fill="#00A551"/>
<path d="M14.6654 7.71429H6.66536C6.31185 7.71395 5.97292 7.57838 5.72295 7.33733C5.47297 7.09629 5.33238 6.76946 5.33203 6.42857V0H6.66536V6.42857H14.6654V0H15.9987V6.42857C15.9983 6.76946 15.8578 7.09629 15.6078 7.33733C15.3578 7.57838 15.0189 7.71395 14.6654 7.71429Z" fill="#00A551"/>
</svg>
