<svg width="19" height="12" viewBox="0 0 19 12" fill="none" xmlns="http://www.w3.org/2000/svg">
<path d="M3.48933 0.00840087C2.63933 0.00840087 1.77639 0.339846 1.63264 0.521096C1.59514 0.596096 1.50817 1.20225 1.71442 1.20225C1.78317 1.20225 1.81472 1.21421 2.01472 1.12046C2.76472 0.826711 3.23991 0.833596 3.30866 0.833596C4.15241 0.752346 4.63977 1.32764 4.56476 2.07139V2.5084C3.85227 2.33965 3.44518 2.33384 3.24518 2.33384C2.20768 2.27134 1.24934 2.81835 1.24934 4.02085C1.24934 5.3396 2.42639 5.62163 2.88264 5.60288C3.56389 5.60913 4.21408 5.30283 4.64533 4.77158C4.98908 5.54033 5.20793 5.48936 5.21418 5.48936C5.27668 5.48936 5.32653 5.46446 5.37653 5.43321L5.73298 5.18296C5.79548 5.14546 5.84514 5.0834 5.85139 5.0084C5.84514 4.82715 5.51999 4.5459 5.54499 3.91465V1.96519C5.58249 1.42769 5.40822 0.901711 5.04572 0.495461C4.61447 0.132961 4.04558 -0.0415991 3.48933 0.00840087ZM15.5975 0.00840087C14.3475 0.00840087 13.6293 0.789358 13.648 1.58311C13.648 2.67061 14.7474 3.01533 14.8724 3.05283C15.9286 3.38408 16.0728 3.3961 16.3665 3.6461C16.6165 3.90235 16.5851 4.40269 16.2164 4.62144C16.1101 4.68394 15.6534 4.95845 14.6221 4.74595C14.2784 4.6772 14.0977 4.59615 13.8165 4.4774C13.7415 4.45239 13.5662 4.4085 13.5662 4.63975V4.94615C13.5662 5.0899 13.6535 5.22056 13.7847 5.28306C14.441 5.61431 15.2285 5.6273 15.3973 5.6273C15.4223 5.6273 16.8594 5.62806 17.3406 4.65806C17.44 4.45806 17.6974 3.72788 17.2161 3.10288C16.8161 2.63413 16.4723 2.58408 15.4473 2.27158C15.3598 2.24658 14.6037 2.0521 14.6099 1.52085C14.5724 0.839603 15.4977 0.802786 15.6915 0.815286C16.4727 0.802786 16.8596 1.09561 17.0721 1.11436C17.1658 1.11436 17.21 1.05869 17.21 0.933694V0.645608C17.2163 0.576858 17.1914 0.508987 17.1539 0.452737C16.9039 0.127737 15.9475 0.00840087 15.5975 0.00840087ZM6.11018 0.164651C6.04143 0.177151 5.99147 0.246047 6.00397 0.314797C6.01647 0.396047 6.02888 0.477688 6.06013 0.558938L7.46027 5.17686C7.49152 5.32686 7.59064 5.48994 7.80939 5.46494H8.32209C8.63459 5.49619 8.67839 5.1959 8.68464 5.16465L9.60383 1.31455L10.5352 5.17075C10.5415 5.202 10.5854 5.5023 10.8917 5.47105H11.4105C11.6355 5.49605 11.7418 5.33296 11.773 5.18296C13.348 0.114211 13.2412 0.458791 13.2537 0.408791C13.2787 0.146291 13.1286 0.164504 13.1036 0.170754H12.5469C12.2657 0.139504 12.2103 0.39634 12.1978 0.45884L11.1602 4.46519L10.2227 0.45884C10.179 0.15259 9.92878 0.164504 9.86628 0.170754H9.38532C9.11032 0.145754 9.04152 0.36509 9.02277 0.45884L8.09138 4.40904L7.09162 0.45884C7.06662 0.33384 6.98503 0.139651 6.74128 0.164651H6.11018ZM3.45148 3.05894C3.90148 3.06519 4.28991 3.13316 4.55866 3.19566C4.55866 3.50816 4.57004 3.68345 4.50129 3.9647C4.41379 4.2647 4.02707 4.80913 3.11457 4.82163C2.58957 4.84663 2.24592 4.43345 2.27717 3.9647C2.24592 3.2147 3.02023 3.02769 3.45148 3.05894ZM17.525 6.87852C16.9416 6.88664 16.253 7.01733 15.7305 7.38389C15.5693 7.49576 15.5975 7.6511 15.7769 7.63047C16.3644 7.55985 17.6721 7.4013 17.9058 7.70005C18.1402 7.9988 17.6467 9.23132 17.4285 9.78257C17.361 9.94695 17.5037 10.015 17.6544 9.88999C18.6319 9.07124 18.8859 7.35489 18.6859 7.10801C18.5855 6.98457 18.1083 6.87039 17.525 6.87852ZM0.134834 7.50352C-0.00145557 7.52227 -0.0601567 7.69501 0.0823433 7.83189C2.53047 10.1281 5.76537 11.2523 9.35725 11.2523C11.9191 11.2523 14.8932 10.4164 16.9464 8.84141C17.2857 8.57953 16.9966 8.18714 16.6485 8.34214C14.3466 9.35777 11.8465 9.84727 9.57087 9.84727C6.19837 9.84727 2.93355 9.14318 0.292304 7.5438C0.234492 7.5088 0.180263 7.49727 0.134834 7.50352Z" fill="#00A551"/>
</svg>
