<svg width="40" height="40" viewBox="0 0 40 40" fill="none" xmlns="http://www.w3.org/2000/svg">
<g clip-path="url(#clip0_1_453)">
<path d="M0 34.6863C0.321839 33.5658 0.586941 32.4229 0.978234 31.3289C1.83437 28.9741 3.13636 26.8065 4.81291 24.9448C7.11553 22.3356 10.0543 20.3671 13.3431 19.2311C13.4253 19.2027 13.5016 19.1597 13.6112 19.1098C10.8721 16.9061 9.39594 14.081 9.39007 10.5818C9.39007 7.67939 10.4515 5.16355 12.5028 3.10665C16.6329 -1.03358 23.236 -1.02575 27.4786 3.07142C31.4825 6.93765 32.1741 14.6408 26.4241 19.1098C27.1587 19.4151 27.8914 19.7038 28.6153 20.0237C29.3392 20.3437 29.7227 21.0463 29.5818 21.7548C29.3862 22.7529 28.4021 23.2676 27.4248 22.9056C26.3663 22.5141 25.3226 22.0532 24.2328 21.7783C20.0548 20.7224 16.0215 21.1911 12.1829 23.1482C8.85693 24.8441 6.35559 27.3892 4.64368 30.7026C3.96118 32.0354 3.46451 33.4554 3.16752 34.9231C3.11988 35.1368 3.11692 35.3582 3.15884 35.5731C3.20076 35.7881 3.28665 35.9921 3.41111 36.1723C3.53558 36.3524 3.69593 36.5049 3.88212 36.6202C4.0683 36.7355 4.27629 36.811 4.49303 36.842C4.68748 36.8687 4.88377 36.8795 5.07997 36.8743C11.2898 36.8743 17.4996 36.8766 23.7095 36.8811C23.9947 36.87 24.2798 36.9087 24.5517 36.9956C25.168 37.2266 25.4996 37.708 25.5446 38.3656C25.561 38.6732 25.4844 38.9786 25.325 39.2421C25.1655 39.5056 24.9305 39.715 24.6505 39.8432C24.5341 39.899 24.4157 39.9469 24.2974 39.9988H4.14087C4.08554 39.9688 4.02717 39.9449 3.96674 39.9273C2.43385 39.6543 1.28148 38.8333 0.565416 37.4585C0.306184 36.9614 0.183908 36.3928 0 35.8576V34.6863ZM19.9951 3.11839C15.867 3.11839 12.4911 6.50807 12.5018 10.6336C12.5116 14.812 15.8895 18.1185 20.1428 18.1136C24.1399 18.1087 27.4991 14.6887 27.5001 10.6229C27.4947 8.63371 26.7022 6.72762 25.2958 5.32135C23.8894 3.91508 21.9836 3.12304 19.9951 3.11839Z" fill="white"/>
<path d="M32.2662 39.9999C31.3319 39.6809 30.9778 39.0214 31.0062 38.0497C31.0453 36.7629 31.016 35.4751 31.016 34.1355H30.5758C29.3383 34.1355 28.1018 34.1355 26.8643 34.1355C25.8665 34.1355 25.1691 33.4955 25.1593 32.5904C25.1495 31.6696 25.8538 31.0149 26.8692 31.012C28.2388 31.012 29.6005 31.012 31.016 31.012V30.5736C31.016 29.3367 31.016 28.0989 31.016 26.862C31.016 25.8472 31.6763 25.1427 32.5968 25.1534C33.5017 25.1652 34.1365 25.8619 34.1395 26.862C34.1395 28.2319 34.1395 29.5931 34.1395 31.012H34.5748C35.8123 31.012 37.0487 31.012 38.2862 31.012C39.3016 31.012 40.0059 31.6696 39.9962 32.5904C39.9864 33.4955 39.2889 34.1316 38.2911 34.1355C36.9216 34.1355 35.5599 34.1355 34.1395 34.1355V34.568C34.1395 35.7276 34.1101 36.8872 34.1483 38.0458C34.1806 39.0136 33.8235 39.677 32.8893 39.996L32.2662 39.9999Z" fill="white"/>
</g>
<defs>
<clipPath id="clip0_1_453">
<rect width="40" height="40" fill="white"/>
</clipPath>
</defs>
</svg>
