<svg width="37" height="29" viewBox="0 0 37 29" fill="none" xmlns="http://www.w3.org/2000/svg">
<path fill-rule="evenodd" clip-rule="evenodd" d="M18.8123 18.0237L19.0005 18.0237L19.4215 18.0251C22.6391 18.0463 29.9923 18.3714 29.9923 23.3553C29.9923 28.3066 22.8954 28.6295 19.4716 28.6505L18.2031 28.6505C14.9853 28.6293 7.63064 28.3047 7.63064 23.327C7.63064 18.3695 14.9853 18.0462 18.2031 18.0251L18.6241 18.0237C18.6894 18.0237 18.7522 18.0237 18.8123 18.0237ZM18.8123 20.5237C14.8523 20.5237 10.1306 21.0103 10.1306 23.327C10.1306 25.5912 14.5705 26.1206 18.4504 26.1506L18.8123 26.152C22.7723 26.152 27.4923 25.667 27.4923 23.3553C27.4923 21.0153 22.7723 20.5237 18.8123 20.5237ZM32.0683 17.3473C36.1066 17.9523 36.955 19.849 36.955 21.334C36.955 22.2407 36.5983 23.8957 34.215 24.804C34.0683 24.859 33.9183 24.8857 33.77 24.8857C33.2666 24.8857 32.7916 24.579 32.6016 24.0807C32.355 23.4357 32.68 22.7123 33.325 22.4673C34.455 22.0373 34.455 21.5623 34.455 21.334C34.455 20.604 33.5266 20.094 31.6966 19.8207C31.015 19.7173 30.5433 19.0823 30.645 18.3973C30.7466 17.714 31.38 17.259 32.0683 17.3473ZM6.97797 18.3973C7.07964 19.0823 6.60797 19.7173 5.9263 19.8207C4.0963 20.094 3.16797 20.604 3.16797 21.334C3.16797 21.5623 3.16797 22.0357 4.29964 22.4673C4.94464 22.7123 5.26964 23.4357 5.02297 24.0807C4.83297 24.579 4.35797 24.8857 3.85464 24.8857C3.7063 24.8857 3.5563 24.859 3.40964 24.804C1.02464 23.894 0.667969 22.239 0.667969 21.334C0.667969 19.8507 1.5163 17.9523 5.5563 17.3473C6.24464 17.2607 6.87464 17.714 6.97797 18.3973ZM18.8123 0.666992C23.0123 0.666992 26.4273 4.08366 26.4273 8.28199C26.4273 12.4803 23.0123 15.897 18.8123 15.897H18.7673C16.734 15.8903 14.829 15.0937 13.4023 13.6537C11.9723 12.2153 11.1906 10.3053 11.1989 8.27699C11.1989 4.08366 14.614 0.666992 18.8123 0.666992ZM18.8123 3.16699C15.9923 3.16699 13.6989 5.46199 13.6989 8.28199C13.694 9.64866 14.2173 10.927 15.1756 11.892C16.134 12.857 17.4106 13.392 18.7706 13.397L18.8123 14.647V13.397C21.6323 13.397 23.9273 11.1037 23.9273 8.28199C23.9273 5.46199 21.6323 3.16699 18.8123 3.16699ZM29.1273 2.29949C32.0573 2.78116 34.1856 5.28783 34.1856 8.25949C34.179 11.2512 31.944 13.8178 28.9856 14.2328C28.9273 14.2412 28.869 14.2445 28.8123 14.2445C28.199 14.2445 27.664 13.7928 27.5756 13.1678C27.4806 12.4828 27.9556 11.8512 28.6406 11.7562C30.374 11.5128 31.6823 10.0095 31.6856 8.25616C31.6856 6.51783 30.439 5.04783 28.7206 4.76616C28.0406 4.65449 27.579 4.01116 27.6906 3.32949C27.804 2.64783 28.4423 2.19116 29.1273 2.29949ZM9.93397 3.32949C10.0456 4.01116 9.58397 4.65449 8.90397 4.76616C7.18563 5.04783 5.93897 6.51783 5.93897 8.25949C5.9423 10.0095 7.25063 11.5145 8.9823 11.7562C9.6673 11.8512 10.1423 12.4828 10.0473 13.1678C9.95897 13.7928 9.42397 14.2445 8.81064 14.2445C8.75397 14.2445 8.69564 14.2412 8.6373 14.2328C5.67897 13.8178 3.44564 11.2512 3.43897 8.26283C3.43897 5.28783 5.5673 2.78116 8.4973 2.29949C9.19897 2.18949 9.82063 2.65116 9.93397 3.32949Z" fill="white"/>
</svg>
