<svg width="40" height="40" viewBox="0 0 40 40" fill="none" xmlns="http://www.w3.org/2000/svg">
<path fill-rule="evenodd" clip-rule="evenodd" d="M20.8056 0.59375C22.9989 0.59375 34.5077 4.54487 36.0312 6.0684C37.3012 7.33833 37.2818 8.36435 37.1928 13.2815C37.1579 15.2522 37.1095 17.9372 37.1095 21.6541C37.1095 34.9768 21.8742 39.7429 21.2257 39.9384C21.0882 39.981 20.9469 40.0004 20.8056 40.0004C20.6643 40.0004 20.523 39.981 20.3855 39.9384C19.737 39.7429 4.50167 34.9768 4.50167 21.6541C4.50167 17.9431 4.45327 15.258 4.41842 13.2873C4.40252 12.4082 4.38884 11.6533 4.38434 10.9992L4.38379 10.2611C4.4004 7.8361 4.62798 7.02085 5.58188 6.0684C7.10154 4.54487 18.6103 0.59375 20.8056 0.59375ZM20.8056 3.49756C19.164 3.49756 8.80705 7.14475 7.61261 8.14172C7.26029 8.49599 7.24673 9.11159 7.32223 13.2331C7.35708 15.2193 7.40548 17.9179 7.40548 21.6541C7.40548 31.7226 18.4825 36.1925 20.8037 37.0153C23.1228 36.1887 34.2057 31.6936 34.2057 21.6541C34.2057 17.914 34.2541 15.2135 34.2909 13.2273C34.3645 9.10966 34.3509 8.49405 33.9773 8.12236C32.8061 7.14475 22.4472 3.49756 20.8056 3.49756ZM28.0099 14.8021C28.5772 15.3693 28.5772 16.2888 28.0099 16.8561L20.4639 24.404C20.2471 24.6224 19.9671 24.7639 19.6665 24.8118L19.4379 24.8299C19.0527 24.8299 18.6829 24.677 18.41 24.404L14.7473 20.7375C14.182 20.1703 14.182 19.2488 14.7492 18.6835C15.3145 18.1163 16.236 18.1163 16.8032 18.6835L19.4379 21.3221L25.9579 14.8021C26.5251 14.2349 27.4427 14.2349 28.0099 14.8021Z" fill="white"/>
</svg>
