<svg width="40" height="40" viewBox="0 0 40 40" fill="none" xmlns="http://www.w3.org/2000/svg">
<path d="M35.9427 27.1025V27.3496C35.9427 31.6153 32.473 35.0866 28.2075 35.0866H12.8585C8.59291 35.0866 5.12152 31.6152 5.12152 27.3496V14.6056C5.12152 10.34 8.59291 6.86859 12.8585 6.86859H28.2075C32.3983 6.86859 35.8209 10.2194 35.9395 14.3823L30.3366 14.3833H30.3366C26.8284 14.3851 23.9748 17.2386 23.9748 20.7469V20.7471C23.9767 24.2518 26.8303 27.1035 30.3367 27.1035H30.3367L35.9427 27.1025ZM39.1062 14.6056C39.1062 8.59361 34.2177 3.70508 28.2075 3.70508H12.8585C6.84831 3.70508 1.95801 8.59355 1.95801 14.6056V27.3496C1.95801 33.3599 6.84828 38.2501 12.8585 38.2501H28.2075C34.2178 38.2501 39.1062 33.3598 39.1062 27.3496V14.6056ZM27.1383 20.7452C27.1383 18.9834 28.5729 17.5485 30.3369 17.5468L35.9427 17.5458V23.939L30.3367 23.94C30.3367 23.94 30.3367 23.94 30.3366 23.94C28.5745 23.94 27.1383 22.505 27.1383 20.7452ZM32.731 20.6351C32.731 19.7619 32.0224 19.0533 31.1492 19.0533H30.5952C29.722 19.0533 29.0135 19.7619 29.0135 20.6351C29.0135 21.5083 29.722 22.2168 30.5952 22.2168H31.1492C32.0224 22.2168 32.731 21.5083 32.731 20.6351ZM22.7629 13.345C22.7629 12.4718 22.0543 11.7633 21.1811 11.7633H11.5942C10.721 11.7633 10.0125 12.4718 10.0125 13.345C10.0125 14.2182 10.721 14.9268 11.5942 14.9268H21.1811C22.0543 14.9268 22.7629 14.2182 22.7629 13.345Z" fill="white" stroke="#FFB023" stroke-width="0.5"/>
</svg>
