<svg width="66" height="66" viewBox="0 0 66 66" fill="none" xmlns="http://www.w3.org/2000/svg">
<rect x="3" y="3" width="60" height="60" rx="30" fill="#C7F1DC"/>
<rect x="3" y="3" width="60" height="60" rx="30" stroke="#E4FFF2" stroke-width="6"/>
<g clip-path="url(#clip0_1770_196)">
<path d="M41.3396 32.2766V32.6707C41.3396 34.4565 41.3342 36.2414 41.345 38.0264C41.345 38.2571 41.2637 38.3397 41.0557 38.424C40.5971 38.6066 40.151 38.8183 39.7204 39.0577C38.1771 39.9267 36.6464 40.8178 35.104 41.6877C34.9232 41.7888 34.6989 41.811 34.5055 41.8652C34.4874 41.4666 34.5254 41.1285 34.4431 40.8205C34.3686 40.5098 34.217 40.222 34.0019 39.9826C33.7623 39.7385 33.7026 39.4998 33.7081 39.1838C33.7225 38.3308 33.7153 37.477 33.7081 36.6231C33.7081 36.2272 33.5842 36.0994 33.1891 36.0968C32.3778 36.0909 31.5662 36.0909 30.7543 36.0968C30.3601 36.0968 30.2363 36.2299 30.2354 36.6231C30.2354 37.2657 30.2354 37.9074 30.2354 38.5944C30.0546 38.5403 29.9 38.4986 29.7481 38.4462C29.2716 38.2811 28.7988 38.1009 28.3178 37.95C28.0926 37.8799 28.0059 37.7832 28.0086 37.5364C28.0212 35.9175 28.0149 34.2985 28.0149 32.6796V32.2704H27.0267C26.7826 32.2704 26.5747 32.2118 26.5077 31.9455C26.4408 31.6793 26.5982 31.5364 26.817 31.4281C29.3665 30.1855 31.9167 28.9429 34.4675 27.7002C34.5355 27.673 34.6084 27.6594 34.6818 27.6602C34.7552 27.6609 34.8277 27.6761 34.8951 27.7047C37.4387 28.9366 39.9783 30.1751 42.5141 31.4201C42.7491 31.5355 42.9101 31.6864 42.8341 31.9633C42.7582 32.2402 42.5448 32.274 42.3043 32.2731L41.3396 32.2766ZM37.518 33.4092C37.0343 33.4092 36.5497 33.4092 36.066 33.4092C35.6817 33.4092 35.547 33.5308 35.5416 33.8947C35.5331 34.4598 35.5331 35.0249 35.5416 35.59C35.547 35.9317 35.6962 36.0799 36.0388 36.0817C37.0334 36.0879 38.0206 36.0817 39.0115 36.0817C39.3271 36.0817 39.497 35.9201 39.5016 35.6139C39.5079 35.0263 39.5088 34.4397 39.5016 33.853C39.5016 33.5423 39.328 33.3967 39.0052 33.403C38.5098 33.4163 38.0134 33.4092 37.518 33.4092Z" fill="#00BA5B"/>
<path d="M42.4539 21.0342C43.188 22.3114 43.9637 23.6596 44.7467 25.0203C44.7169 25.0533 44.6836 25.0831 44.6472 25.1091C43.5732 25.7171 42.5018 26.3277 41.4241 26.9277C40.6881 27.3378 39.9269 27.3937 39.115 27.1239C37.7308 26.665 36.3349 26.2416 34.9417 25.8094C34.7382 25.7472 34.523 25.725 34.3151 25.6771C33.7871 25.5546 33.4734 25.1037 33.5746 24.6173C33.6714 24.1487 34.1307 23.8673 34.674 23.996C35.6884 24.2419 36.6956 24.5188 37.7064 24.7815C37.792 24.8085 37.8801 24.8269 37.9695 24.8366C38.2534 24.8534 38.4523 24.7292 38.5183 24.4522C38.5843 24.1753 38.4848 23.9197 38.1964 23.8407C36.7354 23.4431 35.3033 22.9274 33.7717 22.8155C32.9807 22.7552 32.1903 22.9395 31.5115 23.3428C29.8018 24.328 28.093 25.3168 26.3644 26.2718C25.9119 26.517 25.4242 26.6935 24.9178 26.7955C24.0219 26.9792 23.4188 26.3242 23.7009 25.5111C23.7741 25.3162 23.9091 25.1494 24.086 25.0354C27.0726 23.2129 30.0643 21.399 33.0611 19.5936C33.3955 19.3862 33.7712 19.2512 34.163 19.1978C34.5549 19.1444 34.9538 19.1737 35.3331 19.2839C37.4282 19.8377 39.5246 20.3868 41.6221 20.9312C41.8599 20.9969 42.1148 20.996 42.4539 21.0342Z" fill="#00BA5B"/>
<path d="M24.545 45.024L22.2305 41.0014C22.7024 40.7352 23.1445 40.4689 23.593 40.2239C24.2991 39.8325 24.9988 39.4295 25.7185 39.0701C26.4102 38.715 27.1371 38.6937 27.8802 38.9369C29.1713 39.3576 30.4648 39.7692 31.7607 40.1715C32.0491 40.2603 32.3519 40.3038 32.6485 40.3677C33.0789 40.4565 33.3908 40.768 33.4278 41.1381C33.492 41.7878 32.9758 42.2112 32.2832 42.0426C31.2797 41.7985 30.2833 41.5251 29.2834 41.2659C29.1981 41.2393 29.1102 41.2212 29.0212 41.2118C28.7364 41.1958 28.5393 41.3201 28.4733 41.5979C28.4073 41.8757 28.5113 42.1304 28.7988 42.2077C30.2454 42.5982 31.6702 43.1103 33.1873 43.231C34.0234 43.295 34.8584 43.095 35.5706 42.6603C37.1211 41.7585 38.6698 40.8532 40.243 39.9896C40.8079 39.6725 41.4124 39.4288 42.0413 39.2644C42.9454 39.039 43.5782 39.7082 43.2934 40.5355C43.2212 40.7309 43.0868 40.8984 42.9101 41.013C39.9157 42.8408 36.9159 44.6597 33.9106 46.4698C33.2127 46.8905 32.4641 46.9775 31.6693 46.7681C29.5598 46.2124 27.4523 45.6598 25.3469 45.11C25.12 45.047 24.875 45.0559 24.545 45.024Z" fill="#00BA5B"/>
<path d="M22.7339 49.002C22.2909 49.0083 22.0956 48.7997 21.9365 48.5228C20.8311 46.5937 19.723 44.6662 18.6121 42.7402C18.4512 42.4606 18.2875 42.1836 18.132 41.9014C17.8843 41.4505 17.9847 41.0972 18.4376 40.8363C18.8164 40.6188 19.2007 40.4102 19.584 40.2008C20.084 39.9292 20.4294 40.0233 20.7123 40.5088C21.7249 42.2603 22.7351 44.0132 23.7429 45.7677C23.9979 46.2109 24.2519 46.6547 24.5051 47.0991C24.7971 47.6148 24.7103 47.9476 24.2022 48.2378C23.8231 48.455 23.4403 48.6662 23.054 48.8716C22.9505 48.9223 22.8436 48.9659 22.7339 49.002ZM19.8299 41.4292C19.7678 41.4286 19.7062 41.44 19.6486 41.4628C19.591 41.4856 19.5386 41.5193 19.4943 41.562C19.4499 41.6047 19.4146 41.6556 19.3903 41.7117C19.366 41.7678 19.3532 41.828 19.3526 41.889C19.3495 41.9474 19.3585 42.0059 19.3789 42.0608C19.3993 42.1158 19.4308 42.1662 19.4715 42.209C19.5121 42.2518 19.5611 42.2862 19.6155 42.31C19.67 42.3339 19.7288 42.3467 19.7884 42.3478C19.9136 42.3549 20.0366 42.3132 20.1307 42.2318C20.2248 42.1504 20.2824 42.0358 20.291 41.9129C20.2913 41.7897 20.2438 41.6709 20.1582 41.5807C20.0726 41.4906 19.9552 41.4358 19.8299 41.4274V41.4292Z" fill="#00BA5B"/>
<path d="M44.4519 17C44.6137 17.1269 44.8723 17.2388 44.9853 17.4323C46.2981 19.6778 47.5976 21.9311 48.8838 24.1921C49.1098 24.5871 48.9986 24.9492 48.599 25.1844C48.1837 25.4294 47.7618 25.6643 47.3333 25.8891C46.9237 26.1039 46.5467 26.0081 46.318 25.6131C45.0161 23.3646 43.7202 21.1104 42.4303 18.8506C42.2088 18.4636 42.311 18.0962 42.6853 17.8743C43.1192 17.6186 43.5631 17.3772 44.008 17.1393C44.1517 17.0808 44.3002 17.0342 44.4519 17ZM47.1642 23.7021C46.9092 23.7101 46.6805 23.9409 46.7121 24.1832C46.7168 24.3016 46.7684 24.4134 46.8559 24.495C46.9434 24.5766 47.0598 24.6214 47.1805 24.6199C47.2427 24.6199 47.3043 24.6078 47.3617 24.5842C47.4191 24.5606 47.4712 24.526 47.5148 24.4825C47.5585 24.4389 47.5929 24.3873 47.6161 24.3306C47.6392 24.2739 47.6507 24.2132 47.6497 24.1521C47.6479 24.0911 47.6337 24.031 47.6079 23.9754C47.5822 23.9198 47.5455 23.8698 47.4999 23.8282C47.4543 23.7867 47.4007 23.7544 47.3423 23.7334C47.2839 23.7124 47.2218 23.7029 47.1597 23.7057L47.1642 23.7021Z" fill="#00BA5B"/>
<path d="M30.7782 27.6582C30.8307 28.2964 30.8307 28.2973 30.2891 28.5626L28.9492 29.2141V27.6582H30.7782Z" fill="#00BA5B"/>
</g>
<defs>
<clipPath id="clip0_1770_196">
<rect width="31" height="32" fill="white" transform="translate(18 17)"/>
</clipPath>
</defs>
</svg>
