<svg width="14" height="14" viewBox="0 0 14 14" fill="none" xmlns="http://www.w3.org/2000/svg">
<path fill-rule="evenodd" clip-rule="evenodd" d="M3.93766 1.16602C3.05171 1.16602 2.3335 1.88423 2.3335 2.77018V12.6868C2.3335 12.8405 2.41412 12.9829 2.54591 13.062C2.67768 13.1411 2.84128 13.1452 2.97688 13.0729L7.146 10.8493L11.3151 13.0729C11.4507 13.1452 11.6143 13.1411 11.7461 13.062C11.8779 12.9829 11.9585 12.8406 11.9585 12.6868V2.77018C11.9585 1.88423 11.2403 1.16602 10.3543 1.16602H3.93766ZM9.30847 5.516C9.53626 5.28819 9.53626 4.91884 9.30847 4.69103C9.08068 4.46323 8.71131 4.46323 8.48352 4.69103L6.56266 6.6119L5.80848 5.85771C5.58067 5.6299 5.21132 5.6299 4.98352 5.85771C4.75571 6.0855 4.75571 6.45487 4.98352 6.68266L6.15019 7.84932C6.37798 8.07712 6.74735 8.07712 6.97514 7.84932L9.30847 5.516Z" fill="#F89117"/>
</svg>
