<svg width="66" height="66" viewBox="0 0 66 66" fill="none" xmlns="http://www.w3.org/2000/svg">
<rect x="3" y="3" width="60" height="60" rx="30" fill="#C7F1DC"/>
<rect x="3" y="3" width="60" height="60" rx="30" stroke="#E4FFF2" stroke-width="6"/>
<g clip-path="url(#clip0_1770_139)">
<path d="M13.0244 44.998V43.8729H14.2664V41.5138C14.1587 41.4746 14.0273 41.4278 13.897 41.3744C13.283 41.1203 12.8682 40.5405 13.0352 39.9809C13.2657 39.2406 13.5889 38.5243 13.8819 37.8003C13.9256 37.7133 13.9821 37.6317 14.0499 37.5577C14.6531 36.8003 15.2542 36.7984 15.8413 37.5711C16.4068 38.3132 16.703 39.1537 16.8614 40.0286C16.9691 40.6017 16.5576 41.1633 15.9382 41.4001C15.8305 41.4422 15.7142 41.4756 15.5967 41.5148V43.8309H18.1691V43.4173C18.1691 39.2473 18.1691 35.0767 18.1691 30.9054C18.1635 30.7647 18.1901 30.6245 18.2473 30.4932C18.3045 30.3619 18.3911 30.2422 18.5019 30.1413C20.7331 27.9949 22.9593 25.844 25.1804 23.6886C25.7912 23.0974 26.096 23.063 26.6303 23.6886C27.1269 24.2683 27.6924 24.4622 28.5067 24.4298C30.0622 24.3677 31.623 24.4116 33.1817 24.4116H33.6244V23.2712H33.032V20.998H38.1324V23.2492L37.5367 23.2769V24.4097H37.9622C39.48 24.4097 40.9988 24.4164 42.5165 24.4049C42.6764 24.396 42.836 24.4258 42.9783 24.4911C43.1206 24.5563 43.2403 24.6546 43.3244 24.7755C44.742 26.5835 46.1757 28.382 47.5858 30.1948C47.7376 30.3994 47.8216 30.6376 47.8281 30.8825C47.8443 33.5396 47.8389 36.1958 47.8389 38.8529V39.2597H49.1229V38.1623H50.4047V39.2531H51.6974V38.1556H52.9695C52.9781 38.2512 52.9921 38.3562 52.9921 38.4584C52.9921 40.4005 52.9921 42.3425 52.9921 44.2846C52.9921 44.807 52.7767 44.998 52.1982 44.998C39.2462 44.998 26.2942 44.998 13.3422 44.998H13.0244ZM32.3598 43.8405V43.5692C32.3598 39.4469 32.3562 35.3247 32.349 31.2024C32.3314 31.0082 32.2399 30.8249 32.0894 30.6829C30.1196 28.7612 28.1419 26.8455 26.1563 24.936C26.0788 24.8605 25.9894 24.7956 25.8709 24.6972C25.8106 24.7707 25.7772 24.8233 25.7319 24.8672C23.7255 26.8086 21.7173 28.7481 19.7073 30.6857C19.6204 30.7651 19.5528 30.8595 19.5087 30.963C19.4646 31.0665 19.4449 31.1769 19.4509 31.2874C19.4588 35.339 19.4606 39.39 19.4563 43.4403V43.8357H22.0415V35.4565C22.0415 34.8834 22.2386 34.7067 22.8742 34.7067H28.9215C29.5882 34.7067 29.7832 34.8767 29.7832 35.4708C29.7832 38.1279 29.7832 40.7847 29.7832 43.4412V43.8405H32.3598ZM33.6761 31.2884V43.8252H46.5301V31.2846L33.6761 31.2884ZM23.3557 35.8624V36.9646H25.2429V35.8624H23.3557ZM26.5775 35.8538V36.9684H28.454V35.8538H26.5775ZM36.2097 24.3925V23.2903H34.9655V24.4011L36.2097 24.3925ZM47.8658 40.4384V41.5405H49.111V40.4384H47.8658ZM51.6833 41.5511V40.4489H50.4392V41.5511H51.6833ZM49.1121 42.7287H47.8647V43.829H49.1121V42.7287ZM51.7038 42.7287H50.4478V43.8252H51.7038V42.7287Z" fill="#00BA5B"/>
<path d="M25.9057 28.9884C26.0772 28.9865 26.2473 29.0153 26.406 29.0731C26.5647 29.1308 26.7086 29.2163 26.8293 29.3244C26.9499 29.4325 27.0447 29.561 27.1081 29.7024C27.1715 29.8437 27.2022 29.9949 27.1983 30.1469C27.1976 30.2958 27.1637 30.4431 27.0986 30.5804C27.0335 30.7177 26.9385 30.8422 26.819 30.9468C26.6995 31.0515 26.5579 31.1341 26.4022 31.1901C26.2466 31.2461 26.0801 31.2742 25.9121 31.273C25.7406 31.275 25.5703 31.2462 25.4116 31.1886C25.2528 31.1309 25.1088 31.0454 24.9882 30.9373C24.8675 30.8291 24.7727 30.7005 24.7093 30.5591C24.646 30.4178 24.6154 30.2665 24.6195 30.1144C24.6198 29.9654 24.6533 29.8179 24.7183 29.6805C24.7832 29.543 24.8782 29.4184 24.9978 29.3136C25.1174 29.2089 25.2592 29.1263 25.415 29.0705C25.5708 29.0146 25.7376 28.9867 25.9057 28.9884Z" fill="#00BA5B"/>
<path d="M34.959 36.9661V34.1543H39.4207V36.9661H34.959Z" fill="#00BA5B"/>
<path d="M45.2349 36.9748H40.7754V34.1582H45.2349V36.9748Z" fill="#00BA5B"/>
<path d="M39.4343 38.1641V40.9769H34.9727V38.1641H39.4343Z" fill="#00BA5B"/>
<path d="M40.7754 38.1543H45.2371V40.9671H40.7754V38.1543Z" fill="#00BA5B"/>
</g>
<defs>
<clipPath id="clip0_1770_139">
<rect width="40" height="24" fill="white" transform="translate(13 21)"/>
</clipPath>
</defs>
</svg>
