<?xml version="1.0" encoding="utf-8"?>
<!-- Generator: Adobe Illustrator 27.0.0, SVG Export Plug-In . SVG Version: 6.00 Build 0)  -->
<svg version="1.1" id="Layer_1" xmlns="http://www.w3.org/2000/svg" xmlns:xlink="http://www.w3.org/1999/xlink" x="0px" y="0px"
	 viewBox="0 0 100 100" style="enable-background:new 0 0 100 100;" xml:space="preserve">
<style type="text/css">
	.st0{fill:#1D1D1B;}
	.st1{fill:#FFFFFF;}
</style>
<g>
	<rect x="237.41" y="157.21" class="st0" width="112.04" height="15.58"/>
	<rect x="381.47" y="61.17" class="st0" width="176.08" height="15.58"/>
	<rect x="245.62" y="197.01" class="st0" width="15.58" height="32.01"/>
	<rect x="285.63" y="197.01" class="st0" width="15.58" height="32.01"/>
	<rect x="325.66" y="197.01" class="st0" width="15.58" height="32.01"/>
	<rect x="389.68" y="92.97" class="st0" width="15.58" height="32.01"/>
	<rect x="437.7" y="92.97" class="st0" width="15.58" height="32.01"/>
	<rect x="485.72" y="92.97" class="st0" width="15.58" height="32.01"/>
	<rect x="533.74" y="92.97" class="st0" width="15.58" height="32.01"/>
	<rect x="389.68" y="148.99" class="st0" width="15.58" height="32.01"/>
	<rect x="437.7" y="148.99" class="st0" width="15.58" height="32.01"/>
	<rect x="485.72" y="148.99" class="st0" width="15.58" height="32.01"/>
	<rect x="533.74" y="148.99" class="st0" width="15.58" height="32.01"/>
	<rect x="389.68" y="205.01" class="st0" width="15.58" height="32.01"/>
	<rect x="437.7" y="205.01" class="st0" width="15.58" height="32.01"/>
	<rect x="485.72" y="205.01" class="st0" width="15.58" height="32.01"/>
	<rect x="533.74" y="205.01" class="st0" width="15.58" height="32.01"/>
	<rect x="389.68" y="261.04" class="st0" width="15.58" height="32.01"/>
	<rect x="437.7" y="261.04" class="st0" width="15.58" height="32.01"/>
	<rect x="485.72" y="261.04" class="st0" width="15.58" height="32.01"/>
	<rect x="533.74" y="261.04" class="st0" width="15.58" height="32.01"/>
	<rect x="389.68" y="317.06" class="st0" width="15.58" height="32.01"/>
	<rect x="437.7" y="317.06" class="st0" width="15.58" height="32.01"/>
	<rect x="485.72" y="317.06" class="st0" width="15.58" height="32.01"/>
	<rect x="533.74" y="317.06" class="st0" width="15.58" height="32.01"/>
	<rect x="389.68" y="373.08" class="st0" width="15.58" height="32.01"/>
	<rect x="437.7" y="373.08" class="st0" width="15.58" height="32.01"/>
	<rect x="485.72" y="373.08" class="st0" width="15.58" height="32.01"/>
	<rect x="533.74" y="373.08" class="st0" width="15.58" height="32.01"/>
	<rect x="389.68" y="429.11" class="st0" width="15.58" height="32.01"/>
	<rect x="437.7" y="429.11" class="st0" width="15.58" height="32.01"/>
	<rect x="485.72" y="429.11" class="st0" width="15.58" height="32.01"/>
	<rect x="533.74" y="429.11" class="st0" width="15.58" height="32.01"/>
	<rect x="245.62" y="253.03" class="st0" width="15.58" height="32.01"/>
	<rect x="285.63" y="253.03" class="st0" width="15.58" height="32.01"/>
	<rect x="325.66" y="253.03" class="st0" width="15.58" height="32.01"/>
	<rect x="245.62" y="309.06" class="st0" width="15.58" height="32.01"/>
	<rect x="285.63" y="309.06" class="st0" width="15.58" height="32.01"/>
	<rect x="325.66" y="309.06" class="st0" width="15.58" height="32.01"/>
	<rect x="245.62" y="365.08" class="st0" width="15.58" height="32.01"/>
	<rect x="285.63" y="365.08" class="st0" width="15.58" height="32.01"/>
	<rect x="325.66" y="365.08" class="st0" width="15.58" height="32.01"/>
	<rect x="245.62" y="421.1" class="st0" width="15.58" height="32.01"/>
	<rect x="285.63" y="421.1" class="st0" width="15.58" height="32.01"/>
	<rect x="325.66" y="421.1" class="st0" width="15.58" height="32.01"/>
	<rect x="589.55" y="157.21" class="st0" width="112.04" height="15.58"/>
	<rect x="677.8" y="197.01" class="st0" width="15.58" height="32.01"/>
	<rect x="637.79" y="197.01" class="st0" width="15.58" height="32.01"/>
	<rect x="597.76" y="197.01" class="st0" width="15.58" height="32.01"/>
	<rect x="677.8" y="253.03" class="st0" width="15.58" height="32.01"/>
	<rect x="637.79" y="253.03" class="st0" width="15.58" height="32.01"/>
	<rect x="597.76" y="253.03" class="st0" width="15.58" height="32.01"/>
	<rect x="677.8" y="309.06" class="st0" width="15.58" height="32.01"/>
	<rect x="637.79" y="309.06" class="st0" width="15.58" height="32.01"/>
	<rect x="597.76" y="309.06" class="st0" width="15.58" height="32.01"/>
	<rect x="677.8" y="365.08" class="st0" width="15.58" height="32.01"/>
	<rect x="637.79" y="365.08" class="st0" width="15.58" height="32.01"/>
	<rect x="597.76" y="365.08" class="st0" width="15.58" height="32.01"/>
	<rect x="677.8" y="421.1" class="st0" width="15.58" height="32.01"/>
	<rect x="637.79" y="421.1" class="st0" width="15.58" height="32.01"/>
	<rect x="597.76" y="421.1" class="st0" width="15.58" height="32.01"/>
	<path class="st0" d="M581.55,5.15h-64.89c-3.73-22.67-23.45-40.02-47.16-40.02s-43.43,17.35-47.16,40.02h-64.89v15.58h224.09
		L581.55,5.15L581.55,5.15z M438.23,5.15c3.49-14.02,16.19-24.44,31.27-24.44s27.78,10.42,31.27,24.44H438.23z"/>
	<rect x="613.78" y="60.95" class="st0" width="15.58" height="16.01"/>
	<polygon class="st0" points="629.35,125.2 629.35,84.96 613.78,84.96 613.78,125.2 581.33,125.2 581.33,29.16 357.67,29.16 
		357.67,125.2 325.23,125.2 325.23,84.96 309.65,84.96 309.65,125.2 213.61,125.2 213.61,477.13 229.18,477.13 229.18,140.77 
		357.67,140.77 357.67,477.13 373.24,477.13 373.24,44.73 565.75,44.73 565.75,477.13 581.33,477.13 581.33,140.77 709.82,140.77 
		709.82,477.13 725.39,477.13 725.39,125.2 	"/>
	<rect x="309.64" y="60.95" class="st0" width="15.58" height="16.01"/>
</g>
<g>
	<rect x="9.23" y="43.8" class="st1" width="19.68" height="2.74"/>
	<rect x="34.53" y="26.92" class="st1" width="30.93" height="2.74"/>
	<rect x="10.67" y="50.79" class="st1" width="2.74" height="5.62"/>
	<rect x="17.7" y="50.79" class="st1" width="2.74" height="5.62"/>
	<rect x="24.73" y="50.79" class="st1" width="2.74" height="5.62"/>
	<rect x="35.98" y="32.51" class="st1" width="2.74" height="5.62"/>
	<rect x="44.41" y="32.51" class="st1" width="2.74" height="5.62"/>
	<rect x="52.85" y="32.51" class="st1" width="2.74" height="5.62"/>
	<rect x="61.29" y="32.51" class="st1" width="2.74" height="5.62"/>
	<rect x="35.98" y="42.35" class="st1" width="2.74" height="5.62"/>
	<rect x="44.41" y="42.35" class="st1" width="2.74" height="5.62"/>
	<rect x="52.85" y="42.35" class="st1" width="2.74" height="5.62"/>
	<rect x="61.29" y="42.35" class="st1" width="2.74" height="5.62"/>
	<rect x="35.98" y="52.19" class="st1" width="2.74" height="5.62"/>
	<rect x="44.41" y="52.19" class="st1" width="2.74" height="5.62"/>
	<rect x="52.85" y="52.19" class="st1" width="2.74" height="5.62"/>
	<rect x="61.29" y="52.19" class="st1" width="2.74" height="5.62"/>
	<rect x="35.98" y="62.04" class="st1" width="2.74" height="5.62"/>
	<rect x="44.41" y="62.04" class="st1" width="2.74" height="5.62"/>
	<rect x="52.85" y="62.04" class="st1" width="2.74" height="5.62"/>
	<rect x="61.29" y="62.04" class="st1" width="2.74" height="5.62"/>
	<rect x="35.98" y="71.88" class="st1" width="2.74" height="5.62"/>
	<rect x="44.41" y="71.88" class="st1" width="2.74" height="5.62"/>
	<rect x="52.85" y="71.88" class="st1" width="2.74" height="5.62"/>
	<rect x="61.29" y="71.88" class="st1" width="2.74" height="5.62"/>
	<rect x="35.98" y="81.72" class="st1" width="2.74" height="5.62"/>
	<rect x="44.41" y="81.72" class="st1" width="2.74" height="5.62"/>
	<rect x="52.85" y="81.72" class="st1" width="2.74" height="5.62"/>
	<rect x="61.29" y="81.72" class="st1" width="2.74" height="5.62"/>
	<rect x="35.98" y="91.56" class="st1" width="2.74" height="5.62"/>
	<rect x="44.41" y="91.56" class="st1" width="2.74" height="5.62"/>
	<rect x="52.85" y="91.56" class="st1" width="2.74" height="5.62"/>
	<rect x="61.29" y="91.56" class="st1" width="2.74" height="5.62"/>
	<rect x="10.67" y="60.63" class="st1" width="2.74" height="5.62"/>
	<rect x="17.7" y="60.63" class="st1" width="2.74" height="5.62"/>
	<rect x="24.73" y="60.63" class="st1" width="2.74" height="5.62"/>
	<rect x="10.67" y="70.47" class="st1" width="2.74" height="5.62"/>
	<rect x="17.7" y="70.47" class="st1" width="2.74" height="5.62"/>
	<rect x="24.73" y="70.47" class="st1" width="2.74" height="5.62"/>
	<rect x="10.67" y="80.32" class="st1" width="2.74" height="5.62"/>
	<rect x="17.7" y="80.32" class="st1" width="2.74" height="5.62"/>
	<rect x="24.73" y="80.32" class="st1" width="2.74" height="5.62"/>
	<rect x="10.67" y="90.16" class="st1" width="2.74" height="5.62"/>
	<rect x="17.7" y="90.16" class="st1" width="2.74" height="5.62"/>
	<rect x="24.73" y="90.16" class="st1" width="2.74" height="5.62"/>
	<rect x="71.09" y="43.8" class="st1" width="19.68" height="2.74"/>
	<rect x="86.59" y="50.79" class="st1" width="2.74" height="5.62"/>
	<rect x="79.56" y="50.79" class="st1" width="2.74" height="5.62"/>
	<rect x="72.53" y="50.79" class="st1" width="2.74" height="5.62"/>
	<rect x="86.59" y="60.63" class="st1" width="2.74" height="5.62"/>
	<rect x="79.56" y="60.63" class="st1" width="2.74" height="5.62"/>
	<rect x="72.53" y="60.63" class="st1" width="2.74" height="5.62"/>
	<rect x="86.59" y="70.47" class="st1" width="2.74" height="5.62"/>
	<rect x="79.56" y="70.47" class="st1" width="2.74" height="5.62"/>
	<rect x="72.53" y="70.47" class="st1" width="2.74" height="5.62"/>
	<rect x="86.59" y="80.32" class="st1" width="2.74" height="5.62"/>
	<rect x="79.56" y="80.32" class="st1" width="2.74" height="5.62"/>
	<rect x="72.53" y="80.32" class="st1" width="2.74" height="5.62"/>
	<rect x="86.59" y="90.16" class="st1" width="2.74" height="5.62"/>
	<rect x="79.56" y="90.16" class="st1" width="2.74" height="5.62"/>
	<rect x="72.53" y="90.16" class="st1" width="2.74" height="5.62"/>
	<path class="st1" d="M69.68,17.08h-11.4c-0.66-3.98-4.12-7.03-8.28-7.03s-7.63,3.05-8.29,7.03h-11.4v2.74h39.37L69.68,17.08
		L69.68,17.08z M44.51,17.08c0.61-2.46,2.84-4.29,5.49-4.29c2.65,0,4.88,1.83,5.49,4.29H44.51z"/>
	<polygon class="st1" points="78.08,38.17 78.08,38.15 75.35,38.15 75.35,38.17 69.65,38.17 69.65,21.3 30.35,21.3 30.35,38.17 
		24.65,38.17 24.65,38.15 21.92,38.15 21.92,38.17 5.05,38.17 5.05,100 7.78,100 7.78,40.91 30.35,40.91 30.35,100 33.09,100 
		33.09,24.04 66.91,24.04 66.91,100 69.65,100 69.65,40.91 92.22,40.91 92.22,100 94.95,100 94.95,38.17 	"/>
</g>
</svg>
