<svg width="44" height="44" viewBox="0 0 44 44" fill="none" xmlns="http://www.w3.org/2000/svg">
<path d="M42.1663 34.8333C42.1663 35.8058 41.78 36.7384 41.0924 37.4261C40.4048 38.1137 39.4721 38.5 38.4997 38.5H5.49967C4.52721 38.5 3.59458 38.1137 2.90695 37.4261C2.21932 36.7384 1.83301 35.8058 1.83301 34.8333V14.6667C1.83301 13.6942 2.21932 12.7616 2.90695 12.0739C3.59458 11.3863 4.52721 11 5.49967 11H12.833L16.4997 5.5H27.4997L31.1663 11H38.4997C39.4721 11 40.4048 11.3863 41.0924 12.0739C41.78 12.7616 42.1663 13.6942 42.1663 14.6667V34.8333Z" stroke="#919699" stroke-width="2.5" stroke-linecap="round" stroke-linejoin="round"/>
<path d="M22.0003 31.1667C26.0504 31.1667 29.3337 27.8834 29.3337 23.8333C29.3337 19.7832 26.0504 16.5 22.0003 16.5C17.9502 16.5 14.667 19.7832 14.667 23.8333C14.667 27.8834 17.9502 31.1667 22.0003 31.1667Z" stroke="#919699" stroke-width="2.5" stroke-linecap="round" stroke-linejoin="round"/>
</svg>
