<svg width="20" height="20" viewBox="0 0 20 20" fill="none" xmlns="http://www.w3.org/2000/svg">
<path fill-rule="evenodd" clip-rule="evenodd" d="M3.74541 11.5481C8.01088 12.2879 12.2764 12.263 16.5419 11.5481V5.618C16.5419 5.55043 16.52 5.48474 16.4795 5.43073L13.6705 1.68542C13.6414 1.64666 13.6037 1.6152 13.5604 1.59352C13.5171 1.57185 13.4693 1.56056 13.4208 1.56055H4.68174C4.43341 1.56057 4.19527 1.65922 4.01967 1.83481C3.84408 2.0104 3.74543 2.24855 3.74541 2.49688V9.67545C3.74541 10.139 3.63672 10.5319 3.63672 10.845C3.63672 11.278 3.74541 11.5481 3.74541 11.5481Z" fill="#D8DFE3"/>
<path fill-rule="evenodd" clip-rule="evenodd" d="M1.87305 10.7383V17.4775C1.87307 17.7258 1.97172 17.9639 2.14731 18.1395C2.3229 18.3151 2.56105 18.4138 2.80938 18.4138H17.1665C17.4148 18.4137 17.6529 18.3151 17.8285 18.1395C18.0041 17.9639 18.1027 17.7258 18.1028 17.4775V12.4837C18.1028 12.2354 18.0041 11.9973 17.8285 11.8217C17.6529 11.6461 17.4148 11.5474 17.1665 11.5474H3.12151C2.72331 11.5474 1.87305 10.7383 1.87305 10.7383Z" fill="#00868F"/>
<path fill-rule="evenodd" clip-rule="evenodd" d="M2.80938 11.5484C2.52443 11.5484 2.31642 11.4329 2.16331 11.2905C2.01926 11.1566 1.87305 10.9206 1.87305 10.6121C1.87305 10.4141 1.9717 10.1256 2.14728 9.95001C2.32286 9.77443 2.56106 9.67578 2.80938 9.67578H3.74571V11.5484H2.80938Z" fill="#00747C"/>
<path fill-rule="evenodd" clip-rule="evenodd" d="M13.4219 1.56055V4.68167C13.4219 4.92999 13.5205 5.16814 13.6961 5.34373C13.8717 5.51933 14.1099 5.61798 14.3582 5.618H16.5429C16.5429 5.55044 16.5211 5.48474 16.4805 5.43073L13.6715 1.68542C13.6425 1.64666 13.6048 1.6152 13.5614 1.59352C13.5181 1.57185 13.4703 1.56056 13.4219 1.56055Z" fill="#AFBDC7"/>
<path fill-rule="evenodd" clip-rule="evenodd" d="M6.55432 5.93091H10.6118C10.784 5.93091 10.9238 5.79106 10.9238 5.61878C10.9238 5.44649 10.784 5.30664 10.6118 5.30664H6.55432C6.38204 5.30664 6.24219 5.44649 6.24219 5.61878C6.24219 5.79106 6.38204 5.93091 6.55432 5.93091ZM6.55432 7.80357H13.7328C13.9051 7.80357 14.045 7.66372 14.045 7.49143C14.045 7.31915 13.9051 7.1793 13.7328 7.1793H6.55432C6.38204 7.1793 6.24219 7.31915 6.24219 7.49143C6.24219 7.66372 6.38204 7.80357 6.55432 7.80357ZM6.55432 9.67623H13.7328C13.9051 9.67623 14.045 9.53638 14.045 9.36409C14.045 9.19181 13.9051 9.05196 13.7328 9.05196H6.55432C6.38204 9.05196 6.24219 9.19181 6.24219 9.36409C6.24219 9.53638 6.38204 9.67623 6.55432 9.67623Z" fill="#00868F"/>
<path fill-rule="evenodd" clip-rule="evenodd" d="M11.7271 13.5374L12.9756 16.6586C12.9987 16.7165 13.0387 16.7662 13.0903 16.8012C13.142 16.8362 13.2029 16.8549 13.2653 16.8549C13.3277 16.8549 13.3887 16.8362 13.4404 16.8012C13.492 16.7662 13.532 16.7165 13.5551 16.6586L14.8036 13.5374C14.8343 13.4606 14.8332 13.3747 14.8006 13.2986C14.768 13.2225 14.7065 13.1625 14.6296 13.1317C14.5528 13.1011 14.4669 13.1021 14.3908 13.1347C14.3147 13.1673 14.2547 13.2288 14.2239 13.3056L13.2653 15.7022L12.3066 13.3056C12.2427 13.1457 12.0609 13.0678 11.901 13.1317C11.741 13.1957 11.6631 13.3775 11.7271 13.5374ZM6.88927 13.1094H6.71092C5.84904 13.1094 5.15039 13.8081 5.15039 14.6699V15.2942C5.15039 16.1561 5.84904 16.8547 6.71092 16.8547H6.88927C7.1619 16.8547 7.4288 16.7764 7.65818 16.6291C7.88756 16.4817 8.06978 16.2715 8.18312 16.0236C8.21541 15.953 8.22178 15.9397 8.24253 15.8937C8.27682 15.8218 8.28202 15.7394 8.25704 15.6638C8.23205 15.5882 8.17882 15.5251 8.10844 15.4878C7.91279 15.3894 7.73526 15.4984 7.67481 15.6341C7.65646 15.6753 7.61541 15.7641 7.61541 15.7641C7.55178 15.9033 7.44952 16.0212 7.32078 16.1039C7.19205 16.1866 7.04227 16.2305 6.88927 16.2305H6.71092C6.19376 16.2305 5.77459 15.8113 5.77459 15.2942V14.6699C5.77459 14.1529 6.19376 13.7336 6.71092 13.7336H6.88927C7.04227 13.7336 7.19205 13.7776 7.32078 13.8603C7.44952 13.943 7.55178 14.0609 7.61541 14.2001C7.61541 14.2001 7.65346 14.2853 7.67481 14.33C7.76859 14.5266 7.99032 14.5545 8.13054 14.4634C8.22904 14.3993 8.32208 14.2445 8.24253 14.0705L8.18312 13.9406C8.06978 13.6926 7.88756 13.4825 7.65818 13.3351C7.4288 13.1878 7.1619 13.1094 6.88927 13.1094ZM8.73975 15.7643V15.919C8.73977 16.1672 8.83836 16.4051 9.01382 16.5806C9.18928 16.7561 9.42726 16.8547 9.67541 16.8547H10.3789C10.5018 16.8548 10.6235 16.8306 10.737 16.7835C10.8506 16.7365 10.9537 16.6676 11.0406 16.5807C11.1275 16.4938 11.1964 16.3906 11.2435 16.2771C11.2905 16.1636 11.3147 16.0419 11.3147 15.919V15.7948C11.3147 15.412 11.0816 15.0677 10.726 14.9255L9.59114 14.4715C9.52407 14.4447 9.46658 14.3984 9.42609 14.3386C9.38559 14.2788 9.36395 14.2082 9.36395 14.1359V14.0458C9.36395 13.963 9.39682 13.8836 9.45534 13.8251C9.51386 13.7665 9.59324 13.7336 9.67601 13.7336H10.3783C10.4193 13.7336 10.4599 13.7417 10.4978 13.7573C10.5357 13.773 10.5701 13.796 10.5991 13.825C10.628 13.854 10.651 13.8884 10.6667 13.9263C10.6824 13.9642 10.6904 14.0048 10.6904 14.0458V14.1999C10.6904 14.288 10.7293 14.3677 10.7685 14.4082C10.7979 14.4413 10.8339 14.4678 10.8742 14.4861C10.9145 14.5043 10.9583 14.5138 11.0025 14.5139C11.1544 14.5139 11.3147 14.3966 11.3147 14.1999V14.0458C11.3146 13.7974 11.216 13.5593 11.0404 13.3837C10.8648 13.2081 10.6267 13.1094 10.3783 13.1094H9.67608C9.42775 13.1094 9.18959 13.2081 9.014 13.3837C8.8384 13.5593 8.73975 13.7974 8.73975 14.0458V14.1359C8.73975 14.5389 8.98515 14.9014 9.3593 15.0511L10.4942 15.5051C10.5521 15.5282 10.6018 15.5682 10.6367 15.6199C10.6717 15.6715 10.6904 15.7324 10.6904 15.7948V15.919C10.6904 16.0016 10.6576 16.0808 10.5991 16.1393C10.5407 16.1977 10.4615 16.2305 10.3789 16.2305H9.67541C9.63451 16.2306 9.594 16.2225 9.55621 16.2069C9.51841 16.1912 9.48408 16.1683 9.45515 16.1393C9.42623 16.1104 9.40329 16.0761 9.38764 16.0383C9.37199 16.0005 9.36394 15.96 9.36395 15.9191V15.7643C9.36395 15.5584 9.19616 15.4501 9.05728 15.4501C8.9256 15.4501 8.73975 15.5522 8.73975 15.7624V15.7643Z" fill="#D8DFE3"/>
</svg>
