<svg width="12" height="12" viewBox="0 0 12 12" fill="none" xmlns="http://www.w3.org/2000/svg">
<path d="M9.46953 4.34857C9.56922 4.34857 9.65967 4.39207 9.73115 4.46557C9.79777 4.54406 9.83132 4.64156 9.8216 4.74456C9.8216 4.77856 9.55512 8.14853 9.40291 9.56701C9.3076 10.4375 8.74644 10.966 7.9047 10.9805C7.25746 10.995 6.62482 11 6.0019 11C5.34056 11 4.69381 10.995 4.06603 10.9805C3.25249 10.961 2.69084 10.423 2.60039 9.56701C2.44381 8.14353 2.1822 4.77856 2.17733 4.74456C2.17247 4.64156 2.20554 4.54406 2.27264 4.46557C2.33878 4.39207 2.43409 4.34857 2.53426 4.34857H9.46953ZM7.03236 1C7.47439 1 7.86925 1.3085 7.98352 1.74849L8.06522 2.11349C8.13135 2.41099 8.38907 2.62148 8.6857 2.62148H10.1436C10.3381 2.62148 10.5 2.78298 10.5 2.98848V3.17848C10.5 3.37898 10.3381 3.54547 10.1436 3.54547H1.85693C1.66193 3.54547 1.5 3.37898 1.5 3.17848V2.98848C1.5 2.78298 1.66193 2.62148 1.85693 2.62148H3.31478C3.61092 2.62148 3.86865 2.41099 3.93527 2.11399L4.01162 1.77299C4.13027 1.3085 4.52075 1 4.96764 1H7.03236Z" fill="#F23B3D"/>
</svg>
