<svg width="135" height="56" viewBox="0 0 135 56" fill="none" xmlns="http://www.w3.org/2000/svg">
<mask id="mask0_2380_131" style="mask-type:luminance" maskUnits="userSpaceOnUse" x="51" y="0" width="33" height="32">
<path d="M83.5 0H51.5V32H83.5V0Z" fill="white"/>
</mask>
<g mask="url(#mask0_2380_131)">
<path d="M65.7806 5.846C65.7806 5.71339 65.8333 5.58621 65.9271 5.49245C66.0208 5.39868 66.148 5.346 66.2806 5.346H66.9248C67.0574 5.346 67.1845 5.39868 67.2783 5.49245C67.3721 5.58621 67.4248 5.71339 67.4248 5.846C67.4248 5.97861 67.3721 6.10579 67.2783 6.19955C67.1845 6.29332 67.0574 6.346 66.9248 6.346H66.2806C66.148 6.346 66.0208 6.29332 65.9271 6.19955C65.8333 6.10579 65.7806 5.97861 65.7806 5.846ZM65.1498 8.12575C65.0172 8.12575 64.89 8.17843 64.7963 8.2722C64.7025 8.36596 64.6498 8.49314 64.6498 8.62575C64.6498 8.75836 64.7025 8.88554 64.7963 8.9793C64.89 9.07307 65.0172 9.12575 65.1498 9.12575H65.1781C65.3107 9.12575 65.4379 9.07307 65.5317 8.9793C65.6254 8.88554 65.6781 8.75836 65.6781 8.62575C65.6781 8.49314 65.6254 8.36596 65.5317 8.2722C65.4379 8.17843 65.3107 8.12575 65.1781 8.12575H65.1498ZM68.4077 6.346H69.8774C70.01 6.346 70.1372 6.29332 70.2309 6.19955C70.3247 6.10579 70.3774 5.97861 70.3774 5.846C70.3774 5.71339 70.3247 5.58621 70.2309 5.49245C70.1372 5.39868 70.01 5.346 69.8774 5.346H68.4077C68.2751 5.346 68.1479 5.39868 68.0541 5.49245C67.9604 5.58621 67.9077 5.71339 67.9077 5.846C67.9077 5.97861 67.9604 6.10579 68.0541 6.19955C68.1479 6.29332 68.2751 6.346 68.4077 6.346ZM65.8461 13.7451H58.4361C58.3035 13.7451 58.1763 13.7977 58.0825 13.8915C57.9887 13.9853 57.9361 14.1125 57.9361 14.2451C57.9361 14.3777 57.9887 14.5048 58.0825 14.5986C58.1763 14.6924 58.3035 14.7451 58.4361 14.7451H65.8462C65.9788 14.7451 66.106 14.6924 66.1997 14.5986C66.2935 14.5048 66.3462 14.3777 66.3462 14.2451C66.3462 14.1125 66.2935 13.9853 66.1997 13.8915C66.106 13.7977 65.9787 13.7451 65.8461 13.7451ZM60.4506 6.346H64.7976C64.9302 6.346 65.0574 6.29332 65.1512 6.19955C65.2449 6.10579 65.2976 5.97861 65.2976 5.846C65.2976 5.71339 65.2449 5.58621 65.1512 5.49245C65.0574 5.39868 64.9302 5.346 64.7976 5.346H60.4506C60.318 5.346 60.1908 5.39868 60.097 5.49245C60.0032 5.58621 59.9506 5.71339 59.9506 5.846C59.9506 5.97861 60.0032 6.10579 60.097 6.19955C60.1908 6.29332 60.318 6.346 60.4506 6.346ZM59.9994 16.5548C59.8668 16.5548 59.7396 16.6074 59.6458 16.7012C59.5521 16.795 59.4994 16.9221 59.4994 17.0548C59.4994 17.1874 59.5521 17.3145 59.6458 17.4083C59.7396 17.5021 59.8668 17.5548 59.9994 17.5548H60.6435C60.7761 17.5548 60.9033 17.5021 60.9971 17.4083C61.0908 17.3145 61.1435 17.1874 61.1435 17.0548C61.1435 16.9221 61.0908 16.795 60.9971 16.7012C60.9033 16.6074 60.7761 16.5548 60.6435 16.5548H59.9994ZM69.8774 10.9354H68.4053C68.2727 10.9354 68.1455 10.9881 68.0518 11.0818C67.958 11.1756 67.9053 11.3028 67.9053 11.4354C67.9053 11.568 67.958 11.6952 68.0518 11.7889C68.1455 11.8827 68.2727 11.9354 68.4053 11.9354H69.8774C70.01 11.9354 70.1372 11.8827 70.2309 11.7889C70.3247 11.6952 70.3774 11.568 70.3774 11.4354C70.3774 11.3028 70.3247 11.1756 70.2309 11.0818C70.1372 10.9881 70.01 10.9354 69.8774 10.9354ZM69.8774 8.12575H66.6611C66.5285 8.12575 66.4013 8.17843 66.3076 8.2722C66.2138 8.36596 66.1611 8.49314 66.1611 8.62575C66.1611 8.75836 66.2138 8.88554 66.3076 8.9793C66.4013 9.07307 66.5285 9.12575 66.6611 9.12575H69.8774C70.01 9.12575 70.1372 9.07307 70.2309 8.9793C70.3247 8.88554 70.3774 8.75836 70.3774 8.62575C70.3774 8.49314 70.3247 8.36596 70.2309 8.2722C70.1372 8.17843 70.01 8.12575 69.8774 8.12575ZM55.3412 9.12575H63.6668C63.7994 9.12575 63.9266 9.07307 64.0204 8.9793C64.1141 8.88554 64.1668 8.75836 64.1668 8.62575C64.1668 8.49314 64.1141 8.36596 64.0204 8.2722C63.9266 8.17843 63.7994 8.12575 63.6668 8.12575H55.3412C55.2086 8.12575 55.0814 8.17843 54.9876 8.2722C54.8939 8.36596 54.8412 8.49314 54.8412 8.62575C54.8412 8.75836 54.8939 8.88554 54.9876 8.9793C55.0814 9.07307 55.2086 9.12575 55.3412 9.12575ZM62.3188 22.1741H58.4361C58.3035 22.1741 58.1763 22.2268 58.0825 22.3206C57.9887 22.4143 57.9361 22.5415 57.9361 22.6741C57.9361 22.8067 57.9887 22.9339 58.0825 23.0277C58.1763 23.1214 58.3035 23.1741 58.4361 23.1741H62.3188C62.4514 23.1741 62.5786 23.1214 62.6724 23.0277C62.7661 22.9339 62.8188 22.8067 62.8188 22.6741C62.8188 22.5415 62.7661 22.4143 62.6724 22.3206C62.5786 22.2268 62.4514 22.1741 62.3188 22.1741ZM62.8227 19.3644H60.9053C60.7727 19.3644 60.6455 19.4171 60.5518 19.5109C60.458 19.6047 60.4053 19.7318 60.4053 19.8644C60.4053 19.997 60.458 20.1242 60.5518 20.218C60.6455 20.3118 60.7727 20.3644 60.9053 20.3644H62.8227C62.9553 20.3644 63.0825 20.3118 63.1762 20.218C63.27 20.1242 63.3227 19.997 63.3227 19.8644C63.3227 19.7318 63.27 19.6047 63.1762 19.5109C63.0825 19.4171 62.9553 19.3644 62.8227 19.3644ZM63.9946 16.5548H62.1264C61.9938 16.5548 61.8667 16.6074 61.7729 16.7012C61.6791 16.795 61.6264 16.9221 61.6264 17.0548C61.6264 17.1874 61.6791 17.3145 61.7729 17.4083C61.8667 17.5021 61.9938 17.5548 62.1264 17.5548H63.9946C64.1272 17.5548 64.2543 17.5021 64.3481 17.4083C64.4419 17.3145 64.4946 17.1874 64.4946 17.0548C64.4946 16.9221 64.4419 16.795 64.3481 16.7012C64.2543 16.6074 64.1272 16.5548 63.9946 16.5548ZM56.953 22.1741H55.3412C55.2086 22.1741 55.0814 22.2268 54.9876 22.3206C54.8939 22.4143 54.8412 22.5415 54.8412 22.6741C54.8412 22.8067 54.8939 22.9339 54.9876 23.0277C55.0814 23.1214 55.2086 23.1741 55.3412 23.1741H56.953C57.0856 23.1741 57.2128 23.1214 57.3066 23.0277C57.4003 22.9339 57.453 22.8067 57.453 22.6741C57.453 22.5415 57.4003 22.4143 57.3066 22.3206C57.2128 22.2268 57.0856 22.1741 56.953 22.1741ZM55.3412 11.9354H66.9223C67.0549 11.9354 67.1821 11.8827 67.2759 11.7889C67.3696 11.6952 67.4223 11.568 67.4223 11.4354C67.4223 11.3028 67.3696 11.1756 67.2759 11.0818C67.1821 10.9881 67.0549 10.9354 66.9223 10.9354H55.3412C55.2086 10.9354 55.0814 10.9881 54.9876 11.0818C54.8939 11.1756 54.8412 11.3028 54.8412 11.4354C54.8412 11.568 54.8939 11.6952 54.9876 11.7889C55.0814 11.8827 55.2086 11.9354 55.3412 11.9354ZM55.3412 20.3644H59.4223C59.5549 20.3644 59.6821 20.3118 59.7759 20.218C59.8696 20.1242 59.9223 19.997 59.9223 19.8644C59.9223 19.7318 59.8696 19.6047 59.7759 19.5109C59.6821 19.4171 59.5549 19.3644 59.4223 19.3644H55.3412C55.2086 19.3644 55.0814 19.4171 54.9876 19.5109C54.8939 19.6047 54.8412 19.7318 54.8412 19.8644C54.8412 19.997 54.8939 20.1242 54.9876 20.218C55.0814 20.3118 55.2086 20.3644 55.3412 20.3644ZM55.3412 14.7451H56.953C57.0856 14.7451 57.2128 14.6924 57.3066 14.5986C57.4003 14.5048 57.453 14.3777 57.453 14.2451C57.453 14.1125 57.4003 13.9853 57.3066 13.8915C57.2128 13.7977 57.0856 13.7451 56.953 13.7451H55.3412C55.2086 13.7451 55.0814 13.7977 54.9876 13.8915C54.8939 13.9853 54.8412 14.1125 54.8412 14.2451C54.8412 14.3777 54.8939 14.5048 54.9876 14.5986C55.0814 14.6924 55.2086 14.7451 55.3412 14.7451ZM55.3412 17.5548H58.5163C58.6489 17.5548 58.7761 17.5021 58.8699 17.4083C58.9636 17.3145 59.0163 17.1874 59.0163 17.0548C59.0163 16.9221 58.9636 16.795 58.8699 16.7012C58.7761 16.6074 58.6489 16.5548 58.5163 16.5548H55.3412C55.2086 16.5548 55.0814 16.6074 54.9876 16.7012C54.8939 16.795 54.8412 16.9221 54.8412 17.0548C54.8412 17.1874 54.8939 17.3145 54.9876 17.4083C55.0814 17.5021 55.2086 17.5548 55.3412 17.5548ZM83.3125 22.6925C83.3125 27.7212 79.2212 31.8125 74.1925 31.8125H56.6562C55.835 31.8125 55.1675 31.145 55.1675 30.3237V28.3325H53.1762C52.355 28.3325 51.6875 27.665 51.6875 26.8444V6.81375C51.6875 6.26 51.8944 5.76 52.2862 5.36812L56.8681 0.78625C57.26 0.394375 57.76 0.1875 58.3137 0.1875H72.0425C72.8631 0.1875 73.5312 0.855 73.5312 1.67625V3.6675H75.5225C76.3431 3.6675 77.0112 4.335 77.0112 5.15625V14.0194C80.6644 15.2094 83.3125 18.6475 83.3125 22.6925ZM78.6906 23.9487C78.6906 23.6731 78.4669 23.4487 78.1906 23.4487C77.9144 23.4487 77.6906 23.6731 77.6906 23.9487V25.3037C77.6906 25.7169 77.3544 26.0537 76.9406 26.0537H71.445C71.0312 26.0537 70.695 25.7169 70.695 25.3037V23.9487C70.695 23.6731 70.4713 23.4487 70.195 23.4487C69.9187 23.4487 69.695 23.6731 69.695 23.9487V25.3037C69.695 26.2687 70.48 27.0537 71.445 27.0537H76.9406C77.9056 27.0537 78.6906 26.2687 78.6906 25.3037V23.9487ZM73.6925 20.0394V24.255C73.6925 24.5312 73.9169 24.755 74.1925 24.755C74.4681 24.755 74.6925 24.5312 74.6925 24.255V20.0394L75.2225 20.5694C75.32 20.6669 75.4481 20.7156 75.5763 20.7156C75.7044 20.7156 75.8319 20.6669 75.93 20.5694C76.0237 20.4755 76.0763 20.3483 76.0763 20.2156C76.0763 20.083 76.0237 19.9558 75.93 19.8619L74.5462 18.4788C74.4999 18.4322 74.4448 18.3953 74.3842 18.3702C74.3235 18.345 74.2585 18.332 74.1928 18.332C74.1271 18.332 74.0621 18.345 74.0015 18.3702C73.9408 18.3953 73.8857 18.4322 73.8394 18.4788L72.4556 19.8619C72.362 19.9558 72.3094 20.083 72.3094 20.2156C72.3094 20.3483 72.362 20.4755 72.4556 20.5694C72.5495 20.663 72.6767 20.7156 72.8094 20.7156C72.942 20.7156 73.0692 20.663 73.1631 20.5694L73.6925 20.0394ZM73.5312 13.5975C73.7494 13.5813 73.97 13.5731 74.1925 13.5731C74.815 13.5731 75.4231 13.6362 76.0112 13.7556V5.15625C76.0112 4.88688 75.7919 4.6675 75.5225 4.6675H73.5312V13.5975ZM66.345 27.3325C65.5375 25.9725 65.0731 24.3856 65.0731 22.6925C65.0731 18.2319 68.2931 14.5087 72.5312 13.7256V1.67625C72.5312 1.40688 72.3119 1.1875 72.0425 1.1875H58.8156C58.4669 1.36687 58.2456 1.72187 58.2456 2.11687V5.2575C58.2456 6.07812 57.5781 6.74563 56.7575 6.74563H53.6169C53.2219 6.74563 52.8669 6.96688 52.6875 7.31563V26.8444C52.6875 27.1138 52.9069 27.3325 53.1762 27.3325H66.345ZM70.0431 30.8125C68.8694 30.21 67.8419 29.36 67.0312 28.3325H56.1675V30.3237C56.1675 30.5931 56.3869 30.8125 56.6562 30.8125H70.0431Z" fill="#7B787B"/>
</g>
<path d="M10.2302 46.9885C10.2302 47.7398 10.1112 48.4235 9.87313 49.0395C9.63513 49.6555 9.29913 50.1828 8.86513 50.6215C8.43113 51.0602 7.90847 51.4008 7.29713 51.6435C6.69047 51.8815 6.01847 52.0005 5.28113 52.0005H1.53613V41.9695H5.28113C6.01847 41.9695 6.69047 42.0908 7.29713 42.3335C7.90847 42.5715 8.43113 42.9122 8.86513 43.3555C9.29913 43.7942 9.63513 44.3215 9.87313 44.9375C10.1112 45.5535 10.2302 46.2372 10.2302 46.9885ZM8.83713 46.9885C8.83713 46.3725 8.75313 45.8218 8.58513 45.3365C8.41713 44.8512 8.17913 44.4405 7.87113 44.1045C7.56313 43.7685 7.1898 43.5118 6.75113 43.3345C6.31247 43.1572 5.82247 43.0685 5.28113 43.0685H2.89413V50.9015H5.28113C5.82247 50.9015 6.31247 50.8128 6.75113 50.6355C7.1898 50.4582 7.56313 50.2038 7.87113 49.8725C8.17913 49.5365 8.41713 49.1258 8.58513 48.6405C8.75313 48.1552 8.83713 47.6045 8.83713 46.9885ZM12.9252 46.3305C13.1492 45.8452 13.4245 45.4672 13.7512 45.1965C14.0778 44.9212 14.4768 44.7835 14.9482 44.7835C15.0975 44.7835 15.2398 44.7998 15.3752 44.8325C15.5152 44.8652 15.6388 44.9165 15.7462 44.9865L15.6552 45.9175C15.6272 46.0342 15.5572 46.0925 15.4452 46.0925C15.3798 46.0925 15.2842 46.0785 15.1582 46.0505C15.0322 46.0225 14.8898 46.0085 14.7312 46.0085C14.5072 46.0085 14.3065 46.0412 14.1292 46.1065C13.9565 46.1718 13.8002 46.2698 13.6602 46.4005C13.5248 46.5265 13.4012 46.6852 13.2892 46.8765C13.1818 47.0632 13.0838 47.2778 12.9952 47.5205V52.0005H11.7422V44.9095H12.4562C12.5915 44.9095 12.6848 44.9352 12.7362 44.9865C12.7875 45.0378 12.8225 45.1265 12.8412 45.2525L12.9252 46.3305ZM20.5754 48.8085C20.0014 48.8272 19.5114 48.8738 19.1054 48.9485C18.7041 49.0185 18.3751 49.1118 18.1184 49.2285C17.8664 49.3452 17.6821 49.4828 17.5654 49.6415C17.4534 49.8002 17.3974 49.9775 17.3974 50.1735C17.3974 50.3602 17.4278 50.5212 17.4884 50.6565C17.5491 50.7918 17.6308 50.9038 17.7334 50.9925C17.8408 51.0765 17.9644 51.1395 18.1044 51.1815C18.2491 51.2188 18.4031 51.2375 18.5664 51.2375C18.7858 51.2375 18.9864 51.2165 19.1684 51.1745C19.3504 51.1278 19.5208 51.0625 19.6794 50.9785C19.8428 50.8945 19.9968 50.7942 20.1414 50.6775C20.2908 50.5608 20.4354 50.4278 20.5754 50.2785V48.8085ZM16.5504 45.9105C16.9424 45.5325 17.3648 45.2502 17.8174 45.0635C18.2701 44.8768 18.7718 44.7835 19.3224 44.7835C19.7191 44.7835 20.0714 44.8488 20.3794 44.9795C20.6874 45.1102 20.9464 45.2922 21.1564 45.5255C21.3664 45.7588 21.5251 46.0412 21.6324 46.3725C21.7398 46.7038 21.7934 47.0678 21.7934 47.4645V52.0005H21.2404C21.1191 52.0005 21.0258 51.9818 20.9604 51.9445C20.8951 51.9025 20.8438 51.8232 20.8064 51.7065L20.6664 51.0345C20.4798 51.2072 20.2978 51.3612 20.1204 51.4965C19.9431 51.6272 19.7564 51.7392 19.5604 51.8325C19.3644 51.9212 19.1544 51.9888 18.9304 52.0355C18.7111 52.0868 18.4661 52.1125 18.1954 52.1125C17.9201 52.1125 17.6611 52.0752 17.4184 52.0005C17.1758 51.9212 16.9634 51.8045 16.7814 51.6505C16.6041 51.4965 16.4618 51.3028 16.3544 51.0695C16.2518 50.8315 16.2004 50.5515 16.2004 50.2295C16.2004 49.9495 16.2774 49.6812 16.4314 49.4245C16.5854 49.1632 16.8351 48.9322 17.1804 48.7315C17.5258 48.5308 17.9761 48.3675 18.5314 48.2415C19.0868 48.1108 19.7681 48.0362 20.5754 48.0175V47.4645C20.5754 46.9138 20.4564 46.4985 20.2184 46.2185C19.9804 45.9338 19.6328 45.7915 19.1754 45.7915C18.8674 45.7915 18.6084 45.8312 18.3984 45.9105C18.1931 45.9852 18.0134 46.0715 17.8594 46.1695C17.7101 46.2628 17.5794 46.3492 17.4674 46.4285C17.3601 46.5032 17.2528 46.5405 17.1454 46.5405C17.0614 46.5405 16.9891 46.5195 16.9284 46.4775C16.8678 46.4308 16.8164 46.3748 16.7744 46.3095L16.5504 45.9105ZM26.1624 48.5355C26.4144 48.5355 26.6361 48.5005 26.8274 48.4305C27.0187 48.3605 27.1797 48.2625 27.3104 48.1365C27.4411 48.0105 27.5391 47.8612 27.6044 47.6885C27.6697 47.5112 27.7024 47.3175 27.7024 47.1075C27.7024 46.6735 27.5694 46.3282 27.3034 46.0715C27.0421 45.8148 26.6617 45.6865 26.1624 45.6865C25.6584 45.6865 25.2734 45.8148 25.0074 46.0715C24.7461 46.3282 24.6154 46.6735 24.6154 47.1075C24.6154 47.3175 24.6481 47.5112 24.7134 47.6885C24.7834 47.8612 24.8837 48.0105 25.0144 48.1365C25.1451 48.2625 25.3061 48.3605 25.4974 48.4305C25.6887 48.5005 25.9104 48.5355 26.1624 48.5355ZM28.4094 52.3855C28.4094 52.2128 28.3604 52.0728 28.2624 51.9655C28.1644 51.8582 28.0314 51.7742 27.8634 51.7135C27.7001 51.6528 27.5087 51.6108 27.2894 51.5875C27.0701 51.5595 26.8367 51.5385 26.5894 51.5245C26.3467 51.5105 26.0994 51.4965 25.8474 51.4825C25.5954 51.4685 25.3527 51.4452 25.1194 51.4125C24.8581 51.5338 24.6434 51.6878 24.4754 51.8745C24.3121 52.0565 24.2304 52.2712 24.2304 52.5185C24.2304 52.6772 24.2701 52.8242 24.3494 52.9595C24.4334 53.0995 24.5594 53.2185 24.7274 53.3165C24.8954 53.4192 25.1054 53.4985 25.3574 53.5545C25.6141 53.6152 25.9151 53.6455 26.2604 53.6455C26.5964 53.6455 26.8974 53.6152 27.1634 53.5545C27.4294 53.4938 27.6534 53.4075 27.8354 53.2955C28.0221 53.1835 28.1644 53.0505 28.2624 52.8965C28.3604 52.7425 28.4094 52.5722 28.4094 52.3855ZM29.6764 45.1895V45.6515C29.6764 45.8055 29.5784 45.9035 29.3824 45.9455L28.5774 46.0505C28.7361 46.3585 28.8154 46.6992 28.8154 47.0725C28.8154 47.4178 28.7477 47.7328 28.6124 48.0175C28.4817 48.2975 28.2997 48.5378 28.0664 48.7385C27.8331 48.9392 27.5531 49.0932 27.2264 49.2005C26.8997 49.3078 26.5451 49.3615 26.1624 49.3615C25.8311 49.3615 25.5184 49.3218 25.2244 49.2425C25.0751 49.3358 24.9607 49.4362 24.8814 49.5435C24.8021 49.6462 24.7624 49.7512 24.7624 49.8585C24.7624 50.0265 24.8301 50.1548 24.9654 50.2435C25.1054 50.3275 25.2874 50.3882 25.5114 50.4255C25.7354 50.4628 25.9897 50.4862 26.2744 50.4955C26.5637 50.5048 26.8577 50.5212 27.1564 50.5445C27.4597 50.5632 27.7537 50.5982 28.0384 50.6495C28.3277 50.7008 28.5844 50.7848 28.8084 50.9015C29.0324 51.0182 29.2121 51.1792 29.3474 51.3845C29.4874 51.5898 29.5574 51.8558 29.5574 52.1825C29.5574 52.4858 29.4804 52.7798 29.3264 53.0645C29.1771 53.3492 28.9601 53.6012 28.6754 53.8205C28.3907 54.0445 28.0407 54.2218 27.6254 54.3525C27.2147 54.4878 26.7504 54.5555 26.2324 54.5555C25.7144 54.5555 25.2617 54.5042 24.8744 54.4015C24.4871 54.2988 24.1651 54.1612 23.9084 53.9885C23.6517 53.8158 23.4581 53.6152 23.3274 53.3865C23.2014 53.1625 23.1384 52.9268 23.1384 52.6795C23.1384 52.3295 23.2481 52.0332 23.4674 51.7905C23.6867 51.5478 23.9877 51.3542 24.3704 51.2095C24.1604 51.1162 23.9924 50.9925 23.8664 50.8385C23.7451 50.6798 23.6844 50.4675 23.6844 50.2015C23.6844 50.0988 23.7031 49.9938 23.7404 49.8865C23.7777 49.7745 23.8337 49.6648 23.9084 49.5575C23.9877 49.4455 24.0834 49.3405 24.1954 49.2425C24.3074 49.1445 24.4381 49.0582 24.5874 48.9835C24.2374 48.7875 23.9644 48.5285 23.7684 48.2065C23.5724 47.8798 23.4744 47.5018 23.4744 47.0725C23.4744 46.7272 23.5397 46.4145 23.6704 46.1345C23.8057 45.8498 23.9924 45.6095 24.2304 45.4135C24.4684 45.2128 24.7507 45.0588 25.0774 44.9515C25.4087 44.8442 25.7704 44.7905 26.1624 44.7905C26.4704 44.7905 26.7574 44.8255 27.0234 44.8955C27.2894 44.9608 27.5321 45.0588 27.7514 45.1895H29.6764ZM36.9409 47.0585C36.4462 47.3198 36.0729 47.6372 35.8209 48.0105C35.5735 48.3838 35.4499 48.7898 35.4499 49.2285C35.4499 49.5318 35.5059 49.8002 35.6179 50.0335C35.7299 50.2622 35.8769 50.4558 36.0589 50.6145C36.2409 50.7732 36.4485 50.8945 36.6819 50.9785C36.9152 51.0578 37.1532 51.0975 37.3959 51.0975C37.9185 51.0975 38.3875 51.0018 38.8029 50.8105C39.2229 50.6192 39.5892 50.3625 39.9019 50.0405L36.9409 47.0585ZM43.4089 52.0005H42.1979C42.0625 52.0005 41.9529 51.9842 41.8689 51.9515C41.7849 51.9188 41.6939 51.8512 41.5959 51.7485L40.5809 50.7265C40.1422 51.1512 39.6359 51.4895 39.0619 51.7415C38.4925 51.9888 37.8649 52.1125 37.1789 52.1125C36.8055 52.1125 36.4392 52.0495 36.0799 51.9235C35.7252 51.7975 35.4055 51.6155 35.1209 51.3775C34.8362 51.1348 34.6075 50.8408 34.4349 50.4955C34.2622 50.1502 34.1758 49.7605 34.1758 49.3265C34.1758 48.9998 34.2295 48.6918 34.3369 48.4025C34.4489 48.1085 34.6029 47.8378 34.7989 47.5905C34.9949 47.3432 35.2259 47.1215 35.4919 46.9255C35.7579 46.7295 36.0495 46.5615 36.3669 46.4215C36.0822 46.0575 35.8722 45.7075 35.7369 45.3715C35.6015 45.0308 35.5339 44.6785 35.5339 44.3145C35.5339 43.9738 35.5945 43.6542 35.7159 43.3555C35.8419 43.0568 36.0215 42.7978 36.2549 42.5785C36.4882 42.3545 36.7705 42.1795 37.1019 42.0535C37.4379 41.9228 37.8135 41.8575 38.2289 41.8575C38.5975 41.8575 38.9335 41.9182 39.2369 42.0395C39.5402 42.1562 39.8015 42.3125 40.0209 42.5085C40.2402 42.7045 40.4129 42.9332 40.5389 43.1945C40.6695 43.4512 40.7442 43.7195 40.7629 43.9995L39.9859 44.1535C39.8319 44.1908 39.7175 44.1185 39.6429 43.9365C39.6102 43.8152 39.5565 43.6892 39.4819 43.5585C39.4119 43.4278 39.3185 43.3088 39.2019 43.2015C39.0899 43.0942 38.9522 43.0055 38.7889 42.9355C38.6302 42.8655 38.4435 42.8305 38.2289 42.8305C37.9955 42.8305 37.7832 42.8678 37.5919 42.9425C37.4052 43.0172 37.2442 43.1222 37.1089 43.2575C36.9782 43.3882 36.8778 43.5445 36.8078 43.7265C36.7378 43.9038 36.7029 44.0975 36.7029 44.3075C36.7029 44.4708 36.7215 44.6272 36.7589 44.7765C36.7962 44.9258 36.8545 45.0775 36.9339 45.2315C37.0179 45.3855 37.1229 45.5418 37.2489 45.7005C37.3749 45.8592 37.5265 46.0272 37.7039 46.2045L40.5879 49.1375C40.7652 48.8202 40.9075 48.4912 41.0149 48.1505C41.1222 47.8052 41.1922 47.4622 41.2249 47.1215C41.2342 47.0328 41.2622 46.9628 41.3089 46.9115C41.3555 46.8602 41.4209 46.8345 41.5049 46.8345H42.2679C42.2632 47.3712 42.1792 47.8985 42.0159 48.4165C41.8525 48.9298 41.6169 49.4128 41.3089 49.8655L43.4089 52.0005ZM57.0837 46.9885C57.0837 47.7398 56.9647 48.4235 56.7267 49.0395C56.4887 49.6555 56.1527 50.1828 55.7187 50.6215C55.2847 51.0602 54.762 51.4008 54.1507 51.6435C53.544 51.8815 52.872 52.0005 52.1347 52.0005H48.3897V41.9695H52.1347C52.872 41.9695 53.544 42.0908 54.1507 42.3335C54.762 42.5715 55.2847 42.9122 55.7187 43.3555C56.1527 43.7942 56.4887 44.3215 56.7267 44.9375C56.9647 45.5535 57.0837 46.2372 57.0837 46.9885ZM55.6907 46.9885C55.6907 46.3725 55.6067 45.8218 55.4387 45.3365C55.2707 44.8512 55.0327 44.4405 54.7247 44.1045C54.4167 43.7685 54.0434 43.5118 53.6047 43.3345C53.166 43.1572 52.676 43.0685 52.1347 43.0685H49.7477V50.9015H52.1347C52.676 50.9015 53.166 50.8128 53.6047 50.6355C54.0434 50.4582 54.4167 50.2038 54.7247 49.8725C55.0327 49.5365 55.2707 49.1258 55.4387 48.6405C55.6067 48.1552 55.6907 47.6045 55.6907 46.9885ZM59.7787 46.3305C60.0027 45.8452 60.278 45.4672 60.6047 45.1965C60.9314 44.9212 61.3304 44.7835 61.8017 44.7835C61.951 44.7835 62.0934 44.7998 62.2287 44.8325C62.3687 44.8652 62.4924 44.9165 62.5997 44.9865L62.5087 45.9175C62.4807 46.0342 62.4107 46.0925 62.2987 46.0925C62.2334 46.0925 62.1377 46.0785 62.0117 46.0505C61.8857 46.0225 61.7434 46.0085 61.5847 46.0085C61.3607 46.0085 61.16 46.0412 60.9827 46.1065C60.81 46.1718 60.6537 46.2698 60.5137 46.4005C60.3784 46.5265 60.2547 46.6852 60.1427 46.8765C60.0354 47.0632 59.9374 47.2778 59.8487 47.5205V52.0005H58.5957V44.9095H59.3097C59.445 44.9095 59.5384 44.9352 59.5897 44.9865C59.641 45.0378 59.676 45.1265 59.6947 45.2525L59.7787 46.3305ZM66.3971 44.7975C66.9151 44.7975 67.3818 44.8838 67.7971 45.0565C68.2124 45.2292 68.5672 45.4742 68.8612 45.7915C69.1552 46.1088 69.3791 46.4938 69.5331 46.9465C69.6918 47.3945 69.7711 47.8962 69.7711 48.4515C69.7711 49.0115 69.6918 49.5155 69.5331 49.9635C69.3791 50.4115 69.1552 50.7942 68.8612 51.1115C68.5672 51.4288 68.2124 51.6738 67.7971 51.8465C67.3818 52.0145 66.9151 52.0985 66.3971 52.0985C65.8744 52.0985 65.4032 52.0145 64.9832 51.8465C64.5679 51.6738 64.2132 51.4288 63.9192 51.1115C63.6252 50.7942 63.3989 50.4115 63.2402 49.9635C63.0862 49.5155 63.0092 49.0115 63.0092 48.4515C63.0092 47.8962 63.0862 47.3945 63.2402 46.9465C63.3989 46.4938 63.6252 46.1088 63.9192 45.7915C64.2132 45.4742 64.5679 45.2292 64.9832 45.0565C65.4032 44.8838 65.8744 44.7975 66.3971 44.7975ZM66.3971 51.1255C67.0971 51.1255 67.6198 50.8922 67.9651 50.4255C68.3104 49.9542 68.4832 49.2985 68.4832 48.4585C68.4832 47.6138 68.3104 46.9558 67.9651 46.4845C67.6198 46.0132 67.0971 45.7775 66.3971 45.7775C66.0424 45.7775 65.7321 45.8382 65.4661 45.9595C65.2048 46.0808 64.9855 46.2558 64.8082 46.4845C64.6355 46.7132 64.5049 46.9955 64.4162 47.3315C64.3322 47.6628 64.2902 48.0385 64.2902 48.4585C64.2902 49.2985 64.4629 49.9542 64.8082 50.4255C65.1582 50.8922 65.6878 51.1255 66.3971 51.1255ZM72.6046 50.2925C72.8332 50.6005 73.0829 50.8175 73.3536 50.9435C73.6242 51.0695 73.9275 51.1325 74.2635 51.1325C74.9261 51.1325 75.4349 50.8968 75.7896 50.4255C76.1442 49.9542 76.3215 49.2822 76.3215 48.4095C76.3215 47.9475 76.2795 47.5508 76.1955 47.2195C76.1161 46.8882 75.9996 46.6175 75.8456 46.4075C75.6916 46.1928 75.5025 46.0365 75.2785 45.9385C75.0545 45.8405 74.8001 45.7915 74.5155 45.7915C74.1095 45.7915 73.7525 45.8848 73.4445 46.0715C73.1411 46.2582 72.8612 46.5218 72.6046 46.8625V50.2925ZM72.5415 46.0085C72.8401 45.6398 73.1856 45.3435 73.5776 45.1195C73.9696 44.8955 74.4176 44.7835 74.9216 44.7835C75.3322 44.7835 75.7032 44.8628 76.0346 45.0215C76.3659 45.1755 76.6482 45.4065 76.8816 45.7145C77.1149 46.0178 77.2946 46.3958 77.4206 46.8485C77.5466 47.3012 77.6096 47.8215 77.6096 48.4095C77.6096 48.9322 77.5396 49.4198 77.3996 49.8725C77.2596 50.3205 77.0566 50.7102 76.7906 51.0415C76.5292 51.3682 76.2072 51.6272 75.8246 51.8185C75.4466 52.0052 75.0195 52.0985 74.5435 52.0985C74.1095 52.0985 73.7362 52.0262 73.4236 51.8815C73.1156 51.7322 72.8426 51.5268 72.6046 51.2655V54.4015H71.3516V44.9095H72.1006C72.2779 44.9095 72.3876 44.9958 72.4296 45.1685L72.5415 46.0085ZM84.4332 43.0755V46.5825H88.5562V47.6885H84.4332V52.0005H83.0751V41.9695H89.2561V43.0755H84.4332ZM91.9859 44.9095V52.0005H90.7399V44.9095H91.9859ZM92.2519 42.6835C92.2519 42.8048 92.2263 42.9192 92.1749 43.0265C92.1283 43.1292 92.0629 43.2225 91.9789 43.3065C91.8996 43.3858 91.8038 43.4488 91.6918 43.4955C91.5845 43.5422 91.4703 43.5655 91.3489 43.5655C91.2276 43.5655 91.1133 43.5422 91.0059 43.4955C90.9033 43.4488 90.8122 43.3858 90.7328 43.3065C90.6535 43.2225 90.5906 43.1292 90.5439 43.0265C90.4973 42.9192 90.4739 42.8048 90.4739 42.6835C90.4739 42.5622 90.4973 42.4478 90.5439 42.3405C90.5906 42.2285 90.6535 42.1328 90.7328 42.0535C90.8122 41.9695 90.9033 41.9042 91.0059 41.8575C91.1133 41.8108 91.2276 41.7875 91.3489 41.7875C91.4703 41.7875 91.5845 41.8108 91.6918 41.8575C91.8038 41.9042 91.8996 41.9695 91.9789 42.0535C92.0629 42.1328 92.1283 42.2285 92.1749 42.3405C92.2263 42.4478 92.2519 42.5622 92.2519 42.6835ZM95.3212 41.6895V52.0005H94.0751V41.6895H95.3212ZM102.087 47.6815C102.087 47.3922 102.045 47.1285 101.961 46.8905C101.882 46.6478 101.763 46.4402 101.604 46.2675C101.45 46.0902 101.261 45.9548 101.037 45.8615C100.813 45.7635 100.559 45.7145 100.274 45.7145C99.6775 45.7145 99.2038 45.8895 98.8538 46.2395C98.5085 46.5848 98.2938 47.0655 98.2098 47.6815H102.087ZM103.095 51.0065C102.941 51.1932 102.757 51.3565 102.542 51.4965C102.328 51.6318 102.097 51.7438 101.849 51.8325C101.607 51.9212 101.355 51.9865 101.093 52.0285C100.832 52.0752 100.573 52.0985 100.316 52.0985C99.8268 52.0985 99.3741 52.0168 98.9588 51.8535C98.5481 51.6855 98.191 51.4428 97.8877 51.1255C97.589 50.8035 97.3558 50.4068 97.1878 49.9355C97.0198 49.4642 96.9358 48.9228 96.9358 48.3115C96.9358 47.8168 97.0105 47.3548 97.1598 46.9255C97.3138 46.4962 97.533 46.1252 97.8177 45.8125C98.1024 45.4952 98.45 45.2478 98.8607 45.0705C99.2714 44.8885 99.7335 44.7975 100.246 44.7975C100.671 44.7975 101.063 44.8698 101.422 45.0145C101.786 45.1545 102.099 45.3598 102.36 45.6305C102.626 45.8965 102.834 46.2278 102.983 46.6245C103.133 47.0165 103.207 47.4645 103.207 47.9685C103.207 48.1645 103.186 48.2952 103.144 48.3605C103.102 48.4258 103.023 48.4585 102.906 48.4585H98.1678C98.1818 48.9065 98.2425 49.2962 98.3498 49.6275C98.4618 49.9588 98.6158 50.2365 98.8118 50.4605C99.0078 50.6798 99.241 50.8455 99.5117 50.9575C99.7824 51.0648 100.085 51.1185 100.421 51.1185C100.734 51.1185 101.002 51.0835 101.226 51.0135C101.455 50.9388 101.651 50.8595 101.814 50.7755C101.978 50.6915 102.113 50.6145 102.22 50.5445C102.332 50.4698 102.428 50.4325 102.507 50.4325C102.61 50.4325 102.689 50.4722 102.745 50.5515L103.095 51.0065ZM109.573 45.8545C109.876 45.5325 110.212 45.2758 110.581 45.0845C110.95 44.8932 111.374 44.7975 111.855 44.7975C112.242 44.7975 112.583 44.8628 112.877 44.9935C113.176 45.1195 113.423 45.3015 113.619 45.5395C113.82 45.7728 113.971 46.0552 114.074 46.3865C114.177 46.7178 114.228 47.0842 114.228 47.4855V52.0005H112.975V47.4855C112.975 46.9488 112.851 46.5335 112.604 46.2395C112.361 45.9408 111.99 45.7915 111.491 45.7915C111.122 45.7915 110.777 45.8802 110.455 46.0575C110.138 46.2348 109.844 46.4752 109.573 46.7785V52.0005H108.32V41.6895H109.573V45.8545ZM120.873 47.6815C120.873 47.3922 120.831 47.1285 120.747 46.8905C120.667 46.6478 120.548 46.4402 120.39 46.2675C120.236 46.0902 120.047 45.9548 119.823 45.8615C119.599 45.7635 119.344 45.7145 119.06 45.7145C118.462 45.7145 117.989 45.8895 117.639 46.2395C117.293 46.5848 117.079 47.0655 116.995 47.6815H120.873ZM121.881 51.0065C121.727 51.1932 121.542 51.3565 121.328 51.4965C121.113 51.6318 120.882 51.7438 120.635 51.8325C120.392 51.9212 120.14 51.9865 119.879 52.0285C119.617 52.0752 119.358 52.0985 119.102 52.0985C118.612 52.0985 118.159 52.0168 117.744 51.8535C117.333 51.6855 116.976 51.4428 116.673 51.1255C116.374 50.8035 116.141 50.4068 115.973 49.9355C115.805 49.4642 115.721 48.9228 115.721 48.3115C115.721 47.8168 115.795 47.3548 115.945 46.9255C116.099 46.4962 116.318 46.1252 116.603 45.8125C116.887 45.4952 117.235 45.2478 117.646 45.0705C118.056 44.8885 118.518 44.7975 119.032 44.7975C119.456 44.7975 119.848 44.8698 120.208 45.0145C120.572 45.1545 120.884 45.3598 121.146 45.6305C121.412 45.8965 121.619 46.2278 121.769 46.6245C121.918 47.0165 121.993 47.4645 121.993 47.9685C121.993 48.1645 121.972 48.2952 121.93 48.3605C121.888 48.4258 121.808 48.4585 121.692 48.4585H116.953C116.967 48.9065 117.027 49.2962 117.135 49.6275C117.247 49.9588 117.401 50.2365 117.597 50.4605C117.793 50.6798 118.026 50.8455 118.297 50.9575C118.567 51.0648 118.871 51.1185 119.207 51.1185C119.519 51.1185 119.788 51.0835 120.012 51.0135C120.24 50.9388 120.436 50.8595 120.6 50.7755C120.763 50.6915 120.898 50.6145 121.006 50.5445C121.118 50.4698 121.213 50.4325 121.293 50.4325C121.395 50.4325 121.475 50.4722 121.531 50.5515L121.881 51.0065ZM124.706 46.3305C124.93 45.8452 125.205 45.4672 125.532 45.1965C125.859 44.9212 126.258 44.7835 126.729 44.7835C126.878 44.7835 127.021 44.7998 127.156 44.8325C127.296 44.8652 127.42 44.9165 127.527 44.9865L127.436 45.9175C127.408 46.0342 127.338 46.0925 127.226 46.0925C127.161 46.0925 127.065 46.0785 126.939 46.0505C126.813 46.0225 126.671 46.0085 126.512 46.0085C126.288 46.0085 126.087 46.0412 125.91 46.1065C125.737 46.1718 125.581 46.2698 125.441 46.4005C125.306 46.5265 125.182 46.6852 125.07 46.8765C124.963 47.0632 124.865 47.2778 124.776 47.5205V52.0005H123.523V44.9095H124.237C124.372 44.9095 124.466 44.9352 124.517 44.9865C124.568 45.0378 124.603 45.1265 124.622 45.2525L124.706 46.3305ZM133.082 47.6815C133.082 47.3922 133.04 47.1285 132.956 46.8905C132.876 46.6478 132.757 46.4402 132.599 46.2675C132.445 46.0902 132.256 45.9548 132.032 45.8615C131.808 45.7635 131.553 45.7145 131.269 45.7145C130.671 45.7145 130.198 45.8895 129.848 46.2395C129.502 46.5848 129.288 47.0655 129.204 47.6815H133.082ZM134.09 51.0065C133.936 51.1932 133.751 51.3565 133.537 51.4965C133.322 51.6318 133.091 51.7438 132.844 51.8325C132.601 51.9212 132.349 51.9865 132.088 52.0285C131.826 52.0752 131.567 52.0985 131.311 52.0985C130.821 52.0985 130.368 52.0168 129.953 51.8535C129.542 51.6855 129.185 51.4428 128.882 51.1255C128.583 50.8035 128.35 50.4068 128.182 49.9355C128.014 49.4642 127.93 48.9228 127.93 48.3115C127.93 47.8168 128.004 47.3548 128.154 46.9255C128.308 46.4962 128.527 46.1252 128.812 45.8125C129.096 45.4952 129.444 45.2478 129.855 45.0705C130.265 44.8885 130.727 44.7975 131.241 44.7975C131.665 44.7975 132.057 44.8698 132.417 45.0145C132.781 45.1545 133.093 45.3598 133.355 45.6305C133.621 45.8965 133.828 46.2278 133.978 46.6245C134.127 47.0165 134.202 47.4645 134.202 47.9685C134.202 48.1645 134.181 48.2952 134.139 48.3605C134.097 48.4258 134.017 48.4585 133.901 48.4585H129.162C129.176 48.9065 129.236 49.2962 129.344 49.6275C129.456 49.9588 129.61 50.2365 129.806 50.4605C130.002 50.6798 130.235 50.8455 130.506 50.9575C130.776 51.0648 131.08 51.1185 131.416 51.1185C131.728 51.1185 131.997 51.0835 132.221 51.0135C132.449 50.9388 132.645 50.8595 132.809 50.7755C132.972 50.6915 133.107 50.6145 133.215 50.5445C133.327 50.4698 133.422 50.4325 133.502 50.4325C133.604 50.4325 133.684 50.4722 133.74 50.5515L134.09 51.0065Z" fill="#7B787B"/>
</svg>
