<svg width="26" height="34" viewBox="0 0 26 34" fill="none" xmlns="http://www.w3.org/2000/svg">
<path d="M20.3939 0H0.129272V34H25.8698V5.66596L20.3939 0Z" fill="#E8E8E8"/>
<path d="M21.4988 16.8139C21.104 16.0858 19.7397 15.857 19.1138 15.7541C18.6205 15.6729 18.1169 15.6487 17.6179 15.6491C17.2261 15.6464 16.84 15.6664 16.459 15.6888C16.3185 15.6986 16.1795 15.7111 16.0405 15.7236C15.8981 15.5711 15.7605 15.4135 15.6273 15.2524C14.7797 14.2143 14.0954 13.037 13.5378 11.8137C13.6859 11.2226 13.8043 10.6057 13.8759 9.965C14.0065 8.7957 14.0513 7.46312 13.6279 6.34832C13.4817 5.96356 13.0918 5.49515 12.6421 5.7284C12.125 5.99664 11.9795 6.75663 11.9374 7.29536C11.9035 7.7308 11.9272 8.16737 11.9979 8.59553C12.0698 9.0266 12.1857 9.43592 12.3118 9.84467C12.4295 10.2194 12.5593 10.5913 12.7007 10.9597C12.611 11.2497 12.5157 11.5346 12.4157 11.8123C12.1824 12.4451 11.9302 13.0463 11.6877 13.6246C11.5598 13.9114 11.4346 14.1921 11.3121 14.4665C10.9246 15.3474 10.5039 16.2121 10.0316 17.048C8.93018 17.45 7.94176 17.9161 7.1209 18.4638C6.68055 18.7581 6.29158 19.0779 5.96763 19.4285C5.66179 19.7596 5.35096 20.1892 5.32375 20.6648C5.30847 20.9332 5.41121 21.1937 5.62375 21.353C5.91605 21.5789 6.30339 21.5639 6.64251 21.4904C7.7534 21.2493 8.60646 20.2612 9.33292 19.4284C9.83331 18.8548 10.4028 18.1264 10.9986 17.2456C10.9999 17.2436 11.0012 17.2415 11.0026 17.2395C12.0244 16.9117 13.1365 16.635 14.3167 16.4315C14.8559 16.339 15.4094 16.2633 15.974 16.2102C16.371 16.5949 16.7999 16.9453 17.2679 17.2378C17.6324 17.4699 18.0201 17.6658 18.4258 17.8119C18.8362 17.9506 19.249 18.0639 19.6752 18.1355C19.8905 18.1674 20.1106 18.1818 20.3355 18.1731C20.8374 18.1535 21.5578 17.9543 21.605 17.3242C21.6196 17.1313 21.5794 16.9622 21.4988 16.8139ZM9.48292 17.9701C9.24784 18.3469 9.02112 18.6858 8.8075 18.984C8.28435 19.7205 7.68686 20.5954 6.82177 20.9225C6.65747 20.9846 6.44114 21.0487 6.21311 21.0348C6.01001 21.0225 5.80972 20.9298 5.81894 20.6911C5.82349 20.5662 5.88256 20.4068 5.97316 20.2503C6.07233 20.0786 6.19512 19.9212 6.3281 19.7764C6.61303 19.4667 6.97329 19.1664 7.38773 18.8884C8.02337 18.4617 8.78225 18.0777 9.62815 17.735C9.57949 17.8146 9.53093 17.8938 9.48292 17.9701ZM12.4332 8.52106C12.368 8.127 12.3581 7.72744 12.3982 7.34324C12.4182 7.15114 12.456 6.96364 12.5107 6.78791C12.5571 6.63877 12.6572 6.27475 12.817 6.22799C13.0804 6.15084 13.1613 6.73588 13.1911 6.9014C13.3608 7.84294 13.2113 8.89001 13.0076 9.81361C12.9752 9.96051 12.9391 10.1051 12.9022 10.2491C12.8391 10.0695 12.779 9.88942 12.7236 9.70842C12.6044 9.31312 12.4953 8.91322 12.4332 8.52106ZM14.2413 15.9538C13.2518 16.1198 12.3105 16.3372 11.4257 16.5939C11.5323 16.5631 12.0191 15.6084 12.1277 15.4103C12.6394 14.4778 13.0579 13.4991 13.3587 12.4725C13.8897 13.5593 14.5343 14.5989 15.3261 15.5243C15.399 15.6083 15.4732 15.6913 15.5486 15.7733C15.1049 15.8227 14.6682 15.8829 14.2413 15.9538ZM20.9331 17.2652C20.8969 17.4676 20.4791 17.5833 20.2841 17.6152C19.708 17.7089 19.0984 17.6339 18.547 17.4423C18.1687 17.3108 17.8037 17.1319 17.457 16.9165C17.1124 16.7011 16.79 16.4477 16.4886 16.1682C16.8602 16.1451 17.2364 16.13 17.6144 16.1374C17.9924 16.1413 18.3734 16.161 18.7497 16.2118C19.4553 16.2933 20.2461 16.5439 20.8015 17.0177C20.9109 17.1111 20.9458 17.1937 20.9331 17.2652Z" fill="#FB3449"/>
<path d="M21.2414 2.83303H0.129272V0H20.3939L21.2414 2.83303Z" fill="#FB3449"/>
<path d="M10.3171 27.0432C10.3171 27.6444 10.1459 28.1086 9.80318 28.4361C9.46049 28.7637 8.97386 28.9274 8.3431 28.9274H7.94827V30.7124H6.54346V25.3319H8.3432C8.99998 25.3319 9.49322 25.4804 9.8228 25.7772C10.1524 26.0741 10.3171 26.4961 10.3171 27.0432ZM7.94838 27.7424H8.20448C8.41549 27.7424 8.58326 27.6812 8.70779 27.5584C8.83232 27.4357 8.89453 27.2664 8.89453 27.0505C8.89453 26.6874 8.7001 26.5058 8.31123 26.5058H7.94838V27.7424Z" fill="#A4A9AD"/>
<path d="M15.5598 27.908C15.5598 28.8059 15.3209 29.4979 14.8431 29.9837C14.3654 30.4695 13.6937 30.7124 12.8282 30.7124H11.1459V25.3319H12.9456C13.7803 25.3319 14.4246 25.5527 14.8787 25.9943C15.3327 26.4359 15.5598 27.0739 15.5598 27.908ZM14.1016 27.9596C14.1016 27.4664 14.0073 27.1009 13.8188 26.8629C13.6304 26.6249 13.344 26.5059 12.9598 26.5059H12.5509V29.52H12.8639C13.2908 29.52 13.6037 29.3918 13.8029 29.1353C14.002 28.8791 14.1016 28.4871 14.1016 27.9596Z" fill="#A4A9AD"/>
<path d="M17.8765 30.7124H16.4929V25.3319H19.566V26.4985H17.8765V27.5253H19.4343V28.6919H17.8765V30.7124Z" fill="#A4A9AD"/>
<path d="M20.395 5.66596H25.8709L20.395 0V5.66596Z" fill="#D1D3D3"/>
</svg>
