<svg width="122" height="84" viewBox="0 0 122 84" fill="none" xmlns="http://www.w3.org/2000/svg">
<path d="M63.5049 4C64 4 64.4158 4.42 64.4158 4.92V11.36C64.4158 15.02 67.3861 18.02 71.0297 18.04C72.5149 18.04 73.703 18.06 74.6139 18.06C75.2277 18.06 76.2376 18.04 77.0891 18.04C77.5842 18.04 78 18.44 78 18.94V35.02C78 39.98 74 44 69.0891 44H53.3465C48.1782 44 44 39.78 44 34.58V13.02C44 8.06 47.9802 4 52.9307 4H63.5049ZM60.2772 17.48C60.0792 17.48 59.8812 17.52 59.703 17.6C59.5248 17.68 59.3663 17.78 59.2277 17.92L53.5644 23.68C52.9901 24.26 52.9901 25.2 53.5644 25.78C54.1386 26.36 55.0693 26.36 55.6436 25.78L58.7921 22.58V32.24C58.7921 33.06 59.4455 33.72 60.2772 33.72C61.0891 33.72 61.7426 33.06 61.7426 32.24V22.58L64.8911 25.78C65.4653 26.36 66.396 26.36 66.9703 25.78C67.5644 25.2 67.5644 24.26 66.9901 23.68L61.3069 17.92C61.1683 17.78 61.0099 17.68 60.8317 17.6C60.6535 17.52 60.4752 17.48 60.2772 17.48ZM67.2905 5.812C67.2905 4.95 68.3242 4.522 68.9162 5.144C71.0588 7.392 74.7994 11.322 76.8905 13.518C77.4667 14.124 77.043 15.13 76.2093 15.132C74.5816 15.138 72.6648 15.132 71.2846 15.118C69.0945 15.118 67.2905 13.296 67.2905 11.084V5.812Z" fill="#484848"/>
<path d="M8.42699 74.844C8.51099 74.844 8.58333 74.8767 8.64399 74.942L9.23199 75.586C8.82133 76.0713 8.31966 76.447 7.72699 76.713C7.13899 76.979 6.42966 77.112 5.59899 77.112C4.87099 77.112 4.21066 76.986 3.61799 76.734C3.02999 76.482 2.52599 76.1297 2.10599 75.677C1.69066 75.2243 1.36866 74.683 1.13999 74.053C0.911326 73.423 0.796992 72.73 0.796992 71.974C0.796992 71.218 0.915992 70.525 1.15399 69.895C1.39666 69.265 1.73499 68.7237 2.16899 68.271C2.60299 67.8183 3.12099 67.466 3.72299 67.214C4.32966 66.962 4.99933 66.836 5.73199 66.836C6.44599 66.836 7.08066 66.9527 7.63599 67.186C8.19133 67.4193 8.67433 67.7297 9.08499 68.117L8.59499 68.81C8.56233 68.8613 8.52033 68.9033 8.46899 68.936C8.42233 68.9687 8.35933 68.985 8.27999 68.985C8.19133 68.985 8.08633 68.9407 7.96499 68.852C7.84833 68.7633 7.69199 68.6653 7.49599 68.558C7.30466 68.446 7.06666 68.3457 6.78199 68.257C6.49733 68.1683 6.14266 68.124 5.71799 68.124C5.21866 68.124 4.76133 68.2127 4.34599 68.39C3.93066 68.5627 3.57133 68.8147 3.26799 69.146C2.96933 69.4727 2.73599 69.8763 2.56799 70.357C2.40466 70.833 2.32299 71.372 2.32299 71.974C2.32299 72.5853 2.40933 73.129 2.58199 73.605C2.75466 74.081 2.99266 74.4847 3.29599 74.816C3.59933 75.1473 3.95633 75.3993 4.36699 75.572C4.77766 75.7447 5.22099 75.831 5.69699 75.831C5.98633 75.831 6.24533 75.8147 6.47399 75.782C6.70733 75.7447 6.91966 75.691 7.11099 75.621C7.30699 75.551 7.49133 75.4623 7.66399 75.355C7.83666 75.243 8.00699 75.11 8.17499 74.956C8.21233 74.9233 8.25199 74.8977 8.29399 74.879C8.33599 74.8557 8.38033 74.844 8.42699 74.844ZM11.8502 66.668V77H10.4782V66.668H11.8502ZM15.2278 69.888V77H13.8628V69.888H15.2278ZM15.4868 67.69C15.4868 67.816 15.4612 67.9373 15.4098 68.054C15.3585 68.166 15.2885 68.2663 15.1998 68.355C15.1158 68.439 15.0155 68.5067 14.8988 68.558C14.7822 68.6047 14.6608 68.628 14.5348 68.628C14.4088 68.628 14.2898 68.6047 14.1778 68.558C14.0658 68.5067 13.9655 68.439 13.8768 68.355C13.7928 68.2663 13.7252 68.166 13.6738 68.054C13.6272 67.9373 13.6038 67.816 13.6038 67.69C13.6038 67.5593 13.6272 67.438 13.6738 67.326C13.7252 67.2093 13.7928 67.109 13.8768 67.025C13.9655 66.9363 14.0658 66.8687 14.1778 66.822C14.2898 66.7707 14.4088 66.745 14.5348 66.745C14.6608 66.745 14.7822 66.7707 14.8988 66.822C15.0155 66.8687 15.1158 66.9363 15.1998 67.025C15.2885 67.109 15.3585 67.2093 15.4098 67.326C15.4612 67.438 15.4868 67.5593 15.4868 67.69ZM22.1881 71.218C22.1461 71.2693 22.1041 71.3113 22.0621 71.344C22.0248 71.372 21.9688 71.386 21.8941 71.386C21.8195 71.386 21.7401 71.358 21.6561 71.302C21.5768 71.2413 21.4741 71.1783 21.3481 71.113C21.2268 71.043 21.0775 70.98 20.9001 70.924C20.7275 70.8633 20.5128 70.833 20.2561 70.833C19.9201 70.833 19.6238 70.8937 19.3671 71.015C19.1105 71.1363 18.8958 71.309 18.7231 71.533C18.5551 71.757 18.4268 72.03 18.3381 72.352C18.2495 72.674 18.2051 73.0357 18.2051 73.437C18.2051 73.8523 18.2518 74.2233 18.3451 74.55C18.4385 74.872 18.5715 75.145 18.7441 75.369C18.9168 75.5883 19.1268 75.7563 19.3741 75.873C19.6215 75.985 19.8968 76.041 20.2001 76.041C20.4941 76.041 20.7368 76.006 20.9281 75.936C21.1195 75.8613 21.2781 75.782 21.4041 75.698C21.5301 75.614 21.6351 75.537 21.7191 75.467C21.8031 75.3923 21.8895 75.355 21.9781 75.355C22.0901 75.355 22.1765 75.397 22.2371 75.481L22.6291 75.985C22.4658 76.1857 22.2815 76.356 22.0761 76.496C21.8755 76.636 21.6608 76.7503 21.4321 76.839C21.2035 76.9277 20.9631 76.993 20.7111 77.035C20.4638 77.077 20.2118 77.098 19.9551 77.098C19.5118 77.098 19.0965 77.0163 18.7091 76.853C18.3265 76.6897 17.9928 76.4517 17.7081 76.139C17.4281 75.8263 17.2065 75.4437 17.0431 74.991C16.8798 74.5337 16.7981 74.0157 16.7981 73.437C16.7981 72.9097 16.8705 72.422 17.0151 71.974C17.1645 71.526 17.3815 71.141 17.6661 70.819C17.9555 70.4923 18.3101 70.238 18.7301 70.056C19.1501 69.8693 19.6308 69.776 20.1721 69.776C20.6808 69.776 21.1288 69.8577 21.5161 70.021C21.9035 70.1843 22.2488 70.4153 22.5521 70.714L22.1881 71.218ZM25.2683 66.668V72.709H25.5903C25.6883 72.709 25.77 72.695 25.8353 72.667C25.9007 72.639 25.9683 72.583 26.0383 72.499L28.1663 70.154C28.2317 70.0653 28.304 70 28.3833 69.958C28.4627 69.9113 28.563 69.888 28.6843 69.888H29.9303L27.4173 72.639C27.282 72.8117 27.1373 72.9447 26.9833 73.038C27.072 73.0987 27.149 73.1687 27.2143 73.248C27.2843 73.3273 27.352 73.4137 27.4173 73.507L30.0913 77H28.8663C28.7543 77 28.6563 76.9813 28.5723 76.944C28.493 76.9067 28.4207 76.839 28.3553 76.741L26.1573 73.885C26.0873 73.7777 26.0173 73.71 25.9473 73.682C25.8773 73.6493 25.7723 73.633 25.6323 73.633H25.2683V77H23.9033V66.668H25.2683ZM37.6804 69.776C38.2031 69.776 38.6744 69.8623 39.0944 70.035C39.5191 70.203 39.8784 70.448 40.1724 70.77C40.4711 71.0873 40.6998 71.4723 40.8584 71.925C41.0171 72.373 41.0964 72.877 41.0964 73.437C41.0964 73.997 41.0171 74.5033 40.8584 74.956C40.6998 75.4087 40.4711 75.7937 40.1724 76.111C39.8784 76.4283 39.5191 76.6733 39.0944 76.846C38.6744 77.014 38.2031 77.098 37.6804 77.098C37.1531 77.098 36.6771 77.014 36.2524 76.846C35.8324 76.6733 35.4731 76.4283 35.1744 76.111C34.8758 75.7937 34.6448 75.4087 34.4814 74.956C34.3228 74.5033 34.2434 73.997 34.2434 73.437C34.2434 72.877 34.3228 72.373 34.4814 71.925C34.6448 71.4723 34.8758 71.0873 35.1744 70.77C35.4731 70.448 35.8324 70.203 36.2524 70.035C36.6771 69.8623 37.1531 69.776 37.6804 69.776ZM37.6804 76.034C38.3524 76.034 38.8541 75.8077 39.1854 75.355C39.5168 74.9023 39.6824 74.2653 39.6824 73.444C39.6824 72.6227 39.5168 71.9857 39.1854 71.533C38.8541 71.0757 38.3524 70.847 37.6804 70.847C36.9991 70.847 36.4904 71.0757 36.1544 71.533C35.8231 71.9857 35.6574 72.6227 35.6574 73.444C35.6574 74.2653 35.8231 74.9023 36.1544 75.355C36.4904 75.8077 36.9991 76.034 37.6804 76.034ZM43.9081 71.253C44.1368 70.7863 44.4121 70.42 44.7341 70.154C45.0561 69.888 45.4435 69.755 45.8961 69.755C46.0501 69.755 46.1948 69.7737 46.3301 69.811C46.4701 69.8437 46.5915 69.895 46.6941 69.965L46.6031 70.994C46.5705 71.12 46.4935 71.183 46.3721 71.183C46.3068 71.183 46.2088 71.1713 46.0781 71.148C45.9475 71.12 45.8075 71.106 45.6581 71.106C45.4388 71.106 45.2451 71.1387 45.0771 71.204C44.9091 71.2647 44.7575 71.358 44.6221 71.484C44.4915 71.6053 44.3748 71.757 44.2721 71.939C44.1695 72.1163 44.0738 72.3193 43.9851 72.548V77H42.6201V69.888H43.4041C43.5535 69.888 43.6538 69.916 43.7051 69.972C43.7611 70.0233 43.8008 70.1167 43.8241 70.252L43.9081 71.253ZM60.0383 71.974C60.0383 72.7253 59.917 73.409 59.6743 74.025C59.4363 74.641 59.098 75.1707 58.6593 75.614C58.2207 76.0527 57.6957 76.3933 57.0843 76.636C56.473 76.8787 55.794 77 55.0473 77H51.2673V66.948H55.0473C55.794 66.948 56.473 67.0693 57.0843 67.312C57.6957 67.5547 58.2207 67.8977 58.6593 68.341C59.098 68.7797 59.4363 69.3093 59.6743 69.93C59.917 70.546 60.0383 71.2273 60.0383 71.974ZM58.5123 71.974C58.5123 71.3767 58.4307 70.8423 58.2673 70.371C58.104 69.895 57.8707 69.4937 57.5673 69.167C57.2687 68.8357 56.9047 68.5837 56.4753 68.411C56.0507 68.2383 55.5747 68.152 55.0473 68.152H52.7653V75.796H55.0473C55.5747 75.796 56.0507 75.7097 56.4753 75.537C56.9047 75.3643 57.2687 75.1147 57.5673 74.788C57.8707 74.4567 58.104 74.0553 58.2673 73.584C58.4307 73.1127 58.5123 72.576 58.5123 71.974ZM62.789 71.253C63.0177 70.7863 63.293 70.42 63.615 70.154C63.937 69.888 64.3243 69.755 64.777 69.755C64.931 69.755 65.0757 69.7737 65.211 69.811C65.351 69.8437 65.4723 69.895 65.575 69.965L65.484 70.994C65.4513 71.12 65.3743 71.183 65.253 71.183C65.1877 71.183 65.0897 71.1713 64.959 71.148C64.8283 71.12 64.6883 71.106 64.539 71.106C64.3197 71.106 64.126 71.1387 63.958 71.204C63.79 71.2647 63.6383 71.358 63.503 71.484C63.3723 71.6053 63.2557 71.757 63.153 71.939C63.0503 72.1163 62.9547 72.3193 62.866 72.548V77H61.501V69.888H62.285C62.4343 69.888 62.5347 69.916 62.586 69.972C62.642 70.0233 62.6817 70.1167 62.705 70.252L62.789 71.253ZM69.3992 69.776C69.9218 69.776 70.3932 69.8623 70.8132 70.035C71.2378 70.203 71.5972 70.448 71.8912 70.77C72.1898 71.0873 72.4185 71.4723 72.5772 71.925C72.7358 72.373 72.8152 72.877 72.8152 73.437C72.8152 73.997 72.7358 74.5033 72.5772 74.956C72.4185 75.4087 72.1898 75.7937 71.8912 76.111C71.5972 76.4283 71.2378 76.6733 70.8132 76.846C70.3932 77.014 69.9218 77.098 69.3992 77.098C68.8718 77.098 68.3958 77.014 67.9712 76.846C67.5512 76.6733 67.1918 76.4283 66.8932 76.111C66.5945 75.7937 66.3635 75.4087 66.2002 74.956C66.0415 74.5033 65.9622 73.997 65.9622 73.437C65.9622 72.877 66.0415 72.373 66.2002 71.925C66.3635 71.4723 66.5945 71.0873 66.8932 70.77C67.1918 70.448 67.5512 70.203 67.9712 70.035C68.3958 69.8623 68.8718 69.776 69.3992 69.776ZM69.3992 76.034C70.0712 76.034 70.5728 75.8077 70.9042 75.355C71.2355 74.9023 71.4012 74.2653 71.4012 73.444C71.4012 72.6227 71.2355 71.9857 70.9042 71.533C70.5728 71.0757 70.0712 70.847 69.3992 70.847C68.7178 70.847 68.2092 71.0757 67.8732 71.533C67.5418 71.9857 67.3762 72.6227 67.3762 73.444C67.3762 74.2653 67.5418 74.9023 67.8732 75.355C68.2092 75.8077 68.7178 76.034 69.3992 76.034ZM75.7039 75.25C75.9279 75.544 76.1682 75.7493 76.4249 75.866C76.6862 75.9827 76.9779 76.041 77.2999 76.041C77.9252 76.041 78.4082 75.817 78.7489 75.369C79.0942 74.9163 79.2669 74.2583 79.2669 73.395C79.2669 72.9423 79.2272 72.5573 79.1479 72.24C79.0732 71.918 78.9612 71.6567 78.8119 71.456C78.6672 71.2507 78.4875 71.1013 78.2729 71.008C78.0582 70.91 77.8155 70.861 77.5449 70.861C77.1482 70.861 76.8029 70.9497 76.5089 71.127C76.2195 71.3043 75.9512 71.5563 75.7039 71.883V75.25ZM75.6339 70.952C75.7832 70.7747 75.9419 70.6137 76.1099 70.469C76.2825 70.3197 76.4669 70.1937 76.6629 70.091C76.8589 69.9837 77.0665 69.902 77.2859 69.846C77.5099 69.7853 77.7479 69.755 77.9999 69.755C78.4059 69.755 78.7722 69.8343 79.0989 69.993C79.4302 70.1517 79.7125 70.385 79.9459 70.693C80.1792 71.001 80.3589 71.3813 80.4849 71.834C80.6156 72.2867 80.6809 72.807 80.6809 73.395C80.6809 73.9223 80.6086 74.4123 80.4639 74.865C80.3239 75.313 80.1209 75.7027 79.8549 76.034C79.5935 76.3653 79.2715 76.6267 78.8889 76.818C78.5109 77.0047 78.0839 77.098 77.6079 77.098C77.1832 77.098 76.8192 77.028 76.5159 76.888C76.2125 76.748 75.9419 76.552 75.7039 76.3V79.387H74.3389V69.888H75.1579C75.3492 69.888 75.4682 69.979 75.5149 70.161L75.6339 70.952ZM87.5329 77H86.0349V66.948H87.5329V77ZM89.624 77V69.888H90.443C90.6344 69.888 90.7534 69.979 90.8 70.161L90.898 70.84C91.1594 70.5273 91.4487 70.273 91.766 70.077C92.088 69.8763 92.4637 69.776 92.893 69.776C93.3644 69.776 93.747 69.9067 94.041 70.168C94.335 70.4247 94.5497 70.7747 94.685 71.218C94.7877 70.966 94.9207 70.749 95.084 70.567C95.2474 70.385 95.4294 70.2357 95.63 70.119C95.8307 70.0023 96.043 69.916 96.267 69.86C96.4957 69.804 96.7267 69.776 96.96 69.776C97.338 69.776 97.674 69.8367 97.968 69.958C98.2667 70.0747 98.5187 70.2473 98.724 70.476C98.9294 70.7047 99.0857 70.987 99.193 71.323C99.3004 71.659 99.354 72.0417 99.354 72.471V77H97.982V72.471C97.982 71.939 97.8654 71.5377 97.632 71.267C97.4034 70.9963 97.0674 70.861 96.624 70.861C96.428 70.861 96.2414 70.896 96.064 70.966C95.8867 71.0313 95.7304 71.1317 95.595 71.267C95.4644 71.4023 95.3594 71.5703 95.28 71.771C95.2054 71.9717 95.168 72.205 95.168 72.471V77H93.796V72.471C93.796 71.9203 93.6864 71.5143 93.467 71.253C93.2477 70.9917 92.9257 70.861 92.501 70.861C92.207 70.861 91.934 70.938 91.682 71.092C91.43 71.246 91.199 71.456 90.989 71.722V77H89.624ZM105.012 73.843C104.457 73.8617 103.986 73.906 103.598 73.976C103.211 74.0413 102.896 74.13 102.653 74.242C102.411 74.354 102.236 74.487 102.128 74.641C102.021 74.7903 101.967 74.9583 101.967 75.145C101.967 75.3223 101.995 75.4763 102.051 75.607C102.112 75.733 102.191 75.838 102.289 75.922C102.392 76.0013 102.511 76.0597 102.646 76.097C102.782 76.1343 102.929 76.153 103.087 76.153C103.297 76.153 103.489 76.132 103.661 76.09C103.839 76.048 104.004 75.9897 104.158 75.915C104.312 75.8357 104.459 75.74 104.599 75.628C104.739 75.516 104.877 75.3877 105.012 75.243V73.843ZM101.008 70.882C101.405 70.504 101.834 70.2217 102.296 70.035C102.763 69.8483 103.274 69.755 103.829 69.755C104.235 69.755 104.595 69.8227 104.907 69.958C105.22 70.0887 105.484 70.273 105.698 70.511C105.913 70.749 106.074 71.0337 106.181 71.365C106.293 71.6963 106.349 72.0627 106.349 72.464V77H105.74C105.605 77 105.502 76.979 105.432 76.937C105.362 76.8903 105.306 76.8063 105.264 76.685L105.117 76.062C104.935 76.23 104.756 76.3793 104.578 76.51C104.401 76.636 104.214 76.7457 104.018 76.839C103.827 76.9277 103.622 76.9953 103.402 77.042C103.183 77.0887 102.94 77.112 102.674 77.112C102.394 77.112 102.131 77.0747 101.883 77C101.641 76.9207 101.428 76.8017 101.246 76.643C101.064 76.4843 100.92 76.286 100.812 76.048C100.71 75.81 100.658 75.5323 100.658 75.215C100.658 74.935 100.733 74.6667 100.882 74.41C101.036 74.1487 101.284 73.9153 101.624 73.71C101.97 73.5047 102.418 73.3367 102.968 73.206C103.524 73.0753 104.205 73.0007 105.012 72.982V72.464C105.012 71.9273 104.898 71.526 104.669 71.26C104.441 70.994 104.105 70.861 103.661 70.861C103.363 70.861 103.111 70.8983 102.905 70.973C102.705 71.0477 102.53 71.1317 102.38 71.225C102.236 71.3137 102.107 71.3953 101.995 71.47C101.888 71.5447 101.776 71.582 101.659 71.582C101.566 71.582 101.484 71.5563 101.414 71.505C101.349 71.4537 101.295 71.393 101.253 71.323L101.008 70.882ZM110.676 73.451C110.918 73.451 111.131 73.4183 111.313 73.353C111.499 73.2877 111.653 73.1967 111.775 73.08C111.901 72.9587 111.994 72.814 112.055 72.646C112.12 72.478 112.153 72.2937 112.153 72.093C112.153 71.6823 112.027 71.3557 111.775 71.113C111.527 70.8657 111.161 70.742 110.676 70.742C110.195 70.742 109.829 70.8657 109.577 71.113C109.329 71.3557 109.206 71.6823 109.206 72.093C109.206 72.2937 109.236 72.478 109.297 72.646C109.362 72.8093 109.455 72.9517 109.577 73.073C109.703 73.1897 109.857 73.283 110.039 73.353C110.225 73.4183 110.438 73.451 110.676 73.451ZM112.853 77.371C112.853 77.203 112.806 77.07 112.713 76.972C112.619 76.8693 112.491 76.79 112.328 76.734C112.169 76.6733 111.982 76.6313 111.768 76.608C111.553 76.58 111.327 76.559 111.089 76.545C110.855 76.531 110.615 76.5193 110.368 76.51C110.12 76.496 109.882 76.4727 109.654 76.44C109.411 76.5613 109.21 76.7083 109.052 76.881C108.898 77.0537 108.821 77.2567 108.821 77.49C108.821 77.6393 108.858 77.7793 108.933 77.91C109.012 78.0407 109.131 78.1527 109.29 78.246C109.453 78.344 109.656 78.4187 109.899 78.47C110.146 78.526 110.44 78.554 110.781 78.554C111.117 78.554 111.413 78.5237 111.67 78.463C111.926 78.407 112.141 78.3253 112.314 78.218C112.491 78.1153 112.624 77.9917 112.713 77.847C112.806 77.7023 112.853 77.5437 112.853 77.371ZM114.239 70.154V70.665C114.239 70.833 114.134 70.938 113.924 70.98L113.161 71.092C113.226 71.2367 113.277 71.3907 113.315 71.554C113.352 71.7127 113.371 71.8807 113.371 72.058C113.371 72.408 113.303 72.7253 113.168 73.01C113.032 73.29 112.846 73.5303 112.608 73.731C112.37 73.9317 112.085 74.0857 111.754 74.193C111.427 74.3003 111.068 74.354 110.676 74.354C110.354 74.354 110.053 74.319 109.773 74.249C109.633 74.333 109.525 74.4263 109.451 74.529C109.381 74.627 109.346 74.725 109.346 74.823C109.346 74.9863 109.413 75.1077 109.549 75.187C109.689 75.2663 109.868 75.3247 110.088 75.362C110.312 75.3947 110.566 75.4157 110.851 75.425C111.14 75.4343 111.432 75.4507 111.726 75.474C112.024 75.4927 112.316 75.53 112.601 75.586C112.89 75.6373 113.144 75.7237 113.364 75.845C113.588 75.9617 113.767 76.125 113.903 76.335C114.043 76.5403 114.113 76.8087 114.113 77.14C114.113 77.448 114.036 77.7467 113.882 78.036C113.732 78.3253 113.513 78.582 113.224 78.806C112.934 79.03 112.582 79.2097 112.167 79.345C111.751 79.4803 111.28 79.548 110.753 79.548C110.225 79.548 109.766 79.4967 109.374 79.394C108.986 79.2913 108.662 79.1537 108.401 78.981C108.144 78.8083 107.95 78.6077 107.82 78.379C107.694 78.1503 107.631 77.9123 107.631 77.665C107.631 77.3197 107.738 77.028 107.953 76.79C108.167 76.5473 108.464 76.3583 108.842 76.223C108.636 76.1297 108.473 76.0037 108.352 75.845C108.23 75.6817 108.17 75.467 108.17 75.201C108.17 75.0983 108.188 74.9933 108.226 74.886C108.263 74.774 108.319 74.6643 108.394 74.557C108.473 74.445 108.569 74.34 108.681 74.242C108.797 74.144 108.93 74.0553 109.08 73.976C108.73 73.78 108.454 73.521 108.254 73.199C108.053 72.8723 107.953 72.492 107.953 72.058C107.953 71.708 108.02 71.393 108.156 71.113C108.291 70.833 108.478 70.5927 108.716 70.392C108.958 70.1913 109.245 70.0373 109.577 69.93C109.913 69.8227 110.279 69.769 110.676 69.769C111.292 69.769 111.821 69.8973 112.265 70.154H114.239ZM120.093 72.653C120.093 72.3823 120.053 72.1327 119.974 71.904C119.899 71.6753 119.787 71.477 119.638 71.309C119.489 71.141 119.307 71.0103 119.092 70.917C118.877 70.8237 118.63 70.777 118.35 70.777C117.776 70.777 117.323 70.9427 116.992 71.274C116.665 71.6053 116.458 72.065 116.369 72.653H120.093ZM121.22 75.985C121.052 76.181 120.858 76.3513 120.639 76.496C120.42 76.636 120.186 76.7503 119.939 76.839C119.692 76.9277 119.435 76.993 119.169 77.035C118.908 77.077 118.649 77.098 118.392 77.098C117.902 77.098 117.447 77.0163 117.027 76.853C116.612 76.685 116.25 76.4423 115.942 76.125C115.639 75.803 115.401 75.4063 115.228 74.935C115.06 74.459 114.976 73.913 114.976 73.297C114.976 72.8023 115.053 72.3427 115.207 71.918C115.361 71.4887 115.58 71.1153 115.865 70.798C116.154 70.4807 116.507 70.231 116.922 70.049C117.337 69.867 117.804 69.776 118.322 69.776C118.756 69.776 119.155 69.8483 119.519 69.993C119.888 70.133 120.205 70.3383 120.471 70.609C120.737 70.8797 120.945 71.2133 121.094 71.61C121.248 72.0067 121.325 72.4593 121.325 72.968C121.325 73.178 121.302 73.3203 121.255 73.395C121.208 73.465 121.122 73.5 120.996 73.5H116.334C116.348 73.9247 116.409 74.2957 116.516 74.613C116.623 74.9257 116.77 75.187 116.957 75.397C117.148 75.607 117.375 75.7633 117.636 75.866C117.897 75.9687 118.189 76.02 118.511 76.02C118.814 76.02 119.076 75.985 119.295 75.915C119.519 75.845 119.71 75.7703 119.869 75.691C120.032 75.607 120.168 75.53 120.275 75.46C120.387 75.39 120.485 75.355 120.569 75.355C120.681 75.355 120.767 75.397 120.828 75.481L121.22 75.985Z" fill="#7B787B"/>
</svg>
