<svg width="66" height="66" viewBox="0 0 66 66" fill="none" xmlns="http://www.w3.org/2000/svg">
<rect x="3" y="3" width="60" height="60" rx="30" fill="url(#paint0_linear_1770_156)"/>
<rect x="3" y="3" width="60" height="60" rx="30" stroke="#E8FDF3" stroke-width="6"/>
<g clip-path="url(#clip0_1770_156)">
<path d="M48.999 31.1288C48.974 31.1911 48.9424 31.2517 48.923 31.3157C48.4703 32.8108 46.7837 33.4143 45.4909 32.5381C45.1238 32.2897 44.7713 32.0187 44.4115 31.759C44.3307 31.7016 44.2498 31.6482 44.1108 31.5551V31.9508C44.1108 35.8465 44.1108 39.7423 44.1108 43.6381C44.1108 45.0434 43.5197 46.0927 42.2431 46.6939C41.8505 46.8727 41.4259 46.9703 40.9948 46.9811C39.6203 47.0167 38.2531 46.994 36.8358 46.994V46.6348C36.8358 43.2638 36.8358 39.8928 36.8358 36.5218C36.8358 35.4555 36.2367 34.8512 35.1727 34.8487C34.2146 34.8487 33.2565 34.8487 32.2984 34.8487C31.2716 34.8528 30.6611 35.466 30.6595 36.487C30.6595 36.6982 30.6595 36.9102 30.6595 37.1448C30.5552 37.1521 30.4671 37.1634 30.3798 37.1634C28.8266 37.1634 27.2735 37.1691 25.7203 37.1553C25.5696 37.1434 25.4297 37.0721 25.3314 36.9571C24.8734 36.3634 24.2794 35.8886 23.5996 35.5728C23.5298 35.55 23.4701 35.5035 23.4309 35.4413C23.3918 35.3791 23.3757 35.3051 23.3853 35.2322C23.3918 34.0316 23.3853 32.831 23.3853 31.5843C23.3107 31.6182 23.2384 31.6568 23.1687 31.7C22.7911 31.9702 22.4216 32.2501 22.0408 32.5138C20.9962 33.242 19.6492 33.0252 18.924 32.0284C18.1866 31.0139 18.3912 29.6531 19.4301 28.8942C22.8011 26.4315 26.1761 23.9755 29.5551 21.5263C30.4714 20.8629 31.3845 20.1989 32.2944 19.5344C33.2541 18.8322 34.2097 18.8184 35.1678 19.5142C39.4362 22.6118 43.7025 25.7098 47.9666 28.8085C48.4905 29.1879 48.7929 29.6919 48.9966 30.2809L48.999 31.1288Z" fill="white"/>
<path d="M31.7399 39.9884L30.7454 41.3638L29.7485 39.9884C29.4566 40.3929 29.1728 40.7651 28.9133 41.1534C28.8709 41.2254 28.8088 41.2836 28.7342 41.3212C28.6597 41.3588 28.5759 41.3741 28.4929 41.3654C27.3933 41.3565 26.2937 41.3654 25.195 41.3565C25.1126 41.3473 25.0294 41.364 24.9569 41.4043C24.8844 41.4446 24.8263 41.5065 24.7907 41.5814C24.0056 42.9171 22.4501 43.6315 21.0069 43.3346C19.3898 43.0021 18.2248 41.7618 18.0251 40.1664C17.8165 38.5006 18.8336 36.8825 20.4506 36.2976C21.2267 36.0223 22.0735 36.0206 22.8507 36.2926C23.6279 36.5647 24.289 37.0942 24.7244 37.7935C24.8796 38.0443 25.0413 38.1171 25.3227 38.1171C27.9447 38.1066 30.5667 38.1171 33.1887 38.105C33.2921 38.0984 33.3955 38.1183 33.4892 38.1628C33.5828 38.2072 33.6636 38.2747 33.724 38.359C34.0191 38.7295 34.3287 39.0871 34.6424 39.4447C34.7564 39.5734 34.7896 39.6793 34.7128 39.8492C34.5155 40.2788 34.332 40.7149 34.1589 41.155C34.0918 41.3249 33.9972 41.3799 33.8194 41.371C33.4588 41.3524 33.0432 41.4617 32.7505 41.316C32.47 41.1761 32.3172 40.7796 32.1037 40.4965L31.7399 39.9884ZM20.7756 38.6268C20.629 38.6244 20.4833 38.6511 20.347 38.7052C20.2106 38.7593 20.0863 38.8398 19.9812 38.9421C19.876 39.0444 19.792 39.1665 19.7341 39.3013C19.6762 39.4362 19.6455 39.5811 19.6437 39.7279C19.646 40.0276 19.766 40.3143 19.9778 40.5262C20.1896 40.7381 20.4761 40.8582 20.7756 40.8605C21.0708 40.8542 21.3518 40.7328 21.5587 40.5221C21.7656 40.3114 21.8821 40.0281 21.8833 39.7327C21.8835 39.5872 21.855 39.4431 21.7994 39.3087C21.7437 39.1743 21.6621 39.0522 21.5592 38.9494C21.4563 38.8466 21.334 38.7652 21.1996 38.7098C21.0651 38.6545 20.921 38.6263 20.7756 38.6268Z" fill="white"/>
<path d="M29.751 41.6289C30.0534 42.0504 30.3356 42.4379 30.6121 42.8319C30.6433 42.8828 30.6593 42.9414 30.6582 43.001C30.6582 44.3198 30.6582 45.6385 30.6582 46.975C30.5961 46.9857 30.5335 46.993 30.4706 46.9969C29.1406 46.9969 27.8106 47.0066 26.4814 46.992C24.9533 46.975 23.6104 45.7688 23.409 44.2591C23.3864 44.0924 23.4147 43.9897 23.5934 43.9104C24.2976 43.5981 24.8652 43.1111 25.3422 42.5067C25.4395 42.4032 25.5738 42.3424 25.7157 42.3376C26.7725 42.3247 27.8308 42.3214 28.8883 42.3376C29.1479 42.3376 29.3274 42.2834 29.4543 42.0472C29.5435 41.9011 29.6426 41.7613 29.751 41.6289Z" fill="white"/>
</g>
<defs>
<linearGradient id="paint0_linear_1770_156" x1="63" y1="33" x2="3" y2="33" gradientUnits="userSpaceOnUse">
<stop stop-color="#0EBB63"/>
<stop offset="1" stop-color="#0DEF81"/>
</linearGradient>
<clipPath id="clip0_1770_156">
<rect width="31" height="28" fill="white" transform="translate(18 19)"/>
</clipPath>
</defs>
</svg>
