<svg width="20" height="20" viewBox="0 0 20 20" fill="none" xmlns="http://www.w3.org/2000/svg">
<path d="M18.0004 18.5C18.0004 18.7761 17.7765 19 17.5004 19H4.90039C4.62425 19 4.40039 18.7761 4.40039 18.5V1.5C4.40039 1.22386 4.62425 1 4.90039 1H12.5965C12.7272 1 12.8527 1.05118 12.9461 1.14258L17.85 5.93987C17.9462 6.03394 18.0004 6.16278 18.0004 6.29729V18.5Z" fill="#0C4724" fill-opacity="0.12"/>
<path d="M12.7988 6.08696V1L17.9988 6.08696H12.7988Z" fill="#2FA860"/>
<path d="M3 7C3 6.44772 3.44772 6 4 6H11C11.5523 6 12 6.44772 12 7V17C12 17.5523 11.5523 18 11 18H4C3.44772 18 3 17.5523 3 17V7Z" fill="white"/>
<path d="M1 8.25977C1 7.70749 1.44772 7.25977 2 7.25977H9.6C10.1523 7.25977 10.6 7.70749 10.6 8.25977V15.651C10.6 16.2033 10.1523 16.651 9.6 16.651H2C1.44771 16.651 1 16.2033 1 15.651V8.25977Z" fill="#2FA860"/>
<path d="M12 9.60886H13.2V10.3915H12V9.60886ZM12 11.5654H13.2V12.348H12V11.5654ZM12 13.5219H13.2V14.3045H12V13.5219ZM12 15.4785H13.2V16.2611H12V15.4785ZM12 7.65234H13.2V8.43495H12V7.65234ZM14 9.60886H15.2V10.3915H14V9.60886ZM14 11.5654H15.2V12.348H14V11.5654ZM14 13.5219H15.2V14.3045H14V13.5219ZM14 15.4785H15.2V16.2611H14V15.4785ZM14 7.65234H15.2V8.43495H14V7.65234Z" fill="#107C41" fill-opacity="0.5"/>
<path d="M8.6 9.2168H7L5.8 10.8603L4.6 9.2168H3L5 11.9559L3 14.6951H4.6L5.8 13.0516L7 14.6951H8.6L6.6 11.9559L8.6 9.2168Z" fill="white"/>
</svg>
