<svg width="32" height="32" viewBox="0 0 32 32" fill="none" xmlns="http://www.w3.org/2000/svg">
<rect width="32" height="32" rx="4" fill="#148149" fill-opacity="0.2"/>
<g clip-path="url(#clip0_1800_129)">
<path d="M19.0626 5.33398C19.2415 5.46467 19.4363 5.58057 19.5973 5.72841C21.3937 7.38416 23.1818 9.04642 24.9801 10.6998C25.0959 10.7993 25.1874 10.9206 25.2483 11.0555C25.3093 11.1905 25.3383 11.336 25.3334 11.4821C25.3257 16.7202 25.324 21.9583 25.3283 27.1964C25.3283 27.7641 25.0727 28.0007 24.4595 28.0007H7.53043C6.93567 28.0007 6.67631 27.7594 6.67631 27.2059C6.67631 20.1973 6.67418 13.1886 6.66992 6.1796C6.66992 5.77808 6.80472 5.49838 7.20143 5.33398H19.0626ZM23.8775 26.6642V11.9741H18.9585C18.4302 11.9741 18.1536 11.7151 18.1536 11.2226C18.1536 9.78402 18.1536 8.34509 18.1536 6.90577V6.67869H8.12007V26.666L23.8775 26.6642ZM22.7391 10.6436L19.6088 7.74606V10.6436H22.7391Z" fill="#147E47"/>
<path d="M16.0105 15.0748C17.5727 15.0748 19.1346 15.0748 20.6964 15.0748C21.2247 15.0748 21.5006 15.3332 21.5006 15.8264C21.5006 18.4224 21.5006 21.0184 21.5006 23.6144C21.5006 24.1182 21.2257 24.3701 20.6759 24.3701H11.3285C10.7683 24.3701 10.498 24.1194 10.498 23.5954V15.8518C10.498 15.3196 10.7632 15.0748 11.3464 15.0748C12.9022 15.074 14.4569 15.074 16.0105 15.0748ZM11.9424 17.7151H15.2714V16.4142H11.9424V17.7151ZM20.0518 17.7282V16.4172H16.7369V17.7264L20.0518 17.7282ZM11.952 19.0664V20.3762H15.2695V19.0664H11.952ZM16.7362 19.0664V20.3762H20.0556V19.0652L16.7362 19.0664ZM11.9501 21.7274V23.0283H15.272V21.7274H11.9501ZM20.0569 21.7333H16.7337V23.0343H20.0556L20.0569 21.7333Z" fill="#147E47"/>
</g>
<defs>
<clipPath id="clip0_1800_129">
<rect x="6.66797" y="5.33398" width="18.6667" height="22.6667" rx="2" fill="white"/>
</clipPath>
</defs>
</svg>
