<svg width="32" height="32" viewBox="0 0 32 32" fill="none" xmlns="http://www.w3.org/2000/svg">
<rect width="32" height="32" rx="4" fill="#00A551" fill-opacity="0.1"/>
<path d="M18.5 8.08325V9.33325C18.5 10.5118 18.5 11.101 18.8661 11.4671C19.2322 11.8333 19.8215 11.8333 21 11.8333H22.25" stroke="#00A551" stroke-width="1.25" stroke-linecap="round" stroke-linejoin="round"/>
<path d="M9.33398 19.3334V12.6667C9.33398 10.3097 9.33398 9.13121 10.0662 8.39898C10.7985 7.66675 11.977 7.66675 14.334 7.66675H17.8103C18.1509 7.66675 18.3212 7.66675 18.4744 7.73018C18.6275 7.79361 18.748 7.91405 18.9888 8.15491L22.1792 11.3453C22.42 11.5861 22.5405 11.7065 22.6039 11.8597C22.6673 12.0128 22.6673 12.1831 22.6673 12.5238V19.3334C22.6673 21.6904 22.6673 22.8689 21.9351 23.6012C21.2028 24.3334 20.0243 24.3334 17.6673 24.3334H14.334C11.977 24.3334 10.7985 24.3334 10.0662 23.6012C9.33398 22.8689 9.33398 21.6904 9.33398 19.3334Z" stroke="#00A551" stroke-width="1.25" stroke-linecap="round" stroke-linejoin="round"/>
<path d="M12.666 15.1667H19.3327M12.666 17.6667H19.3327M12.666 20.1667H16.1417" stroke="#00A551" stroke-width="1.25" stroke-linecap="round" stroke-linejoin="round"/>
</svg>
