<svg width="172" height="162" viewBox="0 0 172 162" fill="none" xmlns="http://www.w3.org/2000/svg">
<circle cx="85" cy="93" r="67" fill="#FA951D"/>
<circle cx="165.5" cy="32.5" r="6.5" fill="#FA951D"/>
<ellipse cx="10.5" cy="10" rx="10.5" ry="10" fill="#FA951D"/>
<ellipse cx="5" cy="136.5" rx="5" ry="5.5" fill="#FA951D"/>
<ellipse cx="153.5" cy="160" rx="2.5" ry="2" fill="#FA951D"/>
<circle cx="113.5" cy="103.5" r="2.5" fill="white"/>
<circle cx="48" cy="76" r="4" fill="white"/>
<circle cx="106.5" cy="54.5" r="1.5" fill="white"/>
<circle cx="65" cy="125" r="2" fill="white"/>
<circle cx="87" cy="77" r="1" fill="white"/>
<path d="M93.6477 56V84.775C93.6477 87.8604 93.4706 90.9291 93.1165 93.981C92.8862 95.9437 92.6082 97.9347 92.2826 99.9541C91.9754 101.86 90.3144 103.237 88.3842 103.237H84.9055C82.9753 103.237 81.3144 101.86 81.0071 99.9542C80.6815 97.9347 80.4036 95.9437 80.1733 93.981C79.8191 90.9291 79.642 87.8604 79.642 84.775V56H93.6477ZM78 121.398C78 120.19 78.2093 119.067 78.6278 118.027C79.0786 116.988 79.6742 116.082 80.4148 115.311C81.1875 114.539 82.089 113.936 83.1193 113.5C84.1496 113.03 85.2765 112.795 86.5 112.795C87.6913 112.795 88.8021 113.03 89.8324 113.5C90.8627 113.936 91.7642 114.539 92.5369 115.311C93.3097 116.082 93.9053 116.988 94.3239 118.027C94.7746 119.067 95 120.19 95 121.398C95 122.605 94.7746 123.745 94.3239 124.818C93.9053 125.858 93.3097 126.764 92.5369 127.535C91.7642 128.306 90.8627 128.91 89.8324 129.346C88.8021 129.782 87.6913 130 86.5 130C85.2765 130 84.1496 129.782 83.1193 129.346C82.089 128.91 81.1875 128.306 80.4148 127.535C79.6742 126.764 79.0786 125.858 78.6278 124.818C78.2093 123.745 78 122.605 78 121.398Z" fill="white"/>
</svg>
