<svg width="18" height="15" viewBox="0 0 18 15" fill="none" xmlns="http://www.w3.org/2000/svg">
<path opacity="0.4" d="M8.82353 0.336914H8.81492C5.1736 0.336914 1.89383 2.91691 0.0516499 7.24295C-0.0172166 7.408 -0.0172166 7.59911 0.0516499 7.75547C0.645624 9.15319 1.39455 10.3702 2.25538 11.3779L5.44046 8.16376C5.40603 7.95527 5.3802 7.72941 5.3802 7.50356C5.3802 5.58376 6.92109 4.02882 8.82353 4.02882C9.04735 4.02882 9.27116 4.05488 9.47776 4.08963L12.3529 1.18736C11.2511 0.632267 10.0545 0.336914 8.82353 0.336914ZM17.5954 7.24295C16.8034 5.38397 15.7446 3.83771 14.4964 2.69105L11.6643 5.54902C12.0344 6.10498 12.2583 6.78255 12.2583 7.50356C12.2583 9.41466 10.7174 10.9696 8.82353 10.9696C8.10904 10.9696 7.43759 10.7429 6.88666 10.3702L4.15782 13.1239C5.56098 14.1229 7.15352 14.6702 8.81492 14.6702H8.82353C12.4735 14.6702 15.7532 12.0815 17.5954 7.75547C17.6643 7.59911 17.6643 7.408 17.5954 7.24295Z" fill="#0C1928"/>
<path d="M16.0635 0.188939C16.3217 0.440857 16.3217 0.857825 16.0635 1.10974L14.4968 2.69075L11.6646 5.54872L10.4169 6.80735L10.7264 6.49593C10.8814 6.79128 10.9675 7.13876 10.9675 7.5036C10.9675 8.6937 10.0033 9.66663 8.82399 9.66663C8.46279 9.66663 8.11878 9.57993 7.82628 9.42385L2.48818 14.8098C2.35905 14.9392 2.1955 15 2.03194 15C1.86838 15 1.69621 14.9392 1.5757 14.8098C1.36049 14.5926 1.32605 14.2442 1.49822 13.9923L1.52405 13.9576L10.7608 4.63747L13.4896 1.88374L14.2558 1.10974C14.273 1.09237 14.2902 1.075 14.2988 1.05762C14.316 1.04025 14.3332 1.02288 14.3418 1.0055L15.151 0.188939C15.4093 -0.0629796 15.8139 -0.0629796 16.0635 0.188939Z" fill="#0C1928"/>
</svg>
