<svg width="36" height="36" viewBox="0 0 36 36" fill="none" xmlns="http://www.w3.org/2000/svg">
<path d="M34.8335 19.5061C34.3892 19.9509 33.8537 20.1732 33.2271 20.1732C32.6004 20.1732 32.0706 19.9452 31.6377 19.489L31.125 19.0101V33.3105H34.4062C34.7025 33.3105 34.9588 33.4188 35.1753 33.6355C35.3918 33.8521 35.5 34.1087 35.5 34.4052C35.5 34.7017 35.3918 34.9583 35.1753 35.175C34.9588 35.3917 34.7025 35.5 34.4062 35.5H1.62793C1.33171 35.5 1.07536 35.3917 0.858887 35.175C0.642415 34.9583 0.53418 34.7017 0.53418 34.4052C0.53418 34.1087 0.642415 33.8521 0.858887 33.6355C1.07536 33.4188 1.33171 33.3105 1.62793 33.3105H4.875V19.0101L4.3623 19.489C3.92936 19.9452 3.39958 20.1732 2.77295 20.1732C2.14632 20.1732 1.61084 19.9509 1.1665 19.5061C0.722168 19.0614 0.5 18.5254 0.5 17.8982C0.5 17.271 0.716471 16.7407 1.14941 16.3073L16.3252 1.15165C16.7809 0.695494 17.3392 0.478821 18 0.501629C18.6608 0.478821 19.2191 0.695494 19.6748 1.15165L34.8164 16.3073C35.2721 16.7407 35.5 17.271 35.5 17.8982C35.5 18.5254 35.2778 19.0614 34.8335 19.5061ZM15.8125 23.4576C15.8125 23.1611 15.7043 22.9045 15.4878 22.6878C15.2713 22.4711 15.015 22.3628 14.7188 22.3628H10.3438C10.0475 22.3628 9.79118 22.4711 9.57471 22.6878C9.35824 22.9045 9.25 23.1611 9.25 23.4576V33.3105H15.8125V23.4576ZM26.75 23.4576C26.75 23.1611 26.6418 22.9045 26.4253 22.6878C26.2088 22.4711 25.9525 22.3628 25.6562 22.3628H21.2812C20.985 22.3628 20.7287 22.4711 20.5122 22.6878C20.2957 22.9045 20.1875 23.1611 20.1875 23.4576V27.8366C20.1875 28.1331 20.2957 28.3897 20.5122 28.6064C20.7287 28.8231 20.985 28.9314 21.2812 28.9314H25.6562C25.9525 28.9314 26.2088 28.8231 26.4253 28.6064C26.6418 28.3897 26.75 28.1331 26.75 27.8366V23.4576Z" fill="white"/>
</svg>
