<svg width="22" height="25" viewBox="0 0 22 25" fill="none" xmlns="http://www.w3.org/2000/svg">
<g filter="url(#filter0_d_5413_90)">
<path d="M16.0765 16.1318L16.0704 16.1257C16.0704 16.1075 16.0583 16.0893 16.0522 16.0771C16.0401 16.0346 16.0158 15.9982 15.9915 15.9618C15.9672 15.9314 15.9429 15.895 15.9126 15.8646C15.8822 15.8343 15.8519 15.81 15.8154 15.7857C15.779 15.7614 15.7487 15.7432 15.7062 15.725C15.6819 15.7129 15.6515 15.7007 15.6212 15.7007C15.5847 15.6886 15.5422 15.6825 15.4997 15.6764C15.4815 15.6704 15.4633 15.6704 15.4451 15.6704H15.3722H7.3033C6.42902 15.6704 5.87652 15.1118 5.87045 14.2436V9.01C5.87652 8.12964 6.42902 7.57107 7.30937 7.57107H16.6533C16.8051 7.57107 16.9629 7.58321 17.1147 7.6075C17.5215 7.68643 17.8676 7.47393 17.9344 7.11571C18.0133 6.715 17.7704 6.39321 17.3454 6.30821C16.9751 6.22929 16.5987 6.2475 16.2222 6.24143C16.1312 6.24143 16.0401 6.25964 15.949 6.22929V4.15893C15.949 4.08607 15.949 4.01929 15.9429 3.94643V3.81286C15.9429 3.77036 15.9369 3.72179 15.9369 3.67929C15.9369 3.66107 15.9308 3.64286 15.9308 3.62464C15.9308 3.6125 15.9308 3.59429 15.9247 3.57607V3.55786C15.7487 1.82143 14.4737 0.406786 12.7433 0.0728571C12.7312 0.0728571 12.7129 0.0667857 12.7008 0.0667857C12.7008 0.0667857 12.7008 0.0667857 12.6947 0.0667857C12.6097 0.0546429 12.5247 0.0546429 12.4397 0.0303571C12.2819 0.0121429 12.1301 0 11.9722 0C11.8022 0 11.6322 0.0121429 11.4683 0.0303571C11.4015 0.0546429 11.3287 0.0546429 11.2558 0.0667857C11.2437 0.0667857 11.2254 0.0667857 11.2133 0.0728571C9.46473 0.412857 8.12295 1.85179 8.00759 3.62464C8.00759 3.64893 8.00759 3.67929 8.00152 3.70964C8.00152 3.81893 7.99545 3.92821 7.99545 4.0375C7.97723 4.675 7.99545 5.3125 7.99545 5.95V6.24143H7.20616C5.92509 6.25357 4.87473 7.10964 4.60152 8.36643C4.55902 8.56679 4.54688 8.77321 4.54688 8.97964V14.2557C4.54688 15.6461 5.40902 16.6964 6.76902 16.9636C6.78116 16.9636 6.78723 16.9636 6.79938 16.9696C6.80545 16.9757 6.81152 16.9757 6.81759 16.9757C6.87223 16.9939 6.93295 17 6.99366 17H15.4451L15.5969 16.9818C15.7608 16.9454 15.9065 16.8421 15.9915 16.7025C15.9976 16.6964 16.0037 16.6964 16.0037 16.6904C16.0219 16.66 16.0401 16.6296 16.0522 16.5932C16.0704 16.5568 16.0826 16.5204 16.0887 16.4839L16.1069 16.3382C16.1069 16.2836 16.1008 16.2289 16.0887 16.1804C16.0887 16.1621 16.0826 16.1439 16.0765 16.1318ZM9.31902 6.10786V3.9525C9.32509 2.65321 10.2479 1.56036 11.5047 1.36607C12.8404 1.15964 14.079 1.88821 14.4919 3.12071C14.5587 3.315 14.6072 3.51536 14.6133 3.72179C14.6194 4.55357 14.6133 5.39143 14.6133 6.24143H9.3433C9.3008 6.19893 9.31902 6.15036 9.31902 6.10786Z" fill="#0C1928"/>
</g>
<path d="M20.0615 9.71975C19.5218 8.89464 18.4872 8.49332 17.5292 8.73739C16.4909 9.0015 15.735 9.96989 15.7502 11.0172C15.7557 11.3797 16.0247 11.6675 16.3756 11.6863C16.7356 11.7051 17.0368 11.441 17.072 11.0749C17.0787 11.0032 17.0805 10.931 17.0926 10.8606C17.1904 10.2801 17.7423 9.89946 18.3105 10.0197C18.8825 10.1405 19.237 10.7033 19.098 11.274C19.0227 11.5819 18.8388 11.8089 18.5558 11.9474C18.285 12.0797 18.0367 12.2382 17.8449 12.475C17.5213 12.8739 17.4132 13.3365 17.4423 13.8155C17.4423 13.9612 17.4369 14.0827 17.4435 14.2041C17.4642 14.572 17.758 14.8477 18.1169 14.841C18.4684 14.8343 18.7507 14.5556 18.7647 14.195C18.7708 14.0402 18.775 13.8847 18.7647 13.7305C18.7459 13.4464 18.863 13.2606 19.1235 13.1428C19.4659 12.988 19.7458 12.7506 19.9747 12.4501C20.58 11.6523 20.6165 10.5679 20.0615 9.71975Z" fill="#0C1928"/>
<defs>
<filter id="filter0_d_5413_90" x="0.546875" y="0" width="21.4023" height="25" filterUnits="userSpaceOnUse" color-interpolation-filters="sRGB">
<feFlood flood-opacity="0" result="BackgroundImageFix"/>
<feColorMatrix in="SourceAlpha" type="matrix" values="0 0 0 0 0 0 0 0 0 0 0 0 0 0 0 0 0 0 127 0" result="hardAlpha"/>
<feOffset dy="4"/>
<feGaussianBlur stdDeviation="2"/>
<feComposite in2="hardAlpha" operator="out"/>
<feColorMatrix type="matrix" values="0 0 0 0 0 0 0 0 0 0 0 0 0 0 0 0 0 0 0.25 0"/>
<feBlend mode="normal" in2="BackgroundImageFix" result="effect1_dropShadow_5413_90"/>
<feBlend mode="normal" in="SourceGraphic" in2="effect1_dropShadow_5413_90" result="shape"/>
</filter>
</defs>
</svg>
