<svg width="76" height="76" viewBox="0 0 76 76" fill="none" xmlns="http://www.w3.org/2000/svg">
<path d="M38 73C57.3303 73 73 57.3339 73 38C73 18.6729 57.3307 3 38 3C18.6694 3 3 18.6729 3 38C3 57.3339 18.6697 73 38 73Z" fill="#00A551" stroke="#D8FFEB" stroke-width="6"/>
<path d="M44.0201 26C48.6186 26 51.3327 28.6461 51.3327 33.1757H45.6912V33.222C43.073 33.222 40.9505 35.2913 40.9505 37.844C40.9505 40.3967 43.073 42.4661 45.6912 42.4661H51.3327V42.882C51.3327 47.3539 48.6186 50 44.0201 50H31.9786C27.3801 50 24.666 47.3539 24.666 42.882V33.118C24.666 28.6461 27.3801 26 31.9786 26H44.0201ZM50.3371 35.1632C50.887 35.1632 51.3327 35.5978 51.3327 36.1338V39.5079C51.3263 40.0414 50.8843 40.4723 50.3371 40.4786H45.7979C44.4724 40.496 43.3133 39.6112 43.0127 38.3524C42.8621 37.5711 43.0735 36.7648 43.5901 36.1496C44.1067 35.5345 44.8758 35.1734 45.6912 35.1632H50.3371ZM46.3312 36.7232H45.8927C45.6235 36.7201 45.3642 36.8222 45.1727 37.0067C44.9812 37.1912 44.8734 37.4428 44.8734 37.7053C44.8734 38.2561 45.3278 38.7043 45.8927 38.7106H46.3312C46.8941 38.7106 47.3505 38.2657 47.3505 37.7169C47.3505 37.1681 46.8941 36.7232 46.3312 36.7232ZM38.509 31.1883H30.9831C30.4247 31.1882 29.9703 31.6261 29.9638 32.1704C29.9638 32.7212 30.4182 33.1694 30.9831 33.1757H38.509C39.0719 33.1757 39.5282 32.7308 39.5282 32.182C39.5282 31.6332 39.0719 31.1883 38.509 31.1883Z" fill="white"/>
</svg>
