<svg width="20" height="20" viewBox="0 0 20 20" fill="none" xmlns="http://www.w3.org/2000/svg">
<path d="M17.875 1.46829V18.53C17.875 18.764 17.782 18.9885 17.6166 19.1539C17.4511 19.3194 17.2267 19.4124 16.9926 19.4124H3.00735C2.77334 19.4124 2.54891 19.3194 2.38344 19.1539C2.21796 18.9885 2.125 18.764 2.125 18.53V4.12712H4.78676C5.02078 4.12712 5.24521 4.03416 5.41068 3.86868C5.57616 3.70321 5.66912 3.47878 5.66912 3.24477V0.585938H16.9926C17.2267 0.585938 17.4511 0.6789 17.6166 0.844373C17.782 1.00985 17.875 1.23428 17.875 1.46829Z" fill="#EFDCDB"/>
<path d="M2.125 4.12712H4.78676C5.02078 4.12712 5.24521 4.03416 5.41068 3.86868C5.57616 3.70321 5.66912 3.47878 5.66912 3.24477V0.585938L2.125 4.12712Z" fill="#DAC3C2"/>
<path d="M18.8248 11.5268V15.6209C18.8248 15.8549 18.7319 16.0794 18.5664 16.2448C18.4009 16.4103 18.1765 16.5033 17.9425 16.5033H2.06008C1.82607 16.5033 1.60164 16.4103 1.43616 16.2448C1.27069 16.0794 1.17773 15.8549 1.17773 15.6209V11.5268C1.17773 11.2928 1.27069 11.0684 1.43616 10.9029C1.60164 10.7374 1.82607 10.6445 2.06008 10.6445H17.9425C18.1765 10.6445 18.4009 10.7374 18.5664 10.9029C18.7319 11.0684 18.8248 11.2928 18.8248 11.5268Z" fill="#F14F4A"/>
<path d="M15.4506 6.61769C15.4506 6.82886 15.2823 6.9971 15.0712 6.9971H4.92825C4.82762 6.9971 4.73112 6.95713 4.65996 6.88597C4.58881 6.81482 4.54883 6.71831 4.54883 6.61769C4.54883 6.51706 4.58881 6.42056 4.65996 6.3494C4.73112 6.27825 4.82762 6.23828 4.92825 6.23828H15.0712C15.2823 6.23828 15.4506 6.40651 15.4506 6.61769ZM15.4506 8.56181C15.4506 8.77298 15.2823 8.94122 15.0712 8.94122H4.92825C4.82762 8.94122 4.73112 8.90124 4.65996 8.83009C4.58881 8.75894 4.54883 8.66243 4.54883 8.56181C4.54883 8.46118 4.58881 8.36467 4.65996 8.29352C4.73112 8.22237 4.82762 8.18239 4.92825 8.18239H15.0712C15.2823 8.18239 15.4506 8.35092 15.4506 8.56181Z" fill="#F14F4A"/>
<path d="M6.25866 14.9726C6.24116 14.9554 6.22737 14.9347 6.21817 14.912C6.20896 14.8892 6.20452 14.8648 6.20513 14.8403V12.3111C6.20513 12.2591 6.22278 12.2141 6.25866 12.177C6.27555 12.1589 6.29607 12.1446 6.31887 12.1349C6.34168 12.1253 6.36626 12.1206 6.39102 12.1211H7.33307C7.59484 12.1211 7.80837 12.1653 7.97337 12.2535C8.13896 12.3417 8.25719 12.4547 8.32925 12.5923C8.40043 12.73 8.4366 12.8788 8.4366 13.0385C8.4366 13.1982 8.40043 13.3473 8.32896 13.485C8.25719 13.6226 8.13896 13.7355 7.97337 13.8238C7.80837 13.912 7.59455 13.9561 7.33307 13.9561H6.58102V14.8403C6.5815 14.865 6.57678 14.8896 6.56715 14.9124C6.55753 14.9352 6.54321 14.9557 6.52513 14.9726C6.48807 15.0082 6.44307 15.0261 6.39072 15.0261C6.33837 15.0261 6.29425 15.0085 6.25866 14.9726ZM7.29602 13.6005C7.5769 13.6005 7.77455 13.5467 7.88866 13.4394C8.00307 13.332 8.06013 13.1982 8.06013 13.0385C8.06013 12.8788 8.00307 12.745 7.88866 12.6376C7.77455 12.5302 7.5769 12.4764 7.29602 12.4764H6.58102V13.6005H7.29602Z" fill="white"/>
<path d="M6.39003 15.0993C6.35589 15.0997 6.32201 15.0932 6.29043 15.0802C6.25885 15.0672 6.23021 15.048 6.20621 15.0237C6.18177 14.9998 6.16248 14.9711 6.14953 14.9394C6.13658 14.9077 6.13025 14.8738 6.13091 14.8396V12.3105C6.13091 12.2387 6.15591 12.1763 6.20533 12.1252C6.22905 12.1001 6.25771 12.0802 6.2895 12.0667C6.32128 12.0533 6.35551 12.0465 6.39003 12.0469H7.33238C7.60503 12.0469 7.83209 12.0943 8.00738 12.1878C8.18503 12.2825 8.31474 12.4069 8.39356 12.5575C8.47003 12.7055 8.50944 12.8669 8.50944 13.0378C8.50944 13.2087 8.47032 13.3702 8.39356 13.5181C8.31503 13.6687 8.18503 13.7931 8.00738 13.8881C7.83238 13.9813 7.60532 14.0287 7.33238 14.0287H6.65385V14.8396C6.65427 14.8742 6.64753 14.9085 6.63407 14.9404C6.62061 14.9723 6.60071 15.001 6.57562 15.0249C6.55113 15.0488 6.52215 15.0677 6.49036 15.0804C6.45856 15.0931 6.42427 15.0997 6.39003 15.0993ZM6.39003 12.194C6.37527 12.1935 6.36059 12.1962 6.34698 12.202C6.33337 12.2077 6.32117 12.2163 6.31121 12.2272C6.30031 12.2381 6.29174 12.2511 6.28603 12.2654C6.28031 12.2797 6.27757 12.2951 6.27797 12.3105V14.8396C6.27797 14.8725 6.28797 14.8981 6.31003 14.9196C6.35415 14.9637 6.4268 14.964 6.47385 14.9187C6.48471 14.9086 6.49327 14.8963 6.49896 14.8826C6.50464 14.8689 6.50731 14.8541 6.5068 14.8393V13.8816H7.33238C7.58091 13.8816 7.78474 13.8402 7.93827 13.7581C8.08944 13.6775 8.19856 13.574 8.26327 13.4502C8.32885 13.3237 8.36238 13.1849 8.36238 13.0378C8.36238 12.8907 8.32885 12.7522 8.26327 12.6255C8.19856 12.5019 8.08915 12.3981 7.93827 12.3175C7.78444 12.2355 7.58062 12.194 7.33238 12.194H6.39003ZM7.29533 13.6734H6.5068V12.4022H7.29503C7.59797 12.4022 7.80885 12.4613 7.93827 12.5834C8.06768 12.7049 8.13297 12.8578 8.13297 13.0378C8.13297 13.2178 8.06768 13.3707 7.93827 13.4922C7.80885 13.6143 7.59827 13.6734 7.29533 13.6734ZM6.65385 13.5263H7.29503C7.55533 13.5263 7.73797 13.4787 7.83768 13.3852C7.93768 13.291 7.98591 13.1778 7.98591 13.0378C7.98591 12.8978 7.93738 12.7843 7.83768 12.6907C7.73797 12.5966 7.55533 12.5496 7.29533 12.5496H6.65385V13.5263ZM9.03503 14.951C9.01747 14.9338 9.00363 14.9132 8.99438 14.8905C8.98512 14.8677 8.98064 14.8433 8.98121 14.8187V12.3105C8.98121 12.2584 8.99885 12.2134 9.03503 12.1763C9.05188 12.1583 9.07235 12.144 9.09511 12.1343C9.11786 12.1247 9.14239 12.12 9.16709 12.1205H9.99768C10.3115 12.1205 10.5782 12.1902 10.7974 12.3293C11.0086 12.46 11.1795 12.6465 11.2912 12.8684C11.4012 13.089 11.4562 13.3202 11.4562 13.5625C11.4562 13.8049 11.4012 14.0363 11.2912 14.2569C11.1794 14.4788 11.0084 14.6654 10.7971 14.796C10.5782 14.9355 10.3118 15.0049 9.99768 15.0049H9.16738C9.14281 15.0054 9.11839 15.001 9.09562 14.9917C9.07285 14.9824 9.05223 14.9686 9.03503 14.951ZM9.95238 14.6537C10.1779 14.6537 10.3762 14.6075 10.5471 14.5152C10.7133 14.4275 10.8509 14.2941 10.9438 14.1307C11.0374 13.9669 11.0844 13.7778 11.0844 13.5628C11.0844 13.3478 11.0374 13.1584 10.9438 12.9946C10.8509 12.8313 10.7132 12.6979 10.5471 12.6102C10.3765 12.5178 10.1779 12.4719 9.95238 12.4719H9.35709V14.6537H9.95238Z" fill="white"/>
<path d="M9.9999 15.0803H9.16961C9.13544 15.0808 9.10152 15.0744 9.06989 15.0614C9.03825 15.0485 9.00955 15.0293 8.98549 15.005C8.96105 14.9811 8.94177 14.9524 8.92882 14.9208C8.91587 14.8891 8.90953 14.8551 8.9102 14.8209V12.3124C8.9102 12.2406 8.9352 12.1783 8.98461 12.1271C9.00837 12.102 9.03708 12.0821 9.06892 12.0686C9.10076 12.0552 9.13504 12.0484 9.16961 12.0489H10.0002C10.327 12.0489 10.6091 12.123 10.8393 12.2692C11.0616 12.4072 11.2415 12.6038 11.3593 12.8374C11.4729 13.063 11.5321 13.312 11.5321 13.5646C11.5321 13.8172 11.4729 14.0662 11.3593 14.2918C11.2415 14.5254 11.0616 14.722 10.8393 14.86C10.6091 15.0062 10.3267 15.0803 9.9999 15.0803ZM9.16931 12.1959C9.15451 12.1954 9.13976 12.1981 9.1261 12.2039C9.11244 12.2096 9.10019 12.2182 9.0902 12.2292C9.0793 12.2401 9.07073 12.2531 9.06502 12.2674C9.0593 12.2817 9.05656 12.297 9.05696 12.3124V14.8209C9.05696 14.8536 9.06696 14.8792 9.08931 14.9009C9.09968 14.9116 9.11215 14.9202 9.12593 14.9257C9.1397 14.9312 9.15448 14.9338 9.16931 14.9333H9.9999C10.2985 14.9333 10.5541 14.8668 10.7602 14.7362C10.96 14.6123 11.1217 14.4358 11.2276 14.2259C11.3311 14.0208 11.385 13.7943 11.385 13.5646C11.385 13.3349 11.3311 13.1084 11.2276 12.9033C11.1216 12.6936 10.9599 12.5171 10.7602 12.3933C10.5541 12.2624 10.2985 12.1962 9.9999 12.1962L9.16931 12.1959ZM9.95461 14.7292H9.28579V12.4H9.95461C10.1911 12.4 10.4032 12.4498 10.5843 12.5471C10.7667 12.6459 10.9099 12.7848 11.0099 12.9598C11.1099 13.1348 11.1602 13.3383 11.1602 13.5648C11.1602 13.7912 11.1099 13.9948 11.0099 14.1692C10.9101 14.3443 10.7625 14.4874 10.5843 14.5818C10.4035 14.6795 10.1914 14.7292 9.95461 14.7292ZM9.43284 14.5821H9.95461C10.1667 14.5821 10.3552 14.5383 10.5143 14.4527C10.672 14.3674 10.7958 14.2474 10.8823 14.0962C10.9691 13.9442 11.0132 13.7653 11.0132 13.5648C11.0132 13.3642 10.9691 13.1853 10.8823 13.033C10.7958 12.8819 10.6684 12.7584 10.5146 12.6768C10.3549 12.5909 10.1667 12.5474 9.95461 12.5474H9.43284V14.5821ZM12.1405 14.9739C12.123 14.9566 12.1092 14.936 12.1 14.9132C12.0908 14.8905 12.0864 14.8661 12.087 14.8415V12.3124C12.087 12.2603 12.1046 12.2153 12.1405 12.1783C12.1574 12.1602 12.1779 12.1458 12.2007 12.1362C12.2235 12.1266 12.2481 12.1219 12.2729 12.1224H13.8802C13.9296 12.1224 13.9717 12.1398 14.0061 12.1742C14.0405 12.2086 14.0579 12.2506 14.0579 12.3C14.0579 12.3495 14.0405 12.3912 14.0061 12.4242C13.9717 12.4571 13.9296 12.4736 13.8802 12.4736H12.4629V13.3868H13.7355C13.7855 13.3868 13.8273 13.4045 13.8617 13.4386C13.8961 13.473 13.9135 13.515 13.9135 13.5648C13.9135 13.6142 13.8961 13.6556 13.8617 13.6886C13.8273 13.7215 13.7852 13.738 13.7355 13.738H12.4629V14.8415C12.4634 14.8663 12.4586 14.8908 12.449 14.9136C12.4394 14.9364 12.4251 14.957 12.407 14.9739C12.3699 15.0095 12.3249 15.0274 12.2729 15.0274C12.2208 15.0274 12.1764 15.0098 12.1405 14.9739Z" fill="white"/>
<path d="M12.2709 15.0993C12.2367 15.0997 12.2029 15.0932 12.1713 15.0802C12.1397 15.0672 12.1111 15.048 12.0871 15.0237C12.0626 14.9998 12.0433 14.9711 12.0304 14.9394C12.0174 14.9078 12.0111 14.8738 12.0118 14.8396V12.3105C12.0118 12.2387 12.0368 12.1763 12.0862 12.1252C12.1099 12.1001 12.1386 12.0801 12.1705 12.0667C12.2023 12.0532 12.2366 12.0465 12.2712 12.0469H13.8785C13.9116 12.0464 13.9444 12.0526 13.975 12.0651C14.0056 12.0777 14.0333 12.0963 14.0565 12.1199C14.08 12.1432 14.0986 12.1709 14.1112 12.2016C14.1238 12.2322 14.1301 12.265 14.1297 12.2981C14.1296 12.3309 14.1231 12.3633 14.1104 12.3935C14.0977 12.4237 14.0791 12.4511 14.0557 12.4741C14.0324 12.4971 14.0047 12.5152 13.9742 12.5274C13.9438 12.5396 13.9113 12.5456 13.8785 12.5452H12.5347V13.3113H13.7338C13.7669 13.3108 13.7998 13.317 13.8305 13.3296C13.8611 13.3422 13.8889 13.3609 13.9121 13.3846C13.9357 13.4078 13.9544 13.4355 13.967 13.4662C13.9796 13.4968 13.9858 13.5297 13.9853 13.5628C13.9858 13.5959 13.9794 13.6287 13.9666 13.6591C13.9538 13.6896 13.9348 13.7171 13.9109 13.7399C13.8874 13.7626 13.8597 13.7805 13.8293 13.7924C13.7989 13.8044 13.7665 13.8102 13.7338 13.8096H12.5347V14.8396C12.5352 14.8742 12.5285 14.9085 12.5151 14.9404C12.5016 14.9722 12.4818 15.001 12.4568 15.0249C12.4322 15.0489 12.4032 15.0677 12.3714 15.0805C12.3395 15.0932 12.3052 15.0998 12.2709 15.0993ZM12.2709 12.194C12.2561 12.1935 12.2414 12.1962 12.2278 12.202C12.2142 12.2077 12.202 12.2163 12.1921 12.2272C12.1812 12.2381 12.1726 12.2511 12.1669 12.2654C12.1612 12.2797 12.1584 12.2951 12.1588 12.3105V14.8396C12.1588 14.8725 12.1688 14.8981 12.1912 14.9196C12.2353 14.9637 12.3076 14.964 12.3547 14.9187C12.3656 14.9086 12.3741 14.8963 12.3798 14.8826C12.3855 14.8689 12.3882 14.8541 12.3876 14.8393V13.6628H13.7338C13.7477 13.6633 13.7616 13.661 13.7745 13.6559C13.7875 13.6509 13.7992 13.6432 13.8091 13.6334C13.8188 13.6244 13.8263 13.6135 13.8314 13.6013C13.8364 13.5891 13.8387 13.576 13.8382 13.5628C13.8382 13.5328 13.8288 13.5093 13.8079 13.4887C13.7871 13.4681 13.7638 13.4584 13.7338 13.4584H12.3876V12.3981H13.8788C13.8926 12.3986 13.9063 12.3963 13.9192 12.3912C13.932 12.3862 13.9437 12.3787 13.9535 12.369C13.9632 12.36 13.9708 12.3491 13.9758 12.3369C13.9808 12.3247 13.9831 12.3116 13.9826 12.2984C13.9831 12.2846 13.9807 12.2708 13.9755 12.258C13.9702 12.2451 13.9624 12.2336 13.9524 12.224C13.9428 12.2142 13.9314 12.2064 13.9187 12.2013C13.9061 12.1961 13.8925 12.1936 13.8788 12.194H12.2709Z" fill="white"/>
</svg>
