<svg width="40" height="40" viewBox="0 0 40 40" fill="none" xmlns="http://www.w3.org/2000/svg">
<g clip-path="url(#clip0_3122_139)">
<path d="M40 20C40 8.9543 31.0457 0 20 0C8.9543 0 0 8.9543 0 20C0 31.0457 8.9543 40 20 40C31.0457 40 40 31.0457 40 20Z" fill="url(#paint0_linear_3122_139)" fill-opacity="0.15"/>
<path d="M20.0001 29.715L12.5804 29.7143C12.1858 29.7137 11.8076 29.5568 11.5286 29.2778C11.2495 28.9989 11.0924 28.6208 11.0916 28.2263V18.2603L18.6554 11.61C19.0275 11.284 19.5054 11.1043 20.0001 11.1043C20.4948 11.1043 20.9727 11.284 21.3449 11.61L29.0676 18.4013L29.0766 18.4088L30.8766 19.9928C30.9893 20.086 31.1339 20.1317 31.2797 20.1201C31.4255 20.1086 31.561 20.0407 31.6576 19.9308C31.7542 19.821 31.8042 19.6778 31.797 19.5317C31.7898 19.3857 31.726 19.2481 31.6191 19.1483L30.0291 17.7495V12.0698C30.0079 11.2997 29.687 10.5683 29.1348 10.0311C28.5826 9.49391 27.8426 9.19336 27.0722 9.19336C26.3018 9.19336 25.5618 9.49391 25.0096 10.0311C24.4574 10.5683 24.1366 11.2997 24.1154 12.0698V12.5513L22.0904 10.7678C21.5127 10.2619 20.771 9.98298 20.0031 9.98298C19.2352 9.98298 18.4935 10.2619 17.9159 10.7678L8.38035 19.146C8.26826 19.2448 8.2 19.384 8.19058 19.5331C8.18115 19.6822 8.23134 19.8289 8.3301 19.941C8.42886 20.0531 8.5681 20.1214 8.71719 20.1308C8.86629 20.1402 9.01301 20.09 9.1251 19.9913L9.96885 19.2488V28.2263C9.96945 28.9193 10.245 29.5838 10.7351 30.0738C11.2251 30.5639 11.8896 30.8394 12.5826 30.84H20.0001C20.1493 30.84 20.2924 30.7808 20.3978 30.6753C20.5033 30.5698 20.5626 30.4267 20.5626 30.2775C20.5626 30.1284 20.5033 29.9853 20.3978 29.8798C20.2924 29.7743 20.1493 29.715 20.0001 29.715ZM25.2411 12.0698C25.2508 11.5904 25.4481 11.1338 25.7906 10.7982C26.133 10.4626 26.5935 10.2746 27.073 10.2746C27.5525 10.2746 28.0129 10.4626 28.3554 10.7982C28.6979 11.1338 28.8951 11.5904 28.9049 12.0698V16.7588L25.2411 13.5338V12.0698Z" fill="#6200EA" stroke="#6200EA" stroke-width="0.3"/>
<path d="M20.0002 14.8359C19.2801 14.8359 18.5895 15.1219 18.0804 15.6311C17.5712 16.1403 17.2852 16.8308 17.2852 17.5509C17.2852 18.2709 17.5712 18.9615 18.0804 19.4707C18.5895 19.9798 19.2801 20.2659 20.0002 20.2659C20.7202 20.2659 21.4108 19.9798 21.92 19.4707C22.4291 18.9615 22.7152 18.2709 22.7152 17.5509C22.7152 16.8308 22.4291 16.1403 21.92 15.6311C21.4108 15.1219 20.7202 14.8359 20.0002 14.8359ZM21.5902 17.5516C21.5901 17.7604 21.5488 17.9672 21.4688 18.16C21.3888 18.3529 21.2716 18.5281 21.1239 18.6757C20.9762 18.8233 20.8009 18.9403 20.6079 19.0201C20.415 19.1 20.2082 19.141 19.9994 19.1409C19.7906 19.1408 19.5839 19.0996 19.391 19.0196C19.1981 18.9396 19.0229 18.8224 18.8753 18.6747C18.7278 18.5269 18.6107 18.3516 18.5309 18.1587C18.4511 17.9657 18.4101 17.7589 18.4102 17.5501C18.4104 17.1284 18.5781 16.7241 18.8764 16.4261C19.1747 16.128 19.5792 15.9607 20.0009 15.9609C20.4226 15.9611 20.8269 16.1288 21.125 16.4271C21.423 16.7254 21.5904 17.1299 21.5902 17.5516ZM26.8829 20.9836C25.9082 20.9836 24.9554 21.2727 24.1449 21.8142C23.3345 22.3557 22.7028 23.1254 22.3298 24.0259C21.9568 24.9264 21.8592 25.9174 22.0494 26.8733C22.2395 27.8293 22.7089 28.7075 23.3981 29.3967C24.0873 30.0859 24.9655 30.5553 25.9215 30.7454C26.8774 30.9356 27.8683 30.838 28.7689 30.465C29.6694 30.092 30.4391 29.4603 30.9806 28.6499C31.5221 27.8394 31.8112 26.8866 31.8112 25.9119C31.8094 24.6054 31.2896 23.3529 30.3657 22.4291C29.4419 21.5052 28.1894 20.9854 26.8829 20.9836ZM26.8829 29.7144C26.1309 29.7142 25.3958 29.4911 24.7706 29.0732C24.1454 28.6554 23.6582 28.0615 23.3705 27.3667C23.0828 26.6719 23.0075 25.9074 23.1543 25.1699C23.301 24.4323 23.6631 23.7549 24.1949 23.2231C24.7266 22.6914 25.4041 22.3292 26.1416 22.1825C26.8792 22.0357 27.6437 22.111 28.3385 22.3987C29.0332 22.6864 29.6271 23.1737 30.045 23.7989C30.4629 24.4241 30.686 25.1591 30.6862 25.9111C30.6846 26.9193 30.2833 27.8864 29.5704 28.5992C28.8575 29.312 27.891 29.713 26.8829 29.7144Z" fill="#6200EA"/>
<path d="M21.5902 17.5516C21.5901 17.7604 21.5488 17.9672 21.4688 18.16C21.3888 18.3529 21.2716 18.5281 21.1239 18.6757C20.9762 18.8233 20.8009 18.9403 20.6079 19.0201C20.415 19.1 20.2082 19.141 19.9994 19.1409C19.7906 19.1408 19.5839 19.0996 19.391 19.0196C19.1981 18.9396 19.0229 18.8224 18.8753 18.6747C18.7278 18.5269 18.6107 18.3516 18.5309 18.1587C18.4511 17.9657 18.4101 17.7589 18.4102 17.5501C18.4104 17.1284 18.5781 16.7241 18.8764 16.4261C19.1747 16.128 19.5792 15.9607 20.0009 15.9609C20.4226 15.9611 20.8269 16.1288 21.125 16.4271C21.423 16.7254 21.5904 17.1299 21.5902 17.5516ZM21.5902 17.5516C21.5902 17.5509 21.5902 17.5509 21.5902 17.5516ZM20.0002 14.8359C19.2801 14.8359 18.5895 15.1219 18.0804 15.6311C17.5712 16.1403 17.2852 16.8308 17.2852 17.5509C17.2852 18.2709 17.5712 18.9615 18.0804 19.4707C18.5895 19.9798 19.2801 20.2659 20.0002 20.2659C20.7202 20.2659 21.4108 19.9798 21.92 19.4707C22.4291 18.9615 22.7152 18.2709 22.7152 17.5509C22.7152 16.8308 22.4291 16.1403 21.92 15.6311C21.4108 15.1219 20.7202 14.8359 20.0002 14.8359ZM26.8829 20.9836C25.9082 20.9836 24.9554 21.2727 24.1449 21.8142C23.3345 22.3557 22.7028 23.1254 22.3298 24.0259C21.9568 24.9264 21.8592 25.9174 22.0494 26.8733C22.2395 27.8293 22.7089 28.7075 23.3981 29.3967C24.0873 30.0859 24.9655 30.5553 25.9215 30.7454C26.8774 30.9356 27.8683 30.838 28.7689 30.465C29.6694 30.092 30.4391 29.4603 30.9806 28.6499C31.5221 27.8394 31.8112 26.8866 31.8112 25.9119C31.8094 24.6054 31.2896 23.3529 30.3657 22.4291C29.4419 21.5052 28.1894 20.9854 26.8829 20.9836ZM26.8829 29.7144C26.1309 29.7142 25.3958 29.4911 24.7706 29.0732C24.1454 28.6554 23.6582 28.0615 23.3705 27.3667C23.0828 26.6719 23.0075 25.9074 23.1543 25.1699C23.301 24.4323 23.6631 23.7549 24.1949 23.2231C24.7266 22.6914 25.4041 22.3292 26.1416 22.1825C26.8792 22.0357 27.6437 22.111 28.3385 22.3987C29.0332 22.6864 29.6271 23.1737 30.045 23.7989C30.4629 24.4241 30.686 25.1591 30.6862 25.9111C30.6846 26.9193 30.2833 27.8864 29.5704 28.5992C28.8575 29.312 27.891 29.713 26.8829 29.7144Z" stroke="#6200EA" stroke-width="0.3"/>
<path d="M27.4453 26.2508V23.8223C27.4453 23.6731 27.3861 23.53 27.2806 23.4245C27.1751 23.319 27.032 23.2598 26.8828 23.2598C26.7336 23.2598 26.5906 23.319 26.4851 23.4245C26.3796 23.53 26.3203 23.6731 26.3203 23.8223V26.5088C26.32 26.5897 26.3374 26.6698 26.3712 26.7434C26.405 26.8169 26.4544 26.8823 26.5161 26.9348L27.6231 27.8888C27.7361 27.9862 27.8833 28.0346 28.0321 28.0235C28.1809 28.0124 28.3192 27.9426 28.4166 27.8295C28.5139 27.7165 28.5624 27.5693 28.5513 27.4205C28.5402 27.2717 28.4704 27.1334 28.3573 27.036L27.4453 26.2508Z" fill="#6200EA"/>
</g>
<defs>
<linearGradient id="paint0_linear_3122_139" x1="20" y1="0" x2="20" y2="40" gradientUnits="userSpaceOnUse">
<stop stop-color="#CAA4FF"/>
<stop offset="1" stop-color="#6200EA"/>
</linearGradient>
<clipPath id="clip0_3122_139">
<rect width="40" height="40" fill="white"/>
</clipPath>
</defs>
</svg>
