<svg width="28" height="28" viewBox="0 0 28 28" fill="none" xmlns="http://www.w3.org/2000/svg">
<g filter="url(#filter0_d_3139_185)">
<g clip-path="url(#clip0_3139_185)">
<mask id="mask0_3139_185" style="mask-type:luminance" maskUnits="userSpaceOnUse" x="4" y="0" width="20" height="20">
<path d="M24 0H4V20H24V0Z" fill="white"/>
</mask>
<g mask="url(#mask0_3139_185)">
<path d="M8.10156 8.20312H5.7578C5.43395 8.20312 5.17188 7.94106 5.17188 7.6172V5.27344C5.17188 4.30414 5.96038 3.51562 6.92968 3.51562H8.10156C8.42543 3.51562 8.68749 3.77771 8.68749 4.10157V7.6172C8.68749 7.94106 8.42543 8.20312 8.10156 8.20312Z" fill="#57555C"/>
<path d="M22.8281 7.6172C22.8281 7.94106 22.5661 8.20312 22.2422 8.20312H19.8984C19.5746 8.20312 19.3125 7.94106 19.3125 7.6172L18.1406 4.10157C18.1406 3.77771 18.4027 3.51562 18.7266 3.51562H21.0703C22.0396 3.51562 22.8281 4.30414 22.8281 5.27344V7.6172Z" fill="#3C3A41"/>
<path d="M20.4844 4.6875V7.61719C20.4844 7.94527 20.2266 8.20312 19.8984 8.20312H8.10157C7.77341 8.20312 7.51562 7.94527 7.51562 7.61719V0.585938C7.51562 0.257773 7.77341 0 8.10157 0H15.7969L16.9688 3.51562L20.4844 4.6875Z" fill="#E5E5E5"/>
<path d="M19.8984 8.20312H14V0H15.7969L16.9688 3.51562L20.4844 4.6875V7.61719C20.4844 7.94527 20.2266 8.20312 19.8984 8.20312Z" fill="#D9D9D9"/>
<path d="M22.2422 7.03125H5.75781C4.78512 7.03125 4 7.81637 4 8.78906V15.8984C4 16.8711 4.78512 17.6562 5.75781 17.6562H22.2422C23.2149 17.6562 24 16.8711 24 15.8984V8.78906C24 7.81637 23.2149 7.03125 22.2422 7.03125Z" fill="#1BA9EF"/>
<path d="M15.7969 4.10156C15.7969 4.42965 16.0546 4.6875 16.3828 4.6875H20.4844L15.7969 0V4.10156Z" fill="#FE9923"/>
<path d="M24 8.78906V15.8984C24 16.8711 23.2149 17.6562 22.2422 17.6562H14V7.03125H22.2422C23.2149 7.03125 24 7.81637 24 8.78906Z" fill="#1689FC"/>
<path d="M8.10156 10.5469H6.92969C6.60582 10.5469 6.34375 10.2848 6.34375 9.96094C6.34375 9.63707 6.60582 9.375 6.92969 9.375H8.10156C8.42543 9.375 8.6875 9.63707 8.6875 9.96094C8.6875 10.2848 8.42543 10.5469 8.10156 10.5469Z" fill="#E1E4FB"/>
<path d="M20.4844 12.5V19.4141C20.4844 19.7422 20.2266 20 19.8984 20H8.10157C7.77341 20 7.51562 19.7422 7.51562 19.4141V12.5H20.4844Z" fill="#E5E5E5"/>
<path d="M20.4844 12.5V19.4141C20.4844 19.7422 20.2266 20 19.8984 20H14V12.5H20.4844Z" fill="#D9D9D9"/>
<path d="M18.1406 14.7266C18.1406 15.0546 17.8829 15.3125 17.5547 15.3125H10.4453C10.1171 15.3125 9.85938 15.0546 9.85938 14.7266C9.85938 14.3984 10.1171 14.1406 10.4453 14.1406H17.5547C17.8829 14.1406 18.1406 14.3984 18.1406 14.7266ZM18.1406 17.0703C18.1406 17.3984 17.8829 17.6562 17.5547 17.6562H10.4453C10.1171 17.6562 9.85938 17.3984 9.85938 17.0703C9.85938 16.7421 10.1171 16.4844 10.4453 16.4844H17.5547C17.8829 16.4844 18.1406 16.7421 18.1406 17.0703Z" fill="#AEADB3"/>
<path d="M18.1406 17.0703C18.1406 17.3984 17.8829 17.6562 17.5547 17.6562H14V16.4844H17.5547C17.8829 16.4844 18.1406 16.7421 18.1406 17.0703ZM18.1406 14.7266C18.1406 15.0546 17.8829 15.3125 17.5547 15.3125H14V14.1406H17.5547C17.8829 14.1406 18.1406 14.3984 18.1406 14.7266Z" fill="#8B8892"/>
<path d="M21.6562 12.3828C21.6562 12.7109 21.3985 12.9688 21.0703 12.9688H6.92969C6.60152 12.9688 6.34375 12.7109 6.34375 12.3828C6.34375 12.0546 6.60152 11.7969 6.92969 11.7969H21.0703C21.3985 11.7969 21.6562 12.0546 21.6562 12.3828Z" fill="#57555C"/>
<path d="M21.6562 12.3828C21.6562 12.7109 21.3985 12.9688 21.0703 12.9688H14V11.7969H21.0703C21.3985 11.7969 21.6562 12.0546 21.6562 12.3828Z" fill="#3C3A41"/>
</g>
</g>
</g>
<defs>
<filter id="filter0_d_3139_185" x="0" y="0" width="28" height="28" filterUnits="userSpaceOnUse" color-interpolation-filters="sRGB">
<feFlood flood-opacity="0" result="BackgroundImageFix"/>
<feColorMatrix in="SourceAlpha" type="matrix" values="0 0 0 0 0 0 0 0 0 0 0 0 0 0 0 0 0 0 127 0" result="hardAlpha"/>
<feOffset dy="4"/>
<feGaussianBlur stdDeviation="2"/>
<feComposite in2="hardAlpha" operator="out"/>
<feColorMatrix type="matrix" values="0 0 0 0 0 0 0 0 0 0 0 0 0 0 0 0 0 0 0.25 0"/>
<feBlend mode="normal" in2="BackgroundImageFix" result="effect1_dropShadow_3139_185"/>
<feBlend mode="normal" in="SourceGraphic" in2="effect1_dropShadow_3139_185" result="shape"/>
</filter>
<clipPath id="clip0_3139_185">
<rect width="20" height="20" fill="white" transform="translate(4)"/>
</clipPath>
</defs>
</svg>
