<svg width="41" height="40" viewBox="0 0 41 40" fill="none" xmlns="http://www.w3.org/2000/svg">
<g clip-path="url(#clip0_3122_141)">
<path d="M40.5 20C40.5 8.9543 31.5457 0 20.5 0C9.4543 0 0.5 8.9543 0.5 20C0.5 31.0457 9.4543 40 20.5 40C31.5457 40 40.5 31.0457 40.5 20Z" fill="url(#paint0_linear_3122_141)" fill-opacity="0.15"/>
<path fill-rule="evenodd" clip-rule="evenodd" d="M26.5 10.9999C26.5 9.45714 24.9828 8.37189 23.5225 8.87064L17.5225 10.9196C17.0783 11.0714 16.6928 11.3583 16.4198 11.7401C16.1467 12.1219 16 12.5795 16 13.0489V17.7499H11.5C10.9033 17.7499 10.331 17.987 9.90901 18.4089C9.48705 18.8309 9.25 19.4032 9.25 19.9999V28.9999C9.25 29.5966 9.48705 30.1689 9.90901 30.5909C10.331 31.0128 10.9033 31.2499 11.5 31.2499H21.9059C21.2703 30.8416 20.7033 30.3353 20.2259 29.7499H17.5V13.0489C17.5001 12.8925 17.549 12.7399 17.6401 12.6127C17.7311 12.4855 17.8597 12.3899 18.0077 12.3394L24.0077 10.29C24.1207 10.2515 24.2411 10.2404 24.3591 10.2578C24.4772 10.2752 24.5894 10.3204 24.6864 10.3899C24.7834 10.4593 24.8625 10.5508 24.917 10.6569C24.9716 10.763 25 10.8806 25 10.9999V18.1639C25.4986 18.1117 26.0014 18.1117 26.5 18.1639V10.9999ZM10.75 28.9999C10.75 29.1988 10.829 29.3896 10.9697 29.5302C11.1103 29.6709 11.3011 29.7499 11.5 29.7499V27.8749C11.5 27.3776 11.6975 26.9007 12.0492 26.5491C12.4008 26.1974 12.8777 25.9999 13.375 25.9999C13.8723 25.9999 14.3492 26.1974 14.7008 26.5491C15.0525 26.9007 15.25 27.3776 15.25 27.8749V29.7499H16V19.2499H11.5C11.3011 19.2499 11.1103 19.3289 10.9697 19.4696C10.829 19.6102 10.75 19.801 10.75 19.9999V28.9999ZM13.75 29.7499V27.8749C13.75 27.7754 13.7105 27.6801 13.6402 27.6097C13.5698 27.5394 13.4745 27.4999 13.375 27.4999C13.2755 27.4999 13.1802 27.5394 13.1098 27.6097C13.0395 27.6801 13 27.7754 13 27.8749V29.7499H13.75Z" fill="#EF8400"/>
<path d="M20.9331 20C21.5141 19.4663 22.1797 19.0326 22.9026 18.7167C22.7623 18.5776 22.5726 18.4997 22.375 18.5H20.125C19.9261 18.5 19.7353 18.579 19.5947 18.7197C19.454 18.8603 19.375 19.0511 19.375 19.25C19.375 19.4489 19.454 19.6397 19.5947 19.7803C19.7353 19.921 19.9261 20 20.125 20H20.9331ZM22.375 15.5C22.5739 15.5 22.7647 15.579 22.9053 15.7197C23.046 15.8603 23.125 16.0511 23.125 16.25C23.125 16.4489 23.046 16.6397 22.9053 16.7803C22.7647 16.921 22.5739 17 22.375 17H20.125C19.9261 17 19.7353 16.921 19.5947 16.7803C19.454 16.6397 19.375 16.4489 19.375 16.25C19.375 16.0511 19.454 15.8603 19.5947 15.7197C19.7353 15.579 19.9261 15.5 20.125 15.5H22.375ZM23.125 24.5C22.9261 24.5 22.7353 24.579 22.5947 24.7197C22.454 24.8603 22.375 25.0511 22.375 25.25C22.375 25.4489 22.454 25.6397 22.5947 25.7803C22.7353 25.921 22.9261 26 23.125 26H28.375C28.5739 26 28.7647 25.921 28.9053 25.7803C29.046 25.6397 29.125 25.4489 29.125 25.25C29.125 25.0511 29.046 24.8603 28.9053 24.7197C28.7647 24.579 28.5739 24.5 28.375 24.5H23.125Z" fill="#EF8400"/>
<path fill-rule="evenodd" clip-rule="evenodd" d="M25.75 19.25C29.0639 19.25 31.75 21.9361 31.75 25.25C31.75 28.5639 29.0639 31.25 25.75 31.25C22.4361 31.25 19.75 28.5639 19.75 25.25C19.75 21.9361 22.4361 19.25 25.75 19.25ZM30.25 25.25C30.25 22.7649 28.2351 20.75 25.75 20.75C23.2649 20.75 21.25 22.7649 21.25 25.25C21.25 27.7351 23.2649 29.75 25.75 29.75C28.2351 29.75 30.25 27.7351 30.25 25.25Z" fill="#EF8400"/>
</g>
<defs>
<linearGradient id="paint0_linear_3122_141" x1="20.5" y1="0" x2="20.5" y2="40" gradientUnits="userSpaceOnUse">
<stop stop-color="#FFB860"/>
<stop offset="1" stop-color="#DC7900"/>
</linearGradient>
<clipPath id="clip0_3122_141">
<rect width="41" height="40" fill="white"/>
</clipPath>
</defs>
</svg>
