<svg width="38" height="38" viewBox="0 0 38 38" fill="none" xmlns="http://www.w3.org/2000/svg">
<path d="M19 38C13.9609 38 9.12816 35.9982 5.56497 32.435C2.00178 28.8718 -1.40179e-07 24.0391 0 19C1.40179e-07 13.9609 2.00178 9.12816 5.56497 5.56497C9.12816 2.00178 13.9609 -6.00908e-08 19 0L19 4.07361C15.0413 4.07361 11.2447 5.64621 8.44545 8.44545C5.64621 11.2447 4.07361 15.0413 4.07361 19C4.07361 22.9587 5.64621 26.7553 8.44545 29.5545C11.2447 32.3538 15.0413 33.9264 19 33.9264L19 38Z" fill="#6200EA" fill-opacity="0.1"/>
<rect x="4" y="4" width="30" height="30" rx="15" fill="white"/>
<path d="M19 38C13.9609 38 9.12816 35.9982 5.56497 32.435C2.00178 28.8718 -1.40179e-07 24.0391 0 19C1.40179e-07 13.9609 2.00178 9.12816 5.56497 5.56497C9.12816 2.00178 13.9609 -6.00908e-08 19 0L19 4.07361C15.0413 4.07361 11.2447 5.64621 8.44545 8.44545C5.64621 11.2447 4.07361 15.0413 4.07361 19C4.07361 22.9587 5.64621 26.7553 8.44545 29.5545C11.2447 32.3538 15.0413 33.9264 19 33.9264L19 38Z" fill="#6200EA" fill-opacity="0.1"/>
<path d="M21 14C21 14 16 17.6824 16 19C16 20.3177 21 24 21 24" stroke="#1A1A1A" stroke-width="1.5" stroke-linecap="round" stroke-linejoin="round"/>
</svg>
