<svg width="24" height="24" viewBox="0 0 24 24" fill="none" xmlns="http://www.w3.org/2000/svg">
<rect width="24" height="24" rx="12" fill="#F20909" fill-opacity="0.1"/>
<mask id="path-2-inside-1_3987_173" fill="white">
<path fill-rule="evenodd" clip-rule="evenodd" d="M17.2703 7.72971C17.6733 8.13272 17.6733 8.78613 17.2703 9.18913L9.18914 17.2703C8.78613 17.6733 8.13272 17.6733 7.72971 17.2703V17.2703C7.32671 16.8673 7.32671 16.2139 7.72971 15.8109L15.8109 7.72971C16.2139 7.3267 16.8673 7.3267 17.2703 7.72971V7.72971Z"/>
<path fill-rule="evenodd" clip-rule="evenodd" d="M17.2703 17.2703C16.8673 17.6733 16.2139 17.6733 15.8109 17.2703L7.72971 9.18913C7.3267 8.78613 7.3267 8.13272 7.72971 7.72971V7.72971C8.13272 7.3267 8.78613 7.3267 9.18913 7.72971L17.2703 15.8109C17.6733 16.2139 17.6733 16.8673 17.2703 17.2703V17.2703Z"/>
</mask>
<path fill-rule="evenodd" clip-rule="evenodd" d="M17.2703 7.72971C17.6733 8.13272 17.6733 8.78613 17.2703 9.18913L9.18914 17.2703C8.78613 17.6733 8.13272 17.6733 7.72971 17.2703V17.2703C7.32671 16.8673 7.32671 16.2139 7.72971 15.8109L15.8109 7.72971C16.2139 7.3267 16.8673 7.3267 17.2703 7.72971V7.72971Z" fill="white"/>
<path fill-rule="evenodd" clip-rule="evenodd" d="M17.2703 17.2703C16.8673 17.6733 16.2139 17.6733 15.8109 17.2703L7.72971 9.18913C7.3267 8.78613 7.3267 8.13272 7.72971 7.72971V7.72971C8.13272 7.3267 8.78613 7.3267 9.18913 7.72971L17.2703 15.8109C17.6733 16.2139 17.6733 16.8673 17.2703 17.2703V17.2703Z" fill="white"/>
<path d="M17.2703 15.8109L13.9598 19.1214L17.2703 15.8109ZM15.8109 17.2703L12.5004 20.5808L15.8109 17.2703ZM15.8109 7.72971L12.5004 4.41922L15.8109 7.72971ZM7.72971 15.8109L4.41922 12.5004L7.72971 15.8109ZM9.18914 17.2703L5.87864 13.9598L9.18914 17.2703ZM9.18914 17.2703L12.4996 20.5808L20.5808 12.4996L17.2703 9.18913L13.9598 5.87864L5.87864 13.9598L9.18914 17.2703ZM15.8109 7.72971L12.5004 4.41922L4.41922 12.5004L7.72971 15.8109L11.0402 19.1214L19.1214 11.0402L15.8109 7.72971ZM7.72971 9.18913L4.41922 12.4996L12.5004 20.5808L15.8109 17.2703L19.1214 13.9598L11.0402 5.87864L7.72971 9.18913ZM17.2703 15.8109L20.5808 12.5004L12.4996 4.41922L9.18913 7.72971L5.87864 11.0402L13.9598 19.1214L17.2703 15.8109ZM17.2703 15.8109L13.9598 19.1214C12.5345 17.696 12.5345 15.3851 13.9598 13.9598L17.2703 17.2703L20.5808 20.5808C22.8121 18.3494 22.8121 14.7317 20.5808 12.5004L17.2703 15.8109ZM7.72971 7.72971L11.0402 11.0402C9.61487 12.4655 7.30396 12.4655 5.87864 11.0402L9.18913 7.72971L12.4996 4.41922C10.2683 2.18788 6.65056 2.18787 4.41922 4.41922L7.72971 7.72971ZM15.8109 17.2703L12.5004 20.5808C14.7317 22.8121 18.3494 22.8121 20.5808 20.5808L17.2703 17.2703L13.9598 13.9598C15.3851 12.5345 17.696 12.5345 19.1214 13.9598L15.8109 17.2703ZM7.72971 9.18913L11.0402 5.87864C12.4655 7.30397 12.4655 9.61488 11.0402 11.0402L7.72971 7.72971L4.41922 4.41922C2.18787 6.65056 2.18787 10.2683 4.41922 12.4996L7.72971 9.18913ZM15.8109 7.72971L19.1214 11.0402C17.696 12.4655 15.3851 12.4655 13.9598 11.0402L17.2703 7.72971L20.5808 4.41922C18.3494 2.18787 14.7317 2.18787 12.5004 4.41922L15.8109 7.72971ZM7.72971 17.2703L11.0402 13.9598C12.4655 15.3851 12.4655 17.696 11.0402 19.1214L7.72971 15.8109L4.41922 12.5004C2.18788 14.7317 2.18787 18.3494 4.41922 20.5808L7.72971 17.2703ZM17.2703 9.18913L20.5808 12.4996C22.8121 10.2683 22.8121 6.65056 20.5808 4.41922L17.2703 7.72971L13.9598 11.0402C12.5345 9.61488 12.5345 7.30397 13.9598 5.87864L17.2703 9.18913ZM9.18914 17.2703L5.87864 13.9598C7.30397 12.5345 9.61488 12.5345 11.0402 13.9598L7.72971 17.2703L4.41922 20.5808C6.65056 22.8121 10.2683 22.8121 12.4996 20.5808L9.18914 17.2703Z" fill="#FF0000" mask="url(#path-2-inside-1_3987_173)"/>
</svg>
