<svg width="172" height="162" viewBox="0 0 172 162" fill="none" xmlns="http://www.w3.org/2000/svg">
<circle cx="85" cy="93" r="67" fill="url(#paint0_linear_2225_146)"/>
<circle cx="165.5" cy="32.5" r="6.5" fill="url(#paint1_linear_2225_146)"/>
<ellipse cx="10.5" cy="10" rx="10.5" ry="10" fill="url(#paint2_linear_2225_146)"/>
<ellipse cx="5" cy="136.5" rx="5" ry="5.5" fill="url(#paint3_linear_2225_146)"/>
<ellipse cx="153.5" cy="160" rx="2.5" ry="2" fill="url(#paint4_linear_2225_146)"/>
<path d="M80.0226 111.118C78.6017 111.118 77.1809 110.509 76.3689 109.291L65.002 94.6763C63.3781 92.6465 63.7841 89.8048 65.8139 88.1809C67.8437 86.557 70.6855 86.963 72.3094 88.9928L80.0226 98.939L97.0732 76.8139C98.6971 74.7841 101.539 74.3781 103.569 76.002C105.598 77.6259 106.004 80.4676 104.381 82.4974L83.6763 109.291C82.6614 110.306 81.4436 111.118 80.0226 111.118Z" fill="white"/>
<circle cx="113.5" cy="103.5" r="2.5" fill="white"/>
<circle cx="48" cy="76" r="4" fill="white"/>
<circle cx="106.5" cy="54.5" r="1.5" fill="white"/>
<circle cx="65" cy="125" r="2" fill="white"/>
<circle cx="87" cy="77" r="1" fill="white"/>
<defs>
<linearGradient id="paint0_linear_2225_146" x1="152" y1="93" x2="18" y2="93" gradientUnits="userSpaceOnUse">
<stop stop-color="#0EBB63"/>
<stop offset="1" stop-color="#0DEF81"/>
</linearGradient>
<linearGradient id="paint1_linear_2225_146" x1="172" y1="32.5" x2="159" y2="32.5" gradientUnits="userSpaceOnUse">
<stop stop-color="#0EBB63"/>
<stop offset="1" stop-color="#0DEF81"/>
</linearGradient>
<linearGradient id="paint2_linear_2225_146" x1="21" y1="9.99999" x2="1.41674e-07" y2="9.99999" gradientUnits="userSpaceOnUse">
<stop stop-color="#0EBB63"/>
<stop offset="1" stop-color="#0DEF81"/>
</linearGradient>
<linearGradient id="paint3_linear_2225_146" x1="10" y1="136.5" x2="6.74636e-08" y2="136.5" gradientUnits="userSpaceOnUse">
<stop stop-color="#0EBB63"/>
<stop offset="1" stop-color="#0DEF81"/>
</linearGradient>
<linearGradient id="paint4_linear_2225_146" x1="156" y1="160" x2="151" y2="160" gradientUnits="userSpaceOnUse">
<stop stop-color="#0EBB63"/>
<stop offset="1" stop-color="#0DEF81"/>
</linearGradient>
</defs>
</svg>
