<svg width="44" height="44" viewBox="0 0 44 44" fill="none" xmlns="http://www.w3.org/2000/svg">
<g opacity="0.7" clip-path="url(#clip0_1164_8456)">
<path d="M22.0197 43.9988C10.0492 44.0685 0.0356093 34.3332 9.57705e-05 22.082C-0.0354177 9.87245 9.81039 -0.00489523 21.9891 1.82013e-06C34.229 0.00489887 44.065 9.85286 44.0001 22.1494C43.9352 34.3491 34.0269 44.0416 22.0197 43.9988ZM37.7864 32.6682C43.0926 24.9235 42.0505 13.7901 34.0575 7.22682C26.1944 0.770062 14.639 1.6699 7.79224 9.32766C1.18184 16.721 2.00232 26.826 6.27619 32.6388C10.648 28.349 15.8807 26.0548 22.0221 26.0548C28.1611 26.056 33.3926 28.3515 37.7864 32.6682Z" fill="#818283"/>
<path d="M30.8156 14.677C30.8205 19.5092 26.8895 23.4611 22.0756 23.4635C17.1857 23.466 13.2217 19.5667 13.2168 14.7468C13.2107 9.78483 17.1049 5.87209 22.0511 5.86719C26.8883 5.8623 30.8095 9.8032 30.8156 14.677Z" fill="#818283"/>
</g>
<defs>
<clipPath id="clip0_1164_8456">
<rect width="44" height="44" fill="white"/>
</clipPath>
</defs>
</svg>
