<svg width="1440" height="702" viewBox="0 0 1440 702" fill="none" xmlns="http://www.w3.org/2000/svg">
<g opacity="0.2">
<path d="M1064.03 699.542C1032.18 699.536 1000.55 697.148 970.548 692.486C924.054 685.117 887.787 672.705 865.645 656.592C842.234 639.563 835.763 619.52 846.389 597.028C858.376 571.64 892.033 544.061 946.421 515.067C1041.77 464.231 1144.72 383.799 1221.82 299.913C1258.12 260.418 1285.25 223.541 1300.21 193.278C1316.16 161.056 1317.86 137.007 1305.14 123.737C1297.98 116.279 1286.22 112.08 1270.23 111.316C1226.48 109.157 1152.1 131.674 1049.26 178.251C931.425 231.618 778.08 315.891 593.509 428.73C375.665 561.909 237.887 626.972 173.726 626.853C169.058 626.869 164.429 626.461 160.144 625.656C92.5229 612.593 154.177 497.021 213.808 385.259C266.211 287.023 315.705 194.236 268.392 185.161C235.612 178.847 158.472 213.61 32.6095 291.378L31.7903 291.138C157.97 213.171 235.493 178.381 268.802 184.77C316.855 193.994 267.268 286.945 214.773 385.357C185.42 440.367 155.022 497.25 140.548 541.879C124.144 592.221 130.693 619.497 160.553 625.265C216.944 636.171 358.302 571.791 592.716 428.484C777.366 315.656 930.646 231.339 1048.58 177.955C1151.64 131.281 1226.26 108.719 1270.36 110.89C1286.72 111.7 1298.7 115.968 1306.03 123.579C1318.85 136.929 1317.15 161.058 1301.16 193.365C1286.17 223.657 1259.04 260.55 1222.73 300.074C1186.02 339.939 1143.78 378.812 1096.24 416.486C1046.89 455.479 995.351 489.66 947.147 515.336C844.979 569.807 816.327 619.897 866.53 656.378C910.127 688.113 1012.09 704.959 1114.46 697.31C1225.34 689.041 1303.82 655.554 1324.4 607.732L1325.36 607.808C1314.42 633.249 1288.25 654.268 1247.58 670.281C1211.64 684.417 1165.66 693.926 1114.63 697.731C1097.93 698.973 1080.99 699.579 1064.03 699.542Z" fill="#B67E5E"/>
<path d="M1089.59 694.8C1056.24 694.777 1023.13 692.267 991.725 687.383C942.391 679.589 904.063 666.549 880.864 649.67C857.493 632.647 850.784 612.856 860.961 590.837C872.406 566.018 905.204 539.219 958.428 511.249C1052.24 461.886 1152.76 383.411 1227.24 301.318C1262.31 262.66 1288.36 226.438 1302.57 196.54C1317.68 164.752 1318.91 140.789 1306.12 127.23C1298.58 119.261 1286.14 114.743 1269.13 113.869C1224.67 111.584 1150.36 133.429 1048.32 178.781C931.435 230.759 780.086 312.964 598.318 423.116C384.268 552.955 247.839 616.326 182.754 616.2C177.846 616.219 172.979 615.793 168.471 614.951C99.2916 601.715 157.06 487.658 212.912 377.308C261.971 280.354 308.334 188.775 259.925 179.579C226.418 173.219 149.939 207.054 25.9938 283.017L25.1747 282.771C149.384 206.615 226.352 172.736 260.374 179.188C309.537 188.528 263.081 280.271 213.903 377.39C186.4 431.688 157.972 487.836 145.083 531.935C130.542 581.679 138.321 608.705 168.854 614.548C226.407 625.563 366.641 562.869 597.565 422.893C779.32 312.724 930.761 230.502 1047.67 178.507C1149.93 133.03 1224.48 111.141 1269.31 113.449C1286.66 114.34 1299.36 118.922 1307.06 127.073C1319.91 140.688 1318.71 164.737 1303.56 196.61C1289.34 226.52 1263.28 262.775 1228.23 301.457C1192.78 340.449 1151.74 378.449 1105.34 415.239C1057.19 453.265 1006.67 486.553 959.247 511.5C859.247 564.101 831.744 613.07 881.696 649.45C927.856 683.061 1035.23 700.717 1142.8 692.397C1250.36 684.077 1325.69 651.701 1344.06 605.794L1345.04 605.87C1335.24 630.367 1310.56 650.62 1271.72 666.051C1237.36 679.711 1192.83 688.966 1142.98 692.818C1125.37 694.171 1107.5 694.834 1089.59 694.8Z" fill="#F84614"/>
<path d="M1114.88 690.324C1022.8 690.146 936.06 672.077 895.977 642.884C872.646 625.892 865.752 606.358 875.479 584.817C886.423 560.557 918.388 534.565 970.462 507.555C1062.8 459.655 1160.87 383.109 1232.79 302.804C1266.67 264.97 1291.67 229.37 1305.11 199.859C1319.4 168.493 1320.17 144.611 1307.34 130.804C1299.42 122.227 1286.2 117.395 1268.18 116.429C1222.98 114.006 1148.73 135.184 1047.52 179.375C931.551 229.985 782.027 310.158 603.074 417.69C392.633 544.08 257.513 605.851 191.411 605.735C186.255 605.753 181.143 605.308 176.402 604.427C105.624 591.019 159.508 478.376 211.633 369.439C257.428 273.738 300.686 183.304 251.14 173.987C216.987 167.564 141.05 200.504 18.9817 274.662L18.1626 274.417C140.534 200.066 216.881 167.087 251.523 173.596C301.809 183.05 258.472 273.632 212.585 369.52C186.931 423.134 160.406 478.576 149.143 522.157C136.452 571.326 145.485 598.107 176.772 604.019C235.526 615.154 374.676 554.107 602.242 417.405C781.194 309.889 930.758 229.699 1046.76 179.072C1148.25 134.785 1222.77 113.574 1268.3 116.003C1286.72 116.993 1300.17 121.916 1308.27 130.646C1333.68 158.022 1305.81 222.437 1233.71 302.959C1161.76 383.304 1063.63 459.895 971.215 507.83C873.435 558.532 847.003 606.441 896.836 642.669C944.898 677.673 1060.39 696.621 1171.44 687.718C1277.29 679.237 1347.46 648.728 1363.98 604.01L1364.96 604.08C1356.25 627.657 1333.06 647.155 1296.04 662.025C1263.23 675.204 1220.21 684.228 1171.62 688.122C1152.92 689.622 1133.92 690.359 1114.88 690.324Z" fill="#D0916E"/>
<path d="M1141.52 686.02C1104.99 685.958 1068.73 683.18 1034.34 677.809C979.752 669.222 935.929 654.464 910.947 636.255C887.682 619.305 880.563 600.028 889.907 578.96C900.375 555.264 931.52 530.046 982.405 503.997C1073.27 457.535 1168.96 382.907 1238.35 304.366C1307.74 225.824 1334.17 162.214 1308.79 134.404C1300.4 125.213 1286.43 120.006 1267.27 118.935C1221.33 116.375 1147.03 136.88 1046.61 179.909C931.51 229.17 783.797 307.355 607.541 412.28C400.775 535.392 266.898 595.557 199.832 595.428C194.421 595.45 189.054 594.989 184.07 594.074C111.628 580.493 161.626 469.234 210.052 361.636C252.57 267.103 292.722 177.808 242.027 168.388C207.174 161.902 131.792 193.971 11.5618 266.392L10.7559 266.141C131.29 193.526 207.068 161.425 242.411 167.997C293.806 177.566 253.614 267.014 211.03 361.7C187.24 414.654 162.591 469.412 152.979 512.503C142.125 561.113 152.427 587.662 184.453 593.665C244.396 604.892 382.528 545.514 606.722 412.034C782.991 307.086 930.744 228.884 1045.88 179.606C1146.62 136.487 1221.14 115.937 1267.39 118.515C1286.94 119.603 1301.18 124.902 1309.66 134.252C1335.13 162.176 1308.82 225.827 1239.3 304.532C1169.85 383.119 1074.12 457.792 983.171 504.288C887.572 553.166 862.198 599.964 911.739 636.058C961.743 672.51 1085.74 692.797 1200.16 683.293C1302.49 674.794 1369.48 645.322 1383.97 602.417L1384.95 602.481C1377.28 625.16 1355.54 643.926 1320.33 658.258C1289.08 670.968 1247.66 679.766 1200.35 683.685C1180.97 685.285 1161.27 686.067 1141.52 686.02Z" fill="#A83A0C"/>
<path d="M1167.84 681.991C1129.62 681.9 1091.69 678.972 1055.73 673.334C997.984 664.254 951.835 648.783 925.757 629.773C902.572 612.87 895.374 593.856 904.255 573.261C914.274 550.123 944.626 525.661 994.466 500.556C1083.88 455.522 1177.21 382.795 1244.21 306.006C1311.21 229.218 1335.92 166.457 1310.52 138.064C1301.69 128.198 1286.88 122.598 1266.5 121.411C1219.84 118.696 1145.6 138.552 1045.84 180.425C931.575 228.358 785.541 304.579 611.968 406.977C408.732 526.834 276.137 585.416 208.094 585.29C202.414 585.309 196.781 584.828 191.539 583.878C117.393 570.103 163.586 460.2 208.272 353.872C247.513 260.496 284.573 172.301 232.689 162.754C197.122 156.211 122.27 187.402 3.85043 258.104L3.04453 257.853C121.662 186.986 196.898 155.75 232.953 162.369C285.564 172.047 248.438 260.406 209.144 353.953C187.138 406.291 164.405 460.389 156.432 503.018C147.44 551.093 159.063 577.431 191.803 583.498C252.988 594.846 390.127 537.022 611.057 406.737C784.708 304.299 930.716 228.067 1045.02 180.122C1145.07 138.153 1219.61 118.253 1266.56 120.991C1287.33 122.195 1302.41 127.876 1311.38 137.918C1336.87 166.368 1312.08 229.282 1245.08 306.156C1178.08 383.029 1084.7 455.762 995.22 500.836C901.722 547.929 877.352 593.645 926.603 629.559C978.575 667.442 1111.45 689.187 1229.16 679.065C1327.9 670.572 1391.68 642.114 1404.27 600.987L1405.25 601.045C1392.64 642.36 1328.53 670.954 1229.36 679.486C1209.11 681.209 1188.5 682.049 1167.84 681.991Z" fill="#FF7242"/>
<path d="M1194.42 678.224C1154.44 678.106 1114.77 675.014 1077.18 669.086C1016.16 659.484 967.596 643.278 940.435 623.455C917.355 606.622 909.985 587.878 918.523 567.755C928.106 545.17 957.691 521.459 1006.46 497.274C1094.42 453.656 1185.45 382.812 1249.96 307.765C1314.48 232.718 1337.74 170.761 1312.35 141.833C1303.1 131.245 1287.36 125.206 1265.69 123.892C1218.3 121.023 1144.01 140.218 1044.86 180.963C931.388 227.587 787.099 301.883 616.012 401.793C416.252 518.452 284.86 575.508 215.839 575.375C209.883 575.392 203.974 574.894 198.465 573.91C164.458 567.671 151.394 541.418 158.562 493.657C164.897 451.478 185.754 398.001 205.923 346.284C241.9 254.019 275.881 166.867 222.769 157.194C186.489 150.599 112.152 180.936 -4.49568 249.936L-5.30162 249.679C111.664 180.498 186.397 150.093 223.166 156.803C277.004 166.596 242.97 253.908 206.901 346.343C186.758 397.986 165.888 451.462 159.553 493.619C152.425 541.182 165.277 567.297 198.848 573.451C261.288 584.93 397.475 528.656 615.219 401.501C786.333 301.569 930.635 227.256 1044.17 180.609C1143.56 139.78 1218.12 120.557 1265.82 123.432C1287.87 124.77 1303.83 130.889 1313.28 141.647C1338.74 170.661 1315.43 232.81 1250.89 307.875C1186.35 382.939 1095.24 453.857 1007.23 497.514C915.766 542.868 892.347 587.508 941.28 623.213C996.159 663.245 1135.32 686.061 1258.08 675.093C1353.21 666.622 1413.83 639.149 1424.56 599.709L1425.54 599.762C1419.84 620.719 1400.89 638.084 1369.22 651.375C1341.01 663.213 1302.66 671.556 1258.24 675.514C1237.25 677.366 1215.86 678.274 1194.42 678.224Z" fill="#C0502C"/>
<path d="M1221.93 674.568C1179.89 674.438 1138.18 671.195 1098.64 664.983C1034.26 654.824 983.238 637.859 954.967 617.225C932.02 600.468 924.584 581.998 932.725 562.331C941.898 540.298 970.743 517.321 1018.44 494.04C1104.96 451.815 1193.72 382.843 1255.87 309.537C1317.91 236.361 1339.82 175.079 1314.47 145.597C1304.7 134.221 1288.05 127.72 1265.02 126.268C1216.92 123.227 1142.57 141.772 1044.04 181.395C931.307 226.732 788.644 299.144 620.015 396.617C423.652 510.13 293.425 565.626 223.453 565.496C217.204 565.513 211.006 564.993 205.22 563.967C170.407 557.653 156.049 531.611 161.353 484.341C166.037 442.6 185.004 389.733 203.35 338.603C236.076 247.409 266.992 161.266 212.625 151.495C175.632 144.842 101.758 174.342 -13.1719 241.657L-13.9778 241.406C101.269 173.904 175.513 144.371 212.995 151.104C268.088 161.001 237.12 247.303 204.327 338.673C185.995 389.786 167.027 442.647 162.344 484.365C157.053 531.432 171.213 557.343 205.603 563.576C269.311 575.12 404.599 520.428 619.17 396.365C787.931 298.87 930.633 226.435 1043.35 181.087C1142.11 141.374 1216.73 122.784 1265.17 125.865C1288.58 127.341 1305.49 133.938 1315.37 145.468C1340.8 175.047 1318.9 236.431 1256.78 309.698C1194.58 383.054 1105.76 452.078 1019.17 494.365C929.73 538.02 907.223 581.601 955.733 617.05C1012.69 658.615 1161.31 683.009 1287.05 671.406C1340.76 666.451 1432.69 650.41 1445 598.644L1445.98 598.685C1441.19 618.824 1423.51 635.519 1393.62 648.324C1366.9 659.743 1330.2 667.867 1287.27 671.821C1265.79 673.739 1243.88 674.66 1221.93 674.568Z" fill="#BE713A"/>
<path d="M1248.98 671.248C1205.03 671.08 1161.44 667.647 1120.15 661.101C1052.27 650.352 998.722 632.618 969.367 611.16C946.565 594.496 938.984 576.312 946.848 557.107C955.637 535.621 983.769 513.371 1030.44 490.965C1115.52 450.128 1202.04 383.01 1261.89 311.417C1321.56 240.039 1342.1 179.499 1316.85 149.47C1306.57 137.253 1288.95 130.246 1264.45 128.632C1215.57 125.414 1141.17 143.315 1043.23 181.834C931.199 225.906 790.11 296.456 623.861 391.544C430.828 501.973 301.751 555.961 230.815 555.83C224.268 555.846 217.772 555.309 211.697 554.248C176.025 547.859 160.386 522.011 163.814 475.23C166.846 433.91 183.936 381.625 200.459 331.077C229.935 240.903 257.785 155.734 202.124 145.854C164.338 139.132 90.993 167.818 -22.2446 233.465L-23.0506 233.208C90.5042 167.363 164.338 138.655 202.494 145.44C258.869 155.446 230.979 240.774 201.437 331.113C184.914 381.661 167.823 433.935 164.805 475.232C161.39 521.825 176.858 547.543 212.08 553.851C277.056 565.498 411.497 512.327 623.068 391.304C789.343 296.194 930.486 225.615 1042.56 181.537C1140.73 142.929 1215.43 124.988 1264.53 128.229C1289.41 129.867 1307.3 136.971 1317.71 149.341C1343.04 179.455 1322.5 240.103 1262.75 311.572C1202.86 383.199 1116.27 450.368 1031.11 491.245C918.999 545.061 936.076 586.038 970.147 610.935C1029.16 654.066 1187.61 680.129 1316.15 667.851C1405.12 659.359 1458.24 634.421 1465.7 597.63L1466.69 597.671C1462.72 617.009 1446.44 633.069 1418.17 645.399C1392.55 656.569 1358.3 664.265 1316.43 668.272C1294.28 670.334 1271.66 671.332 1248.98 671.248Z" fill="#CA6A12"/>
<path d="M1276.3 668.161C1232.4 668.076 1185.83 664.432 1141.7 657.414C1070.24 646.046 1014.1 627.52 983.649 605.239C961.019 588.68 953.372 570.781 960.919 552.037C969.364 531.092 996.782 509.526 1042.43 488.039C1126.08 448.573 1210.41 383.303 1268 313.451C1325.37 243.871 1344.65 184.073 1319.47 153.508C1308.68 140.378 1290.01 132.819 1263.99 131.037C1214.37 127.631 1139.79 144.888 1042.46 182.319C931.093 225.128 791.497 293.862 627.574 386.621C437.781 493.95 309.814 546.457 237.927 546.324C231.066 546.34 224.258 545.781 217.884 544.679C181.38 538.215 164.393 512.554 165.932 466.229C167.259 425.314 182.527 373.588 197.239 323.569C223.478 234.387 248.249 150.148 191.254 140.176C152.781 133.396 79.78 161.245 -31.7525 225.281L-32.5452 225.024C79.3441 160.812 152.675 132.919 191.624 139.728C249.333 149.843 224.508 234.236 198.203 323.594C183.504 373.618 168.263 425.327 166.936 466.225C165.397 512.363 182.186 537.899 218.267 544.282C284.511 556.009 418.159 504.347 626.729 386.318C790.704 293.525 930.34 224.786 1041.76 181.96C1139.37 144.439 1214.19 127.148 1264.1 130.572C1290.53 132.389 1309.46 140.039 1320.38 153.328C1345.59 183.984 1326.34 243.884 1268.91 313.555C1211.31 383.475 1126.9 448.79 1043.17 488.302C933.505 540.033 950.754 580.325 984.495 605.02C1045.59 649.729 1214.23 677.568 1345.35 664.616C1430.57 656.19 1480.75 632.13 1486.65 596.856L1487.63 596.892C1481.7 632.364 1431.25 656.561 1345.57 665.03C1322.85 667.209 1299.61 668.259 1276.3 668.161Z" fill="#C6462A"/>
<path d="M1303.85 665.306C1258.44 665.218 1209.8 661.355 1163.26 653.908C1088.1 641.886 1029.33 622.545 997.798 599.448C975.339 583.004 967.666 565.403 974.935 547.115C983.037 526.694 1009.78 505.877 1054.44 485.181C1136.66 447.061 1218.83 383.634 1274.22 315.506C1329.32 247.723 1347.33 188.68 1322.37 157.573C1311.05 143.467 1291.28 135.311 1263.58 133.333C1213.21 129.733 1138.56 146.347 1041.62 182.701C930.866 224.274 792.711 291.215 630.996 381.686C444.507 486.045 317.624 537.09 244.786 536.955C237.587 536.974 230.44 536.396 223.74 535.251C186.351 528.718 168.016 503.228 167.679 457.324C167.381 416.791 180.719 365.607 193.621 316.101C216.623 227.866 238.342 144.515 179.973 134.417C140.747 127.631 68.2222 154.683 -41.7373 217.102L-42.53 216.845C67.7863 154.256 140.694 127.16 180.395 134.026C239.465 144.245 217.693 227.765 194.665 316.154C181.763 365.643 168.425 416.816 168.723 457.326C169.06 503.037 187.209 528.396 224.202 534.854C291.793 546.668 424.634 496.48 630.309 381.429C792.064 290.941 930.245 223.972 1041.07 182.399C1138.17 145.954 1213.09 129.307 1263.78 132.931C1291.86 134.938 1311.9 143.185 1323.35 157.456C1348.37 188.647 1330.37 247.793 1275.19 315.667C1219.76 383.846 1137.52 447.33 1055.21 485.483C947.984 535.181 965.352 574.782 998.696 599.251C1030.11 622.263 1088.69 641.541 1163.64 653.5C1235.51 664.992 1312.37 667.94 1374.5 661.588C1456.02 653.231 1503.34 630.047 1507.74 596.222L1508.73 596.224C1504.3 630.276 1456.71 653.601 1374.74 661.98C1351.51 664.29 1327.71 665.407 1303.85 665.306Z" fill="#D21204"/>
<path d="M1331.62 662.694C1284.7 662.603 1233.94 658.497 1184.85 650.597C1107.02 638.067 1043.96 617.362 1011.78 593.788C989.556 577.483 981.83 560.172 988.835 542.344C996.632 522.492 1022.73 502.329 1066.4 482.455C1147.21 445.681 1227.24 384.088 1280.46 317.686C1333.38 251.693 1350.21 193.412 1325.46 161.78C1313.58 146.613 1292.66 137.808 1263.21 135.617C1212.07 131.811 1137.27 147.776 1040.87 183.079C930.694 223.435 793.914 288.63 634.327 376.862C450.93 478.268 325.145 527.875 251.329 527.738C243.815 527.765 236.352 527.172 229.345 525.992C191.031 519.39 171.362 494.092 169.122 448.575C167.16 408.399 178.622 357.725 189.7 308.714C209.452 221.376 228.119 138.877 168.349 128.68C128.357 121.854 56.2424 148.115 -52.1311 208.955L-52.9238 208.698C55.8461 147.666 128.344 121.377 168.785 128.267C229.255 138.601 210.575 221.23 190.744 308.733C179.652 357.733 168.269 408.396 170.166 448.543C172.393 493.845 191.877 519.046 229.755 525.573C298.693 537.462 430.794 488.73 633.601 376.599C793.214 288.345 930.074 223.127 1040.29 182.743C1136.92 147.355 1212.06 131.357 1263.45 135.186C1293.28 137.406 1314.49 146.302 1326.48 161.635C1351.28 193.357 1334.4 251.74 1281.46 317.813C1228.17 384.271 1148 445.921 1067.16 482.735C962.32 530.452 979.662 569.341 1012.67 593.563C1044.68 617.051 1107.56 637.688 1185.18 650.184C1260.77 662.358 1340.38 665.504 1403.57 658.82C1481.42 650.592 1525.96 628.194 1528.97 595.754L1529.96 595.755C1528.36 612.889 1515.64 627.152 1492.13 638.164C1470.7 648.204 1440.99 655.288 1403.81 659.218C1380.18 661.639 1355.93 662.806 1331.62 662.694Z" fill="#C6000E"/>
<path d="M1359.62 660.32C1311.2 660.227 1258.21 655.862 1206.46 647.463C1124.78 634.21 1058.93 612.639 1025.77 588.27C1003.79 572.107 996.059 555.098 1002.8 537.708C1010.32 518.379 1035.83 498.902 1078.5 479.828C1245.72 405.165 1381.51 235.106 1329.02 166.097C1316.61 149.782 1294.43 140.277 1263.12 137.85C1211.2 133.827 1136.22 149.155 1040.27 183.395C930.628 222.569 795.143 286.05 637.618 372.101C457.286 470.601 332.506 518.794 257.792 518.655C249.932 518.671 242.129 518.051 234.79 516.828C195.578 510.151 174.495 484.982 170.353 439.884C166.699 400.053 176.285 349.861 185.554 301.32C202.055 214.837 217.656 133.149 156.42 122.848C115.676 115.992 43.9441 141.475 -62.9096 200.754L-63.6891 200.491C43.4817 141.071 115.583 115.515 156.79 122.451C218.7 132.873 203.019 214.714 186.531 301.356C177.276 349.886 167.69 400.083 171.344 439.868C175.473 484.78 196.344 509.823 235.16 516.432C305.433 528.391 436.82 481.091 636.825 371.833C794.403 285.765 929.914 222.25 1039.63 183.093C1135.81 148.751 1211.05 133.396 1263.29 137.441C1295 139.898 1317.46 149.5 1329.97 165.979C1354.48 198.21 1338.77 255.82 1287.92 320.094C1236.7 384.822 1158.69 444.65 1079.15 480.136C976.628 525.914 993.957 564.091 1026.56 588.056C1059.59 612.339 1125.27 633.848 1206.74 647.066C1286.15 659.951 1368.48 663.318 1432.66 656.312C1506.93 648.192 1548.76 626.584 1550.47 595.466L1551.46 595.468C1550.56 611.927 1538.93 625.634 1516.9 636.269C1496.78 645.958 1468.52 652.846 1432.91 656.739C1408.94 659.253 1384.32 660.457 1359.62 660.32Z" fill="#9A483C"/>
<path d="M1388.68 658.073C1338.27 657.976 1282.07 653.326 1228.08 644.504C1142.45 630.495 1073.75 608.034 1039.6 582.875C1007.28 559.066 989.868 521.43 1090.56 477.348C1168.52 443.223 1244.38 385.272 1293.52 322.332C1342.23 259.959 1356.95 203.23 1332.79 170.593C1319.82 153.036 1296.35 142.774 1263.03 140.081C1210.33 135.825 1135.15 150.516 1039.61 183.739C930.431 221.709 796.215 283.496 640.672 367.43C463.38 463.075 339.604 509.877 263.979 509.731C255.758 509.749 247.594 509.107 239.907 507.839C199.731 501.098 177.247 476.076 171.216 431.345C165.937 391.837 173.567 342.109 181.012 294.01C194.237 208.332 206.8 127.431 144.044 117.031C102.533 110.14 31.1721 134.862 -74.1222 192.591L-74.9017 192.328C30.6965 134.429 102.415 109.669 144.428 116.634C207.843 127.149 195.267 208.215 181.99 294.041C174.545 342.123 166.848 391.845 172.194 431.318C178.225 475.868 200.497 500.771 240.277 507.443C311.897 519.444 442.623 473.553 639.945 367.133C795.528 283.206 929.797 221.395 1038.97 183.408C1134.76 150.107 1210.21 135.388 1263.21 139.667C1296.92 142.389 1320.64 152.748 1333.73 170.453C1357.92 203.175 1343.23 260.001 1294.46 322.487C1271.04 352.49 1240.8 382.206 1207.02 408.437C1170.65 436.666 1131.71 459.941 1091.28 477.662C991.018 521.557 1008.31 558.999 1040.46 582.678C1074.49 607.752 1143.01 630.15 1228.42 644.125C1310.54 657.559 1397.75 661.269 1461.71 654.043C1511.77 648.39 1571.57 633.612 1572.16 595.342L1573.15 595.344C1572.9 611.145 1562.34 624.337 1541.74 634.554C1522.87 643.911 1496.04 650.607 1461.98 654.452C1439.91 656.929 1415.09 658.124 1388.68 658.073Z" fill="#C83840"/>
<path d="M1417.14 656.153C1365.21 656.053 1306.61 651.121 1249.7 641.72C1160.04 626.91 1088.52 603.548 1053.34 577.617C1021.49 554.104 1004.19 517.209 1102.68 474.986C1179.18 442.165 1253.02 386.042 1300.19 324.849C1346.89 264.292 1360.6 208.375 1336.88 175.264C1323.35 156.378 1298.57 145.292 1263.07 142.306C1209.56 137.809 1134.17 151.858 1038.99 184.064C930.247 220.829 797.181 280.987 643.567 362.774C469.236 455.606 346.464 501.039 269.994 500.891C261.426 500.908 252.916 500.247 244.891 498.941C203.711 492.13 179.814 467.243 171.827 422.856C164.764 383.682 170.519 334.368 176.193 286.694C186.088 201.802 195.533 121.62 131.324 111.139C89.0471 104.246 18.0428 128.19 -85.7449 184.403L-86.5244 184.135C17.5672 127.763 88.9415 103.752 131.668 110.742C196.59 121.35 187.145 201.657 177.092 286.735C171.47 334.398 165.663 383.678 172.712 422.847C180.633 467.046 204.411 491.814 245.142 498.561C318.15 510.621 448.228 466.144 642.841 362.523C796.52 280.685 929.56 220.527 1038.4 183.717C1133.83 151.432 1209.48 137.355 1263.29 141.88C1299.12 144.895 1324.22 156.079 1337.87 175.13C1361.64 208.32 1347.94 264.339 1301.18 324.97C1278.72 354.19 1249.38 383.044 1216.61 408.418C1181.28 435.733 1143.22 458.22 1103.47 475.277C1005.43 517.336 1022.62 554.01 1054.3 577.42C1089.3 603.271 1160.7 626.565 1250.14 641.364C1336.23 655.577 1426.2 659.565 1490.82 652.045C1538.46 646.462 1595.08 632.144 1594.19 595.394L1595.18 595.396C1595.54 610.578 1585.92 623.273 1566.74 633.116C1549.09 642.163 1523.63 648.658 1491.08 652.454C1468.93 654.971 1443.92 656.205 1417.14 656.153Z" fill="#B0040A"/>
<path d="M1445.83 654.466C1392.4 654.363 1331.31 649.108 1271.36 639.112C1177.56 623.466 1103.08 599.18 1067.02 572.493C1035.67 549.295 1018.51 513.151 1114.82 472.703C1190.99 440.706 1261.04 387.762 1307.01 327.438C1351.75 268.724 1364.58 213.638 1341.38 180.087C1327.29 159.759 1301.02 147.774 1263.3 144.471C1208.99 139.713 1133.36 153.125 1038.5 184.331C930.156 219.965 798.226 278.482 646.41 358.243C474.894 448.283 353.087 492.364 275.665 492.215C266.702 492.23 257.799 491.547 249.387 490.2C207.189 483.309 181.839 458.556 171.897 414.503C163.13 375.594 167.034 326.71 170.819 279.432C177.556 195.282 183.923 115.774 118.116 105.199C75.059 98.2654 4.39847 121.488 -97.9223 176.197L-98.7018 175.929C3.92288 121.078 74.9534 97.7941 118.459 104.802C184.94 115.503 178.56 195.153 171.81 279.456C168.025 326.717 164.12 375.59 172.888 414.471C182.803 458.342 207.903 483.004 249.73 489.809C324.165 501.956 453.647 458.809 645.538 357.952C797.407 278.163 929.389 219.629 1037.8 183.972C1132.93 152.692 1208.81 139.258 1263.41 144.046C1301.51 147.383 1328.03 159.466 1342.24 179.952C1365.55 213.583 1352.8 268.76 1307.87 327.559C1286.2 355.99 1257.89 383.976 1226.01 408.493C1191.65 434.89 1154.49 456.594 1115.44 472.976C1019.58 513.244 1036.62 549.195 1067.79 572.262C1103.75 598.869 1178.05 623.087 1271.64 638.698C1361.78 653.73 1454.49 658.024 1519.65 650.176C1564.97 644.714 1618.5 630.799 1616.2 595.507L1617.19 595.509C1619.02 623.661 1585.39 642.71 1519.91 650.597C1497.99 653.25 1472.88 654.518 1445.83 654.466Z" fill="#F8AE6A"/>
<path d="M1474.67 653.015C1419.77 652.909 1356.11 647.31 1292.97 636.667C1194.94 620.139 1117.53 594.901 1080.55 567.493C1049.74 544.632 1032.8 509.245 1126.98 470.543C1201.64 439.855 1269.77 388.686 1313.88 330.167C1356.76 273.303 1368.78 219.08 1346.04 185.128C1331.4 163.246 1303.61 150.293 1263.48 146.629C1208.36 141.603 1132.45 154.366 1037.86 184.572C929.853 219.06 798.994 275.981 648.909 353.743C459.212 452.023 329.968 493.863 253.75 481.606C210.495 474.656 183.732 450.009 171.781 406.261C161.217 367.651 163.285 319.13 165.194 272.23C168.668 188.771 171.929 109.942 104.444 99.2448C60.6876 92.2596 -9.64247 114.778 -110.457 168L-111.223 167.732C-10.118 114.351 60.5819 91.8167 104.907 98.8315C172.999 109.626 169.725 188.62 166.251 272.227C164.316 319.115 162.274 367.597 172.838 406.206C184.722 449.778 211.288 474.305 254.16 481.192C329.915 493.37 458.816 451.585 648.209 353.458C798.281 275.668 929.192 218.729 1037.27 184.214C1132.1 153.94 1208.26 141.148 1263.69 146.204C1304.21 149.897 1332.23 162.953 1347 185C1369.78 219.031 1357.75 273.344 1314.83 330.288C1270.67 388.875 1202.51 440.101 1127.66 470.839C1033.95 509.366 1050.79 544.549 1081.41 567.285C1118.27 594.635 1195.51 619.777 1293.34 636.27C1387.64 652.166 1483.08 656.794 1548.64 648.641C1610.4 640.963 1641.52 622.716 1638.66 595.874L1639.65 595.876C1642.54 622.939 1611.17 641.334 1548.91 649.044C1527.09 651.766 1501.96 653.068 1474.67 653.015Z" fill="#FF7242"/>
<path d="M1503.74 651.787C1447.36 651.678 1381.07 645.71 1314.63 634.397C1266.74 626.235 1221.72 615.667 1184.43 603.832C1143.91 590.974 1113.5 577.115 1094.05 562.641C1063.81 540.123 1047.09 505.515 1139.2 468.496C1290.23 407.803 1399.17 264.849 1351.14 190.385C1335.94 166.829 1306.58 152.847 1263.95 148.792C1208 143.48 1131.83 155.596 1037.44 184.814C929.654 218.142 799.826 273.496 651.341 349.317C485.599 433.951 365.696 475.399 286.543 475.246C276.785 475.262 267.088 474.538 257.9 473.108C213.549 466.088 185.24 441.553 171.36 398.093C159.092 359.709 159.191 311.577 159.29 265.029C159.447 182.22 159.617 104.001 90.5075 93.2166C45.9053 86.2584 -24.1207 108.033 -123.534 159.763L-124.287 159.489C-24.5698 107.606 45.7997 85.7872 90.8511 92.82C160.608 103.703 160.438 182.046 160.281 265.031C160.182 311.562 160.083 359.682 172.338 398.038C186.178 441.328 214.263 465.749 258.204 472.711C335.36 484.919 463.692 444.463 650.614 349.026C799.1 273.194 929.033 217.817 1036.82 184.438C1131.41 155.147 1207.88 143.004 1264.07 148.35C1307.17 152.439 1336.73 166.541 1352.08 190.262C1374.26 224.659 1362.97 278.069 1321.84 333.136C1279.47 389.902 1213.14 439.347 1139.87 468.798C1067.33 497.944 1051.78 530.316 1094.94 562.416C1178.39 624.544 1446.08 664.188 1577.55 647.333C1636.22 639.808 1665.19 622.188 1661.34 596.378L1662.32 596.38C1666.28 622.411 1637 640.184 1577.85 647.77C1556.22 650.509 1531.14 651.839 1503.74 651.787Z" fill="#E20808"/>
<path d="M1533.35 650.742C1516.18 650.686 1499.04 650.164 1482.02 649.179C1435.61 646.553 1385.22 640.707 1336.28 632.271C1286.49 623.664 1239.69 612.656 1200.95 600.375C1158.76 587.01 1127.32 572.718 1107.48 557.893C1064.97 526.125 1080.17 494.543 1151.46 466.547C1223.09 438.428 1287.46 390.837 1328.08 335.982C1367.39 282.879 1378.06 230.537 1356.6 195.882C1341.11 170.885 1309.24 155.327 1264.43 150.877C1207.62 145.263 1131.11 156.73 1036.95 184.971C929.471 217.214 800.449 271.03 653.642 344.926C468.954 437.861 340.78 477.055 261.815 464.748C216.341 457.658 186.512 433.218 170.664 390.028C156.625 351.881 154.822 304.083 153.032 257.862C149.82 175.664 146.885 98.0276 76.0708 87.1662C30.6891 80.2012 -39.0328 101.271 -137.098 151.583L-137.851 151.309C-39.4951 100.834 30.5835 79.7017 76.4011 86.7583C147.862 97.7287 150.837 175.507 153.983 257.858C155.747 304.062 157.576 351.843 171.602 389.962C187.45 432.987 217.054 457.319 262.145 464.346C340.688 476.59 468.491 437.463 652.889 344.658C799.829 270.711 928.837 216.895 1036.33 184.635C1130.72 156.321 1207.51 144.831 1264.59 150.463C1287.7 152.71 1308.46 158.175 1323.64 166.005C1338.54 173.541 1349.94 183.55 1357.51 195.759C1368.51 213.512 1371.34 235.256 1365.9 260.388C1360.75 284.256 1347.98 310.435 1328.98 336.098C1288.31 391.026 1223.83 438.685 1152.08 466.832C1081.17 494.675 1066.02 526.082 1108.28 557.656C1193.08 621.009 1473.15 663.847 1606.36 646.236C1662.05 638.87 1688.96 621.854 1684.18 597.02L1685.16 596.988C1689.99 622.043 1662.84 639.212 1606.65 646.645C1585.88 649.431 1560.99 650.795 1533.35 650.742Z" fill="#FF7B00"/>
<path d="M1563 649.958C1544.81 649.89 1526.65 649.305 1508.63 648.208C1460.9 645.369 1408.79 639.18 1357.94 630.327C1306.22 621.301 1257.61 609.803 1217.38 597.066C1173.53 583.188 1141.05 568.463 1120.85 553.309C1079.22 522.089 1094.07 491.461 1163.79 464.74C1233.81 437.89 1296.39 392.096 1335.37 339.108C1373.04 287.922 1383.15 236.54 1362.44 201.661C1346.46 174.758 1312.81 157.938 1265.11 153.028C1207.47 147.09 1130.59 157.909 1036.55 185.178C929.314 216.292 801.152 268.602 655.811 340.632C495.527 420.036 377.461 458.925 296.671 458.769C286.066 458.781 275.526 458.016 265.505 456.507C218.881 449.353 187.506 424.979 169.611 382.054C153.762 344.121 150.016 296.639 146.377 250.723C139.901 169.095 133.795 91.9958 61.2111 81.0407C15.0764 74.0689 -54.3678 94.435 -151.059 143.329L-151.812 143.049C-54.8302 94.0199 14.9708 73.5807 61.5414 80.6385C134.76 91.6969 140.879 168.932 147.394 250.708C151.034 296.612 154.792 344.077 170.615 381.977C188.471 424.759 219.634 449.025 265.888 456.105C345.817 468.368 473.132 430.501 655.098 340.352C800.478 268.295 928.666 215.961 1036.04 184.803C1130.26 157.466 1207.42 146.624 1265.34 152.592C1313.42 157.542 1347.33 174.465 1363.39 201.533C1373.96 219.409 1376.79 240.936 1371.68 265.512C1366.8 288.92 1354.57 314.401 1336.33 339.206C1297.29 392.274 1234.58 438.135 1164.45 465.037C1095.12 491.605 1080.33 522.051 1121.71 553.072C1160.39 582.084 1248.84 610.813 1358.31 629.913C1464 648.354 1570.16 654.301 1635.27 645.434C1688.11 638.233 1713.09 621.787 1707.44 597.872L1708.41 597.834C1714.13 621.971 1688.93 638.57 1635.57 645.837C1615.12 648.629 1590.54 650.011 1563 649.958Z" fill="#9C3E02"/>
<path d="M1593.13 649.363C1532.01 649.245 1456.11 642.012 1379.62 628.525C1265.39 608.355 1173.64 578.566 1134.17 548.833C1114.84 534.276 1107.83 519.885 1113.3 506.046C1119.31 490.846 1140.47 476.368 1176.18 463.047C1316.62 410.552 1411.96 284.07 1368.65 207.708C1352.23 178.768 1316.72 160.594 1265.96 155.146C1207.45 148.871 1130.18 159.037 1036.29 185.34C929.13 215.323 801.774 266.175 657.782 336.382C500.18 413.23 383.039 450.864 301.456 450.707C290.411 450.717 279.433 449.929 268.982 448.374C221.13 441.167 188.21 416.888 168.292 374.165C150.647 336.435 144.933 289.24 139.404 243.612C129.572 162.515 120.295 85.9182 45.9013 74.8751C-0.999582 67.9078 -70.1529 87.5983 -165.496 135.068L-166.249 134.789C-70.6153 87.1719 -1.092 67.4424 46.2317 74.4899C121.247 85.6307 130.55 162.364 140.394 243.609C145.844 289.208 151.585 336.374 169.217 374.082C189.108 416.674 221.857 440.817 269.312 447.983C308.339 453.874 356.748 448.635 417.287 431.963C483.018 413.866 563.681 381.613 657.015 336.103C801.034 265.862 928.482 215.01 1035.73 184.948C1129.85 158.571 1207.38 148.4 1266.17 154.698C1317.31 160.181 1353.08 178.463 1369.59 207.568C1379.77 225.533 1382.47 246.81 1377.62 270.812C1372.98 293.725 1361.26 318.497 1343.72 342.446C1306.25 393.619 1245.41 437.677 1176.8 463.326C1109.02 488.659 1094.56 518.152 1135 548.602C1174.37 578.255 1265.93 607.981 1379.96 628.111C1490.15 647.564 1599.02 653.981 1664.09 644.853C1714.3 637.813 1737.36 621.914 1730.89 598.872L1731.86 598.822C1738.47 622.098 1715.08 638.149 1664.48 645.257C1644.39 648.072 1620.23 649.415 1593.13 649.363Z" fill="#C61644"/>
<path d="M1622.99 649.047C1560.54 648.927 1481.63 641.223 1401.31 626.861C1282.41 605.639 1187.54 574.819 1147.45 544.473C1128.56 530.173 1121.7 516.129 1127.09 502.722C1133.01 488.016 1153.71 474.116 1188.61 461.424C1326.14 411.332 1416.83 291.092 1375.24 214.022C1358.45 182.904 1321.08 163.264 1266.91 157.23C1207.58 150.603 1129.89 160.097 1036.07 185.447C928.971 214.396 802.329 263.778 659.632 332.231C504.674 406.51 388.405 442.908 306.069 442.749C294.578 442.759 283.153 441.951 272.261 440.357C223.206 433.074 188.648 408.866 166.577 366.346C147.161 328.812 139.426 281.866 131.981 236.503C118.78 155.913 106.306 79.7675 30.0494 68.6418C-17.6177 61.6847 -86.4934 80.6997 -180.462 126.774L-181.202 126.495C-86.8897 80.2735 -17.6572 61.2194 30.4194 68.2397C107.297 79.4574 119.798 155.728 133.024 236.476C140.456 281.839 148.152 328.752 167.608 366.274C189.586 408.635 223.933 432.763 272.631 439.972C312.292 445.875 360.951 440.909 421.358 424.816C486.891 407.355 566.8 376.089 658.892 331.923C801.589 263.458 928.364 214.06 1035.54 185.088C1129.6 159.666 1207.55 150.149 1267.21 156.811C1321.63 162.885 1359.32 182.639 1376.2 213.927C1395.5 249.708 1386.43 297.768 1351.32 345.828C1315.32 395.09 1256.26 437.334 1189.26 461.743C1123.01 485.875 1108.85 514.419 1148.29 544.282C1188.28 574.548 1283.04 605.249 1401.68 626.47C1516.42 646.98 1628.05 653.891 1692.99 644.513C1740.55 637.644 1761.92 622.264 1754.67 600.039L1755.64 599.978C1762.97 622.431 1741.42 637.963 1693.32 644.917C1673.72 647.744 1649.88 649.099 1622.99 649.047Z" fill="#BE7E08"/>
<path d="M1653.05 648.952C1589.31 648.829 1507.4 640.626 1423.02 625.36C1299.4 602.996 1201.32 571.183 1160.69 540.259C1142.19 526.227 1135.59 512.531 1140.87 499.555C1146.7 485.343 1166.97 471.999 1201.1 459.896C1348.11 407.759 1417.95 290.576 1382.13 220.635C1364.96 187.192 1325.6 165.983 1268.09 159.302C1207.79 152.293 1129.65 161.117 1035.85 185.518C928.76 213.382 802.726 261.339 661.232 328.044C508.956 399.896 393.599 435.097 310.537 434.937C298.566 434.95 286.663 434.12 275.301 432.48C224.979 425.133 188.782 400.98 164.611 358.644C143.279 321.25 133.601 274.569 124.241 229.42C107.658 149.27 91.9602 73.5468 13.7614 62.3498C-34.6587 55.3972 -103.257 73.7538 -195.983 118.456L-196.723 118.171C-103.706 73.3331 -34.7512 54.9432 14.0785 61.9476C92.8586 73.2479 108.583 149.09 125.232 229.382C134.579 274.514 144.257 321.184 165.575 358.544C189.654 400.726 225.639 424.782 275.618 432.078C315.993 437.983 364.917 433.289 425.178 417.736C490.539 400.876 569.734 370.615 660.598 327.77C802.145 261.037 928.258 213.058 1035.42 185.171C1129.47 160.691 1207.87 151.85 1268.43 158.889C1326.32 165.616 1366.01 186.939 1383.19 220.546C1401.5 256.323 1392.69 303.258 1359.02 349.283C1342.27 372.216 1320.53 393.364 1294.43 412.131C1266.76 432.037 1235.58 448.207 1201.77 460.175C1137.03 483.146 1123.09 510.748 1161.54 540C1202.09 570.844 1299.98 602.588 1423.4 624.918C1542.81 646.515 1657.25 653.958 1721.99 644.348C1767.16 637.627 1786.81 622.762 1778.8 601.312L1779.78 601.246C1783.97 612.487 1780.77 621.95 1770.28 629.379C1760.49 636.31 1744.34 641.481 1722.3 644.751C1703.12 647.642 1679.68 649.003 1653.05 648.952Z" fill="#9C5E08"/>
<path d="M1683.29 649.079C1618.31 648.953 1533.29 640.223 1444.77 624.014C1316.28 600.506 1215.03 567.657 1173.94 536.183C1155.96 522.425 1149.51 509.081 1154.8 496.525C1160.56 482.802 1180.41 470.014 1213.77 458.505C1354.73 409.882 1422.88 296.485 1389.64 227.59C1372.32 191.685 1330.81 168.8 1269.62 161.392C1208.42 153.983 1129.77 162.137 1035.92 185.612C928.8 212.408 803.295 258.963 662.924 323.982C513.119 393.375 398.595 427.379 314.846 427.217C302.403 427.228 290.028 426.379 278.197 424.701C226.58 417.283 188.705 393.179 162.407 351C139.172 313.751 127.487 267.284 116.184 222.348C96.1266 142.609 77.1785 67.2689 -2.94908 55.9892C-52.109 49.0866 -120.456 66.7621 -211.887 110.103L-212.627 109.818C-120.905 66.3187 -52.2146 48.5985 -2.64518 55.587C78.1034 66.97 97.0779 142.424 117.175 222.305C128.464 267.223 140.15 313.685 163.397 350.894C189.604 392.925 227.267 416.932 278.554 424.299C319.034 430.118 369.622 425.564 428.919 410.764C494.055 394.512 572.537 365.215 662.197 323.692C802.634 258.638 928.206 212.061 1035.42 185.242C1129.52 161.705 1208.4 153.547 1269.88 160.984C1331.37 168.421 1373.23 191.438 1390.57 227.518C1407.74 263.217 1399.16 308.925 1366.88 352.937C1333.13 398.953 1278.96 436.569 1214.35 458.852C1151.04 480.69 1137.34 507.367 1174.7 535.991C1215.73 567.386 1316.81 600.15 1445.1 623.64C1569.28 646.368 1686.39 654.384 1750.84 644.546C1794.32 637.908 1811.89 623.884 1803.07 602.865L1804.05 602.788C1808.61 613.655 1806.03 622.806 1796.38 630.003C1787.36 636.72 1772.15 641.751 1751.17 644.95C1732.59 647.773 1709.58 649.13 1683.29 649.079Z" fill="#B04406"/>
<path d="M1714.11 649.407C1690.21 649.267 1666.37 648.257 1642.85 646.388C1588.37 642.249 1527.4 634.098 1466.53 622.788C1404.58 611.323 1346.57 597.273 1298.74 582.187C1246.94 565.857 1208.34 548.543 1187.07 532.198C1169.57 518.72 1163.29 505.734 1168.58 493.588C1174.3 480.347 1193.69 468.109 1226.35 457.161C1289.07 436.14 1341.47 400.377 1373.88 356.47C1404.82 314.551 1413.35 270.235 1397.31 234.806C1385.16 207.967 1353.41 173.795 1271.12 163.436C1209.03 155.607 1129.84 163.067 1035.95 185.611C928.709 211.339 803.666 256.52 664.313 319.905C516.993 386.922 403.46 419.769 318.997 419.612C306.068 419.618 293.209 418.747 280.895 417.031C227.917 409.554 188.338 385.47 159.86 343.436C134.763 306.31 121.003 260.039 107.731 215.289C84.1994 135.915 61.9748 60.9519 -20.1874 49.5723C-70.0739 42.6686 -138.156 59.7199 -228.332 101.723L-229.072 101.432C-138.605 59.2935 -70.1795 42.1748 -19.8834 49.1645C62.8732 60.6303 85.1375 135.73 108.709 215.24C121.98 259.973 135.688 306.227 160.811 343.319C189.184 385.211 228.565 409.186 281.199 416.623C322.339 422.438 373.192 418.151 432.369 403.868C497.32 388.212 575.062 359.896 663.587 319.642C803.006 256.252 928.127 211.043 1035.45 185.292C1129.64 162.698 1209.04 155.221 1271.45 163.085C1305.18 167.331 1333.38 176.054 1355.25 189.013C1375.53 201.027 1390.02 216.423 1398.33 234.779C1414.4 270.282 1405.86 314.701 1374.87 356.659C1342.41 400.646 1289.89 436.481 1227.01 457.554C1165.12 478.298 1151.69 504.055 1187.97 532.036C1229.41 563.946 1333.69 597.736 1466.92 622.426C1527.69 633.696 1588.61 641.835 1643.02 645.968C1700.3 650.322 1747.65 649.954 1779.92 644.894C1821.21 638.422 1837.33 624.832 1827.82 604.5L1828.79 604.422C1833.71 614.932 1831.7 623.789 1822.85 630.75C1814.55 637.274 1800.22 642.165 1780.27 645.297C1762.48 648.082 1740.14 649.457 1714.11 649.407Z" fill="#C4421A"/>
<path d="M1744.92 649.968C1722.65 649.925 1697.5 648.81 1670.01 646.618C1614.14 642.171 1551.33 633.575 1488.34 621.762C1424.24 609.725 1364.26 595.161 1314.93 579.62C1261.37 562.742 1221.74 545.047 1200.31 528.436C1183.3 515.254 1177.33 502.627 1182.55 490.906C1188.23 478.142 1207.28 466.414 1239.15 456.044C1374.07 412.144 1434.1 310.159 1405.5 242.453C1388.33 201.844 1341.3 174.547 1273.03 165.617C1209.9 157.344 1130.2 164.105 1036.1 185.711C928.67 210.383 803.998 254.213 665.557 315.992C496.978 391.19 371.978 421.79 283.408 409.463C229.07 401.91 187.72 377.863 157.049 335.952C129.997 298.932 114.149 252.817 98.9091 208.241C71.8892 129.198 46.322 54.5376 -37.9142 43.0807C-88.5273 36.1758 -156.359 52.62 -245.345 93.3018L-246.072 93.0054C-156.795 52.1993 -88.6329 35.7331 -37.6103 42.6729C47.2073 54.216 72.8009 129.001 99.9 208.18C115.14 252.751 130.921 298.837 158.013 335.823C188.579 377.598 229.704 401.554 283.739 409.061C325.513 414.865 376.643 410.846 435.675 397.102C500.415 382.024 577.549 354.628 664.844 315.678C803.364 253.871 928.116 210.008 1035.64 185.319C1129.97 163.656 1209.93 156.884 1273.3 165.192C1309.12 169.885 1338.94 179.37 1361.95 193.386C1383.23 206.344 1398.21 222.829 1406.47 242.381C1421.33 277.58 1412.78 320.618 1383.03 360.507C1351.74 402.452 1300.85 436.502 1239.76 456.368C1178.4 476.331 1165.42 500.505 1201.17 528.216C1242.95 560.631 1350.45 595.441 1488.74 621.36C1551.65 633.161 1614.39 641.746 1670.18 646.187C1729.03 650.879 1777.05 650.631 1809.06 645.48C1848.26 639.174 1863 625.997 1852.85 606.316L1853.82 606.227C1859.1 616.403 1857.61 624.983 1849.51 631.746C1841.91 638.079 1828.37 642.84 1809.42 645.895C1792.23 648.658 1770.46 650.017 1744.92 649.968Z" fill="#E87432"/>
<path d="M1775.93 650.752C1752.81 650.707 1726.41 649.476 1697.29 647.049C1640.03 642.27 1575.34 633.199 1510.22 620.855C1443.91 608.248 1381.95 593.148 1331.05 577.121C1275.71 559.697 1235.07 541.597 1213.47 524.765C1196.97 511.88 1191.24 499.617 1196.46 488.305C1202.12 476.012 1220.79 464.794 1251.95 454.945C1370.75 417.471 1443.42 325.691 1413.96 250.35C1396.99 206.958 1347.67 177.616 1275.06 167.703C1210.96 158.957 1130.65 165.007 1036.35 185.688C928.659 209.303 804.264 251.804 666.63 312.034C580.51 349.77 503.879 376.259 439.258 390.775C380.081 404.058 328.423 407.838 285.737 402.004C229.958 394.38 186.799 370.36 153.921 328.531C124.86 291.604 106.991 245.624 89.7168 201.193C59.1166 122.441 30.2068 48.0552 -56.1433 36.5153C-107.457 29.6547 -175.05 45.4576 -262.755 84.8357L-263.468 84.5394C-175.473 45.0371 -107.562 29.195 -55.8525 36.1074C31.0788 47.7279 60.0018 122.233 90.6945 201.138C107.956 245.569 125.811 291.51 154.859 328.413C187.671 370.089 230.579 394.036 286.027 401.613C328.462 407.413 379.83 403.644 438.796 390.416C503.39 375.901 579.81 349.44 665.969 311.726C803.67 251.474 928.144 208.939 1035.91 185.307C1130.46 164.576 1211.03 158.514 1275.39 167.301C1348.36 177.255 1397.93 206.728 1414.96 250.279C1428.55 285.025 1419.93 326.632 1391.32 364.446C1361.14 404.321 1311.87 436.586 1252.59 455.292C1192.62 474.207 1179.77 497.513 1214.38 524.546C1255.8 556.885 1369.31 593.634 1510.61 620.448C1647.47 646.425 1776.17 656.572 1838.26 646.306C1875.49 640.138 1888.92 627.373 1878.15 608.299L1879.12 608.204C1884.68 618.062 1883.75 626.365 1876.35 632.93C1869.4 639.083 1856.71 643.715 1838.62 646.704C1822.1 649.457 1800.94 650.8 1775.93 650.752Z" fill="#C8023A"/>
<path d="M1807.15 651.751C1783.19 651.704 1755.5 650.341 1724.72 647.661C1666.02 642.544 1599.42 633.011 1532.12 620.062C1463.58 606.884 1399.61 591.219 1347.17 574.714C1290.03 556.736 1248.4 538.221 1226.78 521.208C1210.79 508.631 1205.34 496.726 1210.56 485.823C1216.21 473.99 1234.51 463.277 1264.97 453.971C1393.61 414.662 1446.29 323.732 1422.89 258.537C1406.27 212.294 1354.65 180.788 1277.49 169.833C1212.37 160.586 1131.4 165.915 1036.83 185.664C928.777 208.251 804.582 249.452 667.713 308.161C582.625 344.644 506.76 370.243 442.258 384.168C383.2 396.941 331.278 400.465 287.971 394.647C230.712 386.953 185.77 362.918 150.58 321.211C119.432 284.31 99.4492 238.475 80.1401 194.144C45.933 115.644 13.6278 41.4979 -74.9152 29.869C-126.915 23.0414 -194.244 38.2374 -280.747 76.323L-281.46 76.0267C-194.667 37.8168 -127.008 22.5988 -74.6245 29.4669C14.4999 41.1706 46.9107 115.436 81.1177 194.072C100.427 238.352 120.383 284.199 151.439 321.031C186.523 362.636 231.254 386.585 288.195 394.233C331.252 400.023 382.923 396.509 441.743 383.787C506.152 369.856 581.925 344.308 666.947 307.859C803.961 249.133 928.249 207.887 1036.36 185.306C1131.19 165.506 1212.4 160.178 1277.77 169.459C1355.29 180.466 1407.24 212.092 1423.84 258.505C1436.09 292.669 1427.34 332.765 1399.8 368.497C1370.73 406.291 1322.98 436.783 1265.52 454.341C1206.91 472.248 1194.17 494.685 1227.61 521.028C1269.19 553.769 1386.03 591.601 1532.53 619.677C1674.45 646.928 1806.01 657.789 1867.72 647.359C1903.12 641.369 1915.29 628.954 1903.94 610.452L1904.9 610.34C1916.41 629.081 1904.02 641.677 1868.08 647.751C1852.13 650.476 1831.61 651.798 1807.15 651.751Z" fill="#C24F36"/>
<path d="M1838.7 652.944C1767.99 652.807 1664.57 640.912 1554.11 619.469C1483.29 605.719 1417.29 589.466 1363.25 572.477C1304.28 553.946 1261.67 535.05 1240 517.845C1224.56 505.581 1219.37 494.034 1224.6 483.54C1230.26 472.161 1248.23 461.93 1277.98 453.134C1389.65 420.123 1455.89 340.119 1432.04 267.035C1416.01 217.88 1362.03 184.135 1280.12 172.021C1213.96 162.251 1132.28 166.829 1037.37 185.646C928.937 207.149 804.834 247.077 668.482 304.316C584.477 339.586 509.286 364.25 444.943 377.624C386.004 389.892 333.831 393.172 289.889 387.358C231.125 379.588 184.333 355.551 146.817 313.869C113.675 277.051 91.5648 231.309 70.2079 187.078C32.328 108.812 -3.39904 34.8663 -94.2012 23.1485C-146.875 16.3539 -213.953 30.9315 -299.266 67.7646L-299.979 67.4683C-214.376 30.528 -146.981 15.8942 -93.8708 22.7408C-2.52702 34.5277 33.2924 108.598 71.2516 187.012C92.6349 231.232 114.745 276.951 147.861 313.74C185.139 355.291 231.719 379.249 290.18 386.968C333.87 392.724 385.793 389.478 444.507 377.249C508.757 363.88 583.869 339.233 667.795 304.008C804.213 246.73 928.422 206.796 1036.96 185.271C1132.09 166.403 1214 161.791 1280.44 171.63C1323.07 177.951 1358.17 190.032 1384.81 207.604C1408.9 223.532 1425.59 244.057 1433.06 266.98C1444.14 300.926 1435.4 338.451 1408.48 372.606C1380.32 408.325 1334.2 437.049 1278.59 453.464C1221.3 470.397 1208.63 491.983 1240.91 517.62C1282.59 550.716 1402.77 589.586 1554.56 619.055C1701.65 647.62 1836.18 659.235 1897.3 648.645C1930.97 642.811 1941.99 630.74 1930.06 612.771L1931.01 612.653C1943.11 630.872 1931.89 643.113 1897.69 649.037C1882.28 651.724 1862.3 652.99 1838.7 652.944Z" fill="#C60204"/>
<path d="M1870.21 654.405C1798.64 654.267 1691.62 641.65 1576.18 618.99C1503.03 604.629 1434.97 587.8 1379.34 570.326C1318.57 551.237 1274.97 531.965 1253.29 514.596C1238.39 502.657 1233.48 491.468 1238.77 481.366C1244.45 470.442 1262.07 460.686 1291.17 452.377C1397.49 422.012 1462.15 346.079 1441.57 275.71C1426.54 224.38 1368.8 187.386 1283.04 174.209C1215.81 163.87 1133.38 167.681 1038.06 185.584C929.123 206.035 804.994 244.686 669.13 300.511C586.236 334.557 511.666 358.337 447.495 371.184C388.661 382.981 336.237 385.993 291.701 380.196C231.418 372.371 182.71 348.309 142.83 306.692C107.613 269.905 83.3889 224.241 59.8389 180.052C18.2861 101.935 -20.9552 28.1493 -114.03 16.3708C-167.351 9.58651 -234.178 23.5913 -318.341 59.1548L-319.028 58.8529C-234.6 23.1651 -167.443 9.13259 -113.752 15.9403C-20.1228 27.8106 19.1845 101.704 60.8033 179.958C84.2873 224.101 108.564 269.748 143.754 306.501C183.502 348.026 231.999 372.004 292.019 379.811C336.33 385.568 388.463 382.549 447.112 370.82C511.19 357.995 585.668 334.222 668.483 300.227C804.426 244.379 928.648 205.688 1037.7 185.237C1133.26 167.301 1215.93 163.462 1283.44 173.847C1328.52 180.78 1365.47 193.856 1393.29 212.734C1418.39 229.798 1435.49 251.582 1442.54 275.701C1452.24 308.791 1443.26 344.693 1417.27 376.784C1390.04 410.427 1345.44 437.406 1291.75 452.752C1235.75 468.74 1223.13 489.486 1254.23 514.411C1304.06 554.357 1453.46 594.432 1576.58 618.616C1728.95 648.528 1866.5 660.932 1927.02 650.204C1959.05 644.526 1968.97 632.788 1956.48 615.312L1957.43 615.189C1970.09 632.909 1959.98 644.823 1927.4 650.596C1912.6 653.205 1893.23 654.45 1870.21 654.405Z" fill="#C85416"/>
<path d="M1902.15 656.088C1875.86 656.037 1844.2 654.217 1808.04 650.648C1744.91 644.407 1672.39 633.372 1598.34 618.653C1470.68 593.321 1316.49 551.865 1266.64 511.495C1252.28 499.869 1247.67 489.05 1252.95 479.339C1258.65 468.852 1275.96 459.562 1304.39 451.722C1407.22 423.387 1469.01 353.106 1451.33 284.605C1437.33 230.421 1377.22 191.007 1286.41 176.471C1218.04 165.563 1134.81 168.584 1039.01 185.544C929.48 204.927 805.219 242.374 669.712 296.78C587.888 329.653 513.952 352.542 449.953 364.851C391.226 376.137 338.564 378.933 293.42 373.152C231.499 365.222 180.848 341.128 138.577 299.491C101.233 262.719 74.7238 217.131 49.0995 172.991C3.79472 95.0052 -39.0005 21.3459 -134.413 9.45549C-188.356 2.73259 -254.944 16.1532 -337.945 50.487L-338.645 50.1794C-255.407 15.7439 -188.461 2.26165 -134.149 9.04765C-38.1813 21.0072 4.67994 94.7857 50.064 172.891C75.6751 216.985 102.171 262.602 139.476 299.323C181.641 340.835 232.08 364.855 293.698 372.755C338.617 378.514 391.041 375.717 449.596 364.47C513.45 352.195 587.293 329.3 669.039 296.473C804.637 242.01 928.978 204.529 1038.62 185.146C1134.66 168.147 1218.15 165.075 1286.75 176.075C1334.31 183.687 1373.17 197.793 1402.22 218.012C1428.45 236.274 1445.81 259.283 1452.31 284.562C1460.6 316.667 1451.35 350.917 1426.24 380.927C1399.48 412.965 1357.53 437.566 1304.93 452.058C1250.19 467.14 1237.61 487.091 1267.51 511.27C1317.26 551.549 1471.23 592.936 1598.75 618.239C1672.73 632.924 1745.18 643.976 1808.25 650.206C1875.18 656.824 1926.6 657.411 1956.97 651.906C1987.33 646.401 1996.34 634.967 1983.33 617.928L1984.27 617.799C1997.47 635.055 1988.42 646.658 1957.35 652.287C1943.26 654.88 1924.68 656.131 1902.15 656.088Z" fill="#B6080A"/>
<path d="M1934.28 657.97C1907.28 657.918 1874.26 655.925 1836.2 652.018C1772.45 645.469 1695.88 633.548 1620.6 618.453C1488.49 591.979 1329.72 549.199 1280.03 508.542C1266.23 497.241 1261.92 486.78 1267.25 477.455C1272.97 467.4 1289.98 458.557 1317.76 451.176C1417.13 424.792 1476.18 359.986 1461.37 293.591C1448.84 237.461 1384.76 194.541 1290.1 178.768C1220.58 167.194 1136.47 169.448 1040.12 185.465C929.877 203.785 805.392 239.995 670.177 293.072C589.409 324.761 516.095 346.794 452.268 358.569C393.646 369.379 340.733 371.965 295.048 366.171C231.488 358.159 178.79 334.017 134.114 292.377C94.6037 255.59 65.8618 210.01 38.0576 165.919C-11.1447 88.013 -57.5599 14.4682 -155.324 2.47724C-209.914 -4.21266 -276.225 8.66925 -358.102 41.7621L-358.789 41.4545C-276.634 8.22042 -210.006 -4.66087 -155.086 2.09772C-56.7275 14.1239 -10.2727 87.8049 38.8635 165.807C66.6016 209.876 95.3965 255.444 134.868 292.197C179.464 333.723 231.911 357.786 295.167 365.763C340.667 371.522 393.342 368.947 451.753 358.177C515.474 346.424 588.696 324.413 669.384 292.753C804.758 239.636 929.349 203.404 1039.7 185.061C1136.3 169.005 1220.7 166.752 1290.4 178.366C1340.51 186.709 1381.27 201.884 1411.54 223.466C1438.86 242.943 1456.46 267.176 1462.29 293.548C1469.21 324.544 1459.64 357.062 1435.38 385.128C1409.43 415.107 1368.92 438.072 1318.24 451.534C1264.74 465.739 1252.17 484.867 1280.87 508.339C1330.43 548.9 1489.04 591.617 1620.96 618.062C1696.18 633.146 1772.69 645.056 1836.37 651.599C1905 658.65 1957.11 659.443 1987.09 653.892C2016.15 648.509 2024.08 637.375 2010.49 620.8L2011.42 620.66C2025.17 637.485 2017.12 648.795 1987.48 654.284C1974.05 656.788 1956.12 658.012 1934.28 657.97Z" fill="#A42C2C"/>
</g>
</svg>
