<svg width="21" height="24" viewBox="0 0 21 24" fill="none" xmlns="http://www.w3.org/2000/svg">
<path d="M10.2949 0C10.7209 0.000211198 11.0664 0.336129 11.0664 0.75V3.04004C14.6781 3.41554 17.5 6.39356 17.5 10V12.7881C17.5 14.7671 18.3928 16.635 19.9482 17.9131C20.3588 18.2531 20.5879 18.738 20.5879 19.25C20.5879 20.2148 19.7805 20.9998 18.7871 21H14.0771C13.7186 22.7098 12.1585 24 10.2939 24C8.42955 23.9999 6.87032 22.7097 6.51172 21H1.80176C0.808411 21 0 20.215 0 19.25C1.82395e-05 18.7379 0.229545 18.253 0.629883 17.9199C2.19568 16.6349 3.08789 14.7671 3.08789 12.7881V10C3.08789 6.39332 5.91054 3.41522 9.52246 3.04004V0.75C9.52246 0.335999 9.86874 0 10.2949 0ZM8.1123 21C8.43104 21.8728 9.28744 22.4999 10.2939 22.5C11.3006 22.5 12.1568 21.8728 12.4756 21H8.1123ZM10.2939 4.5C7.17183 4.50006 4.63281 6.96708 4.63281 10V12.7881C4.63281 15.2089 3.54004 17.4946 1.63672 19.0576C1.60054 19.0876 1.54397 19.1501 1.54395 19.25C1.54395 19.3859 1.6619 19.5 1.80176 19.5H18.7871C18.927 19.4998 19.0439 19.3857 19.0439 19.25C19.0439 19.1501 18.987 19.0876 18.9531 19.0596C17.0479 17.4946 15.9561 15.2087 15.9561 12.7881V10C15.9561 6.96704 13.4163 4.5 10.2939 4.5Z" fill="white"/>
</svg>
