<svg width="227" height="42" viewBox="0 0 227 42" fill="none" xmlns="http://www.w3.org/2000/svg">
<path d="M63.2074 17.3438C63.1278 16.5994 62.7926 16.0199 62.2017 15.6051C61.6165 15.1903 60.8551 14.983 59.9176 14.983C59.2585 14.983 58.6932 15.0824 58.2216 15.2812C57.75 15.4801 57.3892 15.75 57.1392 16.0909C56.8892 16.4318 56.7614 16.821 56.7557 17.2585C56.7557 17.6222 56.8381 17.9375 57.0028 18.2045C57.1733 18.4716 57.4034 18.6989 57.6932 18.8864C57.983 19.0682 58.304 19.2216 58.6562 19.3466C59.0085 19.4716 59.3636 19.5767 59.7216 19.6619L61.358 20.071C62.017 20.2244 62.6506 20.4318 63.2585 20.6932C63.8722 20.9545 64.4205 21.2841 64.9034 21.6818C65.392 22.0795 65.7784 22.5597 66.0625 23.1222C66.3466 23.6847 66.4886 24.3437 66.4886 25.0994C66.4886 26.1222 66.2273 27.0227 65.7045 27.8011C65.1818 28.5739 64.4261 29.179 63.4375 29.6165C62.4545 30.0483 61.2642 30.2642 59.8665 30.2642C58.5085 30.2642 57.3295 30.054 56.3295 29.6335C55.3352 29.2131 54.5568 28.5994 53.9943 27.7926C53.4375 26.9858 53.1364 26.0028 53.0909 24.8438H56.2017C56.2472 25.4517 56.4347 25.9574 56.7642 26.3608C57.0938 26.7642 57.5227 27.0653 58.0511 27.2642C58.5852 27.4631 59.1818 27.5625 59.8409 27.5625C60.5284 27.5625 61.1307 27.4602 61.6477 27.2557C62.1705 27.0455 62.5795 26.7557 62.875 26.3864C63.1705 26.0114 63.321 25.5739 63.3267 25.0739C63.321 24.6193 63.1875 24.2443 62.9261 23.9489C62.6648 23.6477 62.2983 23.3977 61.8267 23.1989C61.3608 22.9943 60.8153 22.8125 60.1903 22.6534L58.2045 22.142C56.767 21.7727 55.6307 21.2131 54.7955 20.4631C53.9659 19.7074 53.5511 18.7045 53.5511 17.4545C53.5511 16.4261 53.8295 15.5256 54.3864 14.7528C54.9489 13.9801 55.7131 13.3807 56.679 12.9545C57.6449 12.5227 58.7386 12.3068 59.9602 12.3068C61.1989 12.3068 62.2841 12.5227 63.2159 12.9545C64.1534 13.3807 64.8892 13.9744 65.4233 14.7358C65.9574 15.4915 66.233 16.3608 66.25 17.3438H63.2074ZM69.3075 12.5455H73.1768L78.3587 25.1932H78.5632L83.745 12.5455H87.6143V30H84.5803V18.0085H84.4183L79.5945 29.9489H77.3274L72.5036 17.983H72.3416V30H69.3075V12.5455ZM100.543 17.3438C100.464 16.5994 100.129 16.0199 99.5376 15.6051C98.9524 15.1903 98.1911 14.983 97.2536 14.983C96.5945 14.983 96.0291 15.0824 95.5575 15.2812C95.0859 15.4801 94.7251 15.75 94.4751 16.0909C94.2251 16.4318 94.0973 16.821 94.0916 17.2585C94.0916 17.6222 94.174 17.9375 94.3388 18.2045C94.5092 18.4716 94.7393 18.6989 95.0291 18.8864C95.3189 19.0682 95.6399 19.2216 95.9922 19.3466C96.3445 19.4716 96.6996 19.5767 97.0575 19.6619L98.6939 20.071C99.353 20.2244 99.9865 20.4318 100.594 20.6932C101.208 20.9545 101.756 21.2841 102.239 21.6818C102.728 22.0795 103.114 22.5597 103.398 23.1222C103.683 23.6847 103.825 24.3437 103.825 25.0994C103.825 26.1222 103.563 27.0227 103.04 27.8011C102.518 28.5739 101.762 29.179 100.773 29.6165C99.7905 30.0483 98.6001 30.2642 97.2024 30.2642C95.8445 30.2642 94.6655 30.054 93.6655 29.6335C92.6712 29.2131 91.8928 28.5994 91.3303 27.7926C90.7734 26.9858 90.4723 26.0028 90.4268 24.8438H93.5376C93.5831 25.4517 93.7706 25.9574 94.1001 26.3608C94.4297 26.7642 94.8587 27.0653 95.3871 27.2642C95.9212 27.4631 96.5178 27.5625 97.1768 27.5625C97.8643 27.5625 98.4666 27.4602 98.9837 27.2557C99.5064 27.0455 99.9155 26.7557 100.211 26.3864C100.506 26.0114 100.657 25.5739 100.663 25.0739C100.657 24.6193 100.523 24.2443 100.262 23.9489C100.001 23.6477 99.6342 23.3977 99.1626 23.1989C98.6967 22.9943 98.1513 22.8125 97.5263 22.6534L95.5405 22.142C94.103 21.7727 92.9666 21.2131 92.1314 20.4631C91.3018 19.7074 90.8871 18.7045 90.8871 17.4545C90.8871 16.4261 91.1655 15.5256 91.7223 14.7528C92.2848 13.9801 93.049 13.3807 94.0149 12.9545C94.9808 12.5227 96.0746 12.3068 97.2962 12.3068C98.5348 12.3068 99.62 12.5227 100.552 12.9545C101.489 13.3807 102.225 13.9744 102.759 14.7358C103.293 15.4915 103.569 16.3608 103.586 17.3438H100.543ZM124.29 18.1193C124.148 17.6591 123.952 17.2472 123.702 16.8835C123.457 16.5142 123.162 16.1989 122.815 15.9375C122.474 15.6761 122.082 15.4801 121.639 15.3494C121.196 15.2131 120.713 15.1449 120.19 15.1449C119.253 15.1449 118.418 15.3807 117.685 15.8523C116.952 16.3239 116.375 17.017 115.955 17.9318C115.54 18.8409 115.332 19.9489 115.332 21.2557C115.332 22.5739 115.54 23.6903 115.955 24.6051C116.369 25.5199 116.946 26.2159 117.685 26.6932C118.423 27.1648 119.281 27.4006 120.259 27.4006C121.145 27.4006 121.912 27.2301 122.56 26.8892C123.213 26.5483 123.716 26.0653 124.068 25.4403C124.42 24.8097 124.597 24.071 124.597 23.2244L125.312 23.3352H120.574V20.8636H127.656V22.9602C127.656 24.4545 127.338 25.7472 126.702 26.8381C126.065 27.929 125.19 28.7699 124.077 29.3608C122.963 29.946 121.685 30.2386 120.241 30.2386C118.634 30.2386 117.222 29.8778 116.006 29.1562C114.795 28.429 113.849 27.3977 113.168 26.0625C112.491 24.7216 112.153 23.1307 112.153 21.2898C112.153 19.8807 112.352 18.6222 112.75 17.5142C113.153 16.4062 113.716 15.4659 114.438 14.6932C115.159 13.9148 116.006 13.3239 116.977 12.9205C117.949 12.5114 119.006 12.3068 120.148 12.3068C121.114 12.3068 122.014 12.4489 122.849 12.733C123.685 13.0114 124.426 13.4091 125.074 13.9261C125.727 14.4432 126.264 15.0568 126.685 15.767C127.105 16.4773 127.381 17.2614 127.511 18.1193H124.29ZM134.344 30.2642C133.515 30.2642 132.768 30.1165 132.103 29.821C131.444 29.5199 130.921 29.0767 130.535 28.4915C130.154 27.9062 129.964 27.1847 129.964 26.3267C129.964 25.5881 130.1 24.9773 130.373 24.4943C130.646 24.0114 131.018 23.625 131.489 23.3352C131.961 23.0455 132.492 22.8267 133.083 22.679C133.68 22.5256 134.296 22.4148 134.933 22.3466C135.7 22.267 136.322 22.196 136.799 22.1335C137.276 22.0653 137.623 21.9631 137.839 21.8267C138.06 21.6847 138.171 21.4659 138.171 21.1705V21.1193C138.171 20.4773 137.981 19.9801 137.6 19.6278C137.219 19.2756 136.671 19.0994 135.955 19.0994C135.2 19.0994 134.6 19.2642 134.157 19.5938C133.719 19.9233 133.424 20.3125 133.271 20.7614L130.39 20.3523C130.617 19.5568 130.992 18.892 131.515 18.358C132.038 17.8182 132.677 17.4148 133.433 17.1477C134.188 16.875 135.023 16.7386 135.938 16.7386C136.569 16.7386 137.197 16.8125 137.822 16.9602C138.447 17.108 139.018 17.3523 139.535 17.6932C140.052 18.0284 140.467 18.4858 140.779 19.0653C141.097 19.6449 141.256 20.3693 141.256 21.2386V30H138.29V28.2017H138.188C138.001 28.5653 137.737 28.9062 137.396 29.2244C137.06 29.5369 136.637 29.7898 136.126 29.983C135.62 30.1705 135.026 30.2642 134.344 30.2642ZM135.146 27.9972C135.765 27.9972 136.302 27.875 136.756 27.6307C137.211 27.3807 137.56 27.0511 137.805 26.642C138.055 26.233 138.18 25.7869 138.18 25.304V23.7614C138.083 23.8409 137.918 23.9148 137.685 23.983C137.458 24.0511 137.202 24.1108 136.918 24.1619C136.634 24.2131 136.353 24.2585 136.075 24.2983C135.796 24.3381 135.555 24.3722 135.35 24.4006C134.89 24.4631 134.478 24.5653 134.114 24.7074C133.751 24.8494 133.464 25.0483 133.254 25.304C133.043 25.554 132.938 25.8778 132.938 26.2756C132.938 26.8438 133.146 27.2727 133.56 27.5625C133.975 27.8523 134.504 27.9972 135.146 27.9972ZM150.896 16.9091V19.2955H143.37V16.9091H150.896ZM145.228 13.7727H148.313V26.0625C148.313 26.4773 148.376 26.7955 148.501 27.017C148.631 27.233 148.802 27.3807 149.012 27.4602C149.222 27.5398 149.455 27.5795 149.711 27.5795C149.904 27.5795 150.08 27.5653 150.239 27.5369C150.404 27.5085 150.529 27.483 150.614 27.4602L151.134 29.8722C150.969 29.929 150.734 29.9915 150.427 30.0597C150.126 30.1278 149.756 30.1676 149.319 30.179C148.546 30.2017 147.85 30.0852 147.231 29.8295C146.612 29.5682 146.12 29.1648 145.756 28.6193C145.398 28.0739 145.222 27.392 145.228 26.5739V13.7727ZM159.131 30.2557C157.818 30.2557 156.685 29.983 155.73 29.4375C154.781 28.8864 154.051 28.108 153.54 27.1023C153.028 26.0909 152.773 24.9006 152.773 23.5312C152.773 22.1847 153.028 21.0028 153.54 19.9858C154.057 18.9631 154.778 18.1676 155.705 17.5994C156.631 17.0256 157.719 16.7386 158.969 16.7386C159.776 16.7386 160.537 16.8693 161.253 17.1307C161.974 17.3864 162.611 17.7841 163.162 18.3239C163.719 18.8636 164.156 19.5511 164.474 20.3864C164.793 21.2159 164.952 22.2045 164.952 23.3523V24.2983H154.222V22.2188H161.994C161.989 21.6278 161.861 21.1023 161.611 20.642C161.361 20.1761 161.011 19.8097 160.562 19.5426C160.119 19.2756 159.602 19.142 159.011 19.142C158.381 19.142 157.827 19.2955 157.349 19.6023C156.872 19.9034 156.5 20.3011 156.233 20.7955C155.972 21.2841 155.838 21.821 155.832 22.4062V24.2216C155.832 24.983 155.972 25.6364 156.25 26.1818C156.528 26.7216 156.918 27.1364 157.418 27.4261C157.918 27.7102 158.503 27.8523 159.173 27.8523C159.622 27.8523 160.028 27.7898 160.392 27.6648C160.756 27.5341 161.071 27.3438 161.338 27.0938C161.605 26.8438 161.807 26.5341 161.943 26.1648L164.824 26.4886C164.642 27.25 164.295 27.9148 163.784 28.483C163.278 29.0455 162.631 29.483 161.841 29.7955C161.051 30.1023 160.148 30.2557 159.131 30.2557ZM170.193 30L166.494 16.9091H169.639L171.94 26.1136H172.06L174.412 16.9091H177.523L179.875 26.0625H180.003L182.27 16.9091H185.423L181.716 30H178.503L176.048 21.1534H175.869L173.415 30H170.193ZM191.344 30.2642C190.515 30.2642 189.768 30.1165 189.103 29.821C188.444 29.5199 187.921 29.0767 187.535 28.4915C187.154 27.9062 186.964 27.1847 186.964 26.3267C186.964 25.5881 187.1 24.9773 187.373 24.4943C187.646 24.0114 188.018 23.625 188.489 23.3352C188.961 23.0455 189.492 22.8267 190.083 22.679C190.68 22.5256 191.296 22.4148 191.933 22.3466C192.7 22.267 193.322 22.196 193.799 22.1335C194.276 22.0653 194.623 21.9631 194.839 21.8267C195.06 21.6847 195.171 21.4659 195.171 21.1705V21.1193C195.171 20.4773 194.981 19.9801 194.6 19.6278C194.219 19.2756 193.671 19.0994 192.955 19.0994C192.2 19.0994 191.6 19.2642 191.157 19.5938C190.719 19.9233 190.424 20.3125 190.271 20.7614L187.39 20.3523C187.617 19.5568 187.992 18.892 188.515 18.358C189.038 17.8182 189.677 17.4148 190.433 17.1477C191.188 16.875 192.023 16.7386 192.938 16.7386C193.569 16.7386 194.197 16.8125 194.822 16.9602C195.447 17.108 196.018 17.3523 196.535 17.6932C197.052 18.0284 197.467 18.4858 197.779 19.0653C198.097 19.6449 198.256 20.3693 198.256 21.2386V30H195.29V28.2017H195.188C195.001 28.5653 194.737 28.9062 194.396 29.2244C194.06 29.5369 193.637 29.7898 193.126 29.983C192.62 30.1705 192.026 30.2642 191.344 30.2642ZM192.146 27.9972C192.765 27.9972 193.302 27.875 193.756 27.6307C194.211 27.3807 194.56 27.0511 194.805 26.642C195.055 26.233 195.18 25.7869 195.18 25.304V23.7614C195.083 23.8409 194.918 23.9148 194.685 23.983C194.458 24.0511 194.202 24.1108 193.918 24.1619C193.634 24.2131 193.353 24.2585 193.075 24.2983C192.796 24.3381 192.555 24.3722 192.35 24.4006C191.89 24.4631 191.478 24.5653 191.114 24.7074C190.751 24.8494 190.464 25.0483 190.254 25.304C190.043 25.554 189.938 25.8778 189.938 26.2756C189.938 26.8438 190.146 27.2727 190.56 27.5625C190.975 27.8523 191.504 27.9972 192.146 27.9972ZM202.808 34.9091C202.387 34.9091 201.998 34.875 201.64 34.8068C201.288 34.7443 201.006 34.6705 200.796 34.5852L201.512 32.1818C201.961 32.3125 202.362 32.375 202.714 32.3693C203.066 32.3636 203.376 32.2528 203.643 32.0369C203.915 31.8267 204.146 31.4744 204.333 30.9801L204.597 30.2727L199.85 16.9091H203.123L206.14 26.7955H206.276L209.302 16.9091H212.583L207.342 31.5852C207.097 32.2784 206.773 32.8722 206.37 33.3665C205.967 33.8665 205.472 34.2472 204.887 34.5085C204.308 34.7756 203.614 34.9091 202.808 34.9091ZM225.065 20.3693L222.252 20.6761C222.173 20.392 222.033 20.125 221.835 19.875C221.641 19.625 221.38 19.4233 221.05 19.2699C220.721 19.1165 220.317 19.0398 219.84 19.0398C219.198 19.0398 218.658 19.179 218.221 19.4574C217.789 19.7358 217.576 20.0966 217.582 20.5398C217.576 20.9205 217.715 21.2301 217.999 21.4688C218.289 21.7074 218.766 21.9034 219.431 22.0568L221.664 22.5341C222.903 22.8011 223.823 23.2244 224.425 23.804C225.033 24.3835 225.34 25.142 225.346 26.0795C225.34 26.9034 225.099 27.6307 224.621 28.2614C224.15 28.8864 223.494 29.375 222.653 29.7273C221.812 30.0795 220.846 30.2557 219.755 30.2557C218.153 30.2557 216.863 29.9205 215.886 29.25C214.908 28.5739 214.326 27.6335 214.138 26.429L217.147 26.1392C217.283 26.7301 217.573 27.1761 218.016 27.4773C218.46 27.7784 219.036 27.929 219.746 27.929C220.479 27.929 221.067 27.7784 221.511 27.4773C221.96 27.1761 222.184 26.804 222.184 26.3608C222.184 25.9858 222.039 25.6761 221.749 25.4318C221.465 25.1875 221.022 25 220.42 24.8693L218.187 24.4006C216.931 24.1392 216.002 23.6989 215.4 23.0795C214.798 22.4545 214.499 21.6648 214.505 20.7102C214.499 19.9034 214.718 19.2045 215.161 18.6136C215.61 18.017 216.232 17.5568 217.028 17.233C217.829 16.9034 218.752 16.7386 219.798 16.7386C221.332 16.7386 222.539 17.0653 223.42 17.7188C224.306 18.3722 224.854 19.2557 225.065 20.3693Z" fill="#212121"/>
<rect x="8" y="14" width="27" height="9" fill="#8451FF"/>
<path d="M35.2675 6H7.29369C4.83246 6 2 8.15107 2 10.2245V26.9039C2 28.8135 4.39985 30.1924 6.70177 30.4052L5.20369 36L14.8031 30.444H35.2675C37.7288 30.444 40 28.9759 40 26.9039V10.2245C40 8.15107 37.7273 6 35.2675 6ZM11.5614 20.0798C10.8912 20.0798 10.2484 19.8178 9.77453 19.3516C9.30062 18.8854 9.03438 18.253 9.03438 17.5937C9.03438 16.9343 9.30062 16.3019 9.77453 15.8357C10.2484 15.3695 10.8912 15.1076 11.5614 15.1076C12.2316 15.1076 12.8743 15.3695 13.3482 15.8357C13.8221 16.3019 14.0884 16.9343 14.0884 17.5937C14.0884 18.253 13.8221 18.8854 13.3482 19.3516C12.8743 19.8178 12.2316 20.0798 11.5614 20.0798ZM21 20.0798C20.3298 20.0798 19.687 19.8178 19.2131 19.3516C18.7392 18.8854 18.473 18.253 18.473 17.5937C18.473 16.9343 18.7392 16.3019 19.2131 15.8357C19.687 15.3695 20.3298 15.1076 21 15.1076C21.6702 15.1076 22.313 15.3695 22.7869 15.8357C23.2608 16.3019 23.527 16.9343 23.527 17.5937C23.527 18.253 23.2608 18.8854 22.7869 19.3516C22.313 19.8178 21.6702 20.0798 21 20.0798ZM30.4401 20.0798C30.108 20.0798 29.7792 20.0154 29.4725 19.8904C29.1657 19.7654 28.887 19.5822 28.6522 19.3512C28.4174 19.1202 28.2312 18.846 28.1041 18.5442C27.977 18.2424 27.9116 17.9189 27.9116 17.5922C27.9116 17.2655 27.977 16.9421 28.1041 16.6403C28.2312 16.3385 28.4174 16.0642 28.6522 15.8333C28.887 15.6023 29.1657 15.419 29.4725 15.294C29.7792 15.169 30.108 15.1047 30.4401 15.1047C31.1107 15.1047 31.7538 15.3668 32.228 15.8333C32.7021 16.2998 32.9685 16.9325 32.9685 17.5922C32.9685 18.252 32.7021 18.8847 32.228 19.3512C31.7538 19.8177 31.1107 20.0798 30.4401 20.0798Z" fill="#00907D"/>
<ellipse cx="11.3045" cy="18.2035" rx="3.10133" ry="3.05113" fill="white"/>
<ellipse cx="20.6091" cy="18.2035" rx="3.10133" ry="3.05113" fill="white"/>
<ellipse cx="29.9119" cy="18.2035" rx="3.10133" ry="3.05113" fill="white"/>
</svg>
