<svg width="1443" height="161" viewBox="0 0 1443 161" fill="none" xmlns="http://www.w3.org/2000/svg">
<path fill-rule="evenodd" clip-rule="evenodd" d="M364.742 79.578C364.738 78.5591 362.41 77.7426 359.542 77.7544L6.39562 79.2163C3.52731 79.2282 1.20572 80.0639 1.20994 81.0828C1.21415 82.1017 3.54259 82.9182 6.4109 82.9063L359.557 81.4445C362.425 81.4326 364.747 80.5969 364.742 79.578ZM312.756 66.8778C312.752 65.8589 310.423 65.0424 307.555 65.0543L6.34216 66.3012C3.47385 66.313 1.15226 67.1488 1.15647 68.1677C1.16069 69.1866 3.48912 70.0031 6.35743 69.9912L307.57 68.7443C310.438 68.7325 312.76 67.8967 312.756 66.8778ZM260.769 54.1777C260.765 53.1588 258.436 52.3423 255.568 52.3541L6.2887 53.386C3.42039 53.3979 1.09879 54.2337 1.10301 55.2526C1.10723 56.2715 3.43566 57.0879 6.30397 57.0761L255.583 56.0442C258.452 56.0323 260.773 55.1966 260.769 54.1777ZM208.782 41.4775C208.778 40.4586 206.45 39.6421 203.581 39.654L6.23523 40.4709C3.36693 40.4828 1.04533 41.3185 1.04955 42.3374C1.05377 43.3563 3.3822 44.1728 6.25051 44.1609L203.597 43.344C206.465 43.3322 208.787 42.4964 208.782 41.4775ZM156.796 28.7774C156.792 27.7585 154.463 26.942 151.595 26.9538L6.18177 27.5558C3.31346 27.5677 0.99187 28.4034 0.996087 29.4223C1.00031 30.4412 3.32874 31.2577 6.19705 31.2458L151.61 30.6439C154.478 30.632 156.8 29.7963 156.796 28.7774ZM104.809 16.0772C104.805 15.0583 102.476 14.2418 99.6081 14.2537L6.12831 14.6407C3.26 14.6525 0.938408 15.4883 0.942625 16.5072C0.946843 17.5261 3.27528 18.3426 6.14358 18.3307L99.6234 17.9437C102.492 17.9319 104.813 17.0961 104.809 16.0772ZM47.6214 1.55355C50.4897 1.54167 52.8182 2.35816 52.8224 3.37707C52.8266 4.39597 50.505 5.23171 47.6367 5.24358L6.09012 5.41557C3.22181 5.42744 0.893381 4.61095 0.889163 3.59205C0.884946 2.57314 3.20654 1.7374 6.07485 1.72553L47.6214 1.55355ZM48.2782 160.225C51.1466 160.213 53.4681 159.377 53.4639 158.359C53.4597 157.34 51.1313 156.523 48.263 156.535L6.71639 156.707C3.84808 156.719 1.52649 157.555 1.53071 158.574C1.53493 159.592 3.86336 160.409 6.73167 160.397L48.2782 160.225ZM100.158 147.095C103.026 147.083 105.348 146.247 105.344 145.228C105.339 144.21 103.011 143.393 100.143 143.405L6.66293 143.792C3.79462 143.804 1.47303 144.64 1.47725 145.658C1.48146 146.677 3.8099 147.494 6.67821 147.482L100.158 147.095ZM152.038 133.965C154.906 133.953 157.228 133.117 157.223 132.098C157.219 131.079 154.891 130.263 152.022 130.275L6.60947 130.877C3.74116 130.889 1.41957 131.724 1.42378 132.743C1.428 133.762 3.75643 134.579 6.62474 134.567L152.038 133.965ZM203.918 120.835C206.786 120.823 209.107 119.987 209.103 118.968C209.099 117.949 206.771 117.133 203.902 117.145L6.55601 117.962C3.6877 117.974 1.3661 118.809 1.37032 119.828C1.37454 120.847 3.70297 121.664 6.57128 121.652L203.918 120.835ZM255.797 107.705C258.666 107.693 260.987 106.857 260.983 105.838C260.979 104.819 258.65 104.003 255.782 104.015L6.50254 105.047C3.63424 105.058 1.31264 105.894 1.31686 106.913C1.32108 107.932 3.64951 108.748 6.51782 108.737L255.797 107.705ZM307.677 94.5746C310.545 94.5627 312.867 93.727 312.863 92.7081C312.858 91.6892 310.53 90.8727 307.662 90.8846L6.44908 92.1314C3.58077 92.1433 1.25918 92.979 1.2634 93.9979C1.26762 95.0168 3.59605 95.8333 6.46436 95.8215L307.677 94.5746Z" fill="#EB5424"/>
<path fill-rule="evenodd" clip-rule="evenodd" d="M1327.07 80.3309C1327.07 81.3512 1327.81 82.1784 1328.72 82.1784H1440.67C1441.58 82.1784 1442.32 81.3512 1442.32 80.3309C1442.32 79.3107 1441.58 78.4835 1440.67 78.4835H1328.72C1327.81 78.4835 1327.07 79.3107 1327.07 80.3309ZM1343.53 93.2631C1343.53 94.2834 1344.27 95.1106 1345.18 95.1106H1440.67C1441.58 95.1106 1442.32 94.2834 1442.32 93.2631C1442.32 92.2429 1441.58 91.4157 1440.67 91.4157H1345.18C1344.27 91.4157 1343.53 92.2429 1343.53 93.2631ZM1360 106.195C1360 107.216 1360.73 108.043 1361.64 108.043H1440.67C1441.58 108.043 1442.32 107.216 1442.32 106.195C1442.32 105.175 1441.58 104.348 1440.67 104.348H1361.64C1360.73 104.348 1360 105.175 1360 106.195ZM1376.46 119.127C1376.46 120.148 1377.2 120.975 1378.11 120.975H1440.67C1441.58 120.975 1442.32 120.148 1442.32 119.127C1442.32 118.107 1441.58 117.28 1440.67 117.28H1378.11C1377.2 117.28 1376.46 118.107 1376.46 119.127ZM1392.92 132.06C1392.92 133.08 1393.66 133.907 1394.57 133.907H1440.67C1441.58 133.907 1442.32 133.08 1442.32 132.06C1442.32 131.039 1441.58 130.212 1440.67 130.212H1394.57C1393.66 130.212 1392.92 131.039 1392.92 132.06ZM1409.39 144.992C1409.39 146.012 1410.13 146.839 1411.03 146.839H1440.67C1441.58 146.839 1442.32 146.012 1442.32 144.992C1442.32 143.972 1441.58 143.144 1440.67 143.144H1411.03C1410.13 143.144 1409.39 143.972 1409.39 144.992ZM1427.5 159.771C1426.59 159.771 1425.85 158.944 1425.85 157.924C1425.85 156.904 1426.59 156.077 1427.5 156.077H1440.67C1441.58 156.077 1442.32 156.904 1442.32 157.924C1442.32 158.944 1441.58 159.771 1440.67 159.771H1427.5ZM1427.5 0.890362C1426.59 0.890362 1425.85 1.71757 1425.85 2.73782C1425.85 3.75807 1426.59 4.58527 1427.5 4.58527H1440.67C1441.58 4.58527 1442.32 3.75807 1442.32 2.73782C1442.32 1.71757 1441.58 0.890362 1440.67 0.890362H1427.5ZM1411.03 13.8225C1410.13 13.8225 1409.39 14.6498 1409.39 15.67C1409.39 16.6903 1410.13 17.5175 1411.03 17.5175H1440.67C1441.58 17.5175 1442.32 16.6903 1442.32 15.67C1442.32 14.6498 1441.58 13.8225 1440.67 13.8225H1411.03ZM1394.57 26.7547C1393.66 26.7547 1392.92 27.5819 1392.92 28.6022C1392.92 29.6224 1393.66 30.4496 1394.57 30.4496H1440.67C1441.58 30.4496 1442.32 29.6224 1442.32 28.6022C1442.32 27.5819 1441.58 26.7547 1440.67 26.7547H1394.57ZM1378.11 39.6869C1377.2 39.6869 1376.46 40.5141 1376.46 41.5344C1376.46 42.5546 1377.2 43.3818 1378.11 43.3818H1440.67C1441.58 43.3818 1442.32 42.5546 1442.32 41.5344C1442.32 40.5141 1441.58 39.6869 1440.67 39.6869H1378.11ZM1361.64 52.6191C1360.73 52.6191 1360 53.4463 1360 54.4666C1360 55.4868 1360.73 56.314 1361.64 56.314H1440.67C1441.58 56.314 1442.32 55.4868 1442.32 54.4666C1442.32 53.4463 1441.58 52.6191 1440.67 52.6191H1361.64ZM1345.18 65.5513C1344.27 65.5513 1343.53 66.3785 1343.53 67.3987C1343.53 68.419 1344.27 69.2462 1345.18 69.2462H1440.67C1441.58 69.2462 1442.32 68.419 1442.32 67.3987C1442.32 66.3785 1441.58 65.5513 1440.67 65.5513H1345.18Z" fill="#EB5424"/>
</svg>
