<svg width="329" height="48" viewBox="0 0 329 48" fill="none" xmlns="http://www.w3.org/2000/svg">
<rect x="9.78906" y="12.8008" width="44.0526" height="14.4" fill="#0D9AFF"/>
<path d="M54.2786 0H8.63708C4.62138 0 0 3.44172 0 6.7592V33.4463C0 36.5015 3.91554 38.7078 7.67131 39.0483L5.22708 48L20.8892 39.1104H54.2786C58.2943 39.1104 62 36.7615 62 33.4463V6.7592C62 3.44172 58.2919 0 54.2786 0ZM15.6002 22.5276C14.5067 22.5276 13.458 22.1085 12.6848 21.3625C11.9115 20.6166 11.4772 19.6048 11.4772 18.5498C11.4772 17.4949 11.9115 16.4831 12.6848 15.7371C13.458 14.9912 14.5067 14.5721 15.6002 14.5721C16.6936 14.5721 17.7423 14.9912 18.5156 15.7371C19.2888 16.4831 19.7232 17.4949 19.7232 18.5498C19.7232 19.6048 19.2888 20.6166 18.5156 21.3625C17.7423 22.1085 16.6936 22.5276 15.6002 22.5276ZM31 22.5276C29.9065 22.5276 28.8578 22.1085 28.0846 21.3625C27.3114 20.6166 26.877 19.6048 26.877 18.5498C26.877 17.4949 27.3114 16.4831 28.0846 15.7371C28.8578 14.9912 29.9065 14.5721 31 14.5721C32.0935 14.5721 33.1422 14.9912 33.9154 15.7371C34.6886 16.4831 35.123 17.4949 35.123 18.5498C35.123 19.6048 34.6886 20.6166 33.9154 21.3625C33.1422 22.1085 32.0935 22.5276 31 22.5276ZM46.4022 22.5276C45.8605 22.5276 45.324 22.4247 44.8235 22.2246C44.323 22.0246 43.8682 21.7315 43.4851 21.3619C43.1021 20.9923 42.7982 20.5535 42.5909 20.0707C42.3836 19.5878 42.2768 19.0702 42.2768 18.5475C42.2768 18.0249 42.3836 17.5073 42.5909 17.0244C42.7982 16.5416 43.1021 16.1028 43.4851 15.7332C43.8682 15.3636 44.323 15.0705 44.8235 14.8704C45.324 14.6704 45.8605 14.5675 46.4022 14.5675C47.4964 14.5675 48.5457 14.9868 49.3193 15.7332C50.093 16.4796 50.5276 17.492 50.5276 18.5475C50.5276 19.6031 50.093 20.6155 49.3193 21.3619C48.5457 22.1083 47.4964 22.5276 46.4022 22.5276Z" fill="#01AC95"/>
<ellipse cx="15.1831" cy="19.5263" rx="5.06006" ry="4.88181" fill="#CEE7E7"/>
<ellipse cx="30.3608" cy="19.5263" rx="5.06006" ry="4.88181" fill="#CEE7E7"/>
<ellipse cx="45.5425" cy="19.5263" rx="5.06006" ry="4.88181" fill="#CEE7E7"/>
<path d="M88.021 16.8114C87.9215 15.8088 87.4948 15.0299 86.7408 14.4748C85.9867 13.9196 84.9634 13.642 83.6708 13.642C82.7925 13.642 82.0509 13.7663 81.446 14.0149C80.8411 14.2552 80.3771 14.5908 80.054 15.0217C79.7391 15.4525 79.5817 15.9414 79.5817 16.4883C79.5651 16.944 79.6604 17.3417 79.8675 17.6815C80.083 18.0212 80.3771 18.3153 80.75 18.5639C81.1229 18.8042 81.5537 19.0155 82.0426 19.1978C82.5315 19.3718 83.0535 19.521 83.6087 19.6452L85.8956 20.1921C87.0059 20.4407 88.0251 20.7721 88.9531 21.1864C89.8812 21.6007 90.6849 22.1103 91.3643 22.7152C92.0438 23.3201 92.57 24.0327 92.9428 24.853C93.324 25.6733 93.5187 26.6138 93.527 27.6744C93.5187 29.2321 93.121 30.5827 92.3338 31.7262C91.5549 32.8614 90.428 33.7438 88.9531 34.3736C87.4865 34.995 85.7174 35.3058 83.646 35.3058C81.591 35.3058 79.8013 34.9909 78.2766 34.3612C76.7603 33.7314 75.5754 32.7992 74.7219 31.5646C73.8768 30.3217 73.4335 28.7847 73.392 26.9535H78.5998C78.6578 27.8069 78.9022 28.5195 79.3331 29.0913C79.7723 29.6547 80.3564 30.0814 81.0856 30.3714C81.823 30.6532 82.6558 30.794 83.5838 30.794C84.4953 30.794 85.2866 30.6615 85.9577 30.3963C86.6372 30.1312 87.1634 29.7624 87.5362 29.2901C87.9091 28.8178 88.0955 28.2751 88.0955 27.6619C88.0955 27.0902 87.9257 26.6096 87.5859 26.2202C87.2545 25.8307 86.7656 25.4993 86.1193 25.2259C85.4813 24.9524 84.6983 24.7038 83.7702 24.4801L80.9986 23.7841C78.8525 23.2621 77.158 22.4459 75.9151 21.3356C74.6722 20.2253 74.0549 18.7296 74.0632 16.8487C74.0549 15.3075 74.4651 13.9611 75.2937 12.8093C76.1306 11.6576 77.2782 10.7585 78.7365 10.1122C80.1948 9.46591 81.852 9.14275 83.7081 9.14275C85.5973 9.14275 87.2462 9.46591 88.6548 10.1122C90.0717 10.7585 91.1738 11.6576 91.9609 12.8093C92.7481 13.9611 93.1541 15.2951 93.179 16.8114H88.021ZM97.1469 9.49077H103.784L110.794 26.593H111.092L118.102 9.49077H124.739V34.9453H119.519V18.3775H119.308L112.72 34.821H109.166L102.578 18.3153H102.367V34.9453H97.1469V9.49077ZM142.982 16.8114C142.882 15.8088 142.456 15.0299 141.702 14.4748C140.948 13.9196 139.924 13.642 138.632 13.642C137.753 13.642 137.012 13.7663 136.407 14.0149C135.802 14.2552 135.338 14.5908 135.015 15.0217C134.7 15.4525 134.543 15.9414 134.543 16.4883C134.526 16.944 134.621 17.3417 134.828 17.6815C135.044 18.0212 135.338 18.3153 135.711 18.5639C136.084 18.8042 136.515 19.0155 137.004 19.1978C137.492 19.3718 138.014 19.521 138.57 19.6452L140.857 20.1921C141.967 20.4407 142.986 20.7721 143.914 21.1864C144.842 21.6007 145.646 22.1103 146.325 22.7152C147.005 23.3201 147.531 24.0327 147.904 24.853C148.285 25.6733 148.48 26.6138 148.488 27.6744C148.48 29.2321 148.082 30.5827 147.295 31.7262C146.516 32.8614 145.389 33.7438 143.914 34.3736C142.447 34.995 140.678 35.3058 138.607 35.3058C136.552 35.3058 134.762 34.9909 133.238 34.3612C131.721 33.7314 130.536 32.7992 129.683 31.5646C128.838 30.3217 128.394 28.7847 128.353 26.9535H133.561C133.619 27.8069 133.863 28.5195 134.294 29.0913C134.733 29.6547 135.317 30.0814 136.047 30.3714C136.784 30.6532 137.617 30.794 138.545 30.794C139.456 30.794 140.248 30.6615 140.919 30.3963C141.598 30.1312 142.124 29.7624 142.497 29.2901C142.87 28.8178 143.056 28.2751 143.056 27.6619C143.056 27.0902 142.887 26.6096 142.547 26.2202C142.215 25.8307 141.727 25.4993 141.08 25.2259C140.442 24.9524 139.659 24.7038 138.731 24.4801L135.96 23.7841C133.813 23.2621 132.119 22.4459 130.876 21.3356C129.633 20.2253 129.016 18.7296 129.024 16.8487C129.016 15.3075 129.426 13.9611 130.255 12.8093C131.092 11.6576 132.239 10.7585 133.697 10.1122C135.156 9.46591 136.813 9.14275 138.669 9.14275C140.558 9.14275 142.207 9.46591 143.616 10.1122C145.033 10.7585 146.135 11.6576 146.922 12.8093C147.709 13.9611 148.115 15.2951 148.14 16.8114H142.982ZM177.087 17.7188C176.913 17.1139 176.669 16.5794 176.354 16.1154C176.039 15.6431 175.654 15.2454 175.198 14.9222C174.75 14.5908 174.237 14.3381 173.657 14.1641C173.085 13.9901 172.451 13.9031 171.755 13.9031C170.454 13.9031 169.311 14.2262 168.325 14.8725C167.347 15.5188 166.585 16.4593 166.038 17.6939C165.491 18.9202 165.217 20.42 165.217 22.1932C165.217 23.9664 165.487 25.4744 166.025 26.7173C166.564 27.9602 167.326 28.909 168.312 29.5636C169.298 30.2099 170.462 30.533 171.805 30.533C173.023 30.533 174.063 30.3176 174.924 29.8867C175.794 29.4476 176.457 28.8303 176.913 28.0348C177.377 27.2393 177.609 26.2989 177.609 25.2134L178.703 25.375H172.14V21.3232H182.792V24.5298C182.792 26.767 182.32 28.6894 181.375 30.2969C180.43 31.8961 179.129 33.1307 177.472 34.0007C175.815 34.8625 173.918 35.2933 171.78 35.2933C169.393 35.2933 167.297 34.7672 165.491 33.7148C163.684 32.6542 162.276 31.1503 161.265 29.2031C160.262 27.2476 159.761 24.9276 159.761 22.2429C159.761 20.1797 160.059 18.3402 160.656 16.7244C161.261 15.1004 162.106 13.7249 163.191 12.598C164.277 11.4711 165.54 10.6135 166.982 10.0252C168.424 9.43691 169.986 9.14275 171.668 9.14275C173.11 9.14275 174.452 9.35405 175.695 9.77663C176.938 10.1909 178.04 10.7792 179.001 11.5415C179.971 12.3039 180.762 13.2112 181.375 14.2635C181.988 15.3075 182.382 16.4593 182.556 17.7188H177.087ZM192.179 35.3058C190.961 35.3058 189.875 35.0945 188.922 34.6719C187.97 34.241 187.216 33.6071 186.66 32.7702C186.114 31.9251 185.84 30.8728 185.84 29.6133C185.84 28.5527 186.035 27.6619 186.424 26.9411C186.814 26.2202 187.344 25.6402 188.015 25.201C188.686 24.7618 189.449 24.4304 190.302 24.2067C191.164 23.983 192.067 23.8255 193.012 23.7344C194.122 23.6184 195.017 23.5107 195.696 23.4112C196.376 23.3035 196.869 23.1461 197.175 22.9389C197.482 22.7318 197.635 22.4252 197.635 22.0192V21.9446C197.635 21.1574 197.387 20.5484 196.889 20.1175C196.401 19.6867 195.705 19.4712 194.801 19.4712C193.849 19.4712 193.09 19.6825 192.527 20.1051C191.963 20.5194 191.591 21.0414 191.408 21.6712L186.511 21.2734C186.76 20.1134 187.249 19.1108 187.978 18.2656C188.707 17.4122 189.648 16.7576 190.799 16.3018C191.959 15.8378 193.302 15.6058 194.826 15.6058C195.887 15.6058 196.902 15.7301 197.871 15.9787C198.849 16.2273 199.715 16.6126 200.469 17.1346C201.231 17.6566 201.832 18.3278 202.271 19.1481C202.71 19.9601 202.93 20.9337 202.93 22.0689V34.9453H197.909V32.2979H197.759C197.453 32.8945 197.043 33.4207 196.529 33.8764C196.015 34.3239 195.398 34.676 194.677 34.9329C193.956 35.1815 193.123 35.3058 192.179 35.3058ZM193.695 31.6516C194.474 31.6516 195.162 31.4983 195.758 31.1918C196.355 30.8769 196.823 30.4543 197.163 29.924C197.503 29.3937 197.672 28.793 197.672 28.1218V26.0959C197.507 26.2036 197.279 26.303 196.989 26.3942C196.707 26.477 196.388 26.5558 196.032 26.6303C195.676 26.6966 195.319 26.7588 194.963 26.8168C194.607 26.8665 194.284 26.912 193.994 26.9535C193.372 27.0446 192.829 27.1896 192.365 27.3885C191.901 27.5874 191.541 27.8567 191.284 28.1964C191.027 28.5278 190.899 28.9421 190.899 29.4393C190.899 30.1602 191.16 30.7112 191.682 31.0923C192.212 31.4652 192.883 31.6516 193.695 31.6516ZM217.192 15.8544V19.8317H205.695V15.8544H217.192ZM208.305 11.2805H213.6V29.0788C213.6 29.5677 213.675 29.9489 213.824 30.2223C213.973 30.4875 214.18 30.6739 214.445 30.7816C214.719 30.8893 215.034 30.9432 215.39 30.9432C215.639 30.9432 215.887 30.9225 216.136 30.881C216.384 30.8313 216.575 30.794 216.707 30.7692L217.54 34.7092C217.275 34.792 216.902 34.8873 216.422 34.995C215.941 35.111 215.357 35.1815 214.669 35.2063C213.393 35.256 212.274 35.0862 211.313 34.6967C210.36 34.3073 209.619 33.7024 209.089 32.8821C208.558 32.0618 208.297 31.026 208.305 29.7749V11.2805ZM229.136 35.3182C227.173 35.3182 225.482 34.9205 224.065 34.125C222.657 33.3213 221.571 32.1861 220.809 30.7195C220.047 29.2446 219.666 27.5004 219.666 25.4869C219.666 23.5231 220.047 21.7996 220.809 20.3164C221.571 18.8332 222.644 17.6773 224.028 16.8487C225.42 16.0201 227.053 15.6058 228.925 15.6058C230.185 15.6058 231.357 15.8088 232.443 16.2148C233.536 16.6126 234.489 17.2133 235.301 18.017C236.122 18.8208 236.76 19.8317 237.215 21.0497C237.671 22.2595 237.899 23.6764 237.899 25.3004V26.7546H221.778V23.4734H232.915C232.915 22.7111 232.749 22.0357 232.418 21.4474C232.086 20.8591 231.626 20.3993 231.038 20.0678C230.458 19.7281 229.783 19.5582 229.012 19.5582C228.208 19.5582 227.496 19.7447 226.874 20.1175C226.261 20.4821 225.781 20.9751 225.433 21.5966C225.085 22.2098 224.906 22.8933 224.898 23.6474V26.767C224.898 27.7116 225.072 28.5278 225.42 29.2156C225.776 29.9033 226.278 30.4336 226.924 30.8065C227.57 31.1793 228.337 31.3658 229.223 31.3658C229.812 31.3658 230.35 31.2829 230.839 31.1172C231.328 30.9515 231.747 30.7029 232.095 30.3714C232.443 30.04 232.708 29.634 232.89 29.1534L237.787 29.4766C237.538 30.6532 237.029 31.6806 236.258 32.5589C235.496 33.429 234.51 34.1084 233.3 34.5973C232.099 35.0779 230.711 35.3182 229.136 35.3182ZM244.983 34.9453L239.788 15.8544H245.145L248.103 28.6811H248.277L251.359 15.8544H256.617L259.749 28.6065H259.911L262.819 15.8544H268.163L262.981 34.9453H257.375L254.094 22.9389H253.858L250.576 34.9453H244.983ZM276.432 35.3058C275.214 35.3058 274.128 35.0945 273.175 34.6719C272.223 34.241 271.469 33.6071 270.913 32.7702C270.366 31.9251 270.093 30.8728 270.093 29.6133C270.093 28.5527 270.288 27.6619 270.677 26.9411C271.067 26.2202 271.597 25.6402 272.268 25.201C272.939 24.7618 273.702 24.4304 274.555 24.2067C275.417 23.983 276.32 23.8255 277.265 23.7344C278.375 23.6184 279.27 23.5107 279.949 23.4112C280.629 23.3035 281.122 23.1461 281.428 22.9389C281.735 22.7318 281.888 22.4252 281.888 22.0192V21.9446C281.888 21.1574 281.64 20.5484 281.142 20.1175C280.654 19.6867 279.958 19.4712 279.054 19.4712C278.101 19.4712 277.343 19.6825 276.78 20.1051C276.216 20.5194 275.844 21.0414 275.661 21.6712L270.764 21.2734C271.013 20.1134 271.502 19.1108 272.231 18.2656C272.96 17.4122 273.9 16.7576 275.052 16.3018C276.212 15.8378 277.555 15.6058 279.079 15.6058C280.14 15.6058 281.155 15.7301 282.124 15.9787C283.102 16.2273 283.968 16.6126 284.722 17.1346C285.484 17.6566 286.085 18.3278 286.524 19.1481C286.963 19.9601 287.183 20.9337 287.183 22.0689V34.9453H282.162V32.2979H282.012C281.706 32.8945 281.296 33.4207 280.782 33.8764C280.268 34.3239 279.651 34.676 278.93 34.9329C278.209 35.1815 277.376 35.3058 276.432 35.3058ZM277.948 31.6516C278.727 31.6516 279.415 31.4983 280.011 31.1918C280.608 30.8769 281.076 30.4543 281.416 29.924C281.756 29.3937 281.925 28.793 281.925 28.1218V26.0959C281.76 26.2036 281.532 26.303 281.242 26.3942C280.96 26.477 280.641 26.5558 280.285 26.6303C279.929 26.6966 279.572 26.7588 279.216 26.8168C278.86 26.8665 278.536 26.912 278.246 26.9535C277.625 27.0446 277.082 27.1896 276.618 27.3885C276.154 27.5874 275.794 27.8567 275.537 28.1964C275.28 28.5278 275.152 28.9421 275.152 29.4393C275.152 30.1602 275.413 30.7112 275.935 31.0923C276.465 31.4652 277.136 31.6516 277.948 31.6516ZM293.876 42.1044C293.205 42.1044 292.575 42.0505 291.987 41.9428C291.407 41.8434 290.926 41.715 290.545 41.5575L291.738 37.6051C292.36 37.7957 292.919 37.8993 293.416 37.9158C293.921 37.9324 294.356 37.8164 294.721 37.5678C295.094 37.3192 295.396 36.8967 295.628 36.3001L295.939 35.4922L289.091 15.8544H294.659L298.611 29.8743H298.81L302.8 15.8544H308.405L300.985 37.0085C300.629 38.036 300.144 38.9309 299.531 39.6932C298.926 40.4638 298.16 41.0562 297.232 41.4705C296.304 41.8931 295.185 42.1044 293.876 42.1044ZM326.999 21.2983L322.152 21.5966C322.069 21.1823 321.891 20.8094 321.617 20.478C321.344 20.1383 320.983 19.869 320.536 19.6701C320.097 19.4629 319.571 19.3594 318.958 19.3594C318.137 19.3594 317.445 19.5334 316.882 19.8814C316.318 20.2211 316.037 20.6768 316.037 21.2486C316.037 21.7043 316.219 22.0896 316.584 22.4045C316.948 22.7193 317.574 22.9721 318.46 23.1626L321.916 23.8587C323.772 24.2398 325.155 24.853 326.067 25.6982C326.978 26.5433 327.434 27.6536 327.434 29.0291C327.434 30.2803 327.065 31.3782 326.328 32.3228C325.599 33.2674 324.596 34.0049 323.32 34.5352C322.052 35.0572 320.59 35.3182 318.933 35.3182C316.405 35.3182 314.392 34.792 312.892 33.7397C311.401 32.6791 310.527 31.2373 310.27 29.4144L315.477 29.141C315.635 29.9116 316.016 30.4999 316.621 30.9059C317.226 31.3036 318.001 31.5025 318.945 31.5025C319.873 31.5025 320.619 31.3243 321.182 30.968C321.754 30.6035 322.044 30.1353 322.052 29.5636C322.044 29.083 321.841 28.6894 321.443 28.3828C321.046 28.0679 320.432 27.8277 319.604 27.6619L316.298 27.0032C314.433 26.6303 313.046 25.984 312.134 25.0643C311.231 24.1445 310.779 22.9721 310.779 21.5469C310.779 20.3205 311.111 19.2641 311.774 18.3775C312.445 17.4909 313.385 16.8073 314.595 16.3267C315.813 15.8461 317.238 15.6058 318.871 15.6058C321.282 15.6058 323.179 16.1154 324.563 17.1346C325.955 18.1538 326.767 19.5417 326.999 21.2983Z" fill="#212121"/>
</svg>
