<svg width="338" height="444" viewBox="0 0 338 444" fill="none" xmlns="http://www.w3.org/2000/svg">
<ellipse cx="166.872" cy="391.836" rx="166.872" ry="51.3716" fill="#FEFCFC" fill-opacity="0.9"/>
<path d="M216.371 391.264C186.842 356.625 170.254 312.62 166.173 267.508C162.091 222.396 179.541 138.571 222.557 84.2988C291.566 170.046 289.098 303.951 255.503 367.858" fill="#C0E1DD"/>
<path d="M222.557 84.2988C222.557 84.2988 148.58 232.141 224.424 381.202M222.557 84.2988C222.557 84.2988 210.027 257.818 238.86 384.43M222.557 84.2988C222.557 84.2988 275.801 233.336 249.064 379.802" stroke="white" stroke-width="0.28125" stroke-linejoin="round"/>
<path d="M195.505 65.2627C197.06 64.3287 198.84 63.8353 200.654 63.8353H327.878C333.401 63.8353 337.878 59.3581 337.878 53.8353V10C337.878 4.47716 333.401 0 327.878 0H180.92C175.397 0 170.92 4.47715 170.92 10V62.2205C170.92 63.2901 170.748 64.3527 170.412 65.3679L164.215 84.0564L195.505 65.2627Z" fill="#22C5AE"/>
<path d="M186.736 22.7337V9.97683H189.433V15.2403H194.909V9.97683H197.6V22.7337H194.909V17.464H189.433V22.7337H186.736Z" fill="white"/>
<path d="M199.773 22.7337V13.166H202.427V22.7337H199.773ZM201.106 11.9327C200.712 11.9327 200.374 11.8019 200.091 11.5403C199.813 11.2745 199.674 10.9569 199.674 10.5873C199.674 10.2218 199.813 9.90831 200.091 9.6467C200.374 9.38093 200.712 9.24805 201.106 9.24805C201.501 9.24805 201.837 9.38093 202.116 9.6467C202.398 9.90831 202.539 10.2218 202.539 10.5873C202.539 10.9569 202.398 11.2745 202.116 11.5403C201.837 11.8019 201.501 11.9327 201.106 11.9327Z" fill="white"/>
<path d="M207.437 20.9896L207.368 21.6748C207.314 22.2229 207.21 22.769 207.057 23.313C206.907 23.8611 206.749 24.3574 206.583 24.8017C206.421 25.246 206.291 25.5948 206.191 25.8482H204.472C204.534 25.6031 204.619 25.2606 204.727 24.8204C204.835 24.3844 204.937 23.8943 205.032 23.3504C205.128 22.8064 205.188 22.252 205.213 21.6872L205.244 20.9896H207.437Z" fill="white"/>
<path d="M186.736 45.3904V32.6335H189.433V37.897H194.909V32.6335H197.6V45.3904H194.909V40.1207H189.433V45.3904H186.736Z" fill="white"/>
<path d="M204.096 45.5773C203.129 45.5773 202.292 45.3717 201.586 44.9606C200.884 44.5453 200.342 43.9681 199.96 43.2289C199.578 42.4856 199.387 41.624 199.387 40.6439C199.387 39.6556 199.578 38.7919 199.96 38.0527C200.342 37.3094 200.884 36.7322 201.586 36.3211C202.292 35.9058 203.129 35.6982 204.096 35.6982C205.064 35.6982 205.899 35.9058 206.6 36.3211C207.306 36.7322 207.85 37.3094 208.232 38.0527C208.614 38.7919 208.805 39.6556 208.805 40.6439C208.805 41.624 208.614 42.4856 208.232 43.2289C207.85 43.9681 207.306 44.5453 206.6 44.9606C205.899 45.3717 205.064 45.5773 204.096 45.5773ZM204.109 43.5217C204.549 43.5217 204.917 43.3971 205.211 43.148C205.506 42.8947 205.728 42.55 205.878 42.114C206.031 41.6779 206.108 41.1817 206.108 40.6253C206.108 40.0688 206.031 39.5726 205.878 39.1365C205.728 38.7005 205.506 38.3558 205.211 38.1025C204.917 37.8492 204.549 37.7226 204.109 37.7226C203.664 37.7226 203.291 37.8492 202.988 38.1025C202.689 38.3558 202.462 38.7005 202.309 39.1365C202.159 39.5726 202.084 40.0688 202.084 40.6253C202.084 41.1817 202.159 41.6779 202.309 42.114C202.462 42.55 202.689 42.8947 202.988 43.148C203.291 43.3971 203.664 43.5217 204.109 43.5217Z" fill="white"/>
<path d="M212.178 45.3904L209.575 35.8227H212.259L213.742 42.251H213.829L215.374 35.8227H218.009L219.578 42.2136H219.659L221.117 35.8227H223.795L221.198 45.3904H218.389L216.744 39.3732H216.626L214.981 45.3904H212.178Z" fill="white"/>
<path d="M231.519 45.3904H228.629L233.033 32.6335H236.509L240.906 45.3904H238.016L234.821 35.5487H234.721L231.519 45.3904ZM231.339 40.3761H238.166V42.4815H231.339V40.3761Z" fill="white"/>
<path d="M242.392 45.3904V35.8227H244.964V37.4921H245.064C245.238 36.8983 245.531 36.4498 245.942 36.1467C246.353 35.8394 246.827 35.6857 247.363 35.6857C247.495 35.6857 247.639 35.694 247.792 35.7106C247.946 35.7272 248.081 35.7501 248.197 35.7791V38.1337C248.073 38.0963 247.9 38.0631 247.68 38.034C247.46 38.005 247.259 37.9904 247.076 37.9904C246.686 37.9904 246.337 38.0755 246.03 38.2458C245.726 38.4119 245.486 38.6445 245.307 38.9434C245.133 39.2424 245.045 39.5871 245.045 39.9774V45.3904H242.392Z" fill="white"/>
<path d="M253.484 45.5773C252.5 45.5773 251.653 45.3779 250.943 44.9793C250.237 44.5765 249.693 44.0076 249.311 43.2726C248.929 42.5334 248.738 41.6593 248.738 40.6502C248.738 39.666 248.929 38.8023 249.311 38.0589C249.693 37.3156 250.23 36.7363 250.924 36.3211C251.622 35.9058 252.44 35.6982 253.378 35.6982C254.009 35.6982 254.597 35.7999 255.141 36.0034C255.689 36.2027 256.167 36.5038 256.574 36.9066C256.985 37.3094 257.304 37.816 257.533 38.4264C257.761 39.0327 257.875 39.7428 257.875 40.5567V41.2855H249.796V39.6411H255.378C255.378 39.259 255.295 38.9206 255.128 38.6258C254.962 38.3309 254.732 38.1005 254.437 37.9344C254.146 37.7641 253.808 37.679 253.422 37.679C253.019 37.679 252.662 37.7724 252.35 37.9593C252.043 38.142 251.802 38.3891 251.628 38.7005C251.453 39.0078 251.364 39.3504 251.36 39.7283V41.2917C251.36 41.7651 251.447 42.1742 251.622 42.5189C251.8 42.8635 252.051 43.1293 252.375 43.3162C252.699 43.503 253.083 43.5965 253.528 43.5965C253.822 43.5965 254.092 43.5549 254.337 43.4719C254.582 43.3888 254.792 43.2642 254.966 43.0981C255.141 42.932 255.274 42.7286 255.365 42.4877L257.819 42.6497C257.695 43.2393 257.439 43.7543 257.053 44.1944C256.671 44.6305 256.177 44.971 255.571 45.216C254.969 45.4568 254.273 45.5773 253.484 45.5773Z" fill="white"/>
<path d="M262.969 32.6335H265.99L268.899 38.1275H269.024L271.933 32.6335H274.954L270.301 40.8806V45.3904H267.622V40.8806L262.969 32.6335Z" fill="white"/>
<path d="M278.696 45.5773C277.728 45.5773 276.891 45.3717 276.185 44.9606C275.484 44.5453 274.942 43.9681 274.56 43.2289C274.178 42.4856 273.987 41.624 273.987 40.6439C273.987 39.6556 274.178 38.7919 274.56 38.0527C274.942 37.3094 275.484 36.7322 276.185 36.3211C276.891 35.9058 277.728 35.6982 278.696 35.6982C279.663 35.6982 280.498 35.9058 281.2 36.3211C281.906 36.7322 282.45 37.3094 282.832 38.0527C283.214 38.7919 283.405 39.6556 283.405 40.6439C283.405 41.624 283.214 42.4856 282.832 43.2289C282.45 43.9681 281.906 44.5453 281.2 44.9606C280.498 45.3717 279.663 45.5773 278.696 45.5773ZM278.708 43.5217C279.148 43.5217 279.516 43.3971 279.811 43.148C280.105 42.8947 280.328 42.55 280.477 42.114C280.631 41.6779 280.708 41.1817 280.708 40.6253C280.708 40.0688 280.631 39.5726 280.477 39.1365C280.328 38.7005 280.105 38.3558 279.811 38.1025C279.516 37.8492 279.148 37.7226 278.708 37.7226C278.264 37.7226 277.89 37.8492 277.587 38.1025C277.288 38.3558 277.062 38.7005 276.908 39.1365C276.758 39.5726 276.684 40.0688 276.684 40.6253C276.684 41.1817 276.758 41.6779 276.908 42.114C277.062 42.55 277.288 42.8947 277.587 43.148C277.89 43.3971 278.264 43.5217 278.708 43.5217Z" fill="white"/>
<path d="M291.266 41.3167V35.8227H293.919V45.3904H291.371V43.6525H291.272C291.056 44.2131 290.697 44.6637 290.194 45.0042C289.696 45.3447 289.088 45.515 288.369 45.515C287.73 45.515 287.167 45.3696 286.681 45.0789C286.195 44.7883 285.815 44.3751 285.541 43.8394C285.271 43.3037 285.134 42.6621 285.13 41.9146V35.8227H287.784V41.4412C287.788 42.006 287.939 42.4524 288.238 42.7805C288.537 43.1085 288.938 43.2726 289.441 43.2726C289.76 43.2726 290.059 43.1999 290.337 43.0545C290.616 42.905 290.84 42.685 291.01 42.3943C291.185 42.1036 291.27 41.7444 291.266 41.3167Z" fill="white"/>
<path d="M296.042 45.3904V35.8227H298.614V37.4921H298.714C298.888 36.8983 299.181 36.4498 299.592 36.1467C300.003 35.8394 300.477 35.6857 301.012 35.6857C301.145 35.6857 301.288 35.694 301.442 35.7106C301.596 35.7272 301.731 35.7501 301.847 35.7791V38.1337C301.722 38.0963 301.55 38.0631 301.33 38.034C301.11 38.005 300.909 37.9904 300.726 37.9904C300.335 37.9904 299.987 38.0755 299.679 38.2458C299.376 38.4119 299.135 38.6445 298.957 38.9434C298.782 39.2424 298.695 39.5871 298.695 39.9774V45.3904H296.042Z" fill="white"/>
<path d="M305.499 41.5658V41.354C305.503 40.6273 305.567 40.048 305.692 39.6162C305.821 39.1843 306.007 38.8355 306.252 38.5697C306.497 38.3039 306.792 38.0631 307.137 37.8472C307.394 37.681 307.625 37.5087 307.828 37.3301C308.032 37.1516 308.194 36.9543 308.314 36.7384C308.435 36.5183 308.495 36.2733 308.495 36.0034C308.495 35.7169 308.426 35.4656 308.289 35.2497C308.152 35.0338 307.967 34.8676 307.735 34.7514C307.506 34.6351 307.253 34.577 306.975 34.577C306.705 34.577 306.45 34.6372 306.209 34.7576C305.968 34.8739 305.771 35.0483 305.617 35.2808C305.463 35.5092 305.38 35.7937 305.368 36.1342H302.826C302.847 35.3037 303.047 34.6185 303.424 34.0786C303.802 33.5347 304.303 33.1298 304.926 32.864C305.549 32.5941 306.236 32.4591 306.987 32.4591C307.814 32.4591 308.545 32.5962 309.18 32.8702C309.815 33.1402 310.314 33.5326 310.675 34.0475C311.036 34.5624 311.217 35.1832 311.217 35.91C311.217 36.3958 311.136 36.8277 310.974 37.2056C310.816 37.5793 310.594 37.9115 310.307 38.2022C310.021 38.4887 309.682 38.7483 309.292 38.9808C308.964 39.176 308.694 39.3795 308.482 39.5913C308.275 39.803 308.119 40.048 308.015 40.3263C307.916 40.6045 307.864 40.9471 307.859 41.354V41.5658H305.499ZM306.732 45.5523C306.317 45.5523 305.962 45.407 305.667 45.1163C305.376 44.8215 305.233 44.4685 305.237 44.0574C305.233 43.6504 305.376 43.3016 305.667 43.0109C305.962 42.7203 306.317 42.5749 306.732 42.5749C307.127 42.5749 307.473 42.7203 307.772 43.0109C308.071 43.3016 308.223 43.6504 308.227 44.0574C308.223 44.3315 308.15 44.5827 308.009 44.8111C307.872 45.0353 307.691 45.216 307.467 45.353C307.243 45.4859 306.998 45.5523 306.732 45.5523Z" fill="white"/>
<path d="M175.653 110.751C175.044 115.173 173.28 119.73 174.806 123.954C175.803 126.778 178.081 128.969 180.13 131.199C185.841 137.401 190.295 144.892 191.79 153.063C193.285 161.235 191.592 170.126 186.252 176.565C182.297 181.311 176.523 184.546 170.432 186.168C164.257 187.667 157.86 188.018 151.558 187.204C145.918 186.579 140.025 185.155 136.022 181.24C134.075 179.191 132.52 176.802 131.434 174.192C125.589 161.401 125.162 146.719 128.27 133.058C130.58 122.854 135.002 112.769 142.936 105.721C148.964 100.373 157.261 97.0747 165.512 97.573C174.371 98.1425 176.831 101.995 175.653 110.751Z" fill="#070707"/>
<path d="M157.702 112.334C159.201 117.443 159.91 122.752 159.806 128.075C159.632 136.065 157.639 143.896 156.326 151.766C155.432 157.161 154.847 162.627 153.32 167.888C151.793 173.148 149.207 178.266 144.967 181.849C140.608 185.527 134.794 187.315 129.02 187.695C123.245 188.075 117.455 187.133 111.791 185.899C103.43 184.072 94.9503 181.454 88.456 176.011C82.8555 171.321 79.0349 164.542 78.4653 157.407C78.1719 153.811 78.7236 150.196 80.0765 146.852C81.4294 143.507 83.5459 140.526 86.2569 138.145C93.1863 132.252 103.857 130.535 108.667 122.91C111.957 117.689 111.554 111.045 113.935 105.341C116.316 99.6379 121.687 95.1528 127.778 93.1357C132.774 91.5114 138.108 91.2224 143.25 92.2972C148.558 93.3888 150.282 96.3077 152.83 100.801C154.898 104.442 156.533 108.313 157.702 112.334Z" fill="#070707"/>
<path d="M151.918 192.122L160.888 188.8C160.888 188.8 164.906 186.055 164.131 182.614C163.356 179.173 177.578 167.015 177.578 167.015C177.578 167.015 194.625 168.035 196.183 174.988C197.742 181.942 212.589 236.491 211.047 242.463C208.571 252.018 205.367 262.238 202.97 269.65C201.808 273.289 200.597 286.8 200.17 288.849C198.129 298.001 203.927 307.683 200.803 315.704C199.173 319.88 150.968 328.147 131.28 324.073C111.741 320.031 98.642 312.84 100.43 307.351C103.183 298.863 110.927 274.444 111.971 267.008C113.015 259.573 86.5156 212.428 84.1267 205.577C81.7378 198.727 82.9401 176.926 92.4561 172.354C105.824 163.558 138.549 164.879 138.549 164.879L151.918 192.122Z" fill="#F9B52B"/>
<path d="M198.74 198.545C203.874 207.681 212.647 234.26 211.057 242.463C209.4 251.351 206.705 260.014 203.028 268.274C204.459 261.06 200.568 260.15 198.74 294.734C201.952 303.997 205.211 312.603 200.077 316.329" stroke="#9F6E1F" stroke-width="0.3" stroke-miterlimit="10"/>
<path d="M179.201 322.247C180.42 321.875 199.958 317.794 202.782 314.115C205.717 307.977 199.238 292.093 199.238 292.093C199.238 292.093 146.239 300.344 135.529 281.114C133.061 276.684 140.623 235.788 137.815 231.477C127.975 216.447 103.912 204.052 99.2129 225.425L110.287 272.713L103.753 296.602C103.753 296.602 99.7508 303.784 100.344 308.776C100.842 312.992 105.794 315.104 107.258 315.95C108.286 316.552 122.999 321.899 124.162 322.556C128.908 325.253 142.664 324.138 145.251 324.747L179.201 322.247Z" fill="#E19B37"/>
<path d="M133.24 164.191C106.21 165.908 111.455 167.419 111.455 167.419C111.455 167.419 115.331 185.858 146.205 187.985C164.77 188.452 169.935 181.198 172.672 179.284C175.409 177.37 177.679 168.21 177.679 168.21L159.359 165.18L133.24 164.191Z" fill="#FFBFAC"/>
<path d="M135.717 130.178L129.389 171.462L161.117 182.417L159.369 144.448C159.369 144.448 159.479 138.247 156.204 135.288C151.632 131.238 137.386 123.605 135.717 130.178Z" fill="#FFBFAC"/>
<path d="M160.295 167.152C160.295 167.152 143.114 160.698 135.133 149.94C131.177 144.632 134.879 133.637 134.879 133.637L159.449 146.902L160.295 167.152Z" fill="#DE8469"/>
<path d="M272.627 318.158C272.627 318.158 231.952 375.792 146.996 381.273C62.0399 375.792 24.6719 321.701 24.6719 321.701C82.6936 325.364 146.996 311.418 146.996 311.418C146.996 311.418 214.605 321.812 272.627 318.158Z" fill="#7BBDFF"/>
<path d="M104.31 291.92L76.9805 320.389L150.633 348.486L216.312 318.49L202.263 293.439L104.31 291.92Z" fill="#323232"/>
<path d="M100.95 299.039C114.44 299.835 127.945 300.35 141.466 300.582C154.988 300.814 168.504 300.75 182.014 300.392C189.592 300.197 197.173 299.907 204.756 299.522C205.255 299.522 205.263 298.731 204.756 298.731C191.256 299.411 177.745 299.801 164.224 299.901C150.703 300.002 137.187 299.809 123.676 299.324C116.098 299.055 108.523 298.694 100.95 298.24C100.444 298.24 100.444 299.031 100.95 299.031V299.039ZM150.334 303.414L149.013 324.376C149.013 324.882 149.804 324.874 149.804 324.376L151.125 303.414C151.125 302.907 150.334 302.907 150.334 303.414Z" fill="white"/>
<path d="M96.9576 364.623C80.7679 366.131 64.5651 366.922 48.349 366.996C45.2878 366.996 42.1949 366.996 39.2127 368.024C36.2306 369.053 32.4415 371.189 30.6776 374.756C28.7712 378.577 27.2604 383.457 27.466 388.085C27.6875 392.894 30.5668 397.87 32.8766 401.382C33.9502 403.042 35.4353 404.397 37.1874 405.313C38.9395 406.229 40.899 406.676 42.8752 406.611C46.5693 406.547 50.1763 405.029 53.728 403.534C68.7839 397.116 83.7079 390.126 98.5001 382.563C97.3619 376.653 96.8449 370.641 96.9576 364.623Z" fill="black"/>
<path d="M179.106 369.857C198.987 374.92 219.026 379.094 239.224 382.379C243.028 383.004 246.881 383.605 250.401 385.456C254.346 387.535 257.305 391.094 258.627 395.352C260.257 400.486 262.622 407.123 261.459 412.81C260.241 418.759 255.313 424.335 251.738 428.259C250.078 430.111 247.968 431.503 245.612 432.3C243.256 433.097 240.734 433.272 238.29 432.807C233.702 432.016 229.502 429.43 225.373 426.843C207.891 415.895 190.671 404.259 173.711 391.935C176.277 384.785 178.086 377.385 179.106 369.857Z" fill="black"/>
<path d="M180.298 370.096L194.908 376.131C194.908 376.131 201.956 382.254 197.281 389.808C195.378 392.752 192.432 394.867 189.034 395.729C185.635 396.59 182.037 396.134 178.961 394.451L173.242 391.398L180.298 370.096Z" fill="#FFBFAC"/>
<path d="M106.585 356.189L87.79 360.793C87.79 360.793 78.2501 366.33 82.8935 374.636C86.6746 381.399 96.2855 384.271 104.615 381.463L112.074 378.939L106.585 356.189Z" fill="#FFBFAC"/>
<path d="M295.775 305.84C291.171 296.648 279.274 291.127 266.831 292.559C213.239 298.737 99.9246 352.107 99.9246 352.107C94.0868 368.719 109.488 386.216 109.488 386.216C197.711 378.836 244.366 367.232 271.775 356.086C294.92 346.657 305.243 324.769 295.775 305.84Z" fill="#323232"/>
<path d="M101.152 353.246C101.152 353.246 178.436 310.404 253.354 295.881" stroke="#1E2D51" stroke-width="0.1875" stroke-miterlimit="10"/>
<path d="M189.999 366.345L215.249 357.573C222.85 354.939 230.476 352.344 238.038 349.599C244.746 347.171 251.398 344.592 257.877 341.618C264.339 338.704 270.551 335.265 276.45 331.335C282.239 327.461 287.522 322.88 292.176 317.697C292.753 317.041 293.323 316.376 293.876 315.696C294.201 315.316 293.647 314.755 293.323 315.142C288.849 320.513 283.693 325.276 277.985 329.31C272.239 333.344 266.152 336.867 259.791 339.838C253.368 342.907 246.755 345.549 240.079 348.009C232.746 350.715 225.342 353.23 217.93 355.793L192.87 364.494L189.706 365.586C189.232 365.744 189.437 366.504 189.92 366.338L189.999 366.345Z" fill="white"/>
<path d="M26.8024 296.167C32.4503 287.79 43.936 284.08 54.7177 287.315C101.119 301.245 192.301 370.373 192.301 370.373C194.618 387.601 177.975 402.56 177.975 402.56C101.111 382.389 61.7737 364.147 39.4193 349.134C20.5455 336.493 15.1664 313.395 26.8024 296.167Z" fill="#323232"/>
<path d="M67.5957 292.164C67.5957 292.164 128.441 316.971 184.667 362.043" stroke="#1E2D51" stroke-width="0.1875" stroke-miterlimit="10"/>
<path d="M26.4306 325.989L57.2806 339.049L88.1306 352.109L118.981 365.169L149.831 378.229L180.681 391.296L184.462 392.878C184.92 393.076 185.324 392.396 184.857 392.198L154.007 379.138L123.157 366.079L92.3072 353.019L61.4573 339.959L30.6073 326.891L26.8182 325.309C26.3594 325.111 25.9639 325.792 26.4227 325.989H26.4306Z" fill="white"/>
<path d="M185.283 168.149C202.615 171.313 214.915 192.742 217.834 198.493C227.073 216.734 235.49 227.998 244.499 245.804C244.753 246.302 243.17 260.042 236.478 265.295C225.222 274.091 213.104 266.877 209.504 265.84C205.905 264.804 165.436 208.776 164.131 202.558C163.483 199.481 162.043 187.893 166.504 179.935C171.693 170.625 183.25 166.654 185.283 168.149Z" fill="#F9B52B"/>
<path d="M190.362 224.769C190.362 224.769 180.822 205.586 181.486 205.064L195.424 194.132C196.753 193.088 206.72 207.438 206.981 208.007C209.663 213.924 190.362 224.769 190.362 224.769Z" fill="#FFBFAC"/>
<path d="M186.678 220.582C186.31 219.787 186.16 218.908 186.243 218.035C186.385 217.102 190.072 217.584 190.665 216.698C193.916 211.857 199.366 208.314 204.112 204.999C204.476 204.754 201.328 203.069 201.739 203.03C202.044 203.013 202.346 203.093 202.601 203.259C204.834 204.548 206.932 206.056 208.866 207.76C214.441 212.395 219.841 217.223 225.067 222.244C229.465 226.468 238.308 237.874 240.642 243.775C242.975 249.676 242.873 257.879 239.06 265.133C238.032 267.095 230.96 270.282 226.506 270.828C216.935 271.999 202.522 265.608 203.06 258.172C203.361 254.082 201.478 251.409 199.746 248.434C197.357 244.337 195.129 240.118 193.062 235.778C190.731 230.853 188.603 225.787 186.678 220.582Z" fill="#F9B52B"/>
<path d="M202.106 253.467C202.106 253.467 189.157 227.039 185.938 218.472M186.436 219.445C190.755 216.281 200.152 208.608 204.091 204.922L233.771 232.56" stroke="#9F6E1F" stroke-width="0.3" stroke-miterlimit="10"/>
<path d="M134.423 213.291L134.763 213.6L181.164 216.922L204.523 159.786L204.705 158.426C204.172 157.815 203.424 157.433 202.617 157.358L157.6 153.118C157.198 153.079 156.794 153.174 156.452 153.387C156.109 153.6 155.845 153.919 155.701 154.296L133.94 211.25C133.801 211.599 133.773 211.982 133.86 212.347C133.946 212.712 134.143 213.042 134.423 213.291Z" fill="#474789"/>
<path d="M135.975 213.584L181.3 217.839C181.548 217.861 181.796 217.802 182.007 217.671C182.218 217.54 182.381 217.343 182.471 217.112L204.335 159.865C204.398 159.702 204.423 159.527 204.407 159.352C204.39 159.178 204.334 159.01 204.242 158.862C204.15 158.713 204.025 158.588 203.876 158.495C203.728 158.403 203.56 158.347 203.386 158.331L158.06 154.075C157.812 154.053 157.564 154.112 157.353 154.243C157.142 154.374 156.979 154.571 156.889 154.803L135.025 212.049C134.962 212.212 134.938 212.388 134.954 212.562C134.97 212.736 135.026 212.904 135.118 213.052C135.21 213.201 135.336 213.326 135.484 213.419C135.633 213.511 135.801 213.567 135.975 213.584Z" fill="#6666AD"/>
<path d="M160.107 154.25L157.085 161.48C156.973 161.749 156.927 162.041 156.952 162.331C156.976 162.621 157.07 162.901 157.225 163.147C157.38 163.394 157.591 163.599 157.842 163.747C158.093 163.895 158.376 163.98 158.667 163.995C159.03 164.013 159.389 163.92 159.698 163.729C160.007 163.539 160.251 163.259 160.399 162.928L164.149 154.63L160.107 154.25Z" fill="#474789"/>
<path d="M162.771 156.766C162.661 157.141 162.437 157.472 162.128 157.712C161.82 157.952 161.445 158.088 161.054 158.103C160.887 158.106 160.722 158.069 160.573 157.994C160.424 157.92 160.295 157.81 160.198 157.674C160.101 157.539 160.038 157.382 160.015 157.217C159.992 157.052 160.009 156.883 160.065 156.726C160.177 156.353 160.403 156.025 160.711 155.787C161.018 155.548 161.393 155.412 161.782 155.397C161.949 155.391 162.115 155.425 162.266 155.498C162.416 155.571 162.546 155.68 162.644 155.816C162.742 155.952 162.805 156.109 162.827 156.275C162.849 156.441 162.83 156.609 162.771 156.766ZM161.149 160.555C161.039 160.929 160.814 161.259 160.506 161.497C160.198 161.736 159.822 161.871 159.433 161.884C159.266 161.891 159.099 161.856 158.949 161.783C158.799 161.71 158.669 161.601 158.571 161.465C158.473 161.33 158.41 161.172 158.388 161.006C158.366 160.84 158.385 160.672 158.444 160.515C158.554 160.141 158.779 159.811 159.087 159.573C159.395 159.334 159.771 159.199 160.16 159.186C160.327 159.181 160.492 159.217 160.641 159.291C160.791 159.365 160.92 159.474 161.017 159.609C161.115 159.744 161.178 159.9 161.201 160.065C161.224 160.23 161.206 160.398 161.149 160.555ZM175.214 185.1C174.951 186.293 174.306 187.367 173.376 188.158C172.446 188.949 171.283 189.414 170.064 189.483C167.691 189.483 166.235 187.521 166.742 185.1C167.001 183.907 167.644 182.832 168.573 182.039C169.501 181.246 170.664 180.779 171.883 180.71C174.225 180.71 175.712 182.68 175.214 185.1Z" fill="#343468"/>
<path d="M196.258 203.942C198.832 198.985 201.186 193.925 203.322 188.763C203.947 187.252 204.564 185.599 204.168 184.016C203.75 182.799 203.025 181.709 202.064 180.852C197.877 176.516 193.08 172.812 187.826 169.857C187.352 169.519 186.777 169.352 186.196 169.383C185.78 169.5 185.422 169.768 185.194 170.136C184.965 170.503 184.883 170.943 184.962 171.368C185.156 172.214 185.564 172.996 186.149 173.638C188.221 176.312 190.291 178.991 192.358 181.675C188.783 179.174 184.964 177.041 180.96 175.307C179.908 174.856 178.689 174.429 177.653 174.912C177.253 175.108 176.926 175.427 176.721 175.823C176.516 176.219 176.443 176.671 176.514 177.111C176.612 177.549 176.848 177.944 177.186 178.239C177.525 178.533 177.949 178.712 178.397 178.748C177.471 178.464 176.815 178.448 176.158 179.144C175.938 179.421 175.808 179.759 175.786 180.113C175.763 180.466 175.849 180.818 176.031 181.121C176.42 181.722 176.926 182.239 177.519 182.64C176.989 181.976 175.778 183.115 175.691 183.961C175.708 184.384 175.81 184.8 175.991 185.183C176.172 185.566 176.428 185.909 176.743 186.192C180.588 190.636 184.735 194.809 189.155 198.682C188.316 200.96 186.489 203.31 187.288 205.596C187.944 207.455 190.31 208.372 192.255 207.882C194.201 207.391 195.34 205.698 196.258 203.942Z" fill="#FFBFAC"/>
<path d="M191.756 186.5C187.579 183.863 183.408 181.227 179.242 178.59M189.217 191.088L178.467 183.589" stroke="#AA5233" stroke-width="0.1875" stroke-miterlimit="10"/>
<path d="M89.3463 171.817C78.889 174.649 63.9307 200.76 57.6025 208.797C47.0502 222.245 19.9181 249.274 41.782 264.295C59.3032 276.311 73.0038 259.739 83.7063 248.23C94.0292 237.155 109.525 223.384 113.939 208.378C118.693 192.478 113.504 165.536 89.3463 171.817Z" fill="#F9B52B"/>
<path d="M122.932 190.598C123.777 189.794 124.731 189.112 125.764 188.573C126.901 188.118 128.097 187.828 129.316 187.71L151.465 184.546C151.615 184.546 152.153 184.333 152.303 184.348C152.338 185.154 152.164 185.954 151.798 186.672C151.432 187.39 150.887 188.001 150.215 188.446C148.832 189.338 147.197 189.754 145.556 189.633C147.343 189.712 149.392 190.012 151.18 190.091C151.296 190.088 151.41 190.116 151.512 190.17C151.718 190.297 151.702 190.598 151.647 190.827C151.327 191.909 150.643 192.846 149.709 193.479C148.776 194.113 147.652 194.403 146.529 194.3C147.876 194.69 149.184 195.203 150.436 195.834C150.152 196.965 148.941 197.661 147.763 197.867C146.571 197.966 145.375 197.998 144.179 197.962C145.598 199.05 147.106 200.016 148.688 200.849C148.6 201.496 148.321 202.102 147.887 202.589C147.454 203.077 146.884 203.424 146.252 203.586C144.97 203.903 143.633 203.919 142.344 203.634C140.352 203.318 138.385 202.858 136.459 202.257C135.383 201.917 134.648 203.048 133.983 203.911C133.108 205.063 132.3 206.264 131.563 207.51C131.824 208.103 132.876 208.301 133.516 208.135C134.14 207.922 134.73 207.618 135.265 207.233C136.939 206.352 138.785 205.847 140.675 205.754C141.346 205.651 142.029 205.651 142.7 205.754C143.034 205.811 143.352 205.935 143.636 206.119C143.92 206.302 144.164 206.541 144.353 206.822C144.48 207.027 144.504 207.391 144.258 207.446C144.654 207.81 144.409 208.048 144.108 208.499C143.355 209.486 142.421 210.321 141.355 210.959L132.377 217.192C127.141 220.807 121.303 222.421 115.03 223.457C112.892 223.935 110.679 223.967 108.528 223.552C106.9 223.113 105.422 222.239 104.252 221.024C103.083 219.809 102.267 218.298 101.891 216.654C100.673 211.006 104.952 207.083 108.694 203.531C113.345 199.133 118.091 194.822 122.932 190.598Z" fill="#FFBFAC"/>
<path d="M139.133 196.625L139.734 196.941C135.87 195.811 131.916 195.017 127.916 194.568" fill="#FFB685"/>
<path d="M139.133 196.625L139.734 196.941C135.87 195.811 131.916 195.017 127.916 194.568" stroke="#AA5233" stroke-width="0.1875" stroke-miterlimit="10"/>
<path d="M134.687 201.751C132.998 201.534 131.296 201.437 129.593 201.458C128.282 204.217 126.669 206.823 124.783 209.226" stroke="#AA5233" stroke-width="0.1875" stroke-miterlimit="10"/>
<path d="M145.627 193.509C140.163 193.113 134.69 192.881 129.205 192.812ZM144.361 189.182L135.383 190.052Z" fill="#FFB685"/>
<path d="M145.627 193.509C140.163 193.113 134.69 192.881 129.205 192.812M144.361 189.182L135.383 190.052" stroke="#AA5233" stroke-width="0.1875" stroke-miterlimit="10"/>
<path d="M48.9576 270.467C48.9576 270.467 32.1484 263.285 33.0106 248.248C33.8728 233.21 51.5048 229.16 51.5048 229.16L103.712 204.029L121.257 224.825C121.257 224.825 67.4201 276.02 48.9576 270.467Z" fill="#F9B52B"/>
<path d="M36.8711 260.889C50.1682 297.957 121.511 225 121.511 225L104.733 202.852L51.9797 229.746" stroke="#9F6E1F" stroke-width="0.3" stroke-miterlimit="10"/>
<path d="M166.806 124.506C167.471 123.274 168.451 122.24 169.646 121.511C170.841 120.781 172.209 120.382 173.609 120.354C174.789 120.357 175.944 120.7 176.935 121.34C177.927 121.981 178.713 122.894 179.201 123.969C180.159 126.199 179.692 128.889 178.782 131.183C178.163 132.962 177.069 134.537 175.618 135.739C174.193 136.777 172.437 137.258 170.682 137.092C169.04 136.911 167.474 136.305 166.138 135.334C164.802 134.363 163.743 133.06 163.064 131.554" fill="#EAA18F"/>
<path d="M174.859 125.305C173.472 125.016 172.028 125.215 170.771 125.868C169.515 126.521 168.522 127.588 167.961 128.888L169.076 128.366C169.922 127.847 170.91 127.607 171.9 127.678C172.15 127.727 172.387 127.825 172.597 127.968C172.808 128.11 172.988 128.293 173.126 128.507C173.264 128.72 173.357 128.959 173.401 129.21C173.445 129.46 173.437 129.717 173.379 129.964" stroke="#D18374" stroke-width="0.1875" stroke-miterlimit="10"/>
<path d="M170.009 123.85C170.286 140.366 162.099 155.491 148.762 153.497C137.53 151.796 130.569 144.084 128.488 127.702C126.408 110.972 134.714 97.9277 146.01 96.6857C164.314 94.6607 169.709 105.355 170.009 123.85Z" fill="#FFBFAC"/>
<path d="M141.929 107.301C144.144 108.733 146.873 109.176 149.523 109.326C152.723 109.516 155.934 109.341 159.094 108.804C162.187 108.282 165.343 107.341 167.59 105.221C170.912 102.057 171.442 96.7013 169.298 92.6829C167.155 88.6645 162.709 86.0462 158.09 85.4371C153.422 84.9373 148.715 85.9257 144.642 88.2611C140.584 90.468 136.732 93.7508 132.081 93.7429C129.826 93.7429 127.24 93.0389 125.555 94.4706C124.946 95.0503 124.482 95.7659 124.202 96.5589C122.497 100.597 121.685 104.956 121.821 109.337C121.958 113.719 123.04 118.019 124.993 121.943C125.112 122.256 125.332 122.521 125.618 122.694C125.927 122.845 127.501 125.4 127.833 125.297C130.704 124.419 131.242 118.897 131.93 116.05C132.619 113.202 132.54 110.212 133.204 107.349C133.552 105.885 135.49 100.625 137.752 100.957C138.678 101.092 140.181 106.17 141.929 107.301Z" fill="#070707"/>
<path d="M141.2 116.381C139.769 117.201 138.571 118.371 137.719 119.783C137.616 119.452 137.585 119.103 137.629 118.759C137.672 118.415 137.79 118.084 137.973 117.789C138.633 116.457 139.759 115.413 141.137 114.855C142.497 114.325 145.305 114.261 146.049 115.836C145.456 116.184 144.586 115.764 143.905 115.749C142.965 115.735 142.036 115.953 141.2 116.381ZM161.086 114.855C160.372 114.675 159.622 114.685 158.913 114.885C158.204 115.085 157.56 115.467 157.044 115.994C157.321 115.291 157.787 114.678 158.392 114.225C158.997 113.773 159.717 113.498 160.469 113.431C161.759 113.304 165.215 114.277 165.215 116.018C165.184 117.394 161.98 115.037 161.086 114.855Z" fill="#7C3D33"/>
<path d="M131.51 121.642C131.203 120.359 130.532 119.192 129.578 118.28C128.624 117.368 127.427 116.75 126.131 116.501C124.979 116.344 123.805 116.51 122.742 116.983C121.679 117.455 120.768 118.214 120.112 119.174C118.712 121.207 118.53 123.921 118.846 126.294C119.002 128.092 119.654 129.812 120.729 131.261C121.27 131.876 121.928 132.377 122.663 132.737C123.399 133.097 124.199 133.308 125.016 133.358C128.038 133.603 131.344 131.942 133.361 129.102" fill="#FFBFAC"/>
<path d="M123.82 121.167C126.439 120.883 128.899 122.908 129.405 125.763L128.495 125.075C127.821 124.432 126.948 124.039 126.019 123.96C125.509 123.992 125.031 124.216 124.68 124.588C124.329 124.959 124.132 125.45 124.129 125.961" stroke="#DB8E5B" stroke-width="0.1875" stroke-miterlimit="10"/>
<path d="M154.007 123.057C153.659 123.834 153.517 124.688 153.591 125.537C153.666 126.385 153.956 127.2 154.434 127.906C154.9 128.586 155.565 129.235 155.581 130.049C155.546 130.484 155.375 130.896 155.09 131.226C154.806 131.556 154.423 131.787 153.999 131.884C153.144 132.138 151.032 131.695 150.629 130.722" stroke="#D17254" stroke-width="0.375" stroke-miterlimit="10"/>
<path d="M145.32 136.354C145.32 136.354 154.322 137.668 157.913 135.967C157.913 135.967 155.722 143.213 152.954 143.086C147.116 142.833 145.32 136.354 145.32 136.354Z" fill="white"/>
<path d="M163.104 121.873C162.954 123.384 161.965 124.467 160.905 124.301C159.845 124.135 159.109 122.774 159.268 121.264C159.426 119.753 160.407 118.677 161.466 118.843C162.526 119.009 163.262 120.37 163.104 121.873Z" fill="#3D2E2C"/>
<path d="M145.386 122.132C145.449 123.572 144.595 124.734 143.448 124.726C142.301 124.718 141.344 123.556 141.281 122.124C141.217 120.692 142.072 119.521 143.219 119.529C144.366 119.537 145.323 120.684 145.386 122.132Z" fill="#3D2E2C"/>
</svg>
