<svg width="177" height="44" viewBox="0 0 177 44" fill="none" xmlns="http://www.w3.org/2000/svg">
<path d="M58.98 34V11.65H67.53C69.07 11.65 70.43 11.92 71.61 12.46C72.81 13 73.75 13.8 74.43 14.86C75.11 15.92 75.45 17.23 75.45 18.79C75.45 20.31 75.1 21.61 74.4 22.69C73.7 23.75 72.76 24.55 71.58 25.09L76.68 34H71.46L65.94 24.13L68.94 25.9H63.63V34H58.98ZM63.63 21.85H67.56C68.22 21.85 68.79 21.72 69.27 21.46C69.75 21.2 70.12 20.84 70.38 20.38C70.66 19.92 70.8 19.39 70.8 18.79C70.8 18.17 70.66 17.63 70.38 17.17C70.12 16.71 69.75 16.35 69.27 16.09C68.79 15.83 68.22 15.7 67.56 15.7H63.63V21.85ZM85.6416 34.36C83.9016 34.36 82.3916 33.98 81.1116 33.22C79.8316 32.44 78.8416 31.4 78.1416 30.1C77.4416 28.8 77.0916 27.36 77.0916 25.78C77.0916 24.14 77.4516 22.68 78.1716 21.4C78.9116 20.12 79.9016 19.11 81.1416 18.37C82.3816 17.63 83.7816 17.26 85.3416 17.26C86.6416 17.26 87.7916 17.47 88.7916 17.89C89.7916 18.29 90.6316 18.86 91.3116 19.6C92.0116 20.34 92.5416 21.2 92.9016 22.18C93.2616 23.14 93.4416 24.19 93.4416 25.33C93.4416 25.65 93.4216 25.97 93.3816 26.29C93.3616 26.59 93.3116 26.85 93.2316 27.07H80.9616V23.77H90.6816L88.5516 25.33C88.7516 24.47 88.7416 23.71 88.5216 23.05C88.3016 22.37 87.9116 21.84 87.3516 21.46C86.8116 21.06 86.1416 20.86 85.3416 20.86C84.5616 20.86 83.8916 21.05 83.3316 21.43C82.7716 21.81 82.3516 22.37 82.0716 23.11C81.7916 23.85 81.6816 24.75 81.7416 25.81C81.6616 26.73 81.7716 27.54 82.0716 28.24C82.3716 28.94 82.8316 29.49 83.4516 29.89C84.0716 30.27 84.8216 30.46 85.7016 30.46C86.5016 30.46 87.1816 30.3 87.7416 29.98C88.3216 29.66 88.7716 29.22 89.0916 28.66L92.6916 30.37C92.3716 31.17 91.8616 31.87 91.1616 32.47C90.4816 33.07 89.6716 33.54 88.7316 33.88C87.7916 34.2 86.7616 34.36 85.6416 34.36ZM96.0914 34V17.62H100.291V20.86L100.051 20.14C100.431 19.16 101.041 18.44 101.881 17.98C102.741 17.5 103.741 17.26 104.881 17.26C106.121 17.26 107.201 17.52 108.121 18.04C109.061 18.56 109.791 19.29 110.311 20.23C110.831 21.15 111.091 22.23 111.091 23.47V34H106.591V24.43C106.591 23.79 106.461 23.24 106.201 22.78C105.961 22.32 105.611 21.96 105.151 21.7C104.711 21.44 104.191 21.31 103.591 21.31C103.011 21.31 102.491 21.44 102.031 21.7C101.571 21.96 101.211 22.32 100.951 22.78C100.711 23.24 100.591 23.79 100.591 24.43V34H96.0914ZM121.94 34.18C119.96 34.18 118.42 33.65 117.32 32.59C116.24 31.51 115.7 30.01 115.7 28.09V21.52H112.94V17.62H113.09C113.93 17.62 114.57 17.41 115.01 16.99C115.47 16.57 115.7 15.94 115.7 15.1V13.9H120.2V17.62H124.04V21.52H120.2V27.79C120.2 28.35 120.3 28.82 120.5 29.2C120.7 29.56 121.01 29.83 121.43 30.01C121.85 30.19 122.37 30.28 122.99 30.28C123.13 30.28 123.29 30.27 123.47 30.25C123.65 30.23 123.84 30.21 124.04 30.19V34C123.74 34.04 123.4 34.08 123.02 34.12C122.64 34.16 122.28 34.18 121.94 34.18ZM126.677 40V17.62H130.877V20.74L130.487 19.84C131.027 19.02 131.757 18.39 132.677 17.95C133.617 17.49 134.687 17.26 135.887 17.26C137.447 17.26 138.857 17.64 140.117 18.4C141.377 19.16 142.377 20.19 143.117 21.49C143.857 22.77 144.227 24.21 144.227 25.81C144.227 27.39 143.857 28.83 143.117 30.13C142.397 31.43 141.407 32.46 140.147 33.22C138.887 33.98 137.457 34.36 135.857 34.36C134.737 34.36 133.697 34.16 132.737 33.76C131.797 33.34 131.037 32.73 130.457 31.93L131.177 31V40H126.677ZM135.317 30.31C136.157 30.31 136.897 30.12 137.537 29.74C138.177 29.36 138.677 28.83 139.037 28.15C139.397 27.47 139.577 26.69 139.577 25.81C139.577 24.93 139.397 24.16 139.037 23.5C138.677 22.82 138.177 22.29 137.537 21.91C136.897 21.51 136.157 21.31 135.317 21.31C134.517 21.31 133.797 21.5 133.157 21.88C132.537 22.26 132.047 22.79 131.687 23.47C131.347 24.15 131.177 24.93 131.177 25.81C131.177 26.69 131.347 27.47 131.687 28.15C132.047 28.83 132.537 29.36 133.157 29.74C133.797 30.12 134.517 30.31 135.317 30.31ZM146.863 34V17.62H151.063V21.55L150.763 20.98C151.123 19.6 151.713 18.67 152.533 18.19C153.373 17.69 154.363 17.44 155.503 17.44H156.463V21.34H155.053C153.953 21.34 153.063 21.68 152.383 22.36C151.703 23.02 151.363 23.96 151.363 25.18V34H146.863ZM166.565 34.36C164.945 34.36 163.465 33.99 162.125 33.25C160.805 32.51 159.745 31.5 158.945 30.22C158.165 28.92 157.775 27.45 157.775 25.81C157.775 24.15 158.165 22.68 158.945 21.4C159.745 20.12 160.805 19.11 162.125 18.37C163.465 17.63 164.945 17.26 166.565 17.26C168.185 17.26 169.655 17.63 170.975 18.37C172.295 19.11 173.345 20.12 174.125 21.4C174.925 22.68 175.325 24.15 175.325 25.81C175.325 27.45 174.925 28.92 174.125 30.22C173.345 31.5 172.295 32.51 170.975 33.25C169.655 33.99 168.185 34.36 166.565 34.36ZM166.565 30.31C167.385 30.31 168.095 30.12 168.695 29.74C169.315 29.36 169.795 28.83 170.135 28.15C170.495 27.47 170.675 26.69 170.675 25.81C170.675 24.93 170.495 24.16 170.135 23.5C169.795 22.82 169.315 22.29 168.695 21.91C168.095 21.51 167.385 21.31 166.565 21.31C165.745 21.31 165.025 21.51 164.405 21.91C163.785 22.29 163.295 22.82 162.935 23.5C162.595 24.16 162.425 24.93 162.425 25.81C162.425 26.69 162.595 27.47 162.935 28.15C163.295 28.83 163.785 29.36 164.405 29.74C165.025 30.12 165.745 30.31 166.565 30.31Z" fill="black"/>
<path d="M14.6519 13.6763L10.3049 13.6824L10.293 6.35713C10.2929 6.3084 10.3024 6.26014 10.321 6.21509C10.3396 6.17004 10.3669 6.1291 10.4013 6.09459C10.4357 6.06008 10.4766 6.03269 10.5216 6.01398C10.5666 5.99527 10.6148 5.98561 10.6635 5.98554L14.2684 5.98047C14.3171 5.9804 14.3653 5.98993 14.4104 6.00852C14.4554 6.0271 14.4964 6.05438 14.5309 6.08879C14.5654 6.1232 14.5928 6.16407 14.6115 6.20907C14.6302 6.25406 14.6399 6.3023 14.6399 6.35103L14.6519 13.6763Z" fill="#FF7209"/>
<path d="M14.6397 6.35103C14.6397 6.3023 14.63 6.25406 14.6113 6.20907C14.5926 6.16407 14.5652 6.1232 14.5307 6.08879C14.4962 6.05438 14.4552 6.0271 14.4102 6.00852C14.3651 5.98993 14.3169 5.9804 14.2681 5.98047L12.1188 5.98348C12.3094 5.99877 12.4599 6.15647 12.4603 6.35103L12.4722 13.6763L10.3047 13.6794V13.6824L14.6517 13.6763L14.6397 6.35103Z" fill="#EB5E00"/>
<path d="M21.8395 5.84766L10.1953 16.8169L10.2186 33.4927C10.2189 33.704 10.3031 33.9064 10.4527 34.0556C10.6022 34.2048 10.8049 34.2884 11.0162 34.2882L32.7421 34.2578C32.9534 34.2575 33.1559 34.1733 33.305 34.0238C33.4542 33.8742 33.5378 33.6715 33.5376 33.4602L33.5143 16.7844L21.8395 5.84766Z" fill="#F0E6FD"/>
<path d="M33.5147 16.7843L21.84 5.84766L19.9199 7.65647L29.6639 16.7843L29.6872 33.4601C29.6873 33.5647 29.6668 33.6683 29.6269 33.765C29.5871 33.8617 29.5285 33.9496 29.4547 34.0237C29.3808 34.0977 29.2931 34.1565 29.1965 34.1967C29.0999 34.2368 28.9964 34.2576 28.8918 34.2577H32.7427C32.954 34.2574 33.1565 34.1732 33.3056 34.0237C33.4548 33.8741 33.5385 33.6714 33.5382 33.4601L33.5147 16.7843Z" fill="#D7C1FA"/>
<path d="M37.6224 20.4585C37.2151 20.4595 36.8227 20.3047 36.5258 20.0258L21.8404 6.26892L7.19342 20.0668C6.54967 20.6732 5.53621 20.6429 4.92992 19.9992C4.32346 19.3556 4.35371 18.3421 4.99746 17.7357L20.7393 2.90644C21.3547 2.32662 22.315 2.32533 22.932 2.90335L38.7152 17.6886C39.3606 18.2932 39.3937 19.3066 38.789 19.9519C38.6397 20.1117 38.459 20.2392 38.2584 20.3264C38.0577 20.4135 37.8412 20.4585 37.6224 20.4585Z" fill="#FF7209"/>
<path d="M38.7881 18.0269C38.6387 18.1867 38.4581 18.3142 38.2574 18.4013C38.0567 18.4884 37.8403 18.5334 37.6215 18.5334C37.2142 18.5344 36.8218 18.3796 36.5249 18.1007L21.8395 4.34375L7.19252 18.1416C6.54877 18.7481 5.53531 18.7177 4.92902 18.0741C4.88907 18.0315 4.85149 17.9867 4.81644 17.94C4.35504 18.5516 4.38598 19.4236 4.92902 20C5.53522 20.6437 6.54877 20.674 7.19252 20.0676L21.8395 6.26978L36.5249 20.0267C36.8218 20.3056 37.2142 20.4604 37.6215 20.4594C37.8403 20.4593 38.0568 20.4144 38.2574 20.3273C38.4581 20.2401 38.6387 20.1127 38.7881 19.9528C39.3285 19.3761 39.358 18.5062 38.8979 17.8961C38.8636 17.9416 38.827 17.9853 38.7881 18.0269Z" fill="#EB5E00"/>
<path d="M24.8512 19.5957L18.8652 19.604C18.7304 19.6042 18.6011 19.658 18.5059 19.7535C18.4106 19.849 18.3572 19.9784 18.3574 20.1133L18.3772 34.2784L25.3802 34.2686L25.3605 20.1035C25.3603 19.9686 25.3065 19.8394 25.211 19.7441C25.1155 19.6489 24.9861 19.5955 24.8512 19.5957Z" fill="#4D4D4D"/>
<path d="M25.362 20.1035C25.3617 19.9686 25.308 19.8394 25.2125 19.7441C25.117 19.6489 24.9876 19.5955 24.8527 19.5957L21.4707 19.6004C21.574 19.6328 21.6642 19.6972 21.7283 19.7844C21.7924 19.8716 21.8271 19.9769 21.8273 20.0851L21.847 34.2736L25.3817 34.2686L25.362 20.1035Z" fill="#1A1A1A"/>
<path d="M40.1262 27.1173L31.3033 33.022L28.6739 32.8744L28.571 31.8395C28.4177 30.2989 27.2315 29.0624 25.6986 28.8455L18.6535 28.0343C17.0283 27.8044 15.4636 27.2598 14.0468 26.431C12.1126 25.2995 9.91204 24.7031 7.67113 24.7031H2.5918V36.2975L16.0164 41.3811C16.5237 41.5244 17.0565 41.5672 17.5772 41.4849L17.5866 41.4835L31.102 39.5353C32.1432 39.369 33.122 38.9305 33.939 38.2641L42.6743 30.4077C43.4582 29.7116 43.6035 28.5418 43.0137 27.6749C42.3685 26.7267 41.0784 26.4775 40.1262 27.1173Z" fill="#FED9A8"/>
<path d="M43.129 27.8672L34.495 35.135C33.6779 35.8015 32.3196 36.2399 31.2783 36.4062L17.5867 37.3849C17.5836 37.3855 17.5804 37.386 17.5773 37.3864C17.0566 37.4686 16.5237 37.4258 16.0164 37.2826L2.5918 32.199V36.2971L16.0164 41.3808C16.2695 41.4527 16.5293 41.4984 16.7918 41.5172C16.8572 41.5218 16.9227 41.5246 16.9883 41.5257C17.1886 41.529 17.3888 41.5147 17.5866 41.4831L31.102 39.5349C31.4908 39.4728 31.8726 39.3724 32.2418 39.2353C32.8571 39.0069 33.4305 38.6786 33.9391 38.2637L42.6743 30.4074C43.4016 29.7615 43.5781 28.7083 43.129 27.8672Z" fill="#F4C892"/>
<path d="M4.30342 40.2352H2.29369C1.37424 40.2352 0.628906 39.4899 0.628906 38.5704V23.698C0.628906 22.7785 1.37424 22.0332 2.29369 22.0332H4.30342C5.22287 22.0332 5.9682 22.7785 5.9682 23.698V38.5704C5.9682 39.4899 5.22287 40.2352 4.30342 40.2352Z" fill="#6200EA"/>
</svg>
