<svg width="93" height="100" viewBox="0 0 93 100" fill="none" xmlns="http://www.w3.org/2000/svg">
<path d="M33.9085 0H93V100H33.9085L0 86L11.2937 12.4L33.9085 0Z" fill="url(#paint0_linear_2591_141)" fill-opacity="0.2"/>
<path d="M67.0282 53.1947C67.3354 54.0623 66.8812 55.0148 66.0135 55.3222C65.124 55.6372 64.0967 56.3153 63.0082 57.2698C61.937 58.2092 60.895 59.3375 59.9722 60.4438C59.0524 61.5463 58.2712 62.6025 57.7194 63.3842C57.4442 63.7742 57.0105 64.4247 56.8639 64.6448C56.5417 65.1517 55.9715 65.4463 55.3719 65.4157C54.7719 65.3848 54.235 65.0337 53.9664 64.4965C53.2319 63.0275 52.573 62.4427 52.2409 62.2212C52.1004 62.1275 52.0054 62.09 51.9677 62.0772C51.1204 61.9985 50.457 61.2857 50.457 60.4178C50.457 59.4973 51.2032 58.7512 52.1237 58.7512C53.1297 58.7512 53.6325 59.1428 54.0899 59.4477C54.547 59.7525 55.0265 60.1737 55.5077 60.7502C56.033 60.0322 56.6804 59.1862 57.4125 58.3085C58.4014 57.1232 59.5654 55.8555 60.8104 54.7637C62.038 53.687 63.4372 52.6983 64.9007 52.18C65.7684 51.8728 66.7209 52.327 67.0282 53.1947Z" fill="white"/>
<path d="M40.041 40.834C40.041 36.0015 43.9585 32.084 48.791 32.084C53.6235 32.084 57.541 36.0015 57.541 40.834C57.541 45.6665 53.6235 49.584 48.791 49.584C43.9585 49.584 40.041 45.6665 40.041 40.834Z" fill="white"/>
<path d="M49.7978 52.2715C48.0248 52.0215 46.2218 52.0215 44.4488 52.2715C42.008 52.6158 39.6212 53.4343 37.4464 54.7293C37.2526 54.8447 37.0132 54.9798 36.7422 55.1327C35.5542 55.8028 33.7582 56.8162 32.5279 58.0203C31.7584 58.7735 31.0273 59.766 30.8944 60.982C30.7531 62.275 31.3172 63.4885 32.4489 64.5666C34.4013 66.4266 36.7443 67.9173 39.7748 67.9173H51.7473C52.8787 67.9173 53.4442 67.9173 53.571 67.6057C53.6977 67.2938 53.2838 66.8908 52.4562 66.0848C51.9745 65.6156 51.5083 65.1298 51.191 64.7256C51.0695 64.5708 51.0087 64.4933 50.9545 64.4533C50.9005 64.4132 50.806 64.3767 50.6172 64.3033C49.0597 63.6993 47.9563 62.1883 47.9563 60.4177C47.9563 58.1165 49.8218 56.251 52.123 56.251C53.0635 56.251 53.8027 56.4657 54.3603 56.715C54.7797 56.9027 54.9893 56.9965 55.1517 56.96C55.314 56.9233 55.4448 56.77 55.7067 56.4633C55.8832 56.2567 56.0713 56.0382 56.2585 55.8238C56.646 55.3798 56.8398 55.1578 56.7938 54.9183C56.7478 54.6788 56.4988 54.5513 56.0008 54.2962C54.0573 53.301 51.8447 52.5602 49.7978 52.2715Z" fill="white"/>
<defs>
<linearGradient id="paint0_linear_2591_141" x1="93" y1="50" x2="0" y2="50" gradientUnits="userSpaceOnUse">
<stop stop-color="white" stop-opacity="0.23"/>
<stop offset="1" stop-color="white"/>
</linearGradient>
</defs>
</svg>
