<svg width="322" height="464" viewBox="0 0 322 464" fill="none" xmlns="http://www.w3.org/2000/svg">
<ellipse cx="165.333" cy="442.253" rx="156.589" ry="20.7572" fill="#F1F1F1"/>
<path d="M156.337 166.803C155.469 167.793 154.628 168.788 153.815 169.788" stroke="#8171E2" stroke-width="0.1875" stroke-miterlimit="10"/>
<path d="M25.0522 77.957L108.678 77.957C113.353 77.957 117.144 74.1669 117.144 69.4915V41.26C117.144 36.5846 113.353 32.7944 108.678 32.7944L25.0522 32.7944C20.3768 32.7944 16.5867 36.5846 16.5867 41.26V69.4915C16.5867 74.1669 20.3768 77.957 25.0522 77.957Z" fill="#B095F1"/>
<path d="M104.678 75.8984V98.8773L83.7451 77.9448L104.678 75.8984Z" fill="#B095F1"/>
<path d="M159.479 183.995C159.212 184.647 141.583 282.825 143.766 285.556C145.949 288.286 154.845 310.9 165.67 305.407C176.495 299.913 183.012 307.055 187.88 296.934C192.748 286.814 213.98 179.284 215.948 163.643C217.323 152.727 165.885 167.814 159.479 183.995Z" fill="#353535"/>
<path d="M189.671 232.748L177.406 291.818" stroke="white" stroke-width="0.1875" stroke-miterlimit="10"/>
<path d="M175.744 406.98L174.72 436.788L156.375 442.921L155.339 392.355L175.744 406.98Z" fill="#E88A5D"/>
<path d="M146.756 276.223C143.993 278.224 143.602 284.571 143.602 284.571L144.99 421.291L177.92 420.502C177.92 420.502 189.931 299.938 188.679 291.994C187.428 284.05 169.611 259.689 146.756 276.223Z" fill="#353535"/>
<path d="M178.168 294.309C174.91 323.635 168.393 396.625 166.737 419.65" stroke="white" stroke-width="0.1875" stroke-miterlimit="10"/>
<path d="M251.099 202.568C251.243 203.219 259.819 287.471 252.664 300.427C251.021 303.398 235.407 306.715 225.67 299.28C215.934 291.844 209.378 300.133 206.328 289.986C203.278 279.839 198.162 185.558 198.97 171.182C199.531 161.178 247.619 186.692 251.099 202.568Z" fill="#353535"/>
<path d="M242.972 217.576C235.849 221.486 243.103 273.055 246.062 301.306" stroke="white" stroke-width="0.1875" stroke-miterlimit="10"/>
<path d="M252.136 207.305C252.136 207.305 257.056 273.55 254.945 283.925" stroke="#2B6A8E" stroke-width="0.1875" stroke-miterlimit="10"/>
<path d="M198.37 206.328L195.764 225.879L204.171 226.589" stroke="white" stroke-width="0.1875" stroke-miterlimit="10"/>
<path d="M176.018 428.23L173.111 426.789C173.111 426.789 172.107 430.615 170.224 431.351C168.341 432.088 158.291 432.387 158.291 432.387L155.613 425.219C157.203 425.427 154.811 430.791 152.811 433.039C150.81 435.287 133.566 441.511 131.168 441.635C128.77 441.759 128.163 451.104 129.832 452.375C131.5 453.646 150.139 453.763 153.202 452.935C156.063 452.16 170.863 451.899 175.053 451.762C179.087 451.632 180.957 450.381 180.742 445.669C180.527 440.957 176.018 428.23 176.018 428.23Z" fill="#353535"/>
<path d="M221.748 398.443L225.952 432.566L242.479 433.146L244.746 391.209L221.748 398.443Z" fill="#E88A5D"/>
<path d="M252.137 284.24C254.965 286.436 255.395 292.712 255.395 292.712L251.576 415.485L218.392 416.423C218.392 416.423 204.498 294.914 205.755 287.276C207.013 279.639 228.734 266.057 252.137 284.24Z" fill="#353535"/>
<path d="M243.665 284.748C243.547 301.66 243.489 406.576 245.972 414.872" stroke="white" stroke-width="0.1875" stroke-miterlimit="10"/>
<path d="M251.589 415.453L255.004 296.283" stroke="#2B6A8E" stroke-width="0.1875" stroke-miterlimit="10"/>
<path d="M222.537 418.455L224.316 426.504C224.316 426.504 221.742 427.996 221.169 440.02L221.416 443.995C221.416 443.995 216.607 452.291 228.715 454.194L253.923 452.617C253.923 452.617 258.732 444.321 246.292 437.113L243.033 427.989L243.776 418.618L222.537 418.455Z" fill="#353535"/>
<path d="M220.32 54.4436C225.266 55.949 230.447 58.5493 232.396 63.3393C234.918 69.5434 231.027 76.3732 227.293 81.9061L211.079 106.058C209.775 107.967 208.472 109.936 206.517 111.206C202.3 113.983 196.409 112.51 192.473 109.382C188.536 106.254 185.956 101.698 183.134 97.5273C179.569 92.3137 175.392 87.5042 172.485 81.8866C170.165 77.4029 167.382 69.5043 169.494 64.4667C171.605 59.4291 179.198 57.0374 183.896 55.3886C195.633 51.2354 208.383 50.9046 220.32 54.4436Z" fill="#E56538"/>
<path d="M220.3 63.7314C219.727 61.6134 217.622 60.2123 215.484 59.743C213.346 59.2738 211.124 59.5345 208.967 59.6322C200.541 59.9907 191.462 57.9444 184.092 62.0435C180.833 63.8683 178.226 66.7553 175.932 69.7271C175.642 70.0272 175.465 70.4187 175.431 70.8349C175.431 71.4475 176.082 71.8451 176.597 72.1383C184.02 76.0485 195.64 80.6104 204.262 79.0724C209.534 78.1144 221.988 70.0008 220.3 63.7314Z" fill="#B65534"/>
<path d="M220.673 107.341C224.121 111.349 232.938 123.633 236.966 126.964C240.993 130.294 255.468 153.683 270.574 161.849C283.412 168.777 292.204 153.188 292.438 150.979C292.666 148.874 287.016 133.65 282.213 126.214C270.932 108.697 260.518 86.213 244.311 76.6852C239.299 73.7396 229.537 75.1863 224.043 77.0893C216.157 79.8199 211.66 86.8647 213.159 95.0435C214.137 100.211 217.408 103.548 220.673 107.341Z" fill="#E56538"/>
<path d="M219.207 103.58C229.738 121.496 236.151 130.137 250.384 145.289M240.342 76.8934C255.07 74.6842 281.627 119.371 289.975 142.545C291.135 145.758 292.152 149.271 291.154 152.542C290.672 153.926 289.991 155.232 289.134 156.42C287.601 158.706 285.911 160.884 284.077 162.937" stroke="#2B4F82" stroke-width="0.1875" stroke-miterlimit="10"/>
<path d="M176.933 70.5322L226.859 69.6133C226.859 69.6133 193.421 101.957 187.06 101.077C180.699 100.197 176.933 70.5322 176.933 70.5322Z" fill="#FFB483"/>
<path d="M221.847 78.5293L177.968 78.8812L194.43 107.804L221.847 78.5293Z" fill="#F4F1EB"/>
<path d="M217.598 70.8131C217.598 70.8131 227.452 67.0202 233.779 71.5104C240.107 76.0006 243.262 82.2047 241.137 94.4371C236.986 118.407 242.173 162.214 249.244 184.86C252.255 194.505 248.918 199.458 236.653 200.964C202.518 205.147 163.54 203.694 156.86 200.468C150.18 197.242 156.768 177.053 156.749 177.007C156.729 176.962 160.424 112.574 160.418 105.601C160.418 99.0381 162.555 75.0752 171.412 72.0774C173.367 71.4257 181.188 68.0955 182.608 72.0187C184.726 77.8449 197.969 95.3169 200.608 95.4798C204.987 95.6688 217.598 70.8131 217.598 70.8131Z" fill="#E56538"/>
<path d="M160.899 119.865C158.495 142.479 162.854 142.675 160.567 165.152" stroke="#2B4F82" stroke-width="0.1875" stroke-miterlimit="10"/>
<path d="M217.147 180.448C212.207 171.943 209.451 162.347 209.125 152.517M171.209 150.939C172.574 161.81 170.061 172.813 164.112 182.012" stroke="#662C20" stroke-width="0.1875" stroke-miterlimit="10"/>
<path d="M195.875 103.934C195.183 103.271 194.399 102.709 193.549 102.266C192.61 101.891 191.622 101.651 190.616 101.556L172.368 98.9488C172.238 98.9488 171.795 98.7728 171.671 98.7858C171.644 99.4496 171.789 100.109 172.091 100.701C172.394 101.292 172.844 101.795 173.398 102.162C174.537 102.898 175.885 103.241 177.237 103.139C175.764 103.204 174.069 103.452 172.597 103.517C172.501 103.516 172.407 103.538 172.323 103.582C172.153 103.687 172.166 103.934 172.219 104.123C172.48 105.014 173.043 105.786 173.811 106.308C174.579 106.83 175.504 107.069 176.429 106.984C175.319 107.307 174.242 107.73 173.209 108.248C173.383 108.707 173.682 109.108 174.073 109.404C174.463 109.7 174.93 109.88 175.418 109.923C176.4 110.005 177.386 110.031 178.371 110.002C177.201 110.897 175.958 111.692 174.656 112.38C174.729 112.912 174.958 113.41 175.314 113.811C175.67 114.213 176.137 114.499 176.657 114.635C177.725 114.901 178.841 114.914 179.915 114.674C181.557 114.414 183.177 114.035 184.764 113.54C185.644 113.26 186.25 114.192 186.804 114.902C187.52 115.855 188.186 116.845 188.798 117.868C188.583 118.356 187.716 118.519 187.182 118.382C186.669 118.205 186.184 117.954 185.741 117.639C184.364 116.914 182.845 116.498 181.29 116.421C180.737 116.336 180.175 116.336 179.622 116.421C179.347 116.467 179.084 116.569 178.85 116.72C178.616 116.871 178.415 117.069 178.26 117.301C178.156 117.47 178.136 117.77 178.338 117.815C178.006 118.115 178.214 118.311 178.462 118.682C179.08 119.495 179.847 120.183 180.723 120.709L188.1 125.844C192.408 128.823 197.224 130.152 202.386 131.006C204.147 131.399 205.971 131.426 207.743 131.084C209.085 130.724 210.303 130.004 211.267 129.003C212.23 128.001 212.902 126.756 213.21 125.401C214.22 120.748 210.695 117.516 207.612 114.59C203.776 110.966 199.864 107.414 195.875 103.934Z" fill="#FFB483"/>
<path d="M182.529 108.899L182.034 109.16C185.23 108.227 188.501 107.573 191.81 107.205" fill="#FFB685"/>
<path d="M182.529 108.899L182.034 109.16C185.23 108.227 188.501 107.573 191.81 107.205" stroke="#AA5233" stroke-width="0.1875" stroke-miterlimit="10"/>
<path d="M186.19 113.122C187.582 112.944 188.984 112.864 190.387 112.881C191.472 115.153 192.803 117.3 194.356 119.281" stroke="#AA5233" stroke-width="0.1875" stroke-miterlimit="10"/>
<path d="M177.192 106.332C181.698 106.007 186.21 105.815 190.728 105.759ZM178.222 102.768L185.625 103.484Z" fill="#FFB685"/>
<path d="M177.192 106.332C181.698 106.007 186.21 105.815 190.728 105.759M178.222 102.768L185.625 103.484" stroke="#AA5233" stroke-width="0.1875" stroke-miterlimit="10"/>
<path d="M225.149 118.577C225.149 118.577 204.946 112.673 204.164 113.872C199.433 121.229 197.647 126.052 198.748 127.766C199.85 129.48 211.58 138.362 215.275 140.311C218.104 141.81 225.149 118.577 225.149 118.577Z" fill="#FFB483"/>
<path d="M211.156 114.518C211.156 114.518 206.595 122.99 205.591 127.552C204.587 132.113 205.467 137.907 205.467 137.907C205.839 140.26 219.368 145.727 221.329 146.744C231.281 151.951 241.056 156.774 251.483 161.036C259.147 164.157 267.215 167.344 275.446 166.432C283.677 165.519 291.908 158.97 291.628 150.693C291.419 144.359 286.551 139.23 281.709 135.131C270.461 125.609 256.456 125.707 242.549 122.468C232.421 120.096 220.691 118.773 211.156 114.518Z" fill="#E56538"/>
<path d="M277.311 168.283C264.607 165.832 252.258 161.809 240.549 156.304C225.338 149.136 205.638 137.829 205.638 137.829C205.638 137.829 204.334 130.113 206.706 124.091C207.962 120.799 209.45 117.6 211.157 114.518C211.157 114.518 225.944 119.268 236.196 121.106C245.372 122.749 268.663 127.956 271.172 128.927M285.451 136.995C283.222 134.186 279.019 132.746 275.63 131.573" stroke="#662C20" stroke-width="0.1875" stroke-miterlimit="10"/>
<path d="M171.236 96.6928C169.373 101.079 169.809 111.271 167.417 115.416C162.706 123.569 143.604 152.393 138.743 158.428C135.758 162.13 116.07 161.1 113.92 157.125C112.975 155.365 112.395 144.886 114.206 136.557C118.188 118.205 144.804 85.9203 147.104 84.3041C160.249 75.0109 164.224 76.588 172.631 76.3143C176.978 76.1709 177.317 84.7472 180.927 87.6343C184.538 90.5213 172.82 92.9456 171.236 96.6928Z" fill="#E56538"/>
<path d="M210.93 42.2379L215.492 74.914L188.544 75.8785L188.322 51.3226C188.322 51.3226 188.687 45.2683 191.828 42.4725C196.462 38.3668 210.46 34.2742 210.93 42.2379Z" fill="#FCAD82"/>
<path d="M188.57 68.0587C188.57 68.0587 214.638 70.0138 213.986 56.3281C217.531 52.255 213.237 45.3145 213.237 45.3145L188.081 53.604L188.57 68.0587Z" fill="#EF8152"/>
<path d="M173.095 16.5928C172.175 18.0402 171.72 19.7344 171.791 21.4479C171.791 24.5761 172.912 27.7889 175.206 29.92C177.5 32.051 181.072 32.8722 183.906 31.5297C184.502 31.2633 185.031 30.8695 185.458 30.3762C186.086 29.5165 186.418 28.4757 186.402 27.4109C186.5 24.7194 185.464 22.1192 184.447 19.6232C182.681 15.1851 176.77 11.3205 173.095 16.5928Z" fill="#513132"/>
<path d="M180.551 42.5234C181.854 54.7427 187.485 60.4972 199.202 58.8158C207.707 57.6037 214.472 49.4835 214.537 37.199C214.537 31.9854 215.84 21.2846 213.742 17.7263C210.79 12.7213 197.638 13.8813 192.62 13.953C178.713 14.168 179.15 28.8573 180.551 42.5234Z" fill="#FCAD82"/>
<path d="M191.654 34.1504C191.761 34.7374 191.716 35.3419 191.523 35.9065C191.33 36.4711 190.996 36.9771 190.553 37.3763C189.662 38.171 188.614 38.7704 187.477 39.1359C187.449 39.7323 187.563 40.3268 187.811 40.8699C188.059 41.4131 188.434 41.889 188.903 42.2582C189.372 42.6274 189.923 42.8791 190.509 42.9923C191.095 43.1056 191.7 43.0771 192.273 42.9092" stroke="#513132" stroke-width="0.1875" stroke-miterlimit="10"/>
<path d="M215.175 18.0658C215.262 18.0658 215.345 18.0314 215.406 17.9703C215.467 17.9092 215.501 17.8263 215.501 17.7399C215.501 17.6535 215.467 17.5706 215.406 17.5095C215.345 17.4484 215.262 17.4141 215.175 17.4141C215.089 17.4141 215.006 17.4484 214.945 17.5095C214.884 17.5706 214.85 17.6535 214.85 17.7399C214.85 17.8263 214.884 17.9092 214.945 17.9703C215.006 18.0314 215.089 18.0658 215.175 18.0658Z" fill="#5B1D12"/>
<path d="M203.289 27.4753C203.336 27.0387 202.118 26.5493 200.569 26.382C199.02 26.2148 197.725 26.4331 197.678 26.8697C197.631 27.3063 198.849 27.7957 200.398 27.963C201.948 28.1302 203.242 27.9119 203.289 27.4753Z" fill="#513132"/>
<path d="M184.297 28.3181C185.518 28.0766 186.44 27.5317 186.355 27.1009C186.27 26.6701 185.21 26.5167 183.988 26.7581C182.767 26.9996 181.845 27.5445 181.931 27.9753C182.016 28.4061 183.075 28.5595 184.297 28.3181Z" fill="#513132"/>
<path d="M176.223 7.69707C173.733 10.0953 174.313 14.5529 176.783 16.9772C179.253 19.4016 182.981 20.0858 186.428 19.8317C189.876 19.5775 193.206 18.5283 196.614 17.9352C201.176 17.1467 206.709 17.655 209.14 21.5847C210.671 24.0677 210.515 27.261 211.818 29.8678C212.705 31.6274 214.19 33.0025 215.233 34.6773C216.276 36.3522 216.81 38.6201 215.657 40.2233C218.159 39.9365 220.251 38.0271 221.398 35.7852C222.545 33.5434 222.904 30.9887 223.158 28.4797C223.849 21.8389 223.64 14.2401 218.752 9.69126C217.56 8.58337 216.146 7.73618 214.979 6.60874C213.33 5.05119 212.144 3.00485 210.306 1.67539C206.8 -0.853198 201.945 -0.110258 197.833 1.23224C193.721 2.57474 189.537 4.44509 185.255 3.80643C182.798 3.44148 180.25 2.25539 177.93 3.15473C176.053 3.88463 174.887 5.85276 174.554 7.84044C174.222 9.82812 174.554 11.8484 174.945 13.8295" fill="#513132"/>
<path d="M213.181 36.6393C213.497 35.5091 214.098 34.4792 214.926 33.6484C215.755 32.8175 216.783 32.2137 217.912 31.8949C218.87 31.6114 219.887 31.5932 220.855 31.8422C221.822 32.0913 222.704 32.5983 223.406 33.3091C224.709 34.7689 224.937 36.913 224.709 38.8615C224.586 40.3775 224.037 41.8278 223.126 43.0454C222.137 44.1847 220.79 44.9544 219.307 45.2286C217.938 45.4955 216.524 45.4159 215.193 44.9971C213.863 44.5783 212.658 43.8334 211.688 42.8304" fill="#FCAD82"/>
<path d="M213.181 36.6393C213.497 35.5091 214.098 34.4792 214.926 33.6484C215.755 32.8175 216.783 32.2137 217.912 31.8949C218.87 31.6114 219.887 31.5932 220.855 31.8422C221.822 32.0913 222.704 32.5983 223.406 33.3091C224.709 34.7689 224.937 36.913 224.709 38.8615C224.586 40.3775 224.037 41.8278 223.126 43.0454C222.137 44.1847 220.79 44.9544 219.307 45.2286C217.938 45.4955 216.524 45.4159 215.193 44.9971C213.863 44.5783 212.658 43.8334 211.688 42.8304" stroke="#EF8152" stroke-width="0.1875" stroke-miterlimit="10"/>
<path d="M220.101 35.3418C218.915 35.4154 217.787 35.881 216.894 36.6655C216.001 37.4499 215.394 38.5087 215.168 39.6756L215.976 39.0239C216.58 38.4248 217.345 38.0149 218.179 37.8443C219.019 37.7531 219.991 38.3787 219.932 39.2194" fill="#FCAD82"/>
<path d="M220.101 35.3418C218.915 35.4154 217.787 35.881 216.894 36.6655C216.001 37.4499 215.394 38.5087 215.168 39.6756L215.976 39.0239C216.58 38.4248 217.345 38.0149 218.179 37.8443C219.019 37.7531 219.991 38.3787 219.932 39.2194" stroke="#EF8152" stroke-width="0.140625" stroke-miterlimit="10"/>
<path d="M213.116 28.8189C212.276 33.055 210.066 39.8587 206.73 42.5958C204.775 44.2055 202.057 45.1244 200.936 47.4053C198.942 45.2098 196.162 43.8891 193.201 43.7298C191.73 43.6704 190.271 44.0128 188.981 44.72C187.69 45.4273 186.617 46.4728 185.875 47.7442C182.93 48.4611 182.07 49.3213 180.427 40.9731C180.473 40.9731 180.316 43.9383 180.427 47.1968C180.551 51.107 180.825 55.1475 182.943 58.393C184.813 61.2539 187.928 63.1112 191.167 64.1996C197.971 66.474 205.961 65.503 211.565 61.0454C217.17 56.5878 219.855 48.4611 217.294 41.7551C216.447 39.5394 215.085 37.493 214.687 35.1599C214.331 33.0432 214.797 30.8703 215.99 29.0861C214.576 29.0405 214.087 26.3881 213.384 27.6328" fill="#745A5B"/>
<path d="M212.131 29.7711C212.813 32.3984 212.495 35.1854 211.238 37.5914L213.936 38.406C214.143 38.4934 214.373 38.5072 214.588 38.4452C214.927 38.3018 214.999 37.8651 215.018 37.5002L215.246 33.779C215.227 33.0906 215.408 32.4114 215.768 31.8239C216.341 31.0745 217.495 30.8073 217.795 29.9144C216.618 29.5806 215.563 28.9128 214.758 27.9919C214.041 27.0079 213.989 25.4438 214.953 24.7335C213.083 24.5445 211.493 26.8775 212.346 28.5524M191.622 54.1576L195.291 54.4378C195.709 54.4378 195.709 53.7861 195.291 53.7861L191.622 53.5059C191.205 53.4733 191.205 54.125 191.622 54.1576Z" fill="#513132"/>
<path d="M190.154 49.511C191.502 49.9032 192.935 49.8971 194.28 49.4936C195.624 49.09 196.824 48.3062 197.733 47.2366C197.929 46.9954 197.59 46.6435 197.388 46.8912C196.54 47.9003 195.417 48.6409 194.156 49.0228C192.894 49.4047 191.549 49.4112 190.284 49.0418C190.222 49.0245 190.155 49.0326 190.099 49.0644C190.043 49.0962 190.002 49.149 189.984 49.2112C189.967 49.2734 189.975 49.34 190.007 49.3962C190.039 49.4524 190.092 49.4937 190.154 49.511Z" fill="#513132"/>
<path d="M196.092 34.443C196.152 34.7451 196.301 35.0226 196.518 35.2405C196.736 35.4584 197.013 35.6069 197.315 35.6671C197.618 35.7273 197.931 35.6966 198.215 35.5789C198.5 35.4612 198.743 35.2617 198.915 35.0057C199.086 34.7497 199.177 34.4486 199.178 34.1406C199.178 33.8326 199.087 33.5314 198.916 33.2752C198.745 33.019 198.502 32.8192 198.217 32.7011C197.933 32.583 197.62 32.5519 197.318 32.6117C197.117 32.6514 196.926 32.7303 196.756 32.8439C196.585 32.9574 196.439 33.1034 196.325 33.2735C196.212 33.4435 196.133 33.6344 196.093 33.835C196.053 34.0357 196.052 34.2423 196.092 34.443Z" fill="#3D2E2C"/>
<path d="M185.012 35.3753C185.059 35.6169 185.177 35.8392 185.35 36.014C185.524 36.1887 185.745 36.3081 185.986 36.3571C186.227 36.4061 186.478 36.3825 186.706 36.2892C186.933 36.1959 187.128 36.0372 187.266 35.8331C187.404 35.629 187.478 35.3886 187.479 35.1424C187.48 34.8963 187.408 34.6553 187.272 34.4501C187.136 34.2448 186.942 34.0845 186.715 33.9893C186.488 33.8942 186.238 33.8685 185.996 33.9155C185.673 33.9801 185.388 34.1697 185.204 34.443C185.02 34.7164 184.951 35.0514 185.012 35.3753Z" fill="#3D2E2C"/>
<path d="M157.569 50.7356C156.585 48.9369 153.789 50.0839 154.415 52.039C154.422 52.0768 154.433 52.1138 154.447 52.1498L155.685 59.4553C155.685 59.4553 155.685 84.9172 161.805 83.692C167.924 82.4668 162.339 59.4032 162.339 59.4032L157.569 50.7356Z" fill="#EF8152"/>
<path d="M177.607 32.4495L157.795 39.0438C155.599 39.7747 154.412 42.1473 155.143 44.3431L168.667 84.9745C169.398 87.1704 171.77 88.358 173.966 87.6271L193.778 81.0328C195.974 80.3019 197.161 77.9293 196.43 75.7334L182.906 35.102C182.175 32.9062 179.803 31.7186 177.607 32.4495Z" fill="#26364D"/>
<path d="M173.587 86.357C174.144 85.0655 174.532 83.7074 174.741 82.3165C174.876 81.3088 175.221 80.3406 175.753 79.4741C176.285 78.6076 176.992 77.8621 177.83 77.2854L186.752 71.0356C186.876 70.8189 186.946 70.575 186.955 70.3251C186.965 70.0751 186.913 69.8267 186.804 69.6014C186.696 69.3761 186.534 69.1806 186.333 69.0319C186.132 68.8833 185.897 68.7859 185.65 68.7482C184.947 68.5704 184.204 68.6394 183.545 68.9437L174.187 72.0718L183.096 61.2863C183.096 61.2863 186.752 55.1864 181.877 57.6302L171.841 66.7214L179.146 54.476C179.46 53.97 179.633 53.3897 179.648 52.7946C179.648 52.0843 179.42 51.3088 178.345 51.2827C177.986 51.2837 177.632 51.3623 177.307 51.513C176.982 51.6638 176.694 51.8831 176.461 52.156L167.416 63.4564L175.464 48.4674C175.77 47.9223 175.927 47.3066 175.92 46.6817C175.92 45.7433 175.529 44.7266 173.685 45.652C172.814 46.0985 172.054 46.7356 171.463 47.5159L159.941 62.5049C159.941 62.5049 155.457 68.103 156.161 81.4498C156.248 83.3821 156.704 85.2799 157.503 87.0413C158.416 88.9964 159.941 91.1535 162.378 91.7661C164.463 92.2059 166.632 92.006 168.602 91.1926C169.719 90.7701 170.738 90.1231 171.596 89.2914C172.453 88.4597 173.131 87.461 173.587 86.357Z" fill="#FCAD82"/>
<path d="M170.217 46.3034C171.304 46.3034 172.185 45.4223 172.185 44.3353C172.185 43.2483 171.304 42.3672 170.217 42.3672C169.13 42.3672 168.249 43.2483 168.249 44.3353C168.249 45.4223 169.13 46.3034 170.217 46.3034Z" fill="#59677B"/>
<path d="M165.922 99.7302C165.922 99.7302 173.71 87.4913 173.195 86.3052C172.68 85.1191 165.622 78.5239 163.993 79.0779C162.364 79.6318 151.122 91.8707 148.711 94.686C146.866 96.8497 165.922 99.7302 165.922 99.7302Z" fill="#F8AB84"/>
<path d="M170.628 97.1686C170.628 97.1686 164.763 91.1339 161.244 89.1266C157.724 87.1194 152.837 86.5524 152.837 86.5524C150.836 86.3243 143.4 97.0447 142.129 98.5436C135.697 106.129 129.617 113.696 123.849 121.933C119.607 128 115.227 134.407 114.152 141.934C113.077 149.461 110.789 150.999 115.195 156.414C118.59 160.585 126.971 164.684 131.383 161.361C141.627 153.625 151.52 134.745 157.236 123.165C161.387 114.725 165.056 104.617 170.628 97.1686Z" fill="#E56538"/>
<path d="M152.048 87.2179C152.048 87.2179 164.554 86.6705 169.892 97.0324L162.13 112.523C162.13 112.523 147.623 142.742 146.756 143.205C145.89 143.668 133.201 161.036 133.201 161.036" stroke="#662C20" stroke-width="0.1875" stroke-miterlimit="10"/>
<path fill-rule="evenodd" clip-rule="evenodd" d="M27.3457 246.682C32.2334 268.872 66.4475 280.01 72.3649 286.292C82.3164 265.764 48.0371 239.891 27.3457 246.682Z" fill="#A0BF40"/>
<path d="M40.7568 254.723C47.0979 255.818 52.2202 260.34 56.9776 264.681C65.5344 272.501 74.3844 280.712 78.3337 291.589" stroke="#365650" stroke-width="0.140625" stroke-miterlimit="10"/>
<path fill-rule="evenodd" clip-rule="evenodd" d="M103.157 187.846C102.776 187.896 102.399 187.975 102.029 188.081C76.2612 194.018 55.4982 240.868 77.9166 256.92C104.147 238.568 96.6594 200.222 103.137 187.84L103.157 187.846Z" fill="#A0BF40"/>
<path d="M91.1673 198.736C80.4664 220.242 79.2738 245.131 78.2832 269.159" stroke="#365650" stroke-width="0.140625" stroke-miterlimit="10"/>
<path fill-rule="evenodd" clip-rule="evenodd" d="M49.216 222.803C46.4854 239.33 70.8589 256.28 73.205 262.204C79.6698 244.452 65.2543 223.8 49.216 222.803Z" fill="#A7DB56"/>
<path d="M56.5342 232.787C64.1004 240.099 76.7042 254.391 75.6289 285.646" stroke="#365650" stroke-width="0.140625" stroke-miterlimit="10"/>
<path fill-rule="evenodd" clip-rule="evenodd" d="M80.4844 306.202C109.811 319.021 136.941 284.09 152.582 291.708C134.777 271.779 82.4916 278.296 80.4844 306.202Z" fill="#A0BF40"/>
<path d="M134.178 286.292C134.178 286.292 86.4342 285.64 78.0859 316.492" stroke="#365650" stroke-width="0.140625" stroke-miterlimit="10"/>
<path fill-rule="evenodd" clip-rule="evenodd" d="M79.9822 288.54C115.017 281.143 109.856 243.371 124.232 235.4C99.4354 231.308 64.9932 266.923 79.9822 288.54Z" fill="#A0BF40"/>
<path d="M111.074 242.373C95.433 252.715 77.2441 283.489 75.6279 308.279" stroke="#365650" stroke-width="0.140625" stroke-miterlimit="10"/>
<path fill-rule="evenodd" clip-rule="evenodd" d="M81.3057 328.749C103.561 337.84 134.158 323.216 140.2 317.488C125.836 301.097 83.1565 306.011 81.3057 328.749Z" fill="#A0BF40"/>
<path d="M116.51 318.277C106.923 316.531 96.6134 317.665 88.2391 322.637C79.8648 327.609 73.7453 336.714 73.5303 346.457" stroke="#365650" stroke-width="0.140625" stroke-miterlimit="10"/>
<path fill-rule="evenodd" clip-rule="evenodd" d="M114.999 267.314C93.2319 268.377 68.2523 292.731 75.8967 319.652C79.1552 311.656 118.407 289.778 114.999 267.314Z" fill="#A7DB56"/>
<path d="M109.152 272.137C81.2074 291.955 75.0619 321.666 73.0742 337.183" stroke="#365650" stroke-width="0.140625" stroke-miterlimit="10"/>
<path fill-rule="evenodd" clip-rule="evenodd" d="M25.4561 270.905C34.8796 280.42 32.0447 288.397 41.3184 299.828C49.256 309.603 59.807 318.688 72.1827 321.875C87.1587 293.982 50.5138 260.993 25.4561 270.905Z" fill="#A0BF40"/>
<path d="M37.7256 274.111C44.2882 275.903 49.5995 280.726 53.9659 285.946C67.5798 302.239 70.7797 322.747 73.608 343.784" stroke="#365650" stroke-width="0.140625" stroke-miterlimit="10"/>
<path fill-rule="evenodd" clip-rule="evenodd" d="M4.75098 293.846C18.5148 300.395 49.1381 319.099 65.4892 315.508C67.2618 291.037 22.7378 278.798 4.75098 293.846Z" fill="#A7DB56"/>
<path d="M27.3525 295.553C43.2018 299.17 70.2603 310.789 71.3161 330.373" stroke="#365650" stroke-width="0.140625" stroke-miterlimit="10"/>
<path fill-rule="evenodd" clip-rule="evenodd" d="M0 318.198C13.1382 319.228 39.9686 344.351 67.7179 332.581C66.1212 306.292 16.9637 299.619 0 318.198Z" fill="#A0BF40"/>
<path d="M14.5146 316.616C22.4588 316.44 30.4487 316.27 38.3081 317.437C47.3211 318.74 56.1777 321.921 63.4701 327.382C70.7626 332.843 72.2159 337.418 74.1254 346.327" stroke="#365650" stroke-width="0.140625" stroke-miterlimit="10"/>
<path d="M102.841 439.745H38.4072L46.397 339.201H95.3525L102.841 439.745Z" fill="#A0A0EA"/>
<path d="M45.8105 352.881H95.3526" stroke="white" stroke-width="0.5625" stroke-miterlimit="10"/>
<path d="M45.8105 346.676H94.6227" stroke="white" stroke-width="0.5625" stroke-miterlimit="10"/>
<path d="M40.7148 63.1622V47.2715H44.0745V53.8279H50.8948V47.2715H54.2468V63.1622H50.8948V56.598H44.0745V63.1622H40.7148Z" fill="white"/>
<path d="M62.3861 63.3949C61.1601 63.3949 60.1049 63.1466 59.2203 62.6501C58.341 62.1483 57.6634 61.4396 57.1875 60.5241C56.7116 59.6033 56.4736 58.5145 56.4736 57.2575C56.4736 56.0315 56.7116 54.9556 57.1875 54.0297C57.6634 53.1038 58.3332 52.3822 59.1971 51.8649C60.0661 51.3476 61.0851 51.089 62.2542 51.089C63.0404 51.089 63.7724 51.2157 64.45 51.4692C65.1328 51.7175 65.7277 52.0925 66.2346 52.5942C66.7467 53.096 67.145 53.7271 67.4295 54.4875C67.714 55.2427 67.8563 56.1272 67.8563 57.1411V58.0489H57.7927V56.0005H64.7448C64.7448 55.5246 64.6414 55.103 64.4345 54.7358C64.2276 54.3685 63.9405 54.0814 63.5732 53.8745C63.2111 53.6624 62.7895 53.5564 62.3085 53.5564C61.8067 53.5564 61.3619 53.6728 60.9739 53.9055C60.5911 54.1331 60.2911 54.4409 60.0739 54.8289C59.8566 55.2117 59.7454 55.6384 59.7402 56.1091V58.0567C59.7402 58.6464 59.8488 59.1559 60.0661 59.5852C60.2885 60.0146 60.6015 60.3456 61.0049 60.5784C61.4084 60.8112 61.8869 60.9275 62.4404 60.9275C62.8077 60.9275 63.1439 60.8758 63.4491 60.7724C63.7543 60.6689 64.0155 60.5137 64.2327 60.3068C64.45 60.0999 64.6155 59.8464 64.7293 59.5464L67.7864 59.7482C67.6312 60.4827 67.3131 61.1241 66.832 61.6724C66.3562 62.2156 65.7406 62.6397 64.9854 62.9449C64.2353 63.2449 63.3689 63.3949 62.3861 63.3949Z" fill="white"/>
<path d="M73.3187 47.2715V63.1622H70.0133V47.2715H73.3187Z" fill="white"/>
<path d="M79.2719 47.2715V63.1622H75.9665V47.2715H79.2719Z" fill="white"/>
<path d="M87.3045 63.3949C86.0992 63.3949 85.0569 63.1389 84.1776 62.6268C83.3034 62.1095 82.6283 61.3905 82.1524 60.4698C81.6765 59.5438 81.4386 58.4705 81.4386 57.2497C81.4386 56.0186 81.6765 54.9427 82.1524 54.0219C82.6283 53.096 83.3034 52.377 84.1776 51.8649C85.0569 51.3476 86.0992 51.089 87.3045 51.089C88.5097 51.089 89.5495 51.3476 90.4237 51.8649C91.303 52.377 91.9807 53.096 92.4565 54.0219C92.9324 54.9427 93.1704 56.0186 93.1704 57.2497C93.1704 58.4705 92.9324 59.5438 92.4565 60.4698C91.9807 61.3905 91.303 62.1095 90.4237 62.6268C89.5495 63.1389 88.5097 63.3949 87.3045 63.3949ZM87.32 60.8344C87.8683 60.8344 88.3261 60.6792 88.6934 60.3689C89.0606 60.0533 89.3374 59.624 89.5236 59.0809C89.715 58.5377 89.8107 57.9196 89.8107 57.2264C89.8107 56.5333 89.715 55.9151 89.5236 55.372C89.3374 54.8289 89.0606 54.3995 88.6934 54.084C88.3261 53.7685 87.8683 53.6107 87.32 53.6107C86.7665 53.6107 86.301 53.7685 85.9234 54.084C85.5509 54.3995 85.269 54.8289 85.0776 55.372C84.8914 55.9151 84.7983 56.5333 84.7983 57.2264C84.7983 57.9196 84.8914 58.5377 85.0776 59.0809C85.269 59.624 85.5509 60.0533 85.9234 60.3689C86.301 60.6792 86.7665 60.8344 87.32 60.8344Z" fill="white"/>
</svg>
