<svg width="50" height="50" viewBox="0 0 50 50" fill="none" xmlns="http://www.w3.org/2000/svg">
<rect width="50" height="50" rx="2" fill="#00A551"/>
<path d="M7.75391 43.1406V39.9029H16.9778V43.1406H7.75391ZM16.8702 43.0331V40.0104H7.86416V43.0331H16.8702ZM8.9237 42.8825C8.50957 42.8825 8.16535 42.5705 8.16535 42.1752V40.8656C8.16535 40.473 8.50957 40.1583 8.9237 40.1583H15.7031C16.1173 40.1583 16.4615 40.4703 16.4615 40.8656V42.1752C16.4615 42.5678 16.1173 42.8825 15.7031 42.8825H8.9237ZM15.7004 42.7749C16.0635 42.7749 16.3512 42.5033 16.3512 42.1779V40.8683C16.3512 40.5429 16.0635 40.2713 15.7004 40.2713H8.9237C8.56066 40.2713 8.27292 40.5429 8.27292 40.8683V42.1779C8.27292 42.5033 8.56066 42.7749 8.9237 42.7749H15.7004ZM15.4907 41.7907C15.3535 41.7907 15.254 41.6643 15.254 41.5191C15.254 41.3738 15.3562 41.2448 15.4907 41.2448C15.6278 41.2448 15.7273 41.3711 15.7273 41.5191C15.7273 41.6643 15.6251 41.7907 15.4907 41.7907ZM15.4907 41.6831C15.5579 41.6831 15.6198 41.6132 15.6198 41.5164C15.6198 41.4222 15.5579 41.3523 15.4907 41.3523C15.4234 41.3523 15.3616 41.4222 15.3616 41.5164C15.3589 41.6132 15.4234 41.6831 15.4907 41.6831ZM14.1784 35.7669V33.2418H17.0047V35.7669H14.1784ZM16.8998 35.6593V33.352H14.2886V35.6593H16.8998ZM28.2804 33.9732V31.2383H25.9381V33.2552H25.8306V30.7838H23.0177V30.6763H25.8306V30.1465H25.8359V22.3748H25.9435V30.6817H28.3369L28.3907 30.7354V33.9732H28.2804ZM9.3701 33.6478C8.99362 33.6478 8.66823 33.3977 8.66823 33.0697V32.2091H8.65478C8.53108 32.2091 8.43965 32.0962 8.43965 31.9725V31.0447C8.43965 30.921 8.52839 30.8081 8.65478 30.8081H10.1285C10.2522 30.8081 10.3436 30.921 10.3436 31.0447V31.9725C10.3436 32.0962 10.2522 32.2091 10.1285 32.2091H10.072V33.0697C10.072 33.3977 9.74659 33.6478 9.3701 33.6478ZM9.3701 33.5403C9.70894 33.5403 9.96441 33.3197 9.96441 33.0697V32.2091H8.77848V33.0697C8.77848 33.3197 9.03127 33.5403 9.3701 33.5403ZM12.1507 32.6636C11.551 32.6636 10.9997 32.4269 10.9997 32.0854V31.155H11.1073V32.0854C11.1073 32.3194 11.543 32.556 12.1507 32.556C12.7612 32.556 13.1941 32.3194 13.1941 32.0854V31.155H13.3017V32.0854C13.299 32.4323 12.7531 32.6636 12.1507 32.6636ZM10.1285 32.0989C10.1795 32.0989 10.236 32.0478 10.236 31.9698V31.042C10.236 30.964 10.1822 30.9129 10.1285 30.9129H8.65478C8.60369 30.9129 8.54721 30.964 8.54721 31.042V31.9698C8.54721 32.0478 8.601 32.0989 8.65478 32.0989H10.1285ZM12.1668 32.0881C12.0189 32.0881 11.8926 31.9859 11.8926 31.8515C11.8926 31.7143 12.0189 31.6148 12.1668 31.6148C12.3148 31.6148 12.4385 31.717 12.4385 31.8515C12.4411 31.9886 12.3121 32.0881 12.1668 32.0881ZM12.1668 31.9805C12.261 31.9805 12.3309 31.9187 12.3309 31.8515C12.3309 31.7869 12.261 31.7224 12.1668 31.7224C12.07 31.7224 12.0028 31.7842 12.0028 31.8515C12.0028 31.9187 12.07 31.9805 12.1668 31.9805ZM28.2804 31.1308V30.7892H25.9381V31.1308H28.2804ZM24.529 30.2164C23.9535 30.2164 23.5044 29.6625 23.5044 29.0036C23.5044 28.3421 23.9562 27.7908 24.529 27.7908C25.1045 27.7908 25.5536 28.3448 25.5536 29.0036C25.5536 29.6625 25.1045 30.2164 24.529 30.2164ZM24.529 30.1089C25.0265 30.1089 25.446 29.6221 25.446 29.0036C25.446 28.3851 25.0265 27.8984 24.529 27.8984C24.0315 27.8984 23.612 28.3851 23.612 29.0036C23.612 29.6221 24.0315 30.1089 24.529 30.1089ZM24.529 29.2752C24.3919 29.2752 24.2924 29.1488 24.2924 29.0036C24.2924 28.8557 24.3945 28.732 24.529 28.732C24.6662 28.732 24.7656 28.8584 24.7656 29.0036C24.7683 29.1488 24.6662 29.2752 24.529 29.2752ZM24.529 29.1677C24.5962 29.1677 24.6581 29.0977 24.6581 29.0036C24.6581 28.9068 24.5962 28.8369 24.529 28.8369C24.4618 28.8369 24.3999 28.9068 24.3999 29.0036C24.3999 29.0977 24.4618 29.1677 24.529 29.1677ZM31.0234 27.7451L29.6949 26.2849L30.9212 25.1688L32.2496 26.6291L31.0234 27.7451ZM36.8589 27.7209L35.7429 26.4946L37.2031 25.1662L38.3218 26.3924L36.8589 27.7209ZM31.0314 27.5918L31.2224 27.417L30.0391 26.1181L29.8455 26.2929L31.0314 27.5918ZM36.867 27.5703L38.1658 26.387L37.991 26.1934L36.6922 27.3767L36.867 27.5703ZM23.3807 25.3248V23.0605H25.602V25.3248H23.3807ZM31.303 27.3444L32.099 26.621L30.9158 25.3221L30.1198 26.0455L31.303 27.3444ZM36.6169 27.2987L37.9157 26.1154L37.1923 25.3194L35.8935 26.5027L36.6169 27.2987ZM25.4971 25.2173V23.1681H23.491V25.2173H25.4971ZM24.0127 25.1178C23.7733 25.1178 23.5851 24.9188 23.5851 24.6767C23.5851 24.4347 23.776 24.2357 24.0127 24.2357C24.2493 24.2357 24.4403 24.4347 24.4403 24.6767C24.4403 24.9188 24.2493 25.1178 24.0127 25.1178ZM24.9942 25.029C24.8087 25.029 24.6635 24.8757 24.6635 24.6875C24.6635 24.5019 24.8087 24.3486 24.9942 24.3486C25.1771 24.3486 25.325 24.5019 25.325 24.6875C25.325 24.873 25.1771 25.029 24.9942 25.029ZM24.0127 25.0102C24.1875 25.0102 24.3327 24.8623 24.3327 24.6767C24.3327 24.4912 24.1875 24.3433 24.0127 24.3433C23.8379 24.3433 23.6927 24.4912 23.6927 24.6767C23.6927 24.8623 23.8379 25.0102 24.0127 25.0102ZM24.9942 24.9188C25.1152 24.9188 25.2174 24.8166 25.2174 24.6875C25.2174 24.5584 25.1152 24.4562 24.9942 24.4562C24.8732 24.4562 24.771 24.5584 24.771 24.6875C24.771 24.8166 24.8732 24.9188 24.9942 24.9188ZM33.9761 26.578C33.925 26.578 33.8766 26.578 33.8255 26.5753C33.0241 26.5376 32.2389 26.1961 31.658 25.5561C30.4936 24.2787 30.5877 22.2968 31.8651 21.1351C33.1424 19.9707 35.1244 20.0648 36.2861 21.3421C37.4505 22.6195 37.3564 24.6014 36.079 25.7632C35.4793 26.3091 34.7264 26.578 33.9761 26.578ZM33.9734 26.4704C34.6995 26.4704 35.4256 26.2096 36.0037 25.6825C37.2381 24.5584 37.3268 22.6464 36.2027 21.4121C35.0787 20.1777 33.1666 20.089 31.9323 21.2131C30.7007 22.3371 30.6092 24.2491 31.7333 25.4835C32.2953 26.0993 33.0537 26.4301 33.8255 26.4677C33.8766 26.4704 33.925 26.4704 33.9734 26.4704ZM24.0127 24.2115C23.7733 24.2115 23.5851 24.0125 23.5851 23.7705C23.5851 23.5284 23.776 23.3294 24.0127 23.3294C24.2493 23.3294 24.4403 23.5284 24.4403 23.7705C24.4403 24.0125 24.2493 24.2115 24.0127 24.2115ZM24.962 24.2115C24.7226 24.2115 24.5344 24.0125 24.5344 23.7705C24.5344 23.5284 24.7253 23.3294 24.962 23.3294C25.1986 23.3294 25.3895 23.5284 25.3895 23.7705C25.3895 24.0125 25.2013 24.2115 24.962 24.2115ZM24.0127 24.1039C24.1875 24.1039 24.3327 23.956 24.3327 23.7705C24.3327 23.5849 24.1875 23.437 24.0127 23.437C23.8379 23.437 23.6927 23.5849 23.6927 23.7705C23.6927 23.956 23.8379 24.1039 24.0127 24.1039ZM24.962 24.1039C25.1368 24.1039 25.282 23.956 25.282 23.7705C25.282 23.5849 25.1368 23.437 24.962 23.437C24.7872 23.437 24.6419 23.5849 24.6419 23.7705C24.6419 23.956 24.7872 24.1039 24.962 24.1039ZM30.7894 21.6783L29.6707 20.452L31.1309 19.1236L32.2469 20.3498L30.7894 21.6783ZM37.0686 21.6756L35.7402 20.2154L36.9665 19.0967L38.2949 20.5569L37.0686 21.6756ZM30.7975 21.525L32.0963 20.3418L31.373 19.5485L30.0741 20.7317L30.7975 21.525ZM37.074 21.5223L37.87 20.7989L36.6868 19.5001L35.8935 20.2234L37.074 21.5223ZM37.948 20.7263L38.1416 20.5515L36.9584 19.2527L36.7648 19.4274L37.948 20.7263ZM29.9988 20.651L31.2977 19.4678L31.1229 19.2742L29.824 20.4574L29.9988 20.651Z" fill="white"/>
<path d="M39.7463 43.3984V43.3554H38.1758V33.6475H41.6287V43.3554H39.8565V43.3984H39.7463ZM39.7463 43.2478V42.5513L38.6383 42.4465L38.6491 42.3389L39.749 42.4438V42.0942L38.6491 42.1829L38.641 42.0753L39.7516 41.9866V41.836H38.6437V41.7284H39.7516V41.4972L38.6437 41.3923L38.6545 41.2847L39.7543 41.3896V41.1503L38.6464 41.0454L38.6571 40.9378L39.757 41.0427V40.6931L38.6571 40.7819L38.6491 40.6743L39.7597 40.5855V40.4349H38.6518V40.3274H39.7597V40.0961L38.6518 39.9912L38.6625 39.8837L39.7624 39.9885V39.639L38.6625 39.7277L38.6545 39.6201L39.7651 39.5314V39.3808H38.6571V39.2732H39.7651V38.9613L38.6571 38.8564L38.6679 38.7488L39.7678 38.8537V38.5982L38.6598 38.4934L38.6706 38.3858L39.7705 38.4907V38.1411L38.6706 38.2298L38.6625 38.1223L39.7732 38.0335V37.8829H38.6652V37.7753H39.7732V37.5441L38.6652 37.4392L38.676 37.3316L39.7758 37.4365V37.0869L38.676 37.1757L38.6679 37.0681L39.7785 36.9794V36.8288H38.6706V36.7212H39.7785V36.4092L38.6706 36.3044L38.6813 36.1968L39.7812 36.3017V35.9521L38.6813 36.0408L38.6733 35.9333L39.7839 35.8445V35.6939H38.676V35.5864H39.7839V35.2448L38.676 35.14L38.6867 35.0324L39.7866 35.1373V34.7877L38.684 34.8764L38.676 34.7688L39.7866 34.6801V34.5295H38.6787V34.4219H39.7866V33.7658H38.3237V43.2586H39.7463V43.2478ZM41.5184 43.2478V33.755H39.8538V34.4112H40.8327V34.5188H39.8538V34.6613L40.8246 34.5833L40.8327 34.6909L39.8538 34.7688V35.1373L40.8327 35.2314L40.8219 35.339L39.8538 35.2475V35.5783H40.8327V35.6859H39.8538V35.8284L40.8246 35.7504L40.8327 35.858L39.8538 35.936V36.3044L40.8327 36.3985L40.8219 36.5061L39.8538 36.4146V36.7158H40.8327V36.8234H39.8538V36.9659L40.8246 36.8879L40.8327 36.9955L39.8538 37.0735V37.4419L40.8327 37.536L40.8219 37.6436L39.8538 37.5521V37.7727H40.8327V37.8802H39.8538V38.0228L40.8246 37.9448L40.8327 38.0523L39.8538 38.1303V38.4987L40.8327 38.5929L40.8219 38.7004L39.8538 38.609V38.8645L40.8327 38.9586L40.8219 39.0662L39.8538 38.9747V39.2759H40.8327V39.3835H39.8538V39.526L40.8246 39.448L40.8327 39.5556L39.8538 39.6336V40.002L40.8327 40.0961L40.8219 40.2037L39.8538 40.1122V40.3328H40.8327V40.4403H39.8538V40.5829L40.8246 40.5049L40.8327 40.6124L39.8538 40.6904V41.0588L40.8327 41.153L40.8219 41.2605L39.8538 41.1691V41.4057L40.8327 41.4999L40.8219 41.6074L39.8538 41.516V41.7365H40.8327V41.8441H39.8538V41.9866L40.8246 41.9086L40.8327 42.0162L39.8538 42.0942V42.4626L40.8327 42.5567L40.8219 42.6643L39.8538 42.5728V43.2586H41.5184V43.2478Z" fill="white"/>
<path d="M24.3869 46.2224V44.7138H21.0685V44.7111L7.13582 44.7595V22.2914H6.24032V12.0187H7.09279V4.6477H6.28604L6.17578 4.54013V3.6769L6.28335 3.56934H23.4645L23.5533 3.61505L25.2367 6.02456H25.7503V6.00573H39.0375V6.02456H42.9853V20.5434H43.0014V30.4262H42.9853V44.703H27.7484V44.7138H24.4945V46.2224H24.3869ZM24.3869 44.6062V43.0734H21.176V44.6062H24.3869ZM27.6408 44.6062V43.0734H24.4945V44.6062H27.6408ZM7.96677 43.0303L16.6878 42.9981V39.8733H16.6797V39.8517L16.0262 39.7953C14.4853 39.5263 13.6194 38.3485 13.4903 36.1945L13.5441 36.138H16.677V36.0869H16.6851V33.0616L15.4185 31.3244H7.96677V43.0303ZM17.5483 42.9954L21.0389 42.9819L21.1464 41.9412C21.6735 39.443 23.9674 37.9128 27.7053 37.9128L27.7591 37.9666V42.9766H41.2534V34.0485H35.0172V37.1787L34.9607 37.2325C33.1321 37.1115 32.0833 36.3397 31.7606 34.9763L31.723 34.7154V35.3716H31.6154V34.7504L31.2954 35.7238C30.8033 36.6247 29.8379 37.1357 28.3776 37.2325L28.3212 37.1787V34.0539H28.297V34.0485H22.284V21.8558H22.292V21.845H25.9574V22.7082H23.1499V33.188H28.297V33.1853H31.6154V32.123H31.723V33.1853H34.9769V33.188H41.2561V30.4289H41.2346V20.5461H41.2561V7.75101H39.0349V7.76983H25.7476V7.75101H23.5586V13.7425H20.1407V18.1043L20.0815 18.1581C17.8199 18.0075 16.4404 17.1067 15.8891 15.52L15.6955 14.724V14.9553H15.6229V13.8877L15.6121 13.7371H11.2072V13.7398H7.96677V30.4611H15.8595L17.5483 32.7792V36.0842V37.9559H18.6052V38.0634H17.5483V39.8733V42.9954ZM24.3869 42.9658V41.519H24.4945V42.9658H27.6543V38.0231L26.9362 38.0446C23.6581 38.2436 21.6923 39.7334 21.2406 42.0353L21.1518 42.9658H24.3869V42.9658ZM7.34288 39.7173V35.4442H7.23263V39.7173H7.34288ZM7.62525 39.7173V35.4442H7.45045V39.7173H7.62525ZM7.86459 39.7173V35.4442H7.73282V39.7173H7.86459ZM17.4408 39.7657V38.0661H16.7846V39.7657H17.4408ZM16.677 39.7415V38.0634H15.6417V37.9559H16.677V36.2429H13.6006L13.6329 36.6247C13.8453 38.4803 14.6843 39.4699 16.0881 39.6958L16.677 39.7415ZM17.4408 37.9559V36.1918H16.7953V36.2429H16.7873V37.9559H17.4408ZM28.426 37.1195L28.7622 37.0873C30.1928 36.9044 31.0561 36.2671 31.4003 35.2021L31.567 34.0566H28.426V37.1195ZM34.9123 37.1195V34.0539H31.7687L31.9354 35.1995C32.2823 36.2644 33.1429 36.9044 34.5735 37.0846L34.9123 37.1195ZM31.6154 33.9463V33.2901H28.4018V33.9275H28.426V33.9463H31.6154ZM34.8693 33.9463V33.2901H31.723V33.9463H34.8693ZM41.8074 30.3213V20.6537H41.3422V30.3186H41.8074V30.3213ZM42.3479 30.3213V20.6537H41.915V30.3186H42.3479V30.3213ZM42.8911 30.3213V20.6537H42.4555V30.3186H42.8911V30.3213ZM20.0331 18.0479V13.7398H15.7197L15.7788 14.595C16.0558 16.5473 17.2794 17.7063 19.5518 18.0022L20.0331 18.0479ZM15.6229 13.6322V13.1966H11.261V13.6349H15.6229V13.6322ZM20.0331 13.6322V13.6134H20.0546V13.1966H15.6955V13.6349H20.0331V13.6322ZM15.6229 13.089V12.6346H11.261V13.089H15.6229ZM20.0546 13.089V12.6346H15.6955V13.089H20.0546ZM15.6229 12.527V12.129H11.261V12.527H15.6229ZM20.0546 12.527V12.129H15.6955V12.527H20.0546ZM15.6229 12.0214V10.7736H15.6955V12.0214H20.1084V12.0187H21.8349V6.02725H23.9217L22.9563 4.6477H8.17115V12.0187H11.2072V12.0214H15.6229V12.0214ZM7.95602 12.0187V4.54013L8.06358 4.43256H23.0154L23.1042 4.47828L24.1852 6.02456H24.9758L23.408 3.78447H6.39092V4.43256H7.19767L7.30524 4.54013V12.0187H7.95602V12.0187ZM38.9273 7.66227V7.19704H25.8579V7.66227H38.9273ZM38.9273 7.08947V6.65651H25.8579V7.08947H38.9273ZM38.9273 6.55164V6.11599H25.8579V6.55164H38.9273Z" fill="white"/>
<path d="M13.7701 20.7724H13.1328V19.7666H13.3291V20.5976H13.7701V20.7724Z" fill="white"/>
<path d="M13.8906 19.7666H14.0869V20.7724H13.8906V19.7666Z" fill="white"/>
<path d="M14.6112 20.3582L14.6381 20.5276H14.6461L14.6757 20.3555L14.8693 19.7666H15.0764L14.6999 20.7804H14.5601L14.1836 19.7666H14.4122L14.6112 20.3582Z" fill="white"/>
<path d="M15.168 19.7666H15.3643V20.7724H15.168V19.7666Z" fill="white"/>
<path d="M15.8099 20.2482L15.7319 20.0896H15.7239L15.7481 20.2482V20.7726H15.5625V19.7588H15.705L16.0869 20.2966L16.1622 20.4499H16.1703L16.1487 20.2966V19.7669H16.3343V20.7807H16.1918L15.8099 20.2482Z" fill="white"/>
<path d="M16.856 20.2482H17.2325V20.6973C17.1921 20.7296 17.1437 20.7538 17.0873 20.7699C17.0308 20.7861 16.9743 20.7941 16.9205 20.7941C16.856 20.7941 16.7968 20.7834 16.7404 20.7646C16.6839 20.7457 16.6382 20.7135 16.5978 20.6704C16.5575 20.6274 16.5252 20.5736 16.5037 20.5064C16.4795 20.4392 16.4688 20.3612 16.4688 20.2697C16.4688 20.1756 16.4822 20.095 16.5091 20.0277C16.536 19.9605 16.5736 19.9067 16.6167 19.8664C16.6624 19.826 16.7108 19.7938 16.7672 19.7749C16.8237 19.7561 16.8802 19.748 16.9367 19.748C16.9931 19.748 17.0442 19.7534 17.0873 19.7615C17.1303 19.7696 17.1652 19.7803 17.1921 19.7884L17.1518 19.9524C17.1276 19.9444 17.1007 19.9363 17.0711 19.9309C17.0415 19.9255 17.0039 19.9228 16.9582 19.9228C16.9178 19.9228 16.8802 19.9282 16.8452 19.9417C16.8103 19.9551 16.7807 19.9739 16.7565 20.0035C16.7296 20.0304 16.7108 20.0681 16.6973 20.1111C16.6839 20.1541 16.6758 20.2079 16.6758 20.2724C16.6758 20.3343 16.6812 20.3854 16.6973 20.4284C16.7108 20.4714 16.7296 20.5091 16.7538 20.536C16.778 20.5629 16.8049 20.5844 16.8372 20.5978C16.8694 20.6113 16.9044 20.6193 16.9394 20.6193C16.9636 20.6193 16.9878 20.6167 17.012 20.6113C17.0362 20.6059 17.055 20.5951 17.0711 20.5844V20.3935L16.8533 20.3692V20.2482H16.856Z" fill="white"/>
<path d="M17.7422 19.7769C17.7637 19.7742 17.7879 19.7688 17.8148 19.7661C17.839 19.7634 17.8659 19.7608 17.8901 19.7581C17.9143 19.7554 17.9412 19.7554 17.9654 19.7527C17.9896 19.7527 18.0111 19.75 18.0326 19.75C18.0783 19.75 18.1267 19.7554 18.1725 19.7634C18.2182 19.7715 18.2585 19.7876 18.2935 19.8092C18.3284 19.8307 18.358 19.8603 18.3795 19.8952C18.401 19.9329 18.4118 19.9786 18.4118 20.0351C18.4118 20.1184 18.393 20.1856 18.3553 20.2367C18.3177 20.2878 18.2666 20.3255 18.202 20.3443L18.272 20.39L18.5032 20.7746H18.2746L18.0461 20.3793L17.9439 20.3604V20.7719H17.7476V19.7769H17.7422ZM18.0434 19.9275C18.0219 19.9275 18.003 19.9275 17.9842 19.9275C17.9654 19.9275 17.9493 19.9302 17.9385 19.9329V20.226H18.0219C18.0756 20.226 18.1214 20.2125 18.1536 20.1883C18.1859 20.1641 18.202 20.1211 18.202 20.0646C18.202 20.0216 18.1886 19.9866 18.1617 19.9624C18.1348 19.9409 18.0972 19.9275 18.0434 19.9275Z" fill="white"/>
<path d="M18.5156 20.2695C18.5156 20.1028 18.5533 19.9737 18.6259 19.8823C18.6985 19.7908 18.8061 19.7451 18.9432 19.7451C19.0158 19.7451 19.0777 19.7586 19.1314 19.7828C19.1852 19.807 19.2309 19.8419 19.2659 19.8903C19.3009 19.936 19.3278 19.9925 19.3439 20.0571C19.36 20.1216 19.3708 20.1942 19.3708 20.2722C19.3708 20.4389 19.3331 20.568 19.2605 20.6594C19.1852 20.7509 19.0804 20.7966 18.9459 20.7966C18.8733 20.7966 18.8087 20.7831 18.7577 20.7589C18.7039 20.7347 18.6582 20.6998 18.6232 20.6514C18.5882 20.6057 18.5613 20.5492 18.5452 20.4846C18.5237 20.4201 18.5156 20.3475 18.5156 20.2695ZM18.7227 20.2695C18.7227 20.3206 18.7281 20.3663 18.7361 20.4093C18.7442 20.4524 18.7577 20.4873 18.7765 20.5196C18.7953 20.5492 18.8168 20.5734 18.8437 20.5922C18.8706 20.6083 18.9056 20.6191 18.9432 20.6191C19.0131 20.6191 19.0669 20.5922 19.1046 20.5357C19.1422 20.482 19.161 20.3932 19.161 20.2695C19.161 20.2211 19.1583 20.1754 19.1476 20.1324C19.1395 20.0893 19.1261 20.0544 19.1099 20.0221C19.0938 19.9898 19.0696 19.9656 19.0427 19.9495C19.0158 19.9307 18.9809 19.9226 18.9405 19.9226C18.8706 19.9226 18.8168 19.9495 18.7792 20.006C18.7415 20.0624 18.7227 20.1512 18.7227 20.2695Z" fill="white"/>
<path d="M19.4766 20.2695C19.4766 20.1028 19.5142 19.9737 19.5868 19.8823C19.6594 19.7908 19.767 19.7451 19.9041 19.7451C19.9767 19.7451 20.0386 19.7586 20.0924 19.7828C20.1462 19.807 20.1919 19.8419 20.2268 19.8903C20.2618 19.936 20.2887 19.9925 20.3048 20.0571C20.321 20.1216 20.3317 20.1942 20.3317 20.2722C20.3317 20.4389 20.2941 20.568 20.2215 20.6594C20.1462 20.7509 20.0413 20.7966 19.9068 20.7966C19.8342 20.7966 19.7697 20.7831 19.7159 20.7589C19.6621 20.7347 19.6164 20.6998 19.5814 20.6514C19.5465 20.6057 19.5196 20.5492 19.5035 20.4846C19.4846 20.4201 19.4766 20.3475 19.4766 20.2695ZM19.6836 20.2695C19.6836 20.3206 19.689 20.3663 19.6971 20.4093C19.7051 20.4524 19.7186 20.4873 19.7374 20.5196C19.7562 20.5492 19.7778 20.5734 19.8046 20.5922C19.8315 20.6083 19.8665 20.6191 19.9041 20.6191C19.9741 20.6191 20.0278 20.5922 20.0655 20.5357C20.1031 20.482 20.122 20.3932 20.122 20.2695C20.122 20.2211 20.1193 20.1754 20.1085 20.1324C20.1005 20.0893 20.087 20.0544 20.0709 20.0221C20.0547 19.9898 20.0305 19.9656 20.0036 19.9495C19.9767 19.9307 19.9418 19.9226 19.9015 19.9226C19.8315 19.9226 19.7778 19.9495 19.7401 20.006C19.7025 20.0624 19.6836 20.1512 19.6836 20.2695Z" fill="white"/>
<path d="M21.2513 20.2511L21.2728 20.0521H21.2647L21.2029 20.2135L20.9878 20.59H20.9232L20.6973 20.2135L20.6328 20.0548H20.6247L20.6543 20.2538V20.7782H20.4688V19.7725H20.6489L20.9178 20.2323L20.9662 20.3479H20.9716L21.0147 20.2296L21.2701 19.7725H21.4476V20.7782H21.2513V20.2511Z" fill="white"/>
<path d="M25.9094 11.535C25.9094 11.5592 25.9067 11.5834 25.9013 11.6103C25.8959 11.6345 25.8852 11.6587 25.8717 11.6775C25.8583 11.699 25.8394 11.7152 25.8152 11.7313C25.7937 11.7475 25.7641 11.7582 25.7319 11.7663V11.7743C25.7615 11.7797 25.7883 11.7878 25.8152 11.7985C25.8421 11.8093 25.8636 11.8254 25.8825 11.847C25.9013 11.8685 25.9174 11.89 25.9282 11.9196C25.9389 11.9491 25.9443 11.9814 25.9443 12.0218C25.9443 12.0728 25.9336 12.1186 25.912 12.1562C25.8905 12.1939 25.861 12.2261 25.8233 12.2476C25.7857 12.2718 25.7453 12.288 25.6969 12.3014C25.6512 12.3122 25.6028 12.3176 25.5517 12.3176C25.5356 12.3176 25.5141 12.3176 25.4898 12.3176C25.463 12.3176 25.4361 12.3176 25.4065 12.3149C25.3769 12.3122 25.3473 12.3122 25.3177 12.3095C25.2882 12.3068 25.2613 12.3014 25.2344 12.296V11.3037C25.2532 11.3011 25.2747 11.2984 25.2962 11.2957C25.3204 11.293 25.3446 11.2903 25.3715 11.2876C25.3984 11.2849 25.4253 11.2849 25.4549 11.2822C25.4845 11.2822 25.5114 11.2822 25.5383 11.2822C25.584 11.2822 25.6324 11.2849 25.6754 11.293C25.7211 11.3011 25.7588 11.3118 25.7937 11.3306C25.8287 11.3495 25.8583 11.3737 25.8771 11.4059C25.8959 11.4382 25.9094 11.4866 25.9094 11.535ZM25.5517 12.1589C25.5759 12.1589 25.6001 12.1562 25.6216 12.1508C25.6431 12.1455 25.6646 12.1374 25.6808 12.1239C25.6969 12.1105 25.7104 12.097 25.7211 12.0782C25.7319 12.0594 25.7373 12.0379 25.7373 12.0137C25.7373 11.9814 25.7319 11.9572 25.7184 11.9384C25.705 11.9196 25.6888 11.9061 25.67 11.8954C25.6512 11.8846 25.627 11.8792 25.6028 11.8765C25.5786 11.8738 25.5544 11.8712 25.5275 11.8712H25.4226V12.1481C25.428 12.1508 25.4361 12.1508 25.4468 12.1535C25.4576 12.1535 25.4683 12.1562 25.4818 12.1562C25.4925 12.1562 25.506 12.1562 25.5194 12.1589C25.5302 12.1589 25.5409 12.1589 25.5517 12.1589ZM25.4872 11.7233C25.5006 11.7233 25.5167 11.7233 25.5329 11.7206C25.5517 11.7206 25.5651 11.7179 25.5759 11.7152C25.6136 11.7044 25.6431 11.6856 25.67 11.6641C25.6969 11.6399 25.7104 11.6103 25.7104 11.5727C25.7104 11.5485 25.705 11.5269 25.6969 11.5108C25.6888 11.4947 25.6754 11.4812 25.6593 11.4705C25.6431 11.4624 25.6243 11.4543 25.6055 11.4516C25.584 11.449 25.5651 11.4463 25.5409 11.4463C25.5167 11.4463 25.4925 11.4463 25.471 11.449C25.4495 11.449 25.4334 11.4516 25.4226 11.4543V11.7233H25.4872Z" fill="white"/>
<path d="M26.0847 11.3008H26.6817V11.4756H26.281V11.7095H26.6441V11.8843H26.281V12.129H26.6871V12.3038H26.082V11.3008H26.0847Z" fill="white"/>
<path d="M26.8335 11.3013C26.8523 11.2986 26.8765 11.2959 26.9007 11.2932C26.9249 11.2905 26.9518 11.2905 26.9787 11.2878C27.0056 11.2878 27.0325 11.2852 27.0567 11.2852C27.0836 11.2852 27.1051 11.2852 27.1239 11.2852C27.2127 11.2852 27.2907 11.2986 27.3525 11.3228C27.4171 11.347 27.4682 11.382 27.5058 11.4277C27.5461 11.4734 27.573 11.5272 27.5919 11.589C27.6107 11.6509 27.6187 11.7208 27.6187 11.7934C27.6187 11.8606 27.6107 11.9279 27.5919 11.9897C27.573 12.0543 27.5461 12.108 27.5058 12.1591C27.4655 12.2075 27.4117 12.2479 27.3471 12.2775C27.2826 12.307 27.1992 12.3232 27.1024 12.3232C27.0863 12.3232 27.0675 12.3232 27.0406 12.3205C27.0137 12.3205 26.9895 12.3178 26.9626 12.3178C26.9357 12.3151 26.9088 12.3151 26.8846 12.3124C26.8604 12.3097 26.8416 12.3097 26.8281 12.307V11.3013H26.8335ZM27.1428 11.4626C27.1212 11.4626 27.0997 11.4626 27.0782 11.4653C27.0567 11.4653 27.0406 11.468 27.0298 11.4707V12.1457C27.0325 12.1457 27.0406 12.1484 27.0486 12.1484C27.0567 12.1484 27.0675 12.1484 27.0782 12.1511C27.089 12.1511 27.0997 12.1511 27.1078 12.1511C27.1186 12.1511 27.1239 12.1511 27.1293 12.1511C27.1858 12.1511 27.2315 12.1403 27.2692 12.1215C27.3068 12.1027 27.3364 12.0758 27.3579 12.0435C27.3794 12.0112 27.3955 11.9736 27.4036 11.9306C27.4117 11.8875 27.4171 11.8445 27.4171 11.7988C27.4171 11.7585 27.4144 11.7208 27.4063 11.6805C27.3982 11.6401 27.3848 11.6052 27.3633 11.5729C27.3418 11.5406 27.3149 11.5164 27.2799 11.4949C27.2423 11.4734 27.1965 11.4626 27.1428 11.4626Z" fill="white"/>
<path d="M27.7656 11.3113C27.7871 11.3086 27.8113 11.3032 27.8355 11.3006C27.8597 11.2979 27.8866 11.2952 27.9108 11.2925C27.935 11.2898 27.9619 11.2898 27.9861 11.2871C28.0103 11.2871 28.0319 11.2871 28.0534 11.2871C28.0991 11.2871 28.1475 11.2898 28.1932 11.3006C28.2389 11.3086 28.2793 11.3248 28.3169 11.3463C28.3519 11.3678 28.3814 11.3974 28.403 11.4323C28.4245 11.47 28.4352 11.5157 28.4352 11.5722C28.4352 11.6555 28.4164 11.7228 28.3788 11.7739C28.3411 11.8249 28.29 11.8626 28.2255 11.8814L28.2954 11.9271L28.5267 12.3117H28.3008L28.0722 11.9164L27.9673 11.8976V12.309H27.771V11.3113H27.7656ZM28.0668 11.4619C28.0453 11.4619 28.0265 11.4619 28.0077 11.4646C27.9888 11.4646 27.9727 11.4673 27.9619 11.47V11.7631H28.0453C28.0991 11.7631 28.1421 11.7496 28.1771 11.7254C28.2093 11.7012 28.2255 11.6582 28.2255 11.6017C28.2255 11.5587 28.212 11.5238 28.1851 11.4996C28.1582 11.4754 28.1206 11.4619 28.0668 11.4619Z" fill="white"/>
<path d="M28.5391 11.8037C28.5391 11.637 28.5767 11.5079 28.6493 11.4164C28.7246 11.325 28.8295 11.2793 28.9666 11.2793C29.0392 11.2793 29.1011 11.2927 29.1549 11.3169C29.2087 11.3411 29.2517 11.3788 29.2893 11.4245C29.3243 11.4702 29.3512 11.5267 29.3673 11.5912C29.3835 11.6558 29.3942 11.7257 29.3942 11.8064C29.3942 11.9758 29.3566 12.1022 29.2813 12.1936C29.206 12.285 29.1011 12.3308 28.9666 12.3308C28.894 12.3308 28.8295 12.3173 28.7757 12.2931C28.7219 12.2689 28.6789 12.234 28.6413 12.1856C28.6063 12.1398 28.5794 12.0834 28.5633 12.0188C28.5471 11.9543 28.5391 11.8817 28.5391 11.8037ZM28.7461 11.8037C28.7461 11.8548 28.7515 11.9005 28.7596 11.9435C28.7676 11.9866 28.7811 12.0215 28.7999 12.0538C28.8187 12.0834 28.8402 12.1076 28.8671 12.1264C28.894 12.1425 28.929 12.1533 28.9666 12.1533C29.0366 12.1533 29.0903 12.1264 29.128 12.0726C29.1656 12.0188 29.1845 11.9301 29.1845 11.8064C29.1845 11.758 29.1791 11.7123 29.171 11.6692C29.163 11.6262 29.1495 11.5886 29.1334 11.559C29.1172 11.5267 29.093 11.5025 29.0661 11.4837C29.0392 11.4649 29.0043 11.4568 28.964 11.4568C28.894 11.4568 28.8402 11.4837 28.7999 11.5401C28.765 11.5966 28.7461 11.6854 28.7461 11.8037Z" fill="white"/>
<path d="M29.5 11.8037C29.5 11.637 29.5376 11.5079 29.6103 11.4164C29.6856 11.325 29.7904 11.2793 29.9276 11.2793C30.0002 11.2793 30.062 11.2927 30.1158 11.3169C30.1696 11.3411 30.2126 11.3788 30.2503 11.4245C30.2852 11.4702 30.3121 11.5267 30.3283 11.5912C30.3471 11.6558 30.3552 11.7257 30.3552 11.8064C30.3552 11.9758 30.3175 12.1022 30.2422 12.1936C30.1669 12.285 30.062 12.3308 29.9276 12.3308C29.855 12.3308 29.7904 12.3173 29.7366 12.2931C29.6829 12.2689 29.6398 12.234 29.6022 12.1856C29.5672 12.1398 29.5403 12.0834 29.5242 12.0188C29.5081 11.9543 29.5 11.8817 29.5 11.8037ZM29.7071 11.8037C29.7071 11.8548 29.7124 11.9005 29.7205 11.9435C29.7286 11.9866 29.742 12.0215 29.7609 12.0538C29.7797 12.0834 29.8012 12.1076 29.8281 12.1264C29.855 12.1425 29.8899 12.1533 29.9276 12.1533C29.9975 12.1533 30.0513 12.1264 30.0889 12.0726C30.1266 12.0188 30.1454 11.9301 30.1454 11.8064C30.1454 11.758 30.14 11.7123 30.132 11.6692C30.1239 11.6262 30.1104 11.5886 30.0943 11.559C30.0782 11.5267 30.054 11.5025 30.0271 11.4837C30.0002 11.4649 29.9652 11.4568 29.9249 11.4568C29.855 11.4568 29.8012 11.4837 29.7635 11.5401C29.7259 11.5966 29.7071 11.6854 29.7071 11.8037Z" fill="white"/>
<path d="M31.2747 11.7843L31.2963 11.5853H31.2882L31.2263 11.7467L31.0112 12.1232H30.9467L30.7208 11.7467L30.6562 11.588H30.6482L30.6777 11.787V12.3114H30.4922V11.3057H30.6724L30.9413 11.7655L30.9897 11.8811H30.9951L31.0381 11.7628L31.2936 11.3057H31.471V12.3114H31.2747V11.7843Z" fill="white"/>
<path d="M29.474 29.5198H29.4229V29.9501H29.2266V28.9443H29.4229V29.3907L29.4686 29.3719L29.7456 28.947H29.9688L29.6757 29.3692L29.5977 29.423L29.6783 29.4795L30.0145 29.9528H29.7725L29.474 29.5198Z" fill="white"/>
<path d="M30.1406 28.9443H30.3369V29.9501H30.1406V28.9443Z" fill="white"/>
<path d="M31.2462 29.1191H30.9531V29.9501H30.7567V29.1191H30.4609V28.9443H31.2462V29.1191V29.1191Z" fill="white"/>
<path d="M31.9575 29.91C31.9279 29.9315 31.8876 29.9477 31.8392 29.9584C31.7908 29.9692 31.7424 29.9719 31.694 29.9719C31.6321 29.9719 31.5756 29.9611 31.5219 29.945C31.4681 29.9262 31.4197 29.8966 31.3793 29.8535C31.339 29.8132 31.304 29.7567 31.2798 29.6922C31.2556 29.625 31.2422 29.5443 31.2422 29.4502C31.2422 29.3507 31.2556 29.2673 31.2825 29.2028C31.3094 29.1355 31.3444 29.0818 31.3901 29.0414C31.4331 29.0011 31.4815 28.9715 31.5353 28.9527C31.5891 28.9338 31.6429 28.9258 31.6967 28.9258C31.7531 28.9258 31.8015 28.9285 31.8419 28.9365C31.8822 28.9446 31.9145 28.9527 31.9414 28.9634L31.9037 29.1302C31.8822 29.1194 31.8553 29.1113 31.8257 29.106C31.7962 29.1006 31.7585 29.0979 31.7155 29.0979C31.6348 29.0979 31.573 29.1275 31.5246 29.1839C31.4761 29.2404 31.4519 29.3292 31.4519 29.4475C31.4519 29.4986 31.4573 29.547 31.4681 29.59C31.4788 29.633 31.4977 29.668 31.5192 29.7003C31.5434 29.7298 31.573 29.754 31.6079 29.7702C31.6429 29.7863 31.6832 29.7944 31.7289 29.7944C31.772 29.7944 31.8096 29.789 31.8392 29.7809C31.8688 29.7729 31.8957 29.7621 31.9172 29.7487L31.9575 29.91Z" fill="white"/>
<path d="M32.6429 29.5308H32.2744V29.953H32.0781V28.9473H32.2744V29.356H32.6429V28.9473H32.8392V29.953H32.6429V29.5308Z" fill="white"/>
<path d="M33.0144 28.9443H33.6114V29.1191H33.2107V29.3531H33.5738V29.5279H33.2107V29.7726H33.6168V29.9474H33.0117V28.9443H33.0144Z" fill="white"/>
<path d="M34.0169 29.426L33.9389 29.2673H33.9309L33.9551 29.426V29.9503H33.7695V28.9365H33.9121L34.2939 29.4744L34.3692 29.6276H34.3773L34.3531 29.4744V28.9446H34.5386V29.9584H34.3961L34.0169 29.426Z" fill="white"/>
<path d="M12.8973 8.27831H12.6015V9.10927H12.4052V8.27831H12.1094V8.10352H12.8973V8.27831Z" fill="white"/>
<path d="M12.9949 8.10352H13.5919V8.27831H13.1912V8.51227H13.5542V8.68707H13.1912V8.93178H13.5973V9.10658H12.9922V8.10352H12.9949Z" fill="white"/>
<path d="M13.75 8.11381C13.7715 8.10843 13.7957 8.10574 13.8199 8.10305C13.8441 8.10036 13.871 8.09767 13.8952 8.09498C13.9194 8.09229 13.9463 8.09229 13.9705 8.0896C13.9947 8.0896 14.0162 8.08691 14.0377 8.08691C14.0835 8.08691 14.1319 8.09229 14.1776 8.10036C14.2233 8.10843 14.2636 8.12456 14.2986 8.14608C14.3336 8.16759 14.3631 8.19717 14.3846 8.23213C14.4062 8.26978 14.4169 8.31549 14.4169 8.37197C14.4169 8.45533 14.3981 8.52256 14.3604 8.57366C14.3228 8.62475 14.2717 8.6624 14.2072 8.68122L14.2771 8.72694L14.5083 9.11149H14.2825L14.0539 8.71618L13.949 8.69736V9.1088H13.7527V8.11381H13.75ZM14.0512 8.2644C14.0324 8.2644 14.0109 8.2644 13.992 8.2644C13.9732 8.2644 13.9571 8.26709 13.9463 8.26978V8.5629H14.0297C14.0835 8.5629 14.1292 8.54945 14.1614 8.52525C14.1937 8.50105 14.2098 8.45802 14.2098 8.40155C14.2098 8.35852 14.1964 8.32356 14.1695 8.29936C14.1426 8.27516 14.1023 8.2644 14.0512 8.2644Z" fill="white"/>
<path d="M14.6172 8.11381C14.6387 8.10843 14.6629 8.10574 14.6871 8.10305C14.7113 8.10036 14.7382 8.09767 14.7624 8.09498C14.7866 8.09229 14.8135 8.09229 14.8377 8.0896C14.8619 8.0896 14.8834 8.08691 14.9049 8.08691C14.9506 8.08691 14.9991 8.09229 15.0448 8.10036C15.0905 8.10843 15.1308 8.12456 15.1658 8.14608C15.2007 8.16759 15.2303 8.19717 15.2518 8.23213C15.2733 8.26978 15.2841 8.31549 15.2841 8.37197C15.2841 8.45533 15.2653 8.52256 15.2276 8.57366C15.19 8.62475 15.1389 8.6624 15.0743 8.68122L15.1443 8.72694L15.3755 9.11149H15.147L14.9184 8.71618L14.8135 8.69736V9.1088H14.6172V8.11381V8.11381ZM14.9184 8.2644C14.8969 8.2644 14.878 8.2644 14.8592 8.2644C14.8404 8.2644 14.8243 8.26709 14.8135 8.26978V8.5629H14.8969C14.9506 8.5629 14.9964 8.54945 15.0286 8.52525C15.0609 8.50105 15.077 8.45802 15.077 8.40155C15.077 8.35852 15.0636 8.32356 15.0367 8.29936C15.0098 8.27516 14.9695 8.2644 14.9184 8.2644Z" fill="white"/>
<path d="M15.9402 8.88535H15.631L15.5557 9.10855H15.3594L15.7224 8.09473H15.8676L16.2307 9.10855H16.0236L15.9402 8.88535ZM15.6821 8.72668H15.8972L15.8219 8.50348L15.7923 8.34482H15.7843L15.7547 8.50348L15.6821 8.72668Z" fill="white"/>
<path d="M16.9575 9.06872C16.9279 9.09023 16.8876 9.10637 16.8392 9.11712C16.7908 9.12788 16.7424 9.13057 16.694 9.13057C16.6348 9.13057 16.5756 9.1225 16.5219 9.10099C16.4681 9.08217 16.4197 9.05258 16.3793 9.00956C16.339 8.96653 16.3067 8.91275 16.2798 8.84552C16.2556 8.77829 16.2422 8.69761 16.2422 8.60349C16.2422 8.50399 16.2556 8.42332 16.2825 8.35609C16.3094 8.28886 16.3444 8.23507 16.3901 8.19474C16.4331 8.1544 16.4815 8.12482 16.5353 8.10599C16.5891 8.08717 16.6429 8.0791 16.6967 8.0791C16.7531 8.0791 16.8042 8.08179 16.8419 8.08986C16.8822 8.09793 16.9145 8.10599 16.9414 8.11675L16.9037 8.28348C16.8822 8.27272 16.8553 8.26465 16.8257 8.25928C16.7962 8.2539 16.7585 8.25121 16.7155 8.25121C16.6348 8.25121 16.573 8.28079 16.5246 8.33726C16.4761 8.39374 16.4519 8.48248 16.4519 8.6008C16.4519 8.6519 16.4573 8.7003 16.4681 8.74333C16.4788 8.78636 16.4977 8.824 16.5192 8.85358C16.5434 8.88317 16.573 8.90737 16.6079 8.9235C16.6429 8.93964 16.6832 8.94771 16.7289 8.94771C16.772 8.94771 16.8096 8.94233 16.8392 8.93426C16.8688 8.92619 16.8957 8.91544 16.9172 8.90199L16.9575 9.06872Z" fill="white"/>
<path d="M17.0808 8.10352H17.6778V8.27831H17.2771V8.51227H17.6402V8.68707H17.2771V8.93178H17.6832V9.10658H17.0781V8.10352H17.0808Z" fill="white"/>
<path d="M9.0114 35.1075C9.0114 35.0779 9.00064 35.051 8.97644 35.0322C8.95492 35.0133 8.92534 34.9945 8.89038 34.9811C8.85542 34.9649 8.82046 34.9488 8.78013 34.9327C8.73979 34.9165 8.70483 34.895 8.66987 34.8708C8.63491 34.8466 8.60802 34.817 8.58382 34.7794C8.5623 34.7417 8.54886 34.696 8.54886 34.6395C8.54886 34.5911 8.55692 34.5481 8.57306 34.5132C8.58919 34.4782 8.6134 34.4486 8.64298 34.4244C8.67256 34.4002 8.70752 34.3841 8.75055 34.3706C8.79088 34.3599 8.8366 34.3545 8.88769 34.3545C8.94686 34.3545 9.00064 34.3599 9.05173 34.3706C9.10283 34.3814 9.14585 34.3948 9.18081 34.4137L9.11896 34.5777C9.09745 34.5642 9.06518 34.5508 9.02484 34.54C8.98182 34.5293 8.9361 34.5239 8.88769 34.5239C8.84198 34.5239 8.80702 34.532 8.78282 34.5508C8.75861 34.5696 8.74517 34.5938 8.74517 34.6234C8.74517 34.653 8.75592 34.6772 8.78013 34.696C8.80433 34.7148 8.83122 34.7337 8.86618 34.7498C8.90114 34.7659 8.9361 34.7821 8.97644 34.8009C9.01677 34.8197 9.05173 34.8385 9.08669 34.8627C9.12165 34.8869 9.14854 34.9165 9.17275 34.9542C9.19426 34.9891 9.20771 35.0349 9.20771 35.0886C9.20771 35.1424 9.19964 35.1881 9.18081 35.2285C9.16199 35.2688 9.13779 35.2984 9.10552 35.3253C9.07325 35.3522 9.0356 35.371 8.98988 35.3818C8.94417 35.3952 8.89307 35.4006 8.83929 35.4006C8.76668 35.4006 8.70483 35.3925 8.64836 35.3791C8.59457 35.3656 8.55424 35.3522 8.52734 35.3387L8.58919 35.1693C8.59995 35.1747 8.6134 35.1801 8.62953 35.1881C8.64567 35.1935 8.66449 35.2016 8.68601 35.207C8.70752 35.2123 8.72903 35.2177 8.75323 35.2204C8.77744 35.2231 8.80164 35.2258 8.82584 35.2258C8.885 35.2258 8.92803 35.215 8.9603 35.1962C8.99526 35.1774 9.0114 35.1478 9.0114 35.1075Z" fill="white"/>
<path d="M9.90457 34.9576H9.53615V35.3798H9.33984V34.374H9.53615V34.7828H9.90457V34.374H10.1009V35.3798H9.90457V34.9576Z" fill="white"/>
<path d="M10.2422 34.874C10.2422 34.7073 10.2798 34.5755 10.3524 34.4868C10.4251 34.3953 10.5326 34.3496 10.6698 34.3496C10.7424 34.3496 10.8042 34.3631 10.858 34.3873C10.9118 34.4115 10.9575 34.4464 10.9925 34.4948C11.0274 34.5405 11.0543 34.597 11.0705 34.6589C11.0893 34.7234 11.0973 34.7933 11.0973 34.874C11.0973 35.0407 11.0597 35.1698 10.9871 35.2612C10.9118 35.3527 10.8069 35.3984 10.6725 35.3984C10.5998 35.3984 10.5353 35.3849 10.4815 35.3607C10.4277 35.3365 10.3847 35.2989 10.3498 35.2532C10.3148 35.2075 10.2879 35.151 10.2718 35.0891C10.2556 35.0273 10.2422 34.952 10.2422 34.874ZM10.4493 34.874C10.4493 34.9251 10.4546 34.9708 10.4627 35.0138C10.4708 35.0569 10.4842 35.0918 10.503 35.1241C10.5219 35.1564 10.5434 35.1779 10.5703 35.1967C10.5972 35.2128 10.6321 35.2236 10.6698 35.2236C10.7397 35.2236 10.7935 35.1967 10.8311 35.1402C10.8688 35.0864 10.8876 34.9977 10.8876 34.874C10.8876 34.8256 10.8849 34.7799 10.8741 34.7369C10.8661 34.6938 10.8526 34.6589 10.8365 34.6266C10.8204 34.5943 10.7962 34.5701 10.7693 34.5513C10.7424 34.5325 10.7074 34.5244 10.6671 34.5244C10.5972 34.5244 10.5434 34.5513 10.5057 34.6078C10.4681 34.6669 10.4493 34.753 10.4493 34.874Z" fill="white"/>
<path d="M11.4707 34.9331L11.4895 35.1106H11.4949L11.5137 34.9304L11.6885 34.3711H11.8176L11.9897 34.9331L12.0085 35.1106H12.0139L12.0354 34.9304L12.1591 34.3711H12.3608L12.0838 35.3849H11.952L11.7719 34.8256L11.7477 34.6723H11.7396L11.7154 34.8283L11.5379 35.3849H11.3981L11.1211 34.3711H11.3362L11.4707 34.9331Z" fill="white"/>
<path d="M12.448 34.3711H13.045V34.5459H12.6443V34.7798H13.0074V34.9546H12.6443V35.1994H13.0504V35.3742H12.4453V34.3711H12.448Z" fill="white"/>
<path d="M13.1992 34.3816C13.2207 34.3789 13.2449 34.3736 13.2691 34.3709C13.2933 34.3682 13.3202 34.3655 13.3444 34.3628C13.3686 34.3601 13.3955 34.3601 13.417 34.3601C13.4412 34.3601 13.4628 34.3574 13.4843 34.3574C13.53 34.3574 13.5784 34.3628 13.6241 34.3709C13.6698 34.3789 13.7102 34.3951 13.7451 34.4166C13.7801 34.4381 13.8097 34.4677 13.8312 34.5026C13.8527 34.5403 13.8634 34.586 13.8634 34.6425C13.8634 34.7258 13.8446 34.7931 13.807 34.8442C13.7693 34.8953 13.7182 34.9329 13.6537 34.9517L13.7236 34.9974L13.9549 35.382H13.729L13.5004 34.9894L13.3955 34.9706V35.382H13.1992V34.3816ZM13.5031 34.5322C13.4816 34.5322 13.4628 34.5322 13.4439 34.5322C13.4251 34.5322 13.409 34.5349 13.3982 34.5376V34.8307H13.4816C13.5354 34.8307 13.5811 34.8173 13.6134 34.7931C13.6456 34.7689 13.6618 34.7258 13.6618 34.6694C13.6618 34.6263 13.6483 34.5914 13.6214 34.5672C13.5945 34.543 13.5542 34.5322 13.5031 34.5322Z" fill="white"/>
<path d="M9.37891 36.243C9.40042 36.2403 9.42462 36.2349 9.45151 36.2322C9.47572 36.2295 9.50261 36.2268 9.52681 36.2241C9.55101 36.2214 9.57791 36.2214 9.60211 36.2214C9.62631 36.2214 9.64782 36.2188 9.66934 36.2188C9.71774 36.2188 9.76346 36.2214 9.80917 36.2322C9.85489 36.2403 9.89523 36.2564 9.93288 36.2779C9.96784 36.2994 9.99742 36.329 10.0189 36.364C10.0404 36.3989 10.0512 36.4473 10.0512 36.5038C10.0512 36.5872 10.0324 36.6544 9.99473 36.7055C9.95708 36.7566 9.90599 36.7942 9.84145 36.8131L9.91136 36.8588L10.1426 37.2433H9.91405L9.68547 36.848L9.58059 36.8292V37.2433H9.38428V36.243H9.37891ZM9.68278 36.3935C9.66127 36.3935 9.64245 36.3935 9.62362 36.3962C9.6048 36.3962 9.58866 36.3989 9.57791 36.4016V36.6947H9.66127C9.71505 36.6947 9.76077 36.6813 9.79304 36.6571C9.82531 36.6329 9.84145 36.5925 9.84145 36.5334C9.84145 36.4904 9.828 36.4554 9.80111 36.4312C9.77422 36.4043 9.73388 36.3935 9.68278 36.3935Z" fill="white"/>
<path d="M10.1484 36.7353C10.1484 36.5686 10.1861 36.4368 10.2587 36.3481C10.3313 36.2567 10.4389 36.2109 10.576 36.2109C10.6486 36.2109 10.7105 36.2244 10.7643 36.2486C10.818 36.2728 10.8638 36.3077 10.8987 36.3562C10.9337 36.4046 10.9606 36.4583 10.9767 36.5202C10.9928 36.5847 11.0036 36.6573 11.0036 36.7353C11.0036 36.9021 10.9659 37.0311 10.8933 37.1226C10.818 37.214 10.7132 37.2597 10.576 37.2597C10.5034 37.2597 10.4389 37.2463 10.3878 37.2221C10.334 37.1979 10.291 37.1629 10.256 37.1145C10.221 37.0688 10.1942 37.0123 10.178 36.9505C10.1619 36.8886 10.1484 36.8133 10.1484 36.7353ZM10.3555 36.7353C10.3555 36.7864 10.3609 36.8321 10.369 36.8752C10.377 36.9182 10.3905 36.9558 10.4093 36.9854C10.4281 37.015 10.4496 37.0392 10.4765 37.058C10.5034 37.0742 10.5384 37.0849 10.576 37.0849C10.6459 37.0849 10.6997 37.058 10.7401 37.0016C10.7777 36.9478 10.7965 36.859 10.7965 36.7353C10.7965 36.6869 10.7938 36.6412 10.7831 36.5982C10.775 36.5552 10.7616 36.5202 10.7454 36.4879C10.7293 36.4557 10.7051 36.4315 10.6782 36.4126C10.6513 36.3938 10.6164 36.3857 10.576 36.3857C10.5061 36.3857 10.4523 36.4126 10.4147 36.4691C10.3743 36.5283 10.3555 36.6143 10.3555 36.7353Z" fill="white"/>
<path d="M11.1133 36.7353C11.1133 36.5686 11.1509 36.4368 11.2235 36.3481C11.2961 36.2567 11.4037 36.2109 11.5409 36.2109C11.6135 36.2109 11.6753 36.2244 11.7291 36.2486C11.7829 36.2728 11.8286 36.3077 11.8636 36.3562C11.8985 36.4019 11.9254 36.4583 11.9415 36.5202C11.9577 36.5847 11.9684 36.6573 11.9684 36.7353C11.9684 36.9021 11.9308 37.0311 11.8582 37.1226C11.7829 37.214 11.678 37.2597 11.5409 37.2597C11.4683 37.2597 11.4037 37.2463 11.3526 37.2221C11.2988 37.1979 11.2558 37.1629 11.2208 37.1145C11.1859 37.0688 11.159 37.0123 11.1429 36.9505C11.124 36.8859 11.1133 36.8133 11.1133 36.7353ZM11.323 36.7353C11.323 36.7864 11.3284 36.8321 11.3365 36.8752C11.3446 36.9182 11.358 36.9558 11.3768 36.9854C11.3956 37.015 11.4172 37.0392 11.4441 37.058C11.4709 37.0742 11.5059 37.0849 11.5435 37.0849C11.6135 37.0849 11.6673 37.058 11.7049 37.0016C11.7425 36.9478 11.7614 36.859 11.7614 36.7353C11.7614 36.6869 11.7587 36.6412 11.7479 36.5982C11.7399 36.5552 11.7264 36.5202 11.7103 36.4879C11.6941 36.4557 11.6699 36.4315 11.643 36.4126C11.6162 36.3938 11.5812 36.3857 11.5409 36.3857C11.4709 36.3857 11.4172 36.4126 11.3795 36.4691C11.3419 36.5283 11.323 36.6143 11.323 36.7353Z" fill="white"/>
<path d="M12.8919 36.717L12.9134 36.518H12.9054L12.8435 36.6793L12.6284 37.0558H12.5638L12.338 36.6793L12.2734 36.5206H12.2653L12.2949 36.7196V37.244H12.1094V36.2383H12.2896L12.5585 36.6981L12.6069 36.8138H12.6123L12.6553 36.6954L12.9108 36.2383H13.0882V37.244H12.8919V36.717V36.717Z" fill="white"/>
<path d="M31.4124 39.3404H31.044V39.7626H30.8477V38.7568H31.044V39.1656H31.4124V38.7568H31.6087V39.7626H31.4124V39.3404Z" fill="white"/>
<path d="M31.75 39.2597C31.75 39.093 31.7876 38.9639 31.8603 38.8725C31.9329 38.7811 32.0404 38.7354 32.1776 38.7354C32.2502 38.7354 32.312 38.7488 32.3658 38.773C32.4196 38.7972 32.4653 38.8322 32.5003 38.8806C32.5352 38.9263 32.5621 38.9828 32.5783 39.0473C32.5944 39.1118 32.6052 39.1818 32.6052 39.2624C32.6052 39.4292 32.5675 39.5582 32.4949 39.6497C32.4196 39.7411 32.3147 39.7841 32.1803 39.7841C32.1077 39.7841 32.0431 39.7707 31.9893 39.7465C31.9356 39.7223 31.8925 39.6873 31.8549 39.6389C31.8199 39.5932 31.793 39.5367 31.7769 39.4722C31.7581 39.4076 31.75 39.3377 31.75 39.2597ZM31.9571 39.2597C31.9571 39.3108 31.9624 39.3566 31.9705 39.3996C31.9786 39.4426 31.992 39.4776 32.0109 39.5098C32.0297 39.5394 32.0512 39.5636 32.0781 39.5824C32.105 39.5986 32.1399 39.6093 32.1776 39.6093C32.2475 39.6093 32.3013 39.5824 32.3389 39.5287C32.3766 39.4749 32.3954 39.3861 32.3954 39.2624C32.3954 39.214 32.3927 39.1683 32.382 39.1253C32.3739 39.0823 32.3604 39.0473 32.3443 39.015C32.3282 38.9828 32.304 38.9586 32.2771 38.9397C32.2502 38.9209 32.2152 38.9128 32.1749 38.9128C32.105 38.9128 32.0512 38.9397 32.0135 38.9962C31.9759 39.05 31.9571 39.1387 31.9571 39.2597Z" fill="white"/>
<path d="M33.3834 39.7626H32.7461V38.7568H32.9424V39.5878H33.3834V39.7626Z" fill="white"/>
<path d="M33.4871 38.7568H34.0841V38.9316H33.6834V39.1656H34.0464V39.3404H33.6834V39.5851H34.0894V39.7599H33.4844V38.7568H33.4871Z" fill="white"/>
<path d="M29.7455 16.9319V16.8243H30.1785V16.9319H29.7455ZM30.6088 16.9319V16.8243H31.0417V16.9319H30.6088ZM31.472 16.9319V16.8243H31.9023V16.9319H31.472ZM32.3352 16.9319V16.8243H32.7682V16.9319H32.3352ZM33.1984 16.9319V16.8243H33.6287V16.9319H33.1984ZM34.0617 16.9319V16.8243H34.4946V16.9319H34.0617ZM34.9222 16.9319V16.8243H35.3552V16.9319H34.9222ZM35.7854 16.9319V16.8243H36.2184V16.9319H35.7854ZM36.6487 16.9319V16.8243H37.0789V16.9319H36.6487ZM37.5119 16.9319V16.8243H37.9422V16.9319H37.5119ZM38.3751 16.9319V16.8243H38.8054V16.9319H38.3751ZM39.2383 16.9319V16.8243H39.6686V16.9319H39.2383ZM40.1016 16.9319V16.8243H40.5318V16.9319H40.1016ZM40.9648 16.9319V16.8243H41.3951V16.9319H40.9648ZM29.4336 16.7033V16.2784L29.4874 16.2246H29.4928V16.2784H29.5412V16.7033H29.4336ZM29.9257 16.3322V16.2246H30.3587V16.3322H29.9257ZM30.7889 16.3322V16.2246H31.2192V16.3322H30.7889ZM31.6522 16.3322V16.2246H32.0824V16.3322H31.6522ZM32.5154 16.3322V16.2246H32.9457V16.3322H32.5154ZM33.3786 16.3322V16.2246H33.8089V16.3322H33.3786ZM34.2418 16.3322V16.2246H34.6721V16.3322H34.2418ZM35.1051 16.3322V16.2246H35.5353V16.3322H35.1051ZM35.9683 16.3322V16.2246H36.3986V16.3322H35.9683ZM36.8288 16.3322V16.2246H37.2591V16.3322H36.8288ZM37.6921 16.3322V16.2246H38.1223V16.3322H37.6921ZM38.5553 16.3322V16.2246H38.9882V16.3322H38.5553ZM39.4185 16.3322V16.2246H39.8488V16.3322H39.4185ZM40.2817 16.3322V16.2246H40.712V16.3322H40.2817ZM41.145 16.3322V16.2246H41.5752V16.3322H41.145Z" fill="white"/>
<path d="M33.2644 13.9714C33.0574 13.9714 32.8906 13.8046 32.8906 13.5976V9.15505C32.8906 8.94798 33.0574 8.78125 33.2644 8.78125H40.9313C41.1383 8.78125 41.3051 8.94798 41.3051 9.15505V13.5976C41.3051 13.8046 41.1383 13.9714 40.9313 13.9714H33.2644ZM38.8848 13.8611V8.88882H33.2644C33.1192 8.88882 32.9982 9.00714 32.9982 9.15505V13.5976C32.9982 13.7455 33.1165 13.8638 33.2644 13.8638H38.8848V13.8611ZM40.9313 13.8611C41.0765 13.8611 41.1975 13.7428 41.1975 13.5949V9.15505C41.1975 9.00983 41.0792 8.88882 40.9313 8.88882H38.9924V13.8611H40.9313V13.8611ZM39.6297 13.5303C39.4442 13.5303 39.2963 13.3797 39.2963 13.1969V11.8388C39.2963 11.6533 39.4468 11.5054 39.6297 11.5054H40.6005C40.7861 11.5054 40.934 11.656 40.934 11.8388V13.1969C40.934 13.3824 40.7834 13.5303 40.6005 13.5303H39.6297ZM40.6005 13.4201C40.7242 13.4201 40.8264 13.3179 40.8264 13.1942V11.8362C40.8264 11.7125 40.7242 11.6103 40.6005 11.6103H39.6297C39.506 11.6103 39.4038 11.7125 39.4038 11.8362V13.1942C39.4038 13.3206 39.506 13.4201 39.6297 13.4201H40.6005ZM39.6297 11.1504C39.4442 11.1504 39.2963 10.9998 39.2963 10.817V9.45623C39.2963 9.27068 39.4468 9.12278 39.6297 9.12278H40.6005C40.7861 9.12278 40.934 9.27337 40.934 9.45623V10.817C40.934 11.0025 40.7834 11.1504 40.6005 11.1504H39.6297ZM40.6005 11.0428C40.7242 11.0428 40.8264 10.9407 40.8264 10.817V9.45623C40.8264 9.33253 40.7242 9.23034 40.6005 9.23034H39.6297C39.506 9.23034 39.4038 9.33253 39.4038 9.45623V10.817C39.4038 10.9407 39.506 11.0428 39.6297 11.0428H40.6005Z" fill="white"/>
<path d="M11.5554 30.1735C11.5365 30.1735 11.5177 30.1735 11.4989 30.1708C11.4236 30.1628 11.3537 30.1251 11.3026 30.0633L9.80472 28.1674C9.70522 28.041 9.72673 27.8581 9.85312 27.7586L11.749 26.2608C11.8754 26.1613 12.0582 26.1828 12.1577 26.3092L13.6556 28.205C13.7551 28.3314 13.7336 28.5143 13.6072 28.6138L11.7113 30.1117C11.6683 30.1466 11.6118 30.1681 11.5554 30.1735ZM11.5473 30.066C11.5823 30.0633 11.6172 30.0498 11.6468 30.0256L11.8942 29.832L11.8646 29.8266C11.8055 29.8105 11.749 29.7782 11.7087 29.7244L11.6065 29.5954C11.507 29.469 11.5285 29.2861 11.6549 29.1866L11.6952 29.1543L10.7701 27.9845L10.7298 28.0168C10.6814 28.0545 10.6276 28.0733 10.5711 28.0787C10.477 28.0867 10.3829 28.0464 10.321 27.9684L10.2188 27.8393C10.1946 27.807 10.1758 27.7721 10.1678 27.7371L10.1624 27.6538L9.92304 27.842C9.84236 27.9039 9.83161 28.0195 9.89346 28.1002L11.3913 29.996C11.4236 30.0364 11.4666 30.0579 11.5123 30.0633C11.5258 30.066 11.5365 30.066 11.5473 30.066ZM11.9507 29.7271C11.9856 29.7244 12.0206 29.711 12.0502 29.6868L13.5346 28.5143C13.6153 28.4525 13.6287 28.3368 13.5642 28.2561L13.462 28.1271C13.4001 28.0464 13.2845 28.0329 13.2038 28.0975L11.7194 29.27C11.6414 29.3318 11.628 29.4474 11.6898 29.5281L11.792 29.6572C11.8324 29.7083 11.8915 29.7325 11.9507 29.7271ZM11.7786 29.0898L13.1366 28.0141C13.1689 27.9899 13.2038 27.9711 13.2388 27.963L13.3249 27.9576L12.311 26.6776L12.2841 26.7583C12.2653 26.7905 12.2411 26.8228 12.2088 26.847L10.8508 27.9227L11.7786 29.0898ZM10.5631 27.9711C10.598 27.9684 10.633 27.955 10.6626 27.9334L12.147 26.761C12.2277 26.6991 12.2411 26.5835 12.1766 26.5028L12.0744 26.3737C12.0125 26.293 11.8969 26.2796 11.8162 26.3441L10.3318 27.5166C10.2511 27.5785 10.2377 27.6941 10.3022 27.7748L10.4044 27.9039C10.4447 27.9523 10.5039 27.9765 10.5631 27.9711Z" fill="white"/>
<path d="M12.5609 17.9485C12.5421 17.9512 12.5259 17.9512 12.5098 17.9485C12.4399 17.9405 12.3727 17.9082 12.3269 17.8517L10.9205 16.1387C10.8264 16.0231 10.8425 15.851 10.9581 15.7569L12.6712 14.3531C12.7868 14.259 12.9589 14.2751 13.053 14.3908L13.4134 14.8291L14.4595 16.1038C14.4702 16.1172 14.481 16.1334 14.489 16.1495L14.4998 16.1764L14.5079 16.1979C14.5374 16.3001 14.5079 16.413 14.4191 16.4856L12.7061 17.8921C12.6631 17.9243 12.612 17.9459 12.5609 17.9485ZM12.5609 17.8329C12.5932 17.8302 12.6227 17.8168 12.6496 17.7953L12.7653 17.7011C12.8352 17.6447 12.846 17.5398 12.7868 17.4699L11.6869 16.1307C11.6304 16.0607 11.5256 16.05 11.4556 16.1092L11.34 16.2033C11.2701 16.2597 11.2593 16.3646 11.3185 16.4345L12.4184 17.7738C12.4533 17.8168 12.5071 17.8383 12.5609 17.8329ZM12.9266 17.5694L14.0668 16.6335L14.0265 16.6228C13.9862 16.6066 13.9485 16.5798 13.9189 16.5421L12.9132 15.3185L11.8644 16.1791L12.8675 17.4026C12.8917 17.4322 12.9078 17.4645 12.9186 17.4968L12.9266 17.5694ZM14.1475 16.5314C14.1798 16.5287 14.2094 16.5152 14.2363 16.4964L14.3519 16.4023C14.3869 16.3727 14.4057 16.3324 14.4111 16.292L14.4057 16.2302L14.3761 16.1737L13.892 15.5848L13.2762 14.8345C13.2197 14.7646 13.1149 14.7538 13.045 14.813L12.9293 14.9071C12.8594 14.9636 12.8486 15.0684 12.9078 15.1357L14.0077 16.4749C14.0399 16.5179 14.0937 16.5367 14.1475 16.5314ZM11.1813 16.2866L11.2056 16.2033C11.2217 16.171 11.2459 16.1441 11.2728 16.1199L11.3884 16.0258C11.5041 15.9317 11.6762 15.9478 11.7703 16.0634L11.7972 16.0957L12.846 15.2352L12.8191 15.2029C12.7249 15.0873 12.7411 14.9152 12.8567 14.821L12.9723 14.7269C13.0019 14.7027 13.0342 14.6866 13.0665 14.6758L13.1364 14.6704L12.9643 14.4607C12.9078 14.3908 12.8029 14.38 12.733 14.4392L11.02 15.8456C10.9501 15.9021 10.9393 16.007 10.9985 16.0769L11.1813 16.2866Z" fill="white"/>
<path d="M8.72624 25.6101C8.45732 25.6101 8.24219 25.3923 8.24219 25.1234V19.0297C8.24219 18.7608 8.46001 18.543 8.72624 18.543H11.9102C12.1791 18.543 12.397 18.7608 12.397 19.0297V25.1261C12.397 25.395 12.1791 25.6128 11.9102 25.6128H8.72624V25.6101ZM9.07314 25.5026L9.03012 25.4676C8.94137 25.3789 8.88759 25.2578 8.88759 25.1234V25.0696C8.88759 24.8356 9.05432 24.6393 9.27483 24.5936L9.29366 24.5909V19.5568L9.27483 19.5541C9.05432 19.5084 8.88759 19.3121 8.88759 19.0781V19.0243C8.88759 18.8899 8.94137 18.7689 9.03012 18.6801L9.07314 18.6452H8.72624C8.51917 18.6452 8.34975 18.8146 8.34975 19.0216V25.118C8.34975 25.3251 8.51917 25.4945 8.72624 25.4945H9.07314V25.5026ZM11.9102 25.5026C12.1173 25.5026 12.2867 25.3331 12.2867 25.1261V25.0723C12.2867 24.8652 12.1173 24.6958 11.9102 24.6958H9.37433C9.16458 24.6958 8.99785 24.8652 8.99785 25.0723V25.1261C8.99785 25.3331 9.16727 25.5026 9.37433 25.5026H11.9102ZM12.2867 24.7684V22.1303H9.40391V24.5829H11.9102C12.0447 24.5829 12.1657 24.6366 12.2544 24.7254L12.2867 24.7684ZM12.2867 22.0255V19.3847L12.2518 19.425C12.163 19.5138 12.042 19.5675 11.9075 19.5675H9.40391V22.0228H12.2867V22.0255ZM11.9102 19.46C12.1173 19.46 12.2867 19.2906 12.2867 19.0835V19.0297C12.2867 18.8226 12.1173 18.6532 11.9102 18.6532H9.37433C9.16458 18.6532 8.99785 18.8226 8.99785 19.0297V19.0835C8.99785 19.2906 9.16727 19.46 9.37433 19.46H11.9102Z" fill="white"/>
<path d="M20.7773 29.127V21.8447H22.3613V29.127H20.7773V29.127ZM22.2537 29.0195V21.9523H20.8849V29.0195H22.2537ZM21.1834 27.8981V23.0737H21.9552V27.9008H21.1834V27.8981ZM21.8476 27.7905V23.1812H21.291V27.7905H21.8476V27.7905Z" fill="white"/>
</svg>
