<svg width="14" height="15" viewBox="0 0 14 15" fill="none" xmlns="http://www.w3.org/2000/svg">
<path d="M12.25 7.04625C12.25 11.0235 7 14.4326 7 14.4326C7 14.4326 1.75 11.0235 1.75 7.04625C1.75 5.69003 2.30312 4.38936 3.28769 3.43037C4.27226 2.47137 5.60761 1.93262 7 1.93262C8.39239 1.93262 9.72774 2.47137 10.7123 3.43037C11.6969 4.38936 12.25 5.69003 12.25 7.04625Z" stroke="#F23B3D" stroke-linecap="round" stroke-linejoin="round"/>
<path d="M7 8.75089C7.9665 8.75089 8.75 7.98774 8.75 7.04634C8.75 6.10495 7.9665 5.3418 7 5.3418C6.0335 5.3418 5.25 6.10495 5.25 7.04634C5.25 7.98774 6.0335 8.75089 7 8.75089Z" stroke="#F23B3D" stroke-linecap="round" stroke-linejoin="round"/>
</svg>
