<svg width="1920" height="1277" viewBox="0 0 1920 1277" fill="none" xmlns="http://www.w3.org/2000/svg">
<g clip-path="url(#clip0_2970_14493)">
<rect width="1920" height="1277" fill="white"/>
<g filter="url(#filter0_f_2970_14493)">
<rect x="255" y="74" width="1665" height="1250" fill="url(#paint0_linear_2970_14493)" fill-opacity="0.3"/>
</g>
<path opacity="0.2" d="M2377.18 920.473C2372.05 873.822 2342.3 819.101 2295.21 770.285C2251.66 724.815 2199.64 690.762 2156.29 678.952C2028.21 644.505 1975.21 702.376 1892.64 807.881C1886.14 816.148 1879.84 824.416 1873.73 832.289C1837.08 880.121 1805.35 921.26 1760.43 944.881C1711.17 970.864 1650.48 972.045 1569.69 949.015C1519.64 934.645 1477.87 939.566 1445.95 963.384C1377.77 1014.37 1375.8 1136.21 1375.8 1138.57C1371.27 1227.34 1386.04 1286.79 1419.74 1315.73C1435.7 1329.31 1455.6 1336 1480.23 1336C1491.46 1336 1503.68 1334.62 1516.68 1331.87C1535.8 1327.73 1554.91 1311 1575.01 1293.29C1615.4 1257.86 1661.32 1217.5 1726.14 1256.48C1763.98 1279.31 1803.78 1284.63 1841.02 1272.22C1886.73 1256.87 1927.13 1215.34 1949.2 1160.81C1956.49 1142.51 1965.16 1129.12 1975.01 1119.08C1977.37 1118.1 1979.94 1117.12 1982.5 1116.13C1985.65 1114.95 1988.8 1113.77 1992.15 1112.78C1997.67 1111.01 2003.19 1109.24 2008.9 1107.47C2013.43 1106.29 2017.96 1104.91 2022.5 1103.73C2026.83 1102.75 2031.17 1101.76 2035.7 1100.58C2039.84 1099.79 2043.97 1099.01 2048.31 1098.02C2052.25 1097.43 2056.39 1096.64 2060.53 1095.86C2062.1 1095.66 2063.68 1095.46 2065.06 1095.27C2067.42 1094.87 2069.79 1094.68 2072.35 1094.28C2076.09 1093.89 2080.03 1093.3 2083.78 1092.9C2087.32 1092.51 2091.07 1092.12 2094.81 1091.72C2098.36 1091.53 2102.1 1091.13 2105.85 1090.74C2109.39 1090.54 2112.74 1090.35 2116.49 1089.95C2119.84 1089.75 2123.38 1089.56 2126.93 1089.36C2176.39 1087.59 2234.71 1080.11 2302.69 1044.88C2357.08 1016.92 2383.09 973.816 2377.18 920.473ZM2130.08 1033.66C2137.96 1015.94 2131.66 992.713 2113.53 974.801C2104.07 965.352 2087.13 953.148 2060.92 949.212C2036.29 945.472 2009.89 949.802 1982.1 962.203C1936.39 982.477 1910.18 1000.98 1888.7 1017.71C1886.93 1019.09 1885.16 1020.47 1883.58 1021.85C1853.63 1045.47 1831.96 1062.59 1767.92 1067.51C1752.55 1068.69 1737.18 1071.45 1720.82 1074.6C1709.59 1076.57 1698.16 1078.73 1685.75 1080.5C1685.16 1080.5 1684.76 1080.5 1684.17 1080.5C1689.89 1079.13 1695.4 1077.55 1700.72 1075.98C1720.63 1070.46 1739.34 1065.15 1760.23 1064.76C1828.41 1062.98 1851.46 1043.5 1883.19 1016.73C1885.35 1014.96 1887.52 1012.99 1889.89 1011.22C1915.3 989.957 1941.91 971.848 1989.39 953.148C2029.2 937.401 2084.96 933.858 2121.22 971.454C2138.95 989.76 2145.45 1012.99 2137.77 1030.51C2133.04 1041.14 2123.97 1048.62 2110.77 1052.95C2122.2 1047.24 2127.52 1039.36 2130.08 1033.66ZM2102.3 1054.13C2110.77 1050.19 2116.88 1044.09 2120.43 1036.41C2128.31 1019.29 2121.81 996.453 2104.27 979.525C2093.04 968.502 2050.28 935.63 1975.4 972.832C1931.27 994.681 1906.63 1012.4 1886.73 1026.77C1847.32 1055.11 1826.04 1070.46 1704.86 1078.93C1710.38 1077.94 1715.7 1076.96 1721.02 1075.98C1737.37 1073.02 1752.74 1070.07 1767.92 1068.89C1832.55 1063.97 1854.22 1046.65 1884.57 1022.83C1886.34 1021.45 1887.92 1020.07 1889.69 1018.7C1914.52 999.209 1939.74 982.477 1982.69 963.384C2021.91 946.062 2076.49 940.157 2112.15 975.785C2129.49 993.304 2135.99 1015.55 2128.31 1032.67C2123.97 1043.1 2114.91 1050.19 2102.3 1054.13ZM2139.74 1031.1C2147.62 1012.99 2141.12 988.973 2122.79 970.077C2113.14 960.038 2095.99 947.046 2069 941.732C2043.97 937.008 2017.18 940.157 1989 951.18C1941.31 970.077 1914.52 988.186 1888.9 1009.64C1886.73 1011.61 1884.37 1013.38 1882.2 1015.15C1850.67 1041.92 1827.82 1061.21 1760.23 1062.79C1738.95 1063.38 1720.23 1068.5 1700.13 1074.2C1691.66 1076.57 1682.99 1078.93 1673.93 1081.09C1673.53 1081.09 1673.14 1081.09 1672.55 1081.09C1671.36 1081.09 1670.18 1081.29 1669 1081.29C1674.12 1079.52 1679.25 1077.55 1684.17 1075.58C1704.86 1067.71 1726.34 1059.64 1752.35 1060.03C1754.12 1060.03 1755.9 1060.03 1757.47 1060.03C1825.85 1060.03 1850.87 1037.59 1882.4 1009.44C1884.76 1007.28 1887.32 1005.11 1889.89 1002.75C1916.49 979.131 1944.66 959.841 1995.9 941.929C2057.57 920.276 2105.65 940.157 2129.89 966.14C2148.01 985.43 2154.71 1009.64 2147.03 1027.55C2142.1 1038.97 2132.25 1047.04 2118.06 1051.76C2128.31 1047.04 2135.6 1040.15 2139.74 1031.1ZM2149 1028.34C2157.08 1009.64 2150.18 984.839 2131.46 964.959C2117.28 949.802 2098.16 939.173 2076.49 934.055C2051.07 928.15 2023.88 930.315 1995.5 940.157C1944.07 958.266 1915.7 977.753 1888.9 1001.37C1886.34 1003.54 1883.78 1005.9 1881.41 1008.07C1849.49 1036.8 1824.27 1059.44 1752.55 1058.26C1726.14 1057.87 1704.47 1065.94 1683.78 1074.01C1676.68 1076.76 1669.39 1079.52 1662.1 1081.88C1659.74 1082.08 1657.57 1082.27 1655.21 1082.47C1659.94 1080.31 1664.66 1078.14 1669.39 1075.78C1691.27 1065.15 1713.93 1054.13 1745.06 1055.7C1821.51 1059.44 1848.31 1034.25 1882.4 1002.36C1884.96 999.996 1887.72 997.437 1890.48 994.878C1919.44 968.108 1948.21 948.227 2002.99 931.299C2065.65 911.812 2114.52 934.055 2139.34 961.219C2158.06 981.887 2164.96 1006.29 2157.08 1025.19C2151.95 1037.2 2141.31 1046.06 2125.95 1051.17C2136.78 1045.86 2144.86 1038.18 2149 1028.34ZM2158.46 1025.59C2166.54 1006.1 2159.64 980.903 2140.53 959.644C2115.3 931.89 2065.85 909.45 2002.4 929.134C1947.42 946.259 1918.26 966.337 1889.3 993.303C1886.54 995.862 1883.97 998.421 1881.22 1000.78C1847.52 1032.28 1820.92 1057.28 1745.26 1053.54C1713.73 1051.96 1690.87 1062.98 1668.8 1073.81C1662.3 1076.96 1655.99 1080.11 1649.49 1082.67C1649.3 1082.67 1648.9 1082.67 1648.7 1082.67C1653.04 1080.31 1657.37 1077.55 1661.71 1074.79C1681.81 1062.39 1704.86 1048.22 1737.37 1050.78C1817.97 1057.08 1846.34 1029.52 1882 994.681C1884.76 991.926 1887.52 989.17 1890.48 986.414C1921.81 956.298 1951.36 935.827 2009.49 919.883C2072.94 902.561 2122.6 926.969 2147.82 955.51C2166.93 977.163 2174.02 1002.55 2166.14 1022.04C2160.82 1035.03 2149.39 1044.48 2132.84 1049.99C2145.26 1044.68 2153.93 1036.41 2158.46 1025.59ZM2167.92 1023.03C2176.19 1002.95 2168.9 976.769 2149.39 954.526C2123.58 925.591 2073.33 900.789 2009.1 918.308C1950.58 934.252 1920.82 954.92 1889.3 985.233C1886.34 987.989 1883.58 990.745 1880.82 993.5C1845.35 1027.95 1817.37 1055.11 1737.57 1049.01C1704.27 1046.45 1681.22 1060.82 1660.72 1073.42C1655.01 1076.96 1649.49 1080.31 1643.98 1083.26C1640.82 1083.65 1637.87 1084.05 1634.91 1084.44C1639.05 1081.68 1643.19 1078.53 1647.72 1075.39C1668.8 1060.03 1692.45 1042.71 1729.89 1046.45C1814.81 1054.91 1844.57 1025.19 1882 987.595C1884.96 984.643 1887.92 981.69 1890.87 978.737C1923.97 945.865 1955.11 924.016 2016.39 909.45C2080.43 894.097 2131.07 920.67 2156.88 950.589C2176.39 973.226 2183.68 999.799 2175.8 1019.68C2171.46 1030.31 2161.61 1043.1 2138.36 1050.19C2152.55 1044.48 2162.79 1035.23 2167.92 1023.03ZM2177.18 1020.47C2185.45 999.799 2178.16 972.635 2158.06 949.408C2131.86 919.095 2080.62 892.128 2015.8 907.679C1954.32 922.442 1922.79 944.291 1889.49 977.36C1886.54 980.312 1883.38 983.462 1880.63 986.217C1861.71 1005.31 1845.35 1021.65 1822.89 1032.67C1798.26 1044.68 1768.7 1048.42 1730.08 1044.68C1692.05 1040.94 1668.01 1058.46 1646.73 1074.01C1641.22 1078.14 1635.9 1081.88 1630.58 1085.23C1627.23 1085.62 1624.07 1086.21 1620.92 1086.8C1625.06 1083.65 1629.39 1080.11 1633.93 1076.17C1654.62 1058.65 1680.23 1037 1722.4 1042.12C1811.66 1052.95 1842.6 1020.86 1881.81 980.312C1884.76 977.163 1887.92 974.013 1891.07 970.667C1926.93 934.055 1958.65 911.812 2022.89 898.624C2087.72 885.239 2138.95 913.977 2165.35 945.275C2185.65 969.289 2192.94 996.256 2184.86 1017.12C2178.95 1032.08 2165.94 1042.91 2146.44 1049.21C2164.76 1041.73 2173.24 1030.31 2177.18 1020.47ZM1633.33 1086.61C1632.55 1086.8 1631.76 1086.8 1630.97 1087C1631.76 1086.8 1632.55 1086.61 1633.33 1086.61ZM1626.04 1087.59C1625.85 1087.59 1625.85 1087.79 1625.65 1087.79C1622.5 1088.38 1619.54 1088.97 1616.59 1089.56C1616.78 1089.36 1616.98 1089.36 1617.18 1089.16C1620.13 1088.57 1623.09 1088.18 1626.04 1087.59ZM2186.44 1017.71C2194.91 996.059 2187.42 968.502 2166.73 943.897C2139.94 912.206 2087.92 883.074 2022.5 896.656C1957.67 910.041 1925.75 932.48 1889.69 969.289C1886.54 972.439 1883.38 975.785 1880.43 978.934C1841.61 1019.09 1810.87 1050.78 1722.4 1040.15C1679.44 1035.03 1653.43 1057.08 1632.55 1074.79C1627.03 1079.52 1621.71 1084.05 1616.59 1087.59C1613.04 1088.18 1609.69 1088.97 1606.34 1089.75C1610.67 1086.01 1615.21 1081.68 1619.94 1077.16C1641.02 1056.69 1667.42 1031.1 1714.52 1037.59C1808.11 1050.58 1840.43 1016.33 1881.41 973.029C1884.57 969.683 1887.92 966.14 1891.07 962.793C1929.69 922.441 1961.81 899.805 2029.39 887.995C2094.81 876.578 2148.21 909.056 2174.02 940.157C2194.71 965.352 2202.2 993.303 2193.93 1014.96C2187.82 1030.9 2173.63 1042.71 2152.35 1049.4C2173.04 1040.94 2182.3 1028.34 2186.44 1017.71ZM1526.54 1156.68C1527.33 1155.5 1528.11 1154.12 1529.1 1152.74C1529.1 1152.74 1529.1 1152.74 1529.1 1152.94C1528.11 1154.32 1527.33 1155.5 1526.54 1156.68ZM1526.93 1165.14C1526.73 1169.87 1528.11 1174.79 1530.67 1179.91C1538.75 1195.26 1563.38 1204.91 1598.85 1207.27C1561.81 1205.69 1540.13 1198.8 1531.66 1185.81C1526.73 1178.53 1525.35 1172.03 1526.93 1165.14ZM1514.32 1184.83C1514.71 1194.47 1520.03 1200.97 1528.31 1207.86C1541.71 1219.08 1567.52 1217.5 1600.23 1215.53C1604.76 1215.34 1609.49 1214.94 1614.22 1214.75C1606.14 1215.34 1598.26 1216.13 1590.77 1216.91C1562.99 1219.67 1540.92 1221.83 1528.7 1213.37C1520.82 1207.86 1513.14 1201.76 1511.96 1191.32C1510.58 1179.91 1517.08 1164.16 1532.25 1142.9C1531.46 1144.67 1530.87 1146.25 1530.28 1148.02C1519.05 1163.18 1513.93 1175.18 1514.32 1184.83ZM1600.03 1213.76C1567.72 1215.73 1542.1 1217.31 1529.3 1206.48C1521.61 1199.98 1516.29 1193.69 1516.09 1184.83C1515.9 1177.94 1518.66 1169.67 1524.76 1159.63C1520.63 1166.52 1518.46 1172.82 1518.26 1178.33C1517.67 1188.17 1523.38 1195.46 1528.9 1200.97C1542.5 1214.94 1572.65 1214.35 1611.07 1213.17C1607.33 1213.17 1603.58 1213.57 1600.03 1213.76ZM1530.08 1199.59C1524.57 1193.88 1519.44 1187.39 1520.03 1178.33C1520.23 1175.38 1521.02 1172.03 1522.4 1168.49C1522.2 1169.47 1521.81 1170.66 1521.81 1171.64C1520.43 1181.28 1525.16 1188.76 1529.49 1194.08C1541.51 1209.24 1571.07 1211.79 1607.52 1211.4C1571.27 1212.39 1542.89 1212.58 1530.08 1199.59ZM1530.87 1192.7C1524.76 1185.02 1522.6 1178.73 1523.58 1171.64C1523.78 1170.26 1524.17 1168.88 1524.57 1167.31C1523.78 1173.61 1525.55 1179.91 1530.08 1186.8C1540.92 1203.53 1570.87 1208.45 1602.79 1209.24C1568.9 1209.43 1541.91 1206.68 1530.87 1192.7ZM1532.25 1179.12C1529.3 1173.61 1528.11 1168.49 1528.7 1163.37C1529.1 1166.72 1529.89 1169.87 1531.27 1173.02C1539.34 1192.9 1568.7 1202.94 1600.23 1205.69C1564.76 1203.53 1540.13 1194.28 1532.25 1179.12ZM1533.04 1172.43C1531.07 1167.51 1530.28 1162.39 1530.48 1157.27C1530.67 1160.62 1531.27 1163.57 1532.05 1166.13C1537.77 1184.63 1562 1198.41 1592.94 1203.13C1562.4 1199.39 1539.54 1188.17 1533.04 1172.43ZM1532.25 1156.88C1532.45 1157.66 1532.45 1158.45 1532.65 1159.24C1536.78 1177.94 1558.46 1193.29 1585.85 1199.98C1559.25 1194.28 1538.75 1181.68 1533.63 1165.54C1533.04 1163.18 1532.45 1160.22 1532.25 1156.88ZM1534.42 1158.65C1534.22 1157.47 1534.02 1156.09 1533.83 1154.91C1538.56 1175.18 1562.4 1192.5 1590.77 1199C1562 1193.29 1538.75 1177.74 1534.42 1158.65ZM1535.21 1151.96C1536.59 1157.07 1539.15 1162.19 1542.69 1167.31C1551.76 1179.51 1565.95 1189.16 1582.1 1194.87C1557.28 1186.8 1537.77 1170.46 1535.21 1151.96ZM1535.8 1143.69C1542.3 1135.42 1550.18 1126.37 1559.84 1116.33C1562.6 1114.56 1565.75 1112.78 1569.1 1111.01C1554.91 1123.61 1543.88 1134.44 1535.6 1144.08C1535.8 1144.08 1535.8 1143.89 1535.8 1143.69ZM1571.46 1102.35C1570.67 1102.94 1570.08 1103.73 1569.3 1104.32C1564.76 1106.49 1561.02 1108.65 1557.47 1110.82C1558.26 1110.03 1559.05 1109.04 1559.64 1108.26C1563.38 1106.09 1567.33 1104.12 1571.46 1102.35ZM1563.19 1104.32C1563.38 1104.12 1563.38 1104.12 1563.58 1103.93C1563.78 1103.93 1563.98 1103.93 1564.17 1103.93C1563.98 1103.93 1563.58 1104.12 1563.19 1104.32ZM1580.33 1101.56C1580.13 1101.76 1579.94 1101.96 1579.74 1102.16C1576.19 1103.53 1572.84 1105.11 1569.69 1106.49C1569.89 1106.29 1570.08 1106.09 1570.48 1105.7C1573.43 1104.32 1576.78 1102.94 1580.33 1101.56ZM1574.22 1102.16C1574.42 1101.96 1574.42 1101.96 1574.62 1101.76C1574.81 1101.76 1575.01 1101.76 1575.4 1101.76C1574.81 1101.76 1574.62 1101.96 1574.22 1102.16ZM1565.16 1108.45C1564.96 1108.65 1564.57 1109.04 1564.37 1109.24C1559.64 1111.8 1555.7 1114.56 1552.15 1117.12C1552.35 1116.92 1552.55 1116.52 1552.74 1116.33C1556.09 1113.77 1560.23 1111.21 1565.16 1108.45ZM1551.36 1115.15C1547.03 1118.49 1543.88 1121.64 1541.32 1124.79C1544.47 1120.07 1548.8 1115.74 1553.93 1112C1553.14 1112.98 1552.35 1114.16 1551.36 1115.15ZM1552.55 1121.64C1546.24 1128.53 1540.72 1134.83 1536 1140.74V1140.54C1536.59 1139.36 1537.37 1137.98 1538.16 1136.6C1538.56 1135.81 1539.15 1135.03 1539.74 1134.24C1542.69 1130.11 1546.83 1125.78 1552.55 1121.64ZM1575.6 1108.06C1577.97 1106.88 1580.53 1105.9 1583.29 1104.71C1571.46 1113.38 1561.41 1121.45 1553.14 1128.73C1552.94 1128.93 1552.74 1129.12 1552.55 1129.12C1559.05 1122.63 1566.73 1115.74 1575.6 1108.06ZM1589.79 1102.35C1591.76 1101.56 1593.73 1100.97 1595.9 1100.19C1587.23 1105.5 1579.34 1110.42 1572.45 1115.15C1577.77 1111.01 1583.68 1106.68 1589.79 1102.35ZM1585.45 1099.79H1585.65C1585.85 1099.79 1586.24 1099.79 1586.44 1099.79C1585.85 1099.99 1585.45 1100.19 1584.86 1100.38C1585.06 1099.99 1585.26 1099.79 1585.45 1099.79ZM1585.26 1097.82C1586.04 1097.43 1586.83 1096.84 1587.42 1096.25C1590.77 1095.27 1594.12 1094.28 1597.67 1093.3C1597.08 1093.69 1596.29 1094.09 1595.7 1094.48C1591.96 1095.66 1588.61 1096.64 1585.26 1097.82ZM1603.38 1097.82C1604.76 1097.43 1606.14 1097.04 1607.52 1096.64C1602.6 1099.2 1597.87 1101.56 1593.53 1103.93C1596.68 1101.96 1600.03 1099.79 1603.38 1097.82ZM1601.81 1092.9C1602.2 1092.71 1602.6 1092.31 1602.79 1092.12C1605.95 1091.33 1609.1 1090.74 1612.25 1089.95C1611.86 1090.15 1611.66 1090.35 1611.27 1090.54C1608.11 1091.33 1604.76 1092.12 1601.81 1092.9ZM2195.7 1015.15C2204.17 992.91 2196.68 964.171 2175.4 938.582C2149.39 906.891 2095.4 874.216 2029 885.829C1960.82 897.64 1928.51 920.473 1889.49 961.219C1886.14 964.762 1882.99 968.108 1879.64 971.454C1839.05 1014.37 1807.13 1048.42 1714.32 1035.43C1666.44 1028.73 1639.64 1054.72 1618.36 1075.39C1612.45 1081.09 1607.13 1086.21 1601.81 1090.35C1598.06 1091.33 1594.52 1092.12 1590.97 1093.1C1595.7 1088.97 1600.63 1083.65 1605.95 1077.75C1626.44 1055.31 1654.42 1024.6 1706.44 1032.67C1721.81 1035.03 1735.6 1036.21 1748.01 1036.21C1815.21 1036.21 1844.76 1004.13 1880.82 965.352C1884.17 961.809 1887.52 958.069 1891.07 954.329C1931.86 910.828 1965.55 886.814 2035.9 876.775C2075.5 871.067 2115.9 880.909 2149.79 904.332C2180.13 925.394 2201.02 954.526 2205.55 982.281C2210.87 1014.56 2193.33 1038.38 2157.47 1049.4C2181.12 1040.54 2191.36 1026.57 2195.7 1015.15ZM2196.49 1027.36C2206.54 1014.96 2210.28 999.209 2207.52 981.887C2202.99 953.542 2181.91 924.016 2150.97 902.758C2116.68 878.94 2075.7 869.098 2035.7 875.003C1964.76 885.239 1930.87 909.45 1889.69 953.148C1886.14 956.888 1882.79 960.431 1879.44 964.171C1837.28 1009.84 1803.78 1046.06 1706.83 1031.1C1653.83 1022.83 1625.45 1054.13 1604.76 1076.76C1598.06 1084.05 1592.15 1090.54 1586.44 1094.87C1582.1 1096.25 1578.16 1097.63 1574.22 1099.2C1579.94 1094.68 1585.85 1087.59 1592.55 1079.32C1613.24 1053.73 1641.61 1018.7 1698.95 1028.34C1801.22 1045.47 1836.29 1006.89 1880.63 958.069C1884.17 954.329 1887.52 950.393 1891.27 946.456C1935.21 898.821 1968.9 874.61 2042.6 865.949C2126.54 856.107 2205.35 919.686 2214.81 978.737C2220.33 1012.59 2201.41 1037.79 2162.99 1049.4C2177.57 1044.28 2188.8 1036.8 2196.49 1027.36ZM2216.78 978.344C2212.05 949.212 2190.38 918.308 2158.85 895.671C2123.97 870.673 2082.6 859.453 2042.4 864.177C1968.11 872.838 1934.02 897.246 1889.89 945.275C1886.34 949.212 1882.79 953.148 1879.25 956.888C1835.31 1005.31 1800.63 1043.69 1699.15 1026.57C1640.82 1016.73 1612.05 1052.36 1591.17 1078.14C1580.53 1091.33 1572.05 1101.76 1562.99 1102.16H1562.6L1562.4 1102.35C1561.02 1103.93 1559.64 1105.5 1558.26 1107.08C1548.01 1113.38 1540.92 1120.46 1536.98 1128.73C1535.8 1131.29 1535.01 1133.85 1534.42 1136.41C1516.29 1160.81 1508.41 1178.73 1509.99 1191.52C1511.36 1202.74 1519.44 1209.24 1527.52 1214.94C1534.42 1219.67 1544.07 1221.44 1555.9 1221.44C1566.14 1221.44 1577.77 1220.26 1590.97 1218.88C1599.44 1218.09 1608.51 1217.11 1617.97 1216.52C1605.95 1217.7 1594.71 1219.27 1584.27 1220.85C1559.44 1224.39 1539.74 1227.34 1527.72 1220.46C1518.06 1214.94 1509.39 1209.04 1507.23 1198.02C1503.68 1180.1 1518.06 1150.97 1552.55 1106.29C1561.41 1105.5 1569.3 1094.68 1579.15 1080.9C1600.03 1052.16 1628.8 1012.59 1691.27 1024.01C1798.06 1043.3 1834.32 1002.55 1880.23 950.786C1883.78 946.653 1887.52 942.716 1891.27 938.385C1937.37 887.404 1972.84 862.012 2049.1 855.123C2134.22 847.446 2214.42 914.568 2224.07 975.194C2229.79 1011.02 2209.1 1037.99 2167.32 1049.99C2204.37 1037.59 2222.3 1012 2216.78 978.344ZM2226.04 974.801C2216.39 913.387 2135.21 845.477 2049.1 853.154C1972.05 860.044 1936.39 885.633 1890.08 937.008C1886.34 941.141 1882.6 945.275 1879.05 949.408C1833.53 1000.59 1797.47 1041.14 1691.66 1022.04C1628.01 1010.63 1597.87 1052.16 1577.77 1079.72C1567.92 1093.3 1560.23 1103.93 1552.15 1104.32H1551.76L1551.56 1104.71C1516.49 1149.99 1501.91 1179.71 1505.65 1198.21C1508.01 1210.02 1517.08 1216.13 1527.13 1221.83C1532.84 1225.18 1539.94 1226.36 1548.41 1226.36C1558.66 1226.36 1570.87 1224.59 1584.86 1222.62C1595.7 1221.05 1607.52 1219.27 1619.94 1218.29C1605.75 1219.87 1592.35 1222.42 1580.13 1224.79C1557.28 1229.31 1539.34 1232.86 1527.52 1227.15C1516.09 1221.64 1506.24 1216.32 1502.89 1204.51C1497.77 1186.01 1510.18 1155.5 1542.1 1108.26C1549.99 1107.47 1557.28 1096.45 1566.34 1082.47C1586.24 1052.16 1616.19 1006.29 1684.17 1019.29C1704.07 1023.03 1721.61 1024.8 1737.18 1024.8C1808.9 1024.8 1841.41 987.792 1880.43 943.306C1884.17 938.976 1887.92 934.645 1891.86 930.315C1941.31 874.806 1976.78 849.217 2056.19 844.296C2096.19 841.738 2137.96 855.516 2173.83 882.877C2206.73 908.072 2229.2 941.338 2233.93 971.848C2239.84 1010.43 2217.96 1038.38 2172.05 1050.78C2212.05 1037.79 2231.76 1010.63 2226.04 974.801ZM2235.5 971.258C2225.65 908.269 2143.48 836.62 2055.99 842.131C1976.39 847.249 1939.15 874.019 1890.48 928.74C1886.54 933.071 1882.79 937.401 1879.05 941.732C1831.76 995.666 1794.52 1038.18 1684.37 1017.12C1615.21 1003.93 1584.86 1050.39 1564.76 1081.09C1555.9 1094.87 1548.8 1105.7 1541.51 1106.09H1541.12L1540.92 1106.49C1508.61 1154.32 1496 1185.62 1501.32 1204.71C1504.67 1217.11 1515.31 1223.01 1526.93 1228.53C1531.66 1230.69 1536.98 1231.68 1543.29 1231.68C1553.73 1231.68 1566.34 1229.12 1580.72 1226.36C1594.32 1223.61 1609.3 1220.85 1625.26 1219.27C1607.52 1221.24 1591.17 1225.38 1577.18 1228.72C1555.9 1234.04 1538.95 1238.17 1526.93 1233.64C1513.73 1228.72 1502.5 1223.41 1498.16 1211.01C1491.66 1192.11 1502.5 1159.24 1531.46 1110.03C1538.56 1109.24 1544.86 1098.61 1553.34 1084.24C1573.24 1050.58 1603.19 999.799 1676.68 1014.56C1792.15 1037.99 1831.17 992.91 1880.43 935.827C1884.37 931.299 1888.31 926.772 1892.25 922.048C1944.07 863.193 1980.92 836.226 2063.09 833.273C2102.69 831.699 2146.04 847.052 2181.91 875.397C2215.6 901.97 2238.65 936.614 2243.38 968.108C2246.93 991.335 2243.19 1033.26 2177.57 1050.98C2176.78 1051.17 2175.99 1051.37 2175.21 1051.57C2219.34 1038.58 2241.41 1009.44 2235.5 971.258ZM1623.48 1197.82C1594.32 1201.76 1560.23 1188.17 1544.07 1166.13C1539.74 1160.22 1537.18 1154.32 1536.19 1148.22C1537.57 1146.44 1539.15 1144.87 1540.92 1142.9C1547.42 1136.21 1556.29 1128.73 1567.52 1120.86C1580.53 1112.59 1596.68 1103.73 1616.59 1094.09C1617.97 1093.69 1619.34 1093.3 1620.92 1093.1C1624.47 1092.71 1628.01 1091.92 1631.56 1090.74C1634.32 1090.15 1637.28 1089.75 1640.23 1089.16C1643.19 1088.77 1645.95 1087.98 1648.7 1087.39C1649.49 1087.2 1650.28 1087.2 1651.07 1087C1656.19 1086.41 1661.32 1085.42 1666.24 1084.44C1673.14 1083.85 1679.64 1082.87 1685.95 1082.08C1824.66 1073.81 1846.14 1058.26 1887.92 1028.34C1907.62 1014.17 1932.25 996.453 1976.19 974.604C2050.08 937.992 2092.05 970.077 2103.09 980.903C2120.03 997.24 2126.34 1019.29 2118.85 1035.62C2114.12 1045.86 2105.06 1052.75 2092.05 1056.1C2091.07 1056.1 2090.08 1056.29 2089.1 1056.29C2088.7 1056.29 2088.51 1056.29 2088.31 1056.29C2084.37 1056.29 2080.62 1056.49 2076.68 1056.88C2076.49 1056.88 2076.09 1056.88 2075.9 1056.88C2072.15 1056.88 2068.61 1057.08 2065.06 1057.28C2061.12 1057.28 2057.37 1057.28 2053.63 1057.47C1997.08 1056.1 1953.53 1094.09 1915.11 1127.94C1898.16 1142.7 1882.4 1156.68 1866.64 1166.72C1860.72 1168.88 1854.81 1170.46 1849.1 1171.84C1845.75 1172.62 1842.4 1173.02 1839.05 1173.41C1837.28 1173.61 1835.5 1173.8 1833.73 1174H1833.53C1830.38 1174.2 1827.23 1174.4 1824.07 1174.59C1820.92 1174.59 1817.77 1174.59 1814.62 1174.79C1811.46 1174.59 1808.31 1174.59 1805.16 1174.59C1802 1174.2 1799.05 1174 1796.09 1174C1792.74 1173.61 1789.59 1173.21 1786.44 1173.02C1783.29 1172.43 1780.33 1172.03 1777.18 1171.64C1734.81 1162.78 1704.47 1173.41 1675.11 1183.84C1659.15 1189.36 1642.2 1195.46 1623.48 1197.82ZM1920.82 1129.12C1955.11 1100.58 1993.14 1068.89 2040.62 1060.82C1994.91 1071.45 1957.67 1100.78 1923.97 1127.35C1916.49 1133.26 1909.2 1139.16 1901.91 1144.48C1908.21 1139.55 1914.52 1134.44 1920.82 1129.12ZM1893.83 1148.61C1901.31 1142.51 1908.8 1135.81 1916.49 1129.12C1949.39 1100.19 1986.04 1068.1 2031.36 1060.62C1987.62 1070.86 1951.96 1100.58 1919.64 1127.55C1910.77 1135.03 1902.3 1142.11 1893.83 1148.61ZM1925.16 1128.93C1960.82 1100.58 2000.63 1069.28 2050.28 1060.82C2002.2 1071.84 1963.38 1100.97 1928.11 1127.35C1922 1132.07 1915.9 1136.6 1909.98 1140.93C1914.91 1136.8 1920.03 1132.86 1925.16 1128.93ZM1929.3 1128.73C1966.54 1100.78 2007.72 1069.87 2059.94 1060.82C2009.29 1072.43 1968.9 1101.17 1932.25 1127.15C1927.72 1130.5 1923.19 1133.65 1918.65 1136.8C1922.2 1134.04 1925.75 1131.48 1929.3 1128.73ZM1933.24 1128.73C1972.05 1101.17 2015.21 1070.46 2069.98 1060.62C2016.59 1072.83 1974.02 1101.37 1935.8 1127.15C1933.24 1128.93 1930.48 1130.7 1927.92 1132.47C1929.69 1131.09 1931.46 1129.91 1933.24 1128.73ZM2080.62 1060.23C2023.68 1073.02 1979.15 1101.56 1938.95 1127.35C1938.56 1127.55 1938.36 1127.74 1937.97 1127.94C1978.16 1100.78 2023.09 1070.66 2080.62 1060.23ZM2090.87 1060.03C2033.93 1073.02 1989 1098.81 1949 1123.02C1989 1097.63 2033.93 1070.86 2090.87 1060.03ZM2102.1 1059.44C2045.55 1072.63 2000.82 1095.46 1960.82 1118.1C2000.62 1094.48 2045.55 1070.46 2102.1 1059.44ZM1816.98 1181.48C1817.97 1181.68 1818.95 1181.68 1819.74 1181.68C1818.75 1181.68 1817.77 1181.48 1816.59 1181.48C1816.59 1181.48 1816.78 1181.48 1816.98 1181.48ZM1815.01 1179.32C1815.21 1179.32 1815.21 1179.32 1815.01 1179.32C1815.6 1179.32 1816.19 1179.51 1816.78 1179.51C1816.19 1179.51 1815.6 1179.51 1815.01 1179.32ZM1810.67 1180.3C1811.46 1180.5 1812.05 1180.5 1812.84 1180.69C1812.65 1180.69 1812.45 1180.89 1812.25 1180.89C1811.46 1180.69 1810.87 1180.69 1810.08 1180.5C1810.08 1180.5 1810.28 1180.5 1810.67 1180.3ZM1809.89 1178.33C1810.08 1178.33 1810.08 1178.33 1810.28 1178.33C1810.48 1178.33 1810.67 1178.33 1811.07 1178.53C1810.87 1178.53 1810.87 1178.53 1810.67 1178.53C1810.28 1178.53 1810.08 1178.33 1809.89 1178.33ZM1806.73 1179.51C1806.54 1179.51 1806.14 1179.71 1805.95 1179.71C1805.55 1179.51 1804.96 1179.51 1804.57 1179.32C1804.96 1179.32 1805.16 1179.12 1805.55 1179.12C1805.75 1179.12 1806.14 1179.32 1806.34 1179.32C1806.34 1179.32 1806.54 1179.32 1806.73 1179.51ZM1801.41 1177.94C1801.22 1177.94 1801.02 1177.94 1800.82 1178.14C1800.63 1178.14 1800.43 1177.94 1800.23 1177.94C1800.43 1177.94 1800.63 1177.94 1800.82 1177.94C1800.82 1177.94 1801.22 1177.94 1801.41 1177.94ZM1675.9 1185.42C1700.13 1176.95 1724.96 1168.1 1756.49 1170.46C1729.89 1170.85 1707.82 1177.94 1685.95 1185.02C1674.12 1188.76 1662.1 1192.7 1649.49 1195.46C1643.19 1196.83 1634.71 1198.61 1625.65 1199.59C1625.26 1199.59 1625.06 1199.59 1624.66 1199.59C1643.38 1196.83 1659.94 1191.13 1675.9 1185.42ZM1650.08 1197.03C1662.69 1194.28 1674.91 1190.34 1686.73 1186.6C1710.77 1178.92 1735.6 1170.85 1766.14 1172.23C1740.92 1173.21 1719.05 1179.71 1697.77 1186.21C1682.6 1190.73 1668.21 1195.06 1652.84 1197.43L1650.67 1197.82C1643.58 1199 1636.09 1200.18 1628.61 1200.97H1628.41C1636.49 1199.98 1644.17 1198.41 1650.08 1197.03ZM1650.67 1199.79L1652.84 1199.39C1668.41 1197.03 1683.58 1192.5 1698.16 1187.98C1722 1180.89 1746.44 1173.61 1775.8 1174C1751.96 1175.58 1730.87 1181.68 1710.18 1187.58C1691.86 1192.9 1674.52 1197.82 1655.8 1199.79C1652.65 1200.18 1649.49 1200.57 1646.34 1200.77C1641.81 1201.36 1637.08 1201.76 1632.15 1202.35C1638.46 1201.76 1644.76 1200.77 1650.67 1199.79ZM1646.34 1202.74C1649.49 1202.35 1652.65 1201.95 1655.8 1201.76C1674.71 1199.79 1692.25 1194.87 1710.58 1189.55C1733.63 1182.86 1757.47 1176.17 1784.86 1175.58C1762.79 1177.94 1742.69 1183.45 1723.19 1188.96C1701.51 1195.06 1681.02 1200.97 1658.56 1202.15C1653.63 1202.35 1648.51 1202.74 1643.58 1203.33C1641.22 1203.53 1638.66 1203.72 1636.29 1203.92C1639.84 1203.53 1643.19 1203.13 1646.34 1202.74ZM1643.98 1205.1C1649.1 1204.71 1653.83 1204.31 1658.75 1203.92C1681.41 1202.74 1701.91 1196.83 1723.78 1190.73C1745.06 1184.63 1766.93 1178.53 1791.17 1176.76C1791.36 1176.76 1791.56 1176.95 1791.76 1176.95C1772.65 1179.91 1754.71 1185.02 1737.18 1190.14C1711.76 1197.43 1687.92 1204.31 1661.71 1204.51C1655.21 1204.51 1648.9 1204.91 1642.2 1205.3C1641.61 1205.3 1640.82 1205.3 1640.23 1205.5C1641.61 1205.3 1642.79 1205.3 1643.98 1205.1ZM1661.71 1206.28C1688.31 1206.09 1712.35 1199.2 1737.77 1191.91C1756.49 1186.6 1775.4 1181.09 1795.9 1178.33C1796.29 1178.53 1796.68 1178.53 1797.08 1178.73C1781.32 1182.07 1766.34 1186.6 1751.56 1190.93C1722.4 1199.59 1695.01 1207.86 1664.66 1206.68C1658.36 1206.48 1652.05 1206.68 1645.75 1206.87C1651.27 1206.68 1656.39 1206.28 1661.71 1206.28ZM1664.66 1208.65C1695.4 1209.83 1722.99 1201.56 1752.15 1192.9C1767.92 1188.17 1783.88 1183.45 1800.63 1180.1C1801.22 1180.3 1801.81 1180.5 1802.4 1180.69C1790.18 1183.84 1778.36 1187.78 1766.54 1191.52C1733.43 1202.15 1702.3 1211.99 1667.62 1209.24C1663.09 1208.84 1658.56 1208.65 1653.83 1208.65C1652.84 1208.65 1652.05 1208.65 1651.07 1208.65C1655.8 1208.45 1660.13 1208.45 1664.66 1208.65ZM1667.62 1210.81C1671.76 1211.2 1675.9 1211.4 1679.84 1211.4C1710.18 1211.4 1737.97 1202.54 1767.32 1193.1C1779.94 1188.96 1792.74 1185.02 1806.14 1181.48C1806.93 1181.68 1807.72 1181.88 1808.51 1182.07C1799.64 1184.83 1790.77 1187.98 1782.1 1190.93C1746.64 1203.33 1710.18 1215.93 1670.77 1211.2C1667.03 1210.81 1663.29 1210.42 1659.54 1210.42C1662.1 1210.61 1664.86 1210.61 1667.62 1210.81ZM1669.99 1213.17C1670.18 1213.17 1670.38 1213.17 1670.38 1213.17C1676.29 1213.96 1682 1214.16 1687.92 1214.16C1721.22 1214.16 1752.35 1203.33 1782.69 1192.7C1792.35 1189.36 1802.2 1185.81 1812.25 1182.86C1813.43 1183.06 1814.42 1183.25 1815.6 1183.25C1809.69 1185.42 1803.78 1187.78 1797.87 1189.95C1758.65 1205.1 1718.06 1220.65 1673.73 1213.57C1672.55 1213.37 1671.17 1213.17 1669.99 1213.17ZM1675.9 1215.73C1682.6 1216.72 1689.3 1217.11 1695.99 1217.11C1732.05 1217.11 1765.75 1204.12 1798.46 1191.52C1805.55 1188.76 1812.84 1186.01 1820.13 1183.45C1821.51 1183.45 1823.09 1183.45 1824.47 1183.45C1820.92 1185.02 1817.37 1186.4 1813.83 1187.98C1770.67 1206.48 1726.14 1225.57 1676.68 1215.93C1676.49 1215.93 1676.09 1215.93 1675.9 1215.73ZM1814.62 1189.75C1820.13 1187.39 1825.45 1185.22 1830.77 1182.86C1832.74 1182.47 1834.91 1182.07 1836.88 1181.68C1834.71 1182.66 1832.55 1183.84 1830.18 1184.83C1783.88 1207.07 1735.99 1230.1 1681.81 1218.68C1729.69 1225.97 1772.84 1207.66 1814.62 1189.75ZM1830.97 1186.6C1841.41 1181.48 1851.46 1176.76 1861.31 1172.43C1861.71 1172.23 1862.3 1172.03 1862.69 1171.84C1857.37 1174.59 1852.25 1177.54 1846.54 1180.5C1799.25 1206.28 1745.85 1235.22 1686.34 1221.64C1739.34 1230.49 1788.01 1207.27 1830.97 1186.6ZM1847.72 1182.07C1854.42 1178.53 1860.72 1174.99 1867.03 1171.64L1870.77 1169.67C1871.36 1169.28 1872.15 1168.88 1872.74 1168.69C1872.35 1168.88 1871.96 1169.08 1871.56 1169.47C1869 1171.05 1866.44 1172.62 1863.88 1174.2C1816.19 1203.72 1756.88 1240.53 1691.46 1224.39C1749.39 1235.42 1801.41 1207.07 1847.72 1182.07ZM1723.78 1230.1C1776.78 1230.1 1824.66 1200.38 1864.66 1175.77C1867.23 1174.2 1869.79 1172.62 1872.35 1171.05C1875.5 1169.08 1878.65 1167.31 1881.81 1165.34C1880.23 1166.52 1878.46 1167.7 1876.88 1168.88C1833.33 1199.79 1768.51 1246.04 1696.19 1227.54C1705.65 1229.31 1714.71 1230.1 1723.78 1230.1ZM1730.08 1233.45C1789.2 1233.45 1841.22 1196.44 1877.87 1170.26C1882 1167.31 1886.14 1164.36 1890.48 1161.6C1887.72 1163.77 1884.96 1165.73 1882.2 1168.1C1830.97 1209.63 1769.89 1249 1701.32 1230.49C1711.17 1232.46 1720.63 1233.45 1730.08 1233.45ZM1883.38 1169.47C1888.51 1165.34 1893.63 1161.6 1898.75 1157.86C1895.01 1160.81 1891.27 1163.96 1887.52 1167.31C1821.91 1227.54 1762.2 1249.19 1705.85 1233.45C1773.24 1248.8 1833.14 1210.22 1883.38 1169.47ZM1888.9 1168.69C1894.62 1163.57 1900.33 1158.85 1906.24 1154.32C1901.71 1158.06 1897.37 1162.19 1893.04 1166.52C1849.89 1210.81 1784.27 1257.26 1711.36 1236.6C1766.73 1249.78 1825.06 1227.34 1888.9 1168.69ZM1894.42 1168.1C1900.53 1161.8 1907.03 1156.09 1913.53 1150.97C1908.41 1155.5 1903.29 1160.62 1898.56 1166.13C1880.03 1187.19 1850.28 1215.73 1813.04 1232.07C1780.33 1246.44 1747.82 1249.19 1716.29 1239.94C1788.01 1257.07 1852.05 1211.6 1894.42 1168.1ZM1813.83 1233.84C1851.46 1217.31 1881.41 1188.57 1899.94 1167.31C1906.63 1159.63 1913.53 1153.14 1920.82 1147.23C1914.91 1152.55 1909.39 1158.65 1903.88 1165.54C1886.34 1187.78 1857.18 1217.9 1818.36 1235.42C1785.65 1250.18 1753.14 1252.74 1721.41 1243.29C1751.56 1250.77 1782.5 1247.62 1813.83 1233.84ZM1725.55 1246.44C1756.29 1254.51 1787.62 1251.36 1819.15 1237.19C1858.16 1219.47 1887.72 1189.16 1905.45 1166.72C1912.55 1157.86 1919.84 1150.38 1927.72 1143.89C1921.41 1149.99 1915.3 1156.88 1909.39 1164.95C1868.8 1221.05 1800.63 1269.27 1725.55 1246.44ZM1910.97 1165.93C1918.26 1155.7 1926.14 1147.23 1934.62 1140.15C1927.72 1146.84 1921.02 1154.91 1914.91 1164.16C1877.47 1221.05 1808.31 1274.19 1730.28 1249.59C1803.98 1269.27 1870.77 1221.44 1910.97 1165.93ZM1916.49 1165.14C1923.97 1153.73 1932.25 1144.28 1941.12 1136.6C1933.83 1144.08 1926.93 1152.74 1920.43 1163.37C1898.36 1199.98 1867.82 1229.12 1834.52 1245.06C1802.2 1260.61 1768.51 1263.17 1735.6 1252.93C1812.05 1273.6 1879.44 1221.24 1916.49 1165.14ZM1835.31 1246.83C1868.8 1230.69 1899.54 1201.36 1922 1164.36C1929.89 1151.37 1938.36 1141.33 1947.62 1133.06C1939.74 1141.13 1932.45 1150.77 1925.95 1162.78C1904.86 1200.77 1873.53 1231.87 1840.03 1248.6C1807.52 1264.55 1773.43 1267.11 1739.94 1256.28C1771.46 1264.94 1803.98 1261.99 1835.31 1246.83ZM1840.63 1250.18C1874.52 1233.45 1906.24 1201.95 1927.52 1163.77C1935.4 1149.59 1944.27 1138.57 1953.73 1129.91C1945.45 1138.37 1937.96 1149 1931.27 1162.39C1906.44 1211.01 1866.04 1247.82 1823.09 1261C1796.68 1269.07 1770.08 1268.68 1743.48 1259.63C1775.99 1268.68 1809.1 1265.73 1840.63 1250.18ZM1823.48 1262.38C1866.83 1249 1907.62 1211.79 1932.64 1162.98C1940.72 1147.43 1949.59 1135.42 1959.64 1126.37C1951.17 1135.42 1943.29 1146.84 1936.39 1161.4C1912.55 1211.79 1872.35 1250.18 1828.61 1263.96C1801.81 1272.42 1774.62 1271.83 1747.62 1262.38C1773.04 1270.26 1798.46 1270.26 1823.48 1262.38ZM1829.39 1265.93C1873.73 1251.95 1914.32 1213.17 1938.36 1162.39C1946.44 1145.46 1955.5 1132.67 1965.95 1123.22C1957.08 1132.67 1949.2 1145.07 1942.1 1161.01C1919.25 1213.17 1879.25 1253.13 1834.71 1267.5C1808.51 1275.96 1781.91 1275.77 1755.31 1267.11C1779.94 1274 1804.76 1273.6 1829.39 1265.93ZM1947.42 1160.22C1925.55 1214.35 1885.55 1255.49 1840.43 1270.65C1814.22 1279.51 1786.64 1279.11 1759.64 1270.06C1785.06 1277.34 1810.67 1277.15 1835.31 1269.07C1880.23 1254.51 1920.82 1214.16 1943.88 1161.6C1951.56 1143.89 1960.62 1130.7 1970.67 1121.05C1970.67 1121.05 1970.87 1121.05 1970.87 1120.86C1962 1130.7 1954.32 1143.49 1947.42 1160.22ZM2003.58 1098.02C1999.44 1099.6 1995.3 1101.56 1991.56 1103.73C1990.77 1104.12 1990.18 1104.52 1989.39 1104.91C1984.27 1107.47 1979.15 1110.03 1974.02 1112.78C2013.43 1091.13 2057.96 1070.07 2113.73 1058.85C2071.56 1068.89 2035.7 1082.87 2003.58 1098.02ZM2021.12 1092.9C2019.94 1093.1 2018.56 1093.49 2017.37 1093.69C2049.29 1079.32 2084.96 1066.53 2126.93 1057.67C2086.93 1067.51 2052.05 1079.91 2021.12 1092.9ZM2031.95 1091.13C2031.17 1091.33 2030.38 1091.33 2029.59 1091.53C2061.51 1078.34 2097.57 1066.13 2138.95 1057.08C2098.56 1067.12 2063.28 1078.73 2031.95 1091.13ZM2039.25 1090.15C2072.35 1077.55 2109.98 1065.54 2153.14 1055.31C2110.38 1066.53 2073.53 1078.14 2040.62 1089.95C2040.23 1090.15 2039.84 1090.15 2039.25 1090.15ZM2047.72 1089.56C2082.79 1077.16 2122.4 1064.95 2168.7 1053.34C2123.38 1065.74 2083.78 1077.75 2048.7 1089.56C2048.51 1089.36 2048.11 1089.36 2047.72 1089.56ZM2056.39 1088.97C2056.19 1088.97 2055.99 1088.97 2055.8 1088.97C2091.46 1077.16 2131.66 1065.15 2177.77 1052.55C2227.42 1038.97 2251.27 1008.85 2244.76 967.518C2239.84 935.63 2216.59 900.592 2182.5 873.625C2146.24 845.084 2102.5 829.534 2062.5 831.108C1979.74 834.258 1942.5 861.225 1890.28 920.67C1886.14 925.394 1882.2 929.921 1878.26 934.449C1829.39 991.138 1790.58 1035.82 1676.29 1012.59C1601.61 997.437 1571.07 1049.01 1550.97 1083.06C1542.89 1096.84 1536.39 1107.67 1530.08 1108.06H1529.49L1529.3 1108.45C1499.54 1159.04 1488.7 1191.72 1495.6 1211.4C1500.33 1224.59 1511.96 1230.1 1525.55 1235.22C1529.3 1236.6 1533.63 1237.19 1538.36 1237.19C1549 1237.19 1561.81 1234.04 1576.98 1230.3C1591.56 1226.75 1608.51 1222.42 1626.83 1220.65C1607.33 1223.21 1589.39 1228.53 1574.22 1233.05C1553.73 1239.16 1537.77 1244.08 1525.55 1240.34C1510.77 1235.81 1497.97 1231.08 1492.25 1217.7C1483.98 1198.21 1493.04 1163.57 1519.64 1112C1526.14 1111.01 1531.66 1100.58 1539.34 1086.21C1557.87 1051.37 1589.2 993.107 1668.21 1009.84C1788.01 1035.23 1828.41 987.989 1879.25 928.15C1883.38 923.426 1887.32 918.505 1891.66 913.781C1945.85 851.383 1984.27 823.235 2069 822.054C2108.8 821.463 2152.55 838.194 2189 867.72C2223.48 895.671 2247.13 931.89 2252.05 964.171C2258.16 1005.31 2234.71 1035.82 2185.85 1049.99C2176.19 1052.75 2166.93 1055.5 2157.87 1058.26C2120.23 1069.68 2086.54 1079.52 2056.39 1088.97ZM2063.28 1088.77C2091.86 1079.91 2123.38 1070.66 2158.65 1060.43C2167.72 1057.87 2176.98 1055.11 2186.63 1052.16C2253.83 1032.47 2257.77 988.579 2254.02 964.171C2249.1 931.299 2225.26 894.884 2190.38 866.539C2153.53 836.62 2109.39 819.888 2069.2 820.479C1983.88 821.66 1945.06 849.808 1890.48 912.796C1886.34 917.717 1882.2 922.442 1878.06 927.166C1827.42 986.414 1787.42 1033.26 1668.8 1008.26C1588.41 991.335 1556.88 1050.39 1537.97 1085.62C1530.67 1099.4 1524.76 1110.23 1519.25 1110.62H1518.66L1518.46 1111.01C1491.27 1163.37 1482.2 1198.61 1490.68 1218.68C1497.18 1234.04 1512.74 1238.76 1525.16 1242.5C1528.31 1243.49 1531.46 1243.88 1535.01 1243.88C1546.04 1243.88 1559.05 1239.94 1574.81 1235.22C1590.58 1230.49 1608.9 1224.98 1629 1222.62C1607.92 1225.57 1588.8 1232.27 1572.65 1237.97C1553.73 1244.67 1537.18 1250.38 1524.96 1247.62C1508.41 1243.68 1494.22 1239.35 1487.13 1224.98C1477.28 1204.91 1484.37 1168.69 1509 1114.36C1514.71 1113.38 1519.44 1103.53 1526.73 1088.77C1545.26 1050.58 1576.19 986.808 1660.92 1005.51C1785.06 1032.87 1826.64 983.462 1879.44 921.064C1883.58 916.143 1887.92 911.025 1892.25 905.907C1949.98 838.588 1988.41 810.44 2076.09 811.424C2116.09 811.818 2160.23 829.73 2197.27 860.634C2232.74 890.16 2256.78 927.559 2261.71 961.022C2268.01 1002.95 2244.17 1034.44 2195.11 1049.99C2155.7 1062.39 2120.23 1072.63 2089.1 1081.49C2080.03 1084.05 2071.56 1086.41 2063.28 1088.77ZM2076.09 1087C2080.43 1085.82 2084.76 1084.44 2089.29 1083.26C2120.43 1074.2 2155.9 1064.17 2195.5 1051.76C2245.75 1036.02 2269.79 1003.74 2263.48 960.825C2258.56 926.969 2234.12 889.176 2198.46 859.256C2161.02 828.156 2116.49 810.046 2076.09 809.653C2031.76 809.259 1999.05 816.345 1970.08 832.683C1942.1 848.627 1918.06 873.035 1890.87 904.726C1886.54 909.844 1882.2 914.962 1878.06 919.883C1825.85 981.887 1784.47 1030.9 1661.51 1003.74C1575.21 984.643 1543.88 1049.4 1525.16 1087.98C1518.66 1101.56 1513.34 1112.39 1508.41 1112.59H1507.82L1507.62 1113.18C1482.6 1168.29 1475.31 1205.1 1485.55 1225.77C1493.63 1242.11 1511.56 1246.24 1524.57 1249.39C1526.93 1249.98 1529.49 1250.18 1532.05 1250.18C1543.68 1250.18 1557.67 1245.26 1573.43 1239.75C1590.18 1233.84 1610.08 1226.95 1631.96 1224.2C1609.3 1227.54 1589 1235.61 1571.66 1242.7C1552.94 1250.18 1536.98 1256.67 1524.37 1254.51C1506.83 1251.56 1490.48 1247.42 1481.81 1232.07C1470.18 1211.2 1475.5 1173.41 1498.16 1116.52C1503.29 1115.54 1507.42 1105.9 1513.73 1091.33C1530.67 1052.55 1562.4 980.115 1653.24 1000.98C1678.66 1006.89 1700.72 1009.44 1720.23 1009.44C1799.25 1009.44 1835.5 965.943 1879.05 913.781C1883.38 908.466 1887.92 903.348 1892.45 897.837C1952.74 826.778 1992.55 797.449 2082.79 800.598C2172.45 803.551 2261.31 889.373 2271.17 957.479C2277.47 1000.19 2253.63 1032.87 2203.97 1049.4C2155.11 1065.54 2113.33 1076.96 2076.09 1087ZM2089.49 1085.23C2123.38 1075.98 2161.22 1065.54 2204.37 1050.98C2254.81 1034.05 2279.05 1000.78 2272.74 957.085C2261.71 881.302 2165.75 801.386 2082.6 798.63C1991.56 795.48 1951.56 825.006 1890.87 896.656C1886.34 901.97 1881.81 907.285 1877.47 912.6C1823.68 977.163 1781.12 1028.34 1653.43 999.209C1561.22 978.147 1529.1 1051.37 1511.96 1090.54C1506.04 1103.93 1501.51 1114.36 1497.37 1114.56H1496.78L1496.59 1115.15C1473.53 1172.82 1468.21 1211.4 1480.23 1232.86C1489.3 1249 1506.04 1253.13 1523.98 1256.08C1525.75 1256.48 1527.52 1256.48 1529.49 1256.48C1541.51 1256.48 1555.9 1250.57 1572.25 1244.08C1590.18 1236.79 1611.46 1228.33 1635.31 1225.18C1610.87 1228.72 1589.2 1238.56 1570.87 1246.83C1552.35 1255.3 1536.39 1262.38 1523.58 1261C1505.26 1258.84 1486.54 1255.3 1476.29 1238.96C1462.69 1217.31 1466.24 1177.94 1487.13 1118.3C1491.46 1117.31 1495.01 1108.26 1500.72 1093.89C1517.47 1051.76 1548.61 973.226 1645.55 996.059C1672.35 1002.36 1695.6 1005.31 1715.9 1005.31C1796.68 1005.31 1833.93 960.235 1878.65 906.104C1883.19 900.592 1887.72 895.081 1892.45 889.373C1922.99 852.957 1947.82 827.171 1976.98 810.637C2007.72 793.315 2042.2 786.623 2089.29 789.378C2129.69 791.74 2174.81 812.212 2213.04 845.478C2250.08 877.956 2275.3 918.308 2280.43 953.739C2284.76 984.446 2276.68 1025.98 2212.84 1048.62C2166.14 1065.35 2125.75 1076.17 2089.49 1085.23ZM2101.91 1084.05C2135.01 1075.58 2171.66 1065.35 2213.24 1050.58C2263.88 1032.67 2288.51 998.224 2282 953.739C2270.97 876.381 2173.63 792.528 2089.1 787.804C2041.81 785.048 2006.73 791.74 1975.8 809.259C1946.44 825.99 1921.41 851.973 1890.67 888.585C1885.95 894.294 1881.41 899.805 1876.88 905.317C1821.31 972.635 1777.57 1025.78 1645.55 994.681C1547.03 971.454 1515.5 1050.78 1498.56 1093.49C1493.43 1106.49 1489.3 1116.72 1485.95 1116.92H1485.35L1485.16 1117.51C1464.07 1177.94 1460.53 1218.09 1474.32 1240.14C1484.96 1257.26 1504.27 1260.81 1522.99 1263.17C1524.17 1263.37 1525.55 1263.37 1526.73 1263.37C1539.34 1263.37 1554.32 1256.67 1571.27 1248.8C1590.18 1240.34 1612.45 1230.1 1637.47 1226.95C1611.86 1230.89 1589.2 1242.3 1570.08 1251.75C1551.56 1261 1535.8 1269.07 1522.4 1268.09C1502.69 1266.71 1482.4 1263.96 1470.38 1246.44C1455.01 1224.2 1456.78 1182.86 1475.7 1120.66C1479.44 1119.48 1482.6 1111.01 1487.52 1097.23C1495.21 1075.58 1507.03 1042.91 1529.69 1018.89C1556.68 990.154 1592.94 981.1 1637.47 991.926C1774.81 1025.19 1820.33 969.683 1877.87 899.214C1882.6 893.506 1887.32 887.601 1892.25 881.893C1955.5 805.913 1996.09 771.072 2095.6 778.946C2136.19 782.095 2181.91 803.944 2220.72 838.588C2259.34 873.035 2284.37 913.977 2289.49 950.786C2293.83 982.084 2285.55 1024.6 2221.31 1048.62C2176.59 1065.15 2137.37 1075.78 2101.91 1084.05ZM2115.5 1082.67C2147.42 1074.79 2182.69 1064.76 2222.3 1049.99C2287.72 1025.59 2295.99 982.281 2291.66 950.196C2286.54 912.993 2261.12 871.657 2222.3 837.013C2183.09 801.976 2137.18 780.127 2096.19 776.978C1995.9 769.104 1954.91 804.141 1891.27 880.515C1886.34 886.42 1881.61 892.128 1876.88 897.837C1819.74 967.714 1774.62 1023.03 1638.26 989.957C1533.43 964.565 1501.51 1053.54 1486.14 1096.45C1481.81 1108.45 1478.26 1118.69 1475.31 1118.89H1474.71L1474.52 1119.48C1455.21 1182.66 1453.43 1224.59 1469.2 1247.42C1481.81 1265.53 1503.29 1268.68 1522.6 1269.86C1523.38 1269.86 1524.17 1269.86 1524.96 1269.86C1538.36 1269.86 1553.73 1262.19 1571.27 1253.33C1590.77 1243.49 1613.83 1231.87 1639.84 1228.33C1613.24 1232.66 1589.99 1245.45 1570.28 1256.28C1551.76 1266.52 1535.8 1275.18 1522.01 1274.98C1501.91 1274.39 1479.05 1272.42 1465.06 1253.72C1447.72 1230.69 1447.72 1187.78 1465.06 1122.63C1468.21 1121.64 1470.38 1114.75 1475.11 1100.38C1489.69 1054.72 1520.23 960.038 1630.18 987.202C1771.86 1022.44 1818.75 964.762 1877.87 891.735C1882.6 885.829 1887.52 879.727 1892.64 873.625C1958.46 793.906 2000.43 757.49 2102.5 767.923C2143.28 772.057 2189.39 795.087 2229 831.108C2268.41 867.13 2294.02 909.45 2299.34 947.243C2303.68 979.131 2295.4 1022.63 2230.77 1047.83C2188.01 1064.36 2149.59 1074.99 2115.5 1082.67ZM2125.16 1082.27C2156.88 1074.79 2192.35 1064.56 2231.36 1049.4C2297.18 1023.81 2305.65 979.525 2301.12 946.85C2295.8 908.663 2269.98 865.752 2230.18 829.534C2190.38 793.315 2143.88 770.088 2102.69 765.955C1999.84 755.522 1957.47 792.134 1891.27 872.248C1886.14 878.35 1881.22 884.452 1876.49 890.357C1817.77 962.99 1771.27 1020.27 1630.58 985.233C1582.5 973.226 1543.88 983.462 1515.5 1015.15C1492.05 1041.53 1480.82 1076.37 1473.34 1099.4C1469.79 1110.62 1466.64 1120.46 1464.27 1120.46H1463.68L1463.48 1121.05C1445.95 1186.99 1445.95 1230.69 1463.68 1254.31C1478.06 1273.6 1501.32 1275.77 1522.01 1276.36C1522.2 1276.36 1522.6 1276.36 1522.79 1276.36C1536.98 1276.36 1552.74 1267.7 1571.07 1257.46C1591.17 1246.44 1614.81 1233.45 1641.81 1229.51C1614.42 1234.23 1590.38 1248.41 1570.08 1260.41C1551.36 1271.44 1535.4 1281.08 1521.02 1281.28C1497.97 1281.67 1474.52 1279.31 1459.35 1260.61C1440.43 1237.19 1438.66 1191.32 1454.02 1124.2C1456.59 1123.22 1458.36 1116.92 1462.3 1103.34C1475.31 1058.26 1505.65 952.361 1622.3 982.084C1768.31 1019.29 1816.39 959.447 1877.28 883.861C1882.2 877.562 1887.32 871.263 1892.64 864.965C1961.02 781.505 2004.57 743.515 2109 756.506C2150.18 761.624 2196.68 785.835 2236.68 823.038C2277.08 860.634 2303.28 904.332 2308.41 943.306C2312.74 975.785 2304.27 1020.27 2239.25 1046.84C2197.27 1064.56 2159.05 1074.99 2125.16 1082.27ZM2240.23 1049.01C2306.44 1022.04 2315.11 976.769 2310.58 943.503C2305.26 904.135 2279.05 860.044 2238.26 822.251C2197.87 784.851 2150.97 760.246 2109.39 755.325C2004.17 742.334 1960.23 780.521 1891.46 864.571C1886.14 870.87 1881.22 877.365 1876.09 883.467C1815.6 958.66 1767.92 1018.11 1622.89 981.1C1504.47 950.983 1473.73 1057.87 1460.72 1103.53C1457.97 1113.18 1455.01 1123.02 1453.43 1123.22H1452.65L1452.45 1123.81C1436.49 1192.7 1438.46 1237.97 1458.16 1262.38C1472.94 1280.69 1495.21 1283.84 1517.67 1283.84C1518.85 1283.84 1520.03 1283.84 1521.41 1283.84C1536.19 1283.64 1552.55 1274 1571.46 1262.58C1592.94 1249.78 1616.59 1235.61 1643.98 1231.48C1616.19 1236.4 1592.35 1251.56 1570.67 1265.53C1551.76 1277.54 1535.6 1287.97 1520.63 1288.76C1479.05 1290.73 1463.68 1279.7 1454.02 1268.68C1433.14 1244.47 1429.39 1196.83 1443.19 1126.96C1445.16 1125.97 1446.73 1120.66 1449.89 1107.86C1457.57 1077.55 1473.73 1014.37 1520.63 986.611C1546.24 971.454 1577.97 968.699 1614.81 978.344C1646.73 986.611 1674.32 990.351 1698.16 990.351C1786.83 990.351 1827.82 938.976 1877.08 877.169C1882.2 870.673 1887.52 864.177 1892.84 857.485C1929.69 812.212 1957.28 782.292 1989 763.986C2023.68 743.909 2062.89 738.397 2115.5 746.074C2156.29 751.979 2204.57 778.159 2244.76 815.952C2286.14 854.926 2312.74 900.396 2317.87 940.157C2323.97 987.792 2299.93 1024.4 2248.11 1046.45C2206.93 1063.97 2169.49 1074.4 2135.99 1081.49C2167.52 1074.6 2202.2 1064.36 2240.23 1049.01ZM2249.1 1048.42C2315.7 1020.07 2324.37 973.816 2320.03 940.157C2314.71 899.805 2287.92 854.138 2246.34 814.771C2205.94 776.584 2157.28 750.207 2116.09 744.302C2062.89 736.626 2023.48 742.137 1988.41 762.411C1956.29 780.914 1928.7 810.834 1891.66 856.304C1886.34 862.996 1881.02 869.492 1875.9 875.988C1813.83 953.739 1764.76 1015.15 1615.6 976.375C1578.16 966.73 1546.04 969.486 1520.03 984.839C1472.35 1012.99 1456.19 1076.57 1448.31 1107.27C1446.14 1115.93 1443.78 1124.79 1442.6 1125.19H1441.81L1441.61 1125.97C1427.62 1196.83 1431.36 1245.26 1452.65 1269.86C1461.71 1280.29 1475.9 1290.92 1510.97 1290.92C1514.12 1290.92 1517.28 1290.92 1520.63 1290.73C1536 1289.94 1552.35 1279.51 1571.46 1267.11C1593.73 1252.93 1618.36 1237.19 1646.93 1232.86C1617.97 1237.78 1593.33 1254.71 1570.87 1270.06C1551.76 1283.05 1535.21 1294.47 1519.84 1295.65C1495.21 1297.62 1467.62 1297.03 1448.51 1276.16C1425.65 1251.36 1420.13 1201.76 1432.35 1128.93C1433.93 1127.94 1434.91 1123.41 1437.67 1111.8C1444.76 1079.52 1459.74 1012.4 1509.2 982.477C1535.6 966.337 1568.7 963.384 1607.33 973.62C1640.63 982.477 1669.2 986.414 1694.02 986.414C1784.66 986.414 1826.64 933.268 1877.08 869.886C1882.4 863.193 1887.72 856.304 1893.43 849.414C1926.54 808.472 1956.68 772.844 1992.55 752.176C2028.41 731.508 2068.41 726.193 2122.6 735.248C2163.78 742.137 2212.45 769.498 2253.24 808.669C2295.4 849.217 2322.59 896.065 2327.72 937.008C2333.83 985.43 2309.59 1023.22 2257.37 1046.25C2216.78 1064.17 2180.13 1074.6 2146.83 1081.29C2177.77 1074.4 2211.86 1064.36 2249.1 1048.42ZM2257.96 1047.83C2324.96 1018.3 2333.83 971.061 2329.49 936.614C2324.17 895.278 2296.98 848.036 2254.42 807.094C2213.43 767.726 2164.37 740.169 2122.79 733.279C2068.21 724.225 2027.62 729.539 1991.36 750.404C1955.3 771.466 1924.96 807.094 1891.86 848.233C1886.34 855.123 1880.82 862.012 1875.5 868.704C1811.86 949.015 1761.61 1012.59 1607.92 971.848C1568.7 961.416 1535.21 964.565 1508.21 980.903C1458.16 1011.22 1442.99 1078.93 1435.9 1111.41C1434.12 1119.08 1432.55 1126.37 1431.56 1127.35H1430.97L1430.77 1128.14C1418.36 1201.76 1423.88 1252.15 1447.33 1277.54C1462.69 1294.27 1483.38 1298.4 1503.68 1298.4C1509.2 1298.4 1514.91 1298.01 1520.23 1297.62C1536.19 1296.24 1552.74 1284.82 1572.05 1271.63C1594.71 1256.08 1619.94 1238.96 1649.3 1234.43C1619.54 1239.75 1594.32 1258.05 1571.46 1274.59C1551.96 1288.76 1535.21 1300.77 1519.25 1302.54C1495.01 1305.29 1464.27 1305.69 1442.99 1283.64C1417.97 1258.05 1410.87 1206.68 1421.32 1130.89C1422.5 1129.91 1423.29 1126.17 1425.06 1116.13C1431.17 1084.64 1445.16 1010.82 1497.18 978.344C1524.57 961.219 1559.05 958.069 1599.44 969.092C1634.12 978.344 1663.48 982.674 1689.3 982.674C1781.91 982.674 1824.86 927.953 1876.29 862.602C1881.81 855.713 1887.32 848.43 1893.04 841.344C1964.76 751.979 2011.07 702.376 2128.9 724.422C2170.28 732.098 2219.74 760.837 2260.92 801.189C2304.07 843.312 2331.66 891.735 2336.78 933.661C2342.89 982.871 2318.26 1021.65 2265.85 1045.66C2225.85 1063.97 2189.59 1074.4 2156.68 1081.09C2187.62 1074.2 2221.31 1064.17 2257.96 1047.83ZM2266.83 1047.43C2320.23 1023.03 2345.06 983.658 2338.95 933.464C2333.83 891.144 2305.85 842.328 2262.5 800.008C2220.92 759.459 2171.27 730.524 2129.49 722.65C2073.53 712.218 2031.95 717.139 1994.52 738.791C1957.67 760.049 1926.14 797.449 1891.86 840.36C1886.14 847.643 1880.43 854.729 1875.11 861.618C1809.89 944.684 1758.26 1010.23 1600.23 967.518C1559.25 956.495 1524.37 959.644 1496.39 977.163C1443.78 1010.03 1429.59 1084.44 1423.48 1116.13C1422.3 1122.63 1421.12 1128.53 1420.33 1129.71H1419.74L1419.54 1130.5C1408.7 1207.07 1416.19 1259.23 1441.61 1285.41C1457.57 1301.95 1478.66 1306.08 1498.36 1306.08C1505.65 1306.08 1512.74 1305.49 1519.25 1304.7C1535.8 1302.93 1552.74 1290.53 1572.25 1276.36C1594.91 1259.82 1619.94 1241.71 1649.3 1236.6C1619.74 1242.5 1594.52 1261.79 1571.66 1279.31C1552.74 1293.88 1534.81 1307.46 1518.26 1309.82C1492.84 1313.36 1460.72 1314.54 1437.28 1291.71C1410.28 1265.33 1401.22 1212.19 1410.28 1133.26C1411.07 1132.47 1411.46 1129.52 1412.84 1121.25C1417.77 1090.94 1430.58 1010.03 1485.35 974.801C1513.73 956.495 1549.59 953.148 1591.96 964.762C1627.82 974.604 1658.36 978.934 1684.76 978.934C1779.15 978.934 1823.09 922.835 1875.7 855.91C1881.41 848.627 1887.32 840.95 1893.43 833.47C1967.52 740.169 2015.21 688.597 2135.8 713.595C2177.57 722.256 2227.62 752.373 2269.39 793.906C2313.33 837.604 2341.71 887.404 2346.83 930.512C2352.74 980.509 2328.11 1020.27 2275.11 1045.27C2235.7 1063.97 2199.64 1074.6 2166.93 1080.9C2197.27 1074.2 2230.58 1063.97 2266.83 1047.43ZM2275.9 1046.84C2329.49 1021.45 2354.71 981.1 2348.6 930.118C2343.48 886.617 2315.11 836.423 2270.77 792.528C2228.8 750.798 2178.56 720.485 2136.39 711.824C2079.05 699.817 2036.29 704.541 1997.87 726.98C1960.23 748.83 1927.72 787.607 1892.25 832.289C1886.14 839.966 1880.23 847.446 1874.52 854.926C1807.72 940.157 1754.91 1007.67 1592.74 962.99C1549.99 951.18 1513.53 954.723 1484.76 973.226C1429.39 1008.85 1416.39 1090.35 1411.46 1120.86C1410.68 1125.97 1409.89 1130.5 1409.49 1131.68H1409.1V1132.47C1399.84 1212.19 1409.1 1266.12 1436.68 1292.89C1453.24 1309.03 1474.12 1313.56 1493.83 1313.56C1502.69 1313.56 1511.36 1312.58 1519.25 1311.59C1536.39 1309.23 1554.32 1295.45 1573.43 1280.69C1597.28 1262.38 1623.68 1242.11 1655.01 1237.58C1623.48 1243.09 1597.08 1264.35 1573.04 1283.64C1553.73 1299.19 1535.6 1313.76 1518.26 1316.71C1493.83 1320.84 1458.36 1323.4 1432.35 1299.39C1403.19 1272.42 1392.35 1217.11 1399.84 1135.42C1400.23 1134.63 1400.63 1132.47 1401.22 1126.56C1404.76 1097.63 1415.8 1009.64 1473.73 971.061C1503.09 951.574 1540.33 948.031 1584.67 960.235C1621.71 970.667 1653.24 975.194 1680.63 975.194C1777.18 975.194 1822.1 917.521 1875.7 848.627C1881.61 841.147 1887.72 833.273 1893.83 825.4C1970.67 728.358 2019.94 674.818 2142.69 702.769C2184.86 712.414 2235.3 743.712 2277.67 786.426C2322.59 831.699 2351.36 883.074 2356.49 927.166C2362.4 978.147 2337.37 1018.7 2284.17 1044.68C2244.96 1063.77 2209.1 1074.6 2176.59 1080.9C2206.73 1074.2 2239.84 1063.77 2275.9 1046.84ZM2284.76 1046.25C2338.75 1019.88 2364.17 978.541 2358.06 926.772C2352.94 882.286 2323.97 830.518 2278.85 784.851C2236.29 741.94 2185.45 710.446 2142.89 700.604C2019.15 672.259 1969.49 726.193 1892.25 823.825C1885.95 831.699 1880.03 839.375 1874.12 847.052C1839.05 891.931 1808.9 930.906 1766.14 953.345C1719.25 977.95 1661.71 979.525 1585.06 958.069C1540.33 945.472 1502.5 949.212 1472.74 969.092C1414.22 1008.07 1402.99 1096.64 1399.44 1125.78C1399.05 1129.32 1398.06 1134.24 1398.06 1134.24C1390.38 1216.91 1401.41 1272.62 1430.97 1300.18C1448.31 1316.32 1469.59 1320.65 1489.3 1320.65C1499.74 1320.65 1509.79 1319.47 1518.46 1317.89C1536.19 1314.94 1554.52 1300.18 1574.02 1284.43C1598.26 1264.94 1625.26 1243.29 1656.98 1238.37C1624.86 1244.08 1597.87 1266.71 1573.43 1287.38C1553.73 1303.92 1535.21 1319.47 1517.28 1323.01C1491.86 1327.93 1454.62 1331.47 1426.64 1306.47C1395.5 1278.72 1382.69 1221.64 1388.8 1136.8C1389 1136.21 1389.2 1134.83 1389.39 1131.88C1398.06 1030.7 1433.53 986.217 1461.51 966.927C1491.86 946.062 1530.67 942.125 1576.98 955.314C1615.21 966.14 1647.72 970.864 1676.09 970.864C1775.01 970.864 1820.92 911.615 1875.7 840.557C1881.61 832.88 1887.92 824.809 1894.22 816.936C1973.63 715.957 2024.66 660.449 2149.59 691.549C2192.15 702.179 2243.19 734.854 2286.14 778.749C2332.05 825.794 2361.22 878.546 2366.14 923.623C2371.86 975.391 2346.63 1016.92 2293.24 1043.89C2254.42 1063.38 2218.75 1074.4 2186.04 1080.5C2215.99 1074.2 2248.9 1063.77 2284.76 1046.25ZM2301.71 1043.5C2262.89 1063.58 2227.42 1074.6 2194.71 1080.7C2225.06 1074.2 2257.96 1063.57 2293.63 1045.66C2347.82 1018.3 2373.43 976.179 2367.72 923.623C2362.59 878.153 2333.24 824.809 2287.13 777.568C2243.97 733.279 2192.55 700.604 2149.59 689.975C2023.68 658.677 1972.25 714.58 1892.45 815.952C1886.14 824.022 1880.03 831.896 1873.93 839.572C1838.06 885.829 1807.13 925.985 1763.19 949.015C1715.11 974.21 1656 975.785 1577.18 953.542C1530.28 940.157 1490.87 944.094 1460.13 965.352C1408.7 1000.78 1392.15 1075.39 1387.23 1131.68C1387.03 1133.26 1386.83 1135.62 1386.83 1135.62V1136.41C1380.72 1222.03 1393.73 1279.7 1425.26 1307.85C1443.19 1323.8 1464.67 1328.32 1484.37 1328.32C1496.39 1328.32 1507.62 1326.75 1517.47 1324.78C1535.8 1321.24 1554.52 1305.49 1574.42 1288.76C1597.87 1269.07 1623.68 1247.23 1654.22 1240.73C1623.68 1248.01 1597.87 1270.65 1574.02 1291.51C1553.93 1309.03 1535.01 1325.76 1516.49 1329.7C1475.11 1338.56 1443.78 1333.44 1421.12 1313.95C1387.82 1285.61 1373.24 1226.56 1377.77 1138.37C1377.77 1137.19 1379.35 1015.35 1447.13 964.762C1466.83 949.999 1490.28 942.716 1517.28 942.716C1533.43 942.716 1550.77 945.472 1569.3 950.786C1608.9 962.203 1642.6 967.321 1671.76 967.321C1772.45 967.321 1819.34 906.301 1875.3 833.47C1881.41 825.597 1887.72 817.33 1894.22 809.062C1934.81 757.294 1969.1 715.761 2008.51 692.534C2049.89 668.126 2095.4 664.583 2156.09 680.92C2199.05 692.534 2250.87 726.39 2294.22 771.466C2340.92 820.085 2370.67 874.413 2375.6 920.67C2381.12 973.226 2355.5 1015.74 2301.71 1043.5Z" fill="#FF900C"/>
</g>
<defs>
<filter id="filter0_f_2970_14493" x="-245" y="-426" width="2665" height="2250" filterUnits="userSpaceOnUse" color-interpolation-filters="sRGB">
<feFlood flood-opacity="0" result="BackgroundImageFix"/>
<feBlend mode="normal" in="SourceGraphic" in2="BackgroundImageFix" result="shape"/>
<feGaussianBlur stdDeviation="250" result="effect1_foregroundBlur_2970_14493"/>
</filter>
<linearGradient id="paint0_linear_2970_14493" x1="271" y1="692.966" x2="1920" y2="699.43" gradientUnits="userSpaceOnUse">
<stop stop-color="#00A551" stop-opacity="0.2"/>
<stop offset="0.479016" stop-color="#FFB55C" stop-opacity="0.2"/>
<stop offset="1" stop-color="#F23B3D" stop-opacity="0.2"/>
</linearGradient>
<clipPath id="clip0_2970_14493">
<rect width="1920" height="1277" fill="white"/>
</clipPath>
</defs>
</svg>
