<svg width="1027" height="601" viewBox="0 0 1027 601" fill="none" xmlns="http://www.w3.org/2000/svg">
<path opacity="0.15" d="M0.8966 318.199C0.966752 365.131 24.6551 422.738 66.2184 476.341C104.616 526.235 152.666 565.692 194.492 582.101C318.117 630.139 377.045 578.312 470.487 482.31C477.842 474.791 485.001 467.25 491.921 460.08C533.509 416.473 569.478 378.989 616.687 360.343C668.459 339.816 728.923 345.176 806.761 376.772C854.972 396.447 897.033 396.052 931.333 375.81C1004.6 332.467 1019.68 211.544 1019.94 209.196C1034 121.425 1025.71 60.7343 995.327 28.3391C980.921 13.1176 961.856 4.32115 937.369 1.669C926.203 0.459624 913.909 0.513956 900.683 1.85334C881.235 3.90485 860.432 18.4808 838.542 33.9292C794.568 64.8047 744.579 99.9784 684.325 54.2505C649.171 27.4762 610.172 17.9066 571.812 26.2253C524.71 36.5671 480.079 73.5092 452.267 125.34C443.048 142.755 432.987 155.128 422.111 164.048C419.654 164.772 417.002 165.474 414.349 166.177C411.087 167.012 407.826 167.847 404.39 168.464C398.714 169.632 393.038 170.799 387.166 171.945C382.533 172.631 377.879 173.513 373.246 174.199C368.83 174.711 364.415 175.222 359.782 175.908C355.583 176.246 351.385 176.583 346.969 177.095C342.987 177.257 338.789 177.594 334.59 177.932C333.002 177.958 331.413 177.984 330.021 178.031C327.628 178.168 325.256 178.109 322.667 178.224C318.902 178.212 314.921 178.375 311.156 178.364C307.587 178.373 303.823 178.361 300.059 178.349C296.511 178.163 292.747 178.151 288.982 178.14C285.435 177.954 282.084 177.789 278.319 177.777C274.968 177.612 271.42 177.426 267.873 177.239C218.512 173.675 159.72 174.831 88.3414 202.541C31.2637 224.473 0.763518 264.53 0.8966 318.199ZM258.74 232.281C248.997 249.045 252.764 272.816 268.858 292.576C277.244 302.988 292.777 316.946 318.408 323.682C342.492 330.052 369.209 328.59 398.166 319.253C445.798 304.019 473.845 288.445 496.999 274.124C498.91 272.945 500.822 271.766 502.537 270.566C534.857 250.308 558.25 235.616 622.447 237.619C637.854 238.1 653.431 237.015 670.03 235.645C681.408 234.898 693.003 233.975 705.536 233.551C706.123 233.615 706.515 233.657 707.103 233.721C701.273 234.475 695.619 235.447 690.16 236.439C669.781 239.776 650.598 243.044 629.79 241.186C561.819 235.606 536.8 252.498 502.378 275.696C500.033 277.224 497.666 278.948 495.124 280.454C467.564 298.852 439.168 313.992 389.943 327.47C348.676 338.839 292.855 336.357 260.858 295.076C245.198 274.967 241.235 251.174 250.761 234.585C256.607 224.527 266.424 218.066 280.015 215.183C268.039 219.627 261.902 226.882 258.74 232.281ZM288.566 214.921C279.719 217.922 272.989 223.331 268.636 230.581C258.956 246.758 262.962 270.159 278.574 288.877C288.554 301.045 327.524 338.33 405.971 309.407C452.205 292.437 478.6 277.477 499.933 265.334C542.165 241.397 564.975 228.425 686.364 233.058C680.773 233.443 675.377 233.848 669.982 234.254C653.405 235.428 637.807 236.709 622.595 236.249C557.811 234.182 534.397 249.07 501.664 269.481C499.752 270.66 498.037 271.86 496.125 273.039C469.344 289.74 442.467 303.658 397.706 318.015C356.857 331.014 301.957 331.007 270.336 291.746C254.983 272.462 250.913 249.649 260.397 233.451C265.831 223.546 275.605 217.477 288.566 214.921ZM248.866 233.786C239.08 250.941 242.959 275.516 259.142 296.276C267.661 307.296 283.305 322.058 309.571 330.248C333.941 337.639 360.922 337.394 390.123 329.469C439.565 315.817 468.157 300.698 495.934 282.126C498.301 280.402 500.842 278.896 503.188 277.368C537.414 254.148 562.216 237.431 629.578 243.143C650.799 244.848 669.96 241.775 690.557 238.264C699.235 236.828 708.109 235.414 717.353 234.237C717.745 234.279 718.137 234.322 718.724 234.385C719.9 234.513 721.096 234.444 722.272 234.572C716.988 235.781 711.682 237.186 706.573 238.613C685.156 244.213 662.934 249.924 637.118 246.732C635.355 246.541 633.591 246.35 632.024 246.18C564.047 238.818 536.752 258.432 502.378 283.022C499.794 284.92 497.014 286.797 494.213 288.869C465.223 309.488 435.132 325.632 382.27 337.924C318.622 352.809 272.964 327.867 251.666 299.426C235.721 278.296 231.667 253.504 241.236 236.523C247.363 225.703 258.027 218.741 272.64 215.572C261.945 219.165 253.955 225.23 248.866 233.786ZM239.362 235.528C229.316 253.249 233.502 278.65 249.972 300.43C262.445 317.026 280.302 329.652 301.3 337.074C325.935 345.682 353.202 346.457 382.471 339.728C435.551 327.261 465.858 310.943 495.044 290.345C497.824 288.468 500.625 286.396 503.209 284.498C538.039 259.364 565.551 239.575 636.731 248.472C662.939 251.706 685.357 246.017 706.795 240.221C714.144 238.245 721.689 236.29 729.192 234.727C731.564 234.786 733.74 234.824 736.112 234.883C731.177 236.526 726.242 238.169 721.286 240.009C698.397 248.221 674.682 256.74 643.9 251.822C568.294 239.872 538.939 262.035 501.615 290.067C498.814 292.139 495.795 294.386 492.777 296.633C461.098 320.129 430.356 336.796 374.073 347.728C309.679 360.354 263.492 332.979 241.733 303.3C225.348 280.736 221.12 255.728 230.991 237.79C237.377 226.404 248.909 218.743 264.74 215.31C253.394 219.427 244.535 226.189 239.362 235.528ZM229.662 237.25C219.532 255.754 223.675 281.545 240.388 304.738C262.475 335.047 309.229 362.681 374.428 349.944C430.928 338.838 462.082 322.017 493.783 298.326C496.801 296.079 499.623 293.811 502.62 291.76C539.51 264.077 568.648 242.088 643.471 253.953C674.645 258.914 698.556 250.416 721.662 242.029C728.466 239.598 735.074 237.146 741.814 235.302C742.01 235.323 742.402 235.366 742.598 235.387C738.034 237.269 733.427 239.542 728.821 241.815C707.504 251.979 683.057 263.587 651.01 257.542C571.566 242.602 540.389 266.944 501.18 297.741C498.14 300.184 495.101 302.627 491.866 305.048C457.475 331.616 425.886 348.786 366.379 358.378C301.435 368.767 254.697 339.154 232.695 308.063C216.024 284.478 211.706 258.47 221.64 239.945C228.328 227.602 240.708 219.439 257.757 215.742C244.843 219.689 235.333 226.974 229.662 237.25ZM219.983 238.775C209.594 257.845 214.023 284.657 231.022 308.871C253.569 340.418 300.852 370.486 366.602 359.986C426.5 350.436 458.306 333.092 492.914 306.35C496.149 303.928 499.189 301.486 502.228 299.043C541.199 268.615 571.941 244.622 650.623 259.282C683.454 265.412 707.922 253.608 729.652 243.29C735.714 240.383 741.56 237.651 747.363 235.309C750.54 235.257 753.52 235.184 756.501 235.111C752.091 237.405 747.638 240.091 742.793 242.734C720.179 255.728 694.806 270.403 657.988 262.653C574.467 245.094 541.686 271.44 500.417 304.786C497.16 307.404 493.904 310.021 490.648 312.638C454.197 341.754 420.892 360.124 358.4 368.007C293.079 376.376 245.595 344.504 223.154 311.979C206.197 287.374 201.81 260.17 211.787 241.253C217.241 231.153 228.414 219.493 252.293 214.952C237.574 219.1 226.391 227.194 219.983 238.775ZM210.501 240.322C200.047 259.979 204.37 287.77 221.851 313.026C244.642 345.985 292.671 378.311 358.796 369.832C421.506 361.775 455.203 343.447 491.87 314.156C495.127 311.539 498.6 308.747 501.64 306.305C522.502 289.359 540.521 274.878 564.04 266.337C589.82 257.052 619.607 256.517 657.601 264.393C695.007 272.207 720.793 257.378 743.624 244.21C749.554 240.694 755.246 237.549 760.896 234.795C764.268 234.764 767.466 234.517 770.664 234.269C766.211 236.955 761.52 240.01 756.591 243.436C734.135 258.625 706.337 277.393 664.965 267.765C577.389 247.39 543.178 275.957 499.828 312.048C496.551 314.861 493.077 317.653 489.583 320.64C449.987 353.178 416.052 371.875 350.769 378.07C284.877 384.397 237.038 350.309 214.158 316.35C196.566 290.29 192.222 262.695 202.5 242.821C209.988 228.585 224.083 219.222 244.155 215.061C225.131 220.524 215.478 230.962 210.501 240.322ZM758.302 233.128C759.106 233.017 759.89 233.102 760.695 232.991C759.89 233.102 759.085 233.213 758.302 233.128ZM765.656 232.935C765.852 232.956 765.873 232.76 766.069 232.781C769.267 232.534 772.269 232.265 775.271 231.996C775.054 232.171 774.858 232.149 774.641 232.324C771.639 232.593 768.658 232.666 765.656 232.935ZM200.997 242.065C190.241 262.679 194.718 290.882 212.638 317.572C235.868 351.964 284.448 386.528 350.949 380.069C416.841 373.743 450.993 354.871 490.806 322.159C494.279 319.367 497.774 316.38 501.051 313.567C543.967 277.825 577.94 249.628 664.753 269.722C706.908 279.435 735.141 260.318 757.813 244.955C763.807 240.852 769.584 236.924 775.059 233.953C778.649 233.748 782.064 233.326 785.479 232.904C780.766 236.155 775.794 239.972 770.605 243.964C747.44 262.046 718.434 284.643 672.314 273.115C580.661 250.121 544.846 280.692 499.436 319.331C495.941 322.319 492.23 325.481 488.735 328.468C445.994 364.427 411.625 383.473 343.16 387.937C276.892 392.244 227.301 354.204 204.987 320.505C187.131 293.228 182.696 264.633 193.256 243.998C201.045 228.805 216.422 218.591 238.299 214.228C216.819 220.415 206.255 231.943 200.997 242.065ZM872.024 174.961C871.113 176.05 870.181 177.335 869.053 178.599C869.053 178.599 869.053 178.599 869.075 178.403C870.202 177.139 871.113 176.05 872.024 174.961ZM872.544 166.503C873.248 161.828 872.407 156.787 870.411 151.423C864.033 135.289 840.584 123.048 805.576 116.88C842.236 122.435 863.043 131.618 870.067 145.446C874.181 153.217 874.853 159.824 872.544 166.503ZM887.201 148.292C887.847 138.66 883.258 131.629 875.772 123.889C863.659 111.292 837.826 110.078 805.095 108.513C800.568 108.22 795.824 108.103 791.102 107.789C799.197 108.072 807.118 108.138 814.647 108.161C842.565 108.413 864.739 108.637 875.973 118.367C883.216 124.695 890.199 131.589 890.251 142.088C890.393 153.587 882.233 168.543 864.859 188.044C865.834 186.368 866.591 184.866 867.369 183.168C880.168 169.309 886.554 157.923 887.201 148.292ZM805.1 110.295C837.44 111.818 863.076 113.011 874.644 125.153C881.584 132.438 886.195 139.273 885.437 148.101C884.892 154.971 881.259 162.893 874.105 172.216C878.961 165.812 881.794 159.784 882.583 154.325C884.231 144.604 879.334 136.748 874.442 130.675C862.43 115.316 832.394 112.657 794.067 109.694C797.789 110.097 801.553 110.109 805.1 110.295ZM873.118 131.917C877.989 138.186 882.383 145.196 880.82 154.134C880.306 157.049 879.162 160.29 877.41 163.664C877.711 162.707 878.23 161.576 878.336 160.597C880.746 151.157 876.85 143.211 873.113 137.46C862.795 121.098 833.686 115.371 797.402 111.837C833.553 114.763 861.784 117.622 873.118 131.917ZM871.593 138.682C876.839 146.971 878.316 153.467 876.573 160.406C876.229 161.755 875.689 163.082 875.128 164.605C876.589 158.428 875.504 151.975 871.741 144.637C862.768 126.836 833.521 118.719 801.87 114.499C835.586 117.953 862.127 123.599 871.593 138.682ZM868.759 152.036C871.104 157.834 871.728 163.049 870.59 168.074C870.558 164.704 870.114 161.488 869.082 158.209C863.19 137.574 835.083 124.432 804.036 118.297C839.064 124.269 862.555 136.119 868.759 152.036ZM867.255 158.605C868.684 163.709 868.917 168.882 868.17 173.949C868.334 170.601 868.064 167.602 867.556 164.973C863.867 145.963 841.256 129.654 811.008 121.627C840.97 128.633 862.486 142.249 867.255 158.605ZM866.364 174.15C866.253 173.346 866.338 172.563 866.227 171.759C864.126 152.722 844.231 135.124 817.721 125.521C843.553 134.061 862.57 148.792 865.925 165.391C866.259 167.802 866.529 170.802 866.364 174.15ZM864.4 172.155C864.469 173.35 864.516 174.741 864.585 175.937C862.067 155.271 840.228 135.483 812.718 125.969C840.705 134.742 862.146 152.706 864.4 172.155ZM862.896 178.724C862.076 173.487 860.08 168.123 857.105 162.653C849.408 149.544 836.341 138.428 820.892 131.013C844.707 141.709 862.341 160.053 862.896 178.724ZM861.418 186.879C854.063 194.398 845.252 202.551 834.572 211.492C831.639 212.956 828.314 214.378 824.793 215.779C840.254 204.782 852.39 195.207 861.656 186.509C861.46 186.488 861.439 186.684 861.418 186.879ZM821.509 224.135C822.356 223.633 823.029 222.913 823.876 222.411C828.615 220.747 832.57 218.997 836.329 217.226C835.461 217.924 834.572 218.818 833.899 219.537C829.944 221.286 825.814 222.819 821.509 224.135ZM829.949 223.069C829.732 223.243 829.732 223.243 829.515 223.418C829.319 223.397 829.123 223.375 828.927 223.354C829.123 223.375 829.536 223.222 829.949 223.069ZM812.609 223.963C812.826 223.788 813.043 223.614 813.26 223.439C816.935 222.451 820.435 221.246 823.717 220.216C823.5 220.391 823.283 220.565 822.849 220.914C819.762 221.966 816.284 222.975 812.609 223.963ZM818.746 224.033C818.528 224.208 818.528 224.208 818.311 224.382C818.115 224.361 817.92 224.34 817.528 224.298C818.115 224.361 818.333 224.187 818.746 224.033ZM828.435 218.747C828.652 218.573 829.086 218.224 829.303 218.049C834.281 216.014 838.495 213.699 842.297 211.537C842.08 211.711 841.842 212.082 841.625 212.256C838.019 214.439 833.629 216.538 828.435 218.747ZM842.869 213.579C847.539 210.719 851.012 207.927 853.898 205.072C850.255 209.429 845.479 213.267 839.983 216.434C840.872 215.54 841.783 214.451 842.869 213.579ZM842.393 206.994C849.403 200.823 855.567 195.155 860.904 189.793L860.883 189.989C860.168 191.1 859.236 192.385 858.304 193.67C857.827 194.41 857.155 195.129 856.483 195.848C853.099 199.64 848.519 203.499 842.393 206.994ZM818.01 218.014C815.532 218.934 812.879 219.636 810.01 220.513C822.696 213.176 833.556 206.234 842.568 199.885C842.785 199.71 843.002 199.536 843.198 199.557C836.034 205.315 827.652 211.337 818.01 218.014ZM803.291 222.162C801.247 222.732 799.224 223.107 796.985 223.656C806.177 219.306 814.542 215.263 821.908 211.308C816.173 214.845 809.83 218.514 803.291 222.162ZM807.325 225.172L807.129 225.151C806.933 225.13 806.541 225.088 806.345 225.066C806.954 224.934 807.367 224.781 807.976 224.649C807.738 225.019 807.521 225.194 807.325 225.172ZM807.309 227.151C806.483 227.457 805.636 227.959 804.984 228.483C801.548 229.1 798.112 229.718 794.48 230.315C795.11 229.987 795.936 229.681 796.566 229.353C800.415 228.582 803.851 227.964 807.309 227.151ZM789.286 225.199C787.873 225.441 786.459 225.684 785.045 225.927C790.218 223.914 795.174 222.074 799.738 220.193C796.392 221.81 792.829 223.602 789.286 225.199ZM790.324 230.261C789.911 230.414 789.476 230.763 789.259 230.937C786.04 231.381 782.842 231.628 779.623 232.072C780.036 231.918 780.253 231.744 780.666 231.591C783.885 231.147 787.3 230.725 790.324 230.261ZM191.514 243.611C180.695 264.813 185.045 294.19 203.446 321.922C225.893 356.229 276.05 394.528 343.319 390.132C412.371 385.732 446.957 366.511 490.132 330.203C493.844 327.041 497.339 324.054 501.03 321.088C546.005 282.797 581.407 252.379 672.277 275.288C719.159 287.098 748.599 264.152 771.982 245.895C778.473 240.857 784.314 236.341 790.048 232.805C793.876 232.229 797.487 231.828 801.119 231.232C795.973 234.832 790.503 239.586 784.578 244.884C761.788 264.986 730.664 292.502 679.816 278.877C664.79 274.874 651.204 272.214 638.863 270.878C572.061 263.642 539.222 292.358 499.197 327.027C495.485 330.189 491.752 333.547 487.823 336.883C442.588 375.739 406.504 395.986 335.487 398.392C295.497 399.802 256.398 385.668 225.225 358.731C197.325 334.524 179.696 303.312 178.179 275.232C176.366 242.565 196.366 220.774 233.206 213.677C208.744 219.937 197.053 232.728 191.514 243.611ZM192.044 231.394C180.718 242.64 175.3 257.893 176.178 275.411C177.631 304.079 195.413 335.703 223.88 360.169C255.402 387.54 295.089 401.738 335.492 400.174C407.118 397.636 443.419 377.215 489.068 338.205C492.996 334.869 496.708 331.707 500.441 328.35C547.281 287.489 584.483 255.088 679.254 280.4C731.061 294.327 762.64 266.266 785.647 245.989C793.092 239.47 799.668 233.649 805.816 229.959C810.274 229.056 814.34 228.11 818.428 226.969C812.259 230.854 805.619 237.263 798.068 244.761C774.744 267.973 742.762 299.752 686.794 283.988C586.966 255.951 547.942 290.531 498.609 334.289C494.68 337.625 490.926 341.179 486.78 344.689C437.965 387.316 401.86 407.758 327.661 408.434C243.149 409.18 171.635 337.484 168.59 277.757C166.751 243.503 188.27 220.491 227.721 213.083C212.673 216.601 200.702 222.828 192.044 231.394ZM166.589 277.936C168.154 307.408 186.375 340.466 215.281 366.366C247.264 394.974 287.194 410.584 327.666 410.216C402.452 409.604 438.971 389.009 488.024 346.012C491.974 342.48 495.924 338.948 499.853 335.612C548.752 292.202 587.363 257.776 686.407 285.728C743.333 301.793 775.771 269.47 799.312 246.083C811.311 234.118 820.858 224.658 829.912 225.243L830.304 225.285L830.521 225.111C832.061 223.694 833.602 222.277 835.143 220.86C846.008 215.701 853.824 209.42 858.632 201.625C860.083 199.208 861.142 196.749 862.005 194.268C882.656 171.954 892.42 154.995 892.231 142.105C892.068 130.802 884.735 123.474 877.318 116.929C870.97 111.49 861.562 108.689 849.808 107.416C839.622 106.312 827.936 106.235 814.663 106.183C806.154 106.054 797.037 106.056 787.57 105.625C799.647 105.745 810.983 105.389 821.535 104.948C846.6 104.098 866.508 103.285 877.716 111.428C886.721 117.947 894.705 124.752 895.673 135.944C897.27 154.134 879.833 181.548 840.739 222.258C831.839 222.086 822.838 232 811.559 244.638C787.699 270.96 754.838 307.197 693.967 289.121C589.868 258.443 549.435 295.048 498.216 341.572C494.245 345.3 490.099 348.811 485.911 352.713C434.581 398.433 396.585 419.858 320.031 418.497C234.576 416.963 162.073 341.596 159.002 280.282C157.178 244.05 180.651 219.468 223.475 212.029C185.311 220.369 164.728 243.878 166.589 277.936ZM157 280.461C159.987 342.558 233.384 418.814 319.819 420.454C397.157 421.9 435.37 400.3 486.938 354.21C491.105 350.503 495.272 346.797 499.243 343.069C550.007 297.09 590.222 260.66 693.364 291.036C755.41 309.239 789.854 271.194 812.803 245.961C824.061 233.519 832.845 223.779 840.919 224.257L841.311 224.299L841.549 223.929C881.294 182.696 898.991 154.717 897.261 135.918C896.182 123.922 887.828 116.879 878.452 110.122C873.131 106.18 866.206 104.242 857.782 103.33C847.596 102.226 835.259 102.672 821.138 103.123C810.194 103.521 798.25 104.009 785.802 103.651C800.076 103.613 813.673 102.512 826.073 101.479C849.285 99.4395 867.493 97.8477 878.632 104.796C889.401 111.506 898.624 117.85 900.682 129.953C903.783 148.9 888.156 177.896 851.334 221.425C843.413 221.359 834.978 231.533 824.462 244.452C801.412 272.446 766.697 314.817 700.511 294.582C681.128 288.721 663.884 285.071 648.408 283.395C577.101 275.672 540.793 308.961 497.215 348.987C493.027 352.89 488.838 356.792 484.454 360.673C429.307 410.533 391.289 432.154 311.812 428.496C271.77 426.733 231.723 408.536 199.015 377.473C169.013 348.881 150.263 313.39 148.846 282.548C147.124 243.555 171.878 218.122 218.858 210.737C177.692 219.346 155.177 244.23 157 280.461ZM147.216 282.965C150.228 346.649 224.203 426.729 311.775 430.67C391.469 434.154 431.377 411.549 485.656 362.387C490.04 358.506 494.228 354.604 498.417 350.701C551.24 302.173 592.843 263.913 700.082 296.713C767.422 317.272 802.593 274.355 825.881 245.991C836.18 233.247 844.398 223.248 851.689 223.642L852.08 223.684L852.319 223.314C889.596 179.24 905.504 149.482 902.271 129.927C900.276 117.237 890.333 110.221 879.368 103.49C874.9 100.828 869.717 99.2765 863.448 98.5975C853.065 97.473 840.252 98.6592 825.655 99.85C811.841 101.126 796.656 102.253 780.619 102.1C798.462 102.053 815.166 99.704 829.435 97.8836C851.165 94.8913 868.457 92.6064 879.919 98.4016C892.515 104.716 903.109 111.209 906.083 124.004C910.513 143.491 896.199 175.005 862.103 220.81C854.966 220.829 847.553 230.717 837.582 244.091C814.172 275.411 778.927 322.676 707.447 300.085C595.172 264.364 551.531 304.977 496.41 356.424C492.004 360.5 487.599 364.577 483.172 368.849C425.313 421.782 385.777 444.624 303.769 438.712C264.224 436.013 222.78 416.081 190.178 384.04C159.541 353.993 140.351 317.068 139.041 285.248C138.016 261.774 146.252 220.494 213.394 209.947C214.199 209.836 215.004 209.725 215.808 209.615C170.528 217.778 145.451 244.364 147.216 282.965ZM780.072 123.622C809.489 122.848 841.917 140.021 855.606 163.679C859.28 170.017 861.191 176.163 861.514 182.336C859.952 183.949 858.215 185.344 856.24 187.11C849.054 193.064 839.434 199.545 827.42 206.164C813.6 212.983 796.583 220.049 775.758 227.495C774.345 227.738 772.931 227.981 771.343 228.007C767.774 228.016 764.163 228.417 760.51 229.209C757.704 229.499 754.723 229.573 751.721 229.842C748.74 229.915 745.912 230.4 743.106 230.69C742.302 230.801 741.518 230.716 740.713 230.827C735.556 230.863 730.357 231.289 725.353 231.738C718.433 231.582 711.863 231.86 705.509 231.964C566.707 225.246 543.679 238.394 498.927 263.641C477.811 275.609 451.416 290.57 405.378 307.56C327.974 336.003 289.703 299.586 279.898 287.634C264.81 269.567 260.915 246.97 270.118 231.534C275.922 221.867 285.675 215.994 298.965 214.067C299.944 214.173 300.945 214.084 301.925 214.19C302.316 214.232 302.512 214.253 302.708 214.275C306.626 214.699 310.369 214.906 314.33 214.939C314.526 214.961 314.917 215.003 315.113 215.024C318.835 215.427 322.383 215.614 325.93 215.8C329.848 216.224 333.57 216.627 337.313 216.835C393.388 224.294 440.772 191.214 482.618 161.692C501.055 148.839 518.231 136.642 534.984 128.359C541.094 126.843 547.141 125.914 552.97 125.16C556.385 124.738 559.758 124.707 563.131 124.676C564.915 124.671 566.699 124.667 568.484 124.662L568.679 124.683C571.835 124.827 574.991 124.971 578.146 125.114C581.281 125.454 584.415 125.793 587.57 125.937C590.684 126.472 593.818 126.812 596.952 127.151C600.044 127.882 602.962 128.396 605.9 128.714C609.188 129.466 612.28 130.197 615.393 130.732C618.464 131.659 621.36 132.369 624.452 133.1C665.616 146.468 696.929 139.167 727.242 131.957C743.703 128.196 761.207 123.954 780.072 123.622ZM477.064 159.902C439.904 184.586 398.684 211.998 350.603 214.908C397.196 209.263 437.379 184.115 473.739 161.324C481.819 156.259 489.703 151.174 497.523 146.675C490.725 150.888 483.905 155.297 477.064 159.902ZM506 143.435C497.899 148.696 489.734 154.543 481.374 160.369C445.543 185.593 405.651 213.545 359.789 216.101C404.381 210.635 443.039 184.926 478.07 161.595C487.691 155.114 496.877 148.981 506 143.435ZM472.733 159.631C434.223 183.971 391.282 210.8 341.004 213.869C389.99 208.087 431.719 183.304 469.625 160.879C476.206 156.84 482.767 152.996 489.11 149.328C483.768 152.907 478.25 156.269 472.733 159.631ZM468.598 159.381C428.564 183.16 384.293 209.45 331.405 212.829C383.001 206.736 426.255 182.514 465.49 160.629C470.356 157.79 475.201 155.147 480.045 152.504C476.223 154.861 472.421 157.024 468.598 159.381ZM464.68 158.957C423.121 182.174 376.913 208.056 321.393 211.943C375.796 205.559 421.183 181.767 461.964 160.247C464.701 158.761 467.634 157.297 470.372 155.812C468.46 156.991 466.57 157.974 464.68 158.957ZM310.772 211.188C368.764 204.6 416.111 181.019 458.851 159.712C459.264 159.558 459.481 159.384 459.894 159.231C417.005 181.908 369.098 207.012 310.772 211.188ZM300.564 210.281C358.578 203.497 406.019 182.698 448.394 162.935C405.892 183.872 358.345 205.649 300.564 210.281ZM289.334 209.658C346.977 202.636 393.905 184.752 436.11 166.554C393.995 185.752 346.744 204.789 289.334 209.658ZM585.94 119.029C584.982 118.727 584.003 118.621 583.219 118.536C584.198 118.642 585.157 118.944 586.332 119.071C586.332 119.071 586.136 119.05 585.94 119.029ZM587.666 121.394C587.47 121.373 587.47 121.373 587.666 121.394C587.078 121.33 586.512 121.071 585.924 121.007C586.512 121.071 587.1 121.134 587.666 121.394ZM592.082 120.882C591.319 120.602 590.732 120.538 589.969 120.257C590.165 120.279 590.382 120.104 590.578 120.125C591.341 120.406 591.928 120.47 592.691 120.75C592.691 120.75 592.495 120.729 592.082 120.882ZM592.653 122.924C592.458 122.903 592.458 122.903 592.262 122.881C592.066 122.86 591.87 122.839 591.499 122.601C591.695 122.622 591.695 122.622 591.891 122.643C592.283 122.686 592.458 122.903 592.653 122.924ZM595.915 122.089C596.111 122.11 596.524 121.957 596.72 121.978C597.09 122.217 597.678 122.28 598.049 122.518C597.657 122.476 597.44 122.65 597.048 122.608C596.852 122.587 596.482 122.349 596.286 122.327C596.286 122.327 596.09 122.306 595.915 122.089ZM601.035 124.228C601.231 124.249 601.427 124.27 601.644 124.096C601.84 124.117 602.014 124.334 602.21 124.355C602.014 124.334 601.818 124.313 601.622 124.291C601.622 124.291 601.231 124.249 601.035 124.228ZM726.627 130.307C701.621 136.112 675.984 142.245 644.894 136.502C671.383 138.974 694.087 134.306 716.594 129.616C728.751 127.171 741.125 124.551 753.959 123.169C760.376 122.478 768.99 121.629 778.108 121.627C778.499 121.669 778.695 121.691 779.087 121.733C760.18 122.457 743.11 126.35 726.627 130.307ZM753.541 121.54C740.706 122.922 728.137 125.52 715.98 127.965C691.254 133.009 665.702 138.359 635.486 133.701C660.667 135.438 683.111 131.335 704.968 127.169C720.539 124.301 735.306 121.545 750.84 120.852L753.038 120.694C760.217 120.283 767.789 119.915 775.318 119.939L775.513 119.96C767.376 120.069 759.566 120.807 753.541 121.54ZM753.25 118.737L751.052 118.895C735.322 119.567 719.75 122.434 704.766 125.365C680.3 129.843 655.224 134.452 626.078 130.9C649.951 131.901 671.569 128.105 692.774 124.462C711.565 121.152 729.334 118.126 748.156 118.185C751.333 118.133 754.51 118.081 757.665 118.225C762.235 118.126 766.979 118.244 771.94 118.187C765.607 118.095 759.233 118.395 753.25 118.737ZM757.877 116.268C754.701 116.32 751.524 116.372 748.368 116.228C729.35 116.148 711.385 119.152 692.594 122.463C668.954 126.634 644.529 130.72 617.236 128.358C639.431 128.386 660.006 125.071 679.993 121.692C702.199 117.959 723.209 114.295 745.668 115.54C750.587 115.874 755.723 116.035 760.684 115.978C763.056 116.037 765.623 116.117 767.995 116.176C764.427 116.185 761.054 116.216 757.877 116.268ZM760.483 114.174C755.347 114.014 750.603 113.896 745.663 113.757C723.007 112.491 701.998 116.156 679.596 119.867C657.782 123.642 635.381 127.354 611.094 126.505C610.898 126.484 610.724 126.267 610.528 126.246C629.848 125.368 648.226 122.211 666.212 119.011C692.267 114.508 716.712 110.226 742.788 112.852C749.253 113.552 755.564 113.84 762.267 114.17C762.854 114.233 763.638 114.318 764.247 114.186C762.854 114.233 761.679 114.106 760.483 114.174ZM742.979 111.091C716.511 108.422 691.87 112.683 665.815 117.186C646.632 120.455 627.232 123.897 606.562 124.43C606.192 124.192 605.8 124.15 605.429 123.912C621.461 122.282 636.837 119.394 651.996 116.68C681.921 111.209 710.042 105.939 740.083 110.381C746.33 111.256 752.62 111.739 758.91 112.222C753.404 111.824 748.268 111.663 742.979 111.091ZM740.295 108.424C709.862 103.94 681.546 109.189 651.62 114.659C635.44 117.658 619.063 120.637 602.051 122.16C601.485 121.901 600.919 121.641 600.352 121.382C612.837 119.566 625.015 116.925 637.171 114.48C671.227 107.477 703.238 101.045 737.42 107.519C741.883 108.398 746.368 109.082 751.069 109.591C752.049 109.697 752.832 109.782 753.812 109.888C749.089 109.574 744.779 109.108 740.295 108.424ZM737.589 105.953C733.518 105.116 729.425 104.475 725.507 104.051C695.339 100.783 666.763 106.598 636.557 112.83C623.575 115.581 610.417 118.116 596.715 120.196C595.952 119.915 595.19 119.635 594.428 119.354C603.54 117.569 612.694 115.393 621.632 113.391C658.229 104.881 695.826 96.2822 734.497 105.222C738.177 106.017 741.857 106.811 745.579 107.214C743.053 106.743 740.311 106.446 737.589 105.953ZM735.493 103.35C735.297 103.329 735.101 103.308 735.101 103.308C729.309 101.888 723.649 101.077 717.772 100.441C684.665 96.8553 652.548 104.266 621.235 111.566C611.275 113.853 601.099 116.315 590.79 118.168C589.636 117.845 588.678 117.544 587.502 117.416C593.612 115.9 599.744 114.188 605.854 112.672C646.47 101.826 688.499 90.7368 731.813 102.556C732.967 102.879 734.318 103.223 735.493 103.35ZM729.891 100.17C723.337 98.4698 716.719 97.357 710.058 96.6357C674.209 92.7529 639.311 102.041 605.436 111.043C598.087 113.019 590.542 114.974 583.018 116.733C581.647 116.584 580.079 116.414 578.708 116.266C582.404 115.082 586.078 114.094 589.774 112.91C634.668 99.1618 680.997 84.9746 729.129 99.8891C729.325 99.9103 729.717 99.9527 729.891 100.17ZM589.181 111.064C583.442 112.819 577.919 114.398 572.376 116.174C570.374 116.353 568.177 116.511 566.176 116.69C568.437 115.945 570.719 115.005 573.175 114.281C621.607 97.1532 671.69 79.4127 724.332 96.5977C677.513 84.2012 632.64 97.7542 589.181 111.064ZM572.583 112.435C561.649 116.398 551.149 120.013 540.888 123.257C540.475 123.41 539.866 123.542 539.453 123.696C545.039 121.529 550.451 119.145 556.45 116.825C606.242 96.281 662.446 73.2638 720.145 93.1743C668.402 78.6606 617.514 96.5119 572.583 112.435ZM555.444 115.132C548.402 117.933 541.751 120.777 535.122 123.425L531.188 124.978C530.558 125.306 529.732 125.613 529.123 125.745C529.536 125.591 529.949 125.438 530.384 125.089C533.1 123.799 535.816 122.51 538.532 121.22C589.119 97.0004 652.048 66.7919 715.348 89.8829C658.941 72.6862 604.172 95.2649 555.444 115.132ZM683.835 80.7282C631.139 75.0208 580.335 99.4148 537.918 119.57C535.202 120.859 532.486 122.149 529.77 123.439C526.423 125.056 523.098 126.478 519.752 128.095C521.446 127.091 523.336 126.108 525.031 125.103C571.652 99.0684 641.083 60.0606 710.986 86.2426C701.773 83.4629 692.847 81.7042 683.835 80.7282ZM677.927 76.7224C619.157 70.3572 563.456 101.546 524.2 123.627C519.768 126.117 515.336 128.607 510.73 130.88C513.705 129.025 516.66 127.365 519.657 125.313C575.062 89.5383 640.03 56.9767 706.21 82.7555C696.627 79.7377 687.33 77.7408 677.927 76.7224ZM518.63 123.816C513.091 127.374 507.595 130.541 502.099 133.707C506.139 131.175 510.2 128.447 514.283 125.523C586.002 72.7061 647.691 57.6084 702.023 79.3321C636.678 56.8116 572.971 88.7178 518.63 123.816ZM513.06 124.005C506.828 128.478 500.638 132.559 494.273 136.423C499.182 133.193 503.937 129.55 508.713 125.712C556.383 86.3273 626.62 47.2087 696.876 75.607C643.249 56.5334 582.847 72.5623 513.06 124.005ZM507.511 123.998C500.76 129.602 493.681 134.577 486.665 138.965C492.246 135.016 497.89 130.479 503.185 125.509C523.867 106.564 556.521 81.3925 595.305 69.1599C629.372 58.3962 661.992 59.1573 692.339 71.7497C622.876 47.0012 554.313 85.311 507.511 123.998ZM594.713 67.3137C555.516 79.6996 522.645 105.046 501.941 124.187C494.454 131.097 486.898 136.813 479.014 141.898C485.463 137.251 491.605 131.779 497.832 125.523C517.662 105.298 549.898 78.4972 590.376 65.2601C624.485 54.1051 657.084 55.062 687.606 67.8712C658.439 57.1886 627.344 56.9886 594.713 67.3137ZM683.832 64.2946C654.14 52.9613 622.653 52.7188 589.784 63.414C549.088 76.8256 516.439 103.78 496.392 124.18C488.386 132.222 480.333 138.873 471.797 144.483C478.723 139.095 485.538 132.903 492.284 125.516C538.679 74.1143 611.653 33.5103 683.832 64.2946ZM490.822 124.368C482.472 133.759 473.725 141.326 464.538 147.458C472.115 141.547 479.645 134.245 486.714 125.705C530.06 73.1807 604.543 27.7905 679.469 60.6543C608.323 33.1496 536.763 73.5107 490.822 124.368ZM485.252 124.557C476.579 135.101 467.334 143.603 457.692 150.28C465.746 143.629 473.535 135.761 481.144 125.894C507.027 91.871 540.528 66.1969 575.351 53.9313C609.153 41.9511 642.927 43.0352 674.54 56.7546C600.757 27.9744 528.122 72.7729 485.252 124.557ZM574.758 52.0852C539.718 64.5253 506 90.3738 479.682 124.746C470.448 136.813 460.943 145.881 450.846 153.103C459.551 145.928 467.837 137.124 475.595 125.887C500.647 90.3881 535.143 62.8419 570.248 49.8148C604.288 37.4643 638.454 38.5909 670.591 52.961C640.18 40.9557 607.538 40.3903 574.758 52.0852ZM569.83 48.1856C534.334 61.1703 499.403 89.0654 474.134 124.739C464.772 137.98 454.769 147.984 444.434 155.576C453.573 148.052 462.162 138.291 470.263 125.705C500.182 80.0422 544.304 47.7969 588.43 39.3107C615.55 34.1303 641.954 37.386 667.425 49.2523C636.077 36.7495 602.848 36.1204 569.83 48.1856ZM588.187 37.8984C543.648 46.5378 499.091 79.1322 468.956 124.97C459.249 139.56 449.141 150.542 438.175 158.462C447.574 150.373 456.639 139.871 465.064 126.132C494.194 78.6017 538.29 44.7696 583.263 35.7812C610.817 30.2519 637.787 33.7669 663.608 46.067C639.185 35.5022 613.914 32.7652 588.187 37.8984ZM582.691 33.7394C537.109 42.8598 492.579 77.0409 463.211 124.942C453.356 140.901 442.967 152.646 431.567 160.914C441.4 152.476 450.571 140.996 459.341 125.908C487.681 76.5105 531.751 41.0916 577.572 31.601C604.538 26.008 630.963 29.0681 656.476 40.5429C632.731 31.0415 608.005 28.7594 582.691 33.7394ZM453.967 126.118C481.54 74.6573 525.737 38.0643 572.23 27.8545C599.238 21.8702 626.621 25.2321 652.484 37.1407C627.998 27.163 602.51 24.6005 577.154 29.9718C530.92 39.6157 486.22 75.3622 457.641 125.13C448.093 141.915 437.662 154.051 426.633 162.558C426.633 162.558 426.437 162.537 426.416 162.732C436.291 153.902 445.308 142.01 453.967 126.118ZM391.438 181.911C395.721 180.791 400.047 179.279 404.002 177.53C404.828 177.223 405.458 176.896 406.284 176.589C411.653 174.597 417.022 172.604 422.412 170.416C380.901 187.699 334.36 203.843 277.713 208.994C320.716 203.554 357.874 193.521 391.438 181.911ZM373.452 185.111C374.648 185.042 376.062 184.799 377.259 184.731C343.976 195.579 307.141 204.459 264.46 208.746C305.288 203.269 341.297 194.695 373.452 185.111ZM362.487 185.705C363.291 185.594 364.075 185.679 364.88 185.568C331.724 195.242 294.561 203.493 252.447 208.039C293.687 202.408 330.003 194.66 362.487 185.705ZM355.132 185.898C320.865 194.858 282.155 202.743 238.152 208.273C281.87 201.722 319.753 194.144 353.74 185.945C354.153 185.792 354.545 185.835 355.132 185.898ZM346.645 185.573C310.44 194.125 269.75 201.994 222.464 208.553C268.856 201.105 309.524 193.432 345.666 185.467C345.84 185.684 346.232 185.726 346.645 185.573ZM337.962 185.227C338.158 185.248 338.354 185.269 338.55 185.29C301.82 193.192 260.564 200.801 213.368 208.36C162.539 216.516 135.592 243.89 137.606 285.686C139.07 317.919 158.413 355.257 189.4 385.737C222.372 418.017 264.187 438.187 304.124 440.929C386.74 446.709 426.669 423.909 484.983 370.431C489.605 366.18 494.011 362.104 498.416 358.027C553.103 306.929 596.506 266.686 707.626 302.084C780.24 325.194 816.157 277.21 839.806 245.519C849.321 232.691 856.951 222.628 863.263 222.915L863.85 222.979L864.089 222.609C899.116 175.519 913.409 144.201 908.672 123.889C905.391 110.268 894.426 103.537 881.46 96.9845C877.887 95.2116 873.64 94.1577 868.939 93.6485C858.36 92.5028 845.288 94.2548 829.801 96.3393C814.923 98.2917 797.609 100.772 779.2 100.56C798.87 100.117 817.269 96.7638 832.84 93.8965C853.871 90.0366 870.268 86.8628 882.011 91.8965C896.216 97.9887 908.441 104.065 912.681 117.987C918.81 138.252 906.069 171.718 874.069 220.126C867.499 220.404 860.89 230.182 851.703 243.64C829.537 276.284 792.115 330.836 715.362 305.694C598.989 267.549 553.743 310.166 496.758 364.183C492.136 368.434 487.688 372.902 482.87 377.132C422.279 433.333 381.048 457.18 296.684 449.23C257.049 445.532 215.361 424.187 182.299 390.908C151.027 359.406 131.419 320.853 129.997 288.228C128.354 246.67 154.951 218.863 205.06 210.034C214.956 208.334 224.46 206.592 233.768 204.828C272.414 197.53 306.972 191.374 337.962 185.227ZM331.085 184.68C301.725 190.409 269.385 196.212 233.217 202.591C223.931 204.159 214.427 205.901 204.51 207.797C135.589 220.131 126.945 263.347 128.038 288.016C129.396 321.227 149.179 359.998 180.801 391.934C214.212 425.647 256.292 447.033 296.319 450.775C381.27 458.788 422.893 434.983 483.939 378.238C488.583 373.791 493.205 369.54 497.828 365.289C554.553 311.838 599.365 269.569 714.604 307.195C792.708 332.682 830.41 277.368 853.01 244.376C861.742 231.462 868.785 221.335 874.313 221.538L874.9 221.602L875.139 221.232C907.81 172.105 920.616 138.052 914.354 117.178C909.543 101.214 894.575 94.8412 882.636 89.7864C879.608 88.4684 876.516 87.7375 872.99 87.3556C862.019 86.1674 848.666 88.681 832.486 91.6802C816.305 94.6795 797.493 98.1858 777.257 98.37C798.536 97.7048 818.259 93.1092 834.937 89.1739C854.464 84.5572 871.534 80.6643 883.383 84.7195C899.415 90.4156 913.053 96.2486 918.558 111.298C926.191 132.32 915.239 167.564 884.902 218.923C879.115 219.286 873.354 228.562 864.516 242.454C841.989 278.424 804.366 338.498 722.143 310.784C601.674 270.216 555.019 314.858 495.799 371.207C491.156 375.654 486.295 380.275 481.434 384.896C416.787 445.607 375.556 469.454 288.487 459.034C248.762 454.336 206.81 431.775 173.308 397.062C141.226 363.889 121.353 324.118 120.059 290.32C118.305 247.958 145.4 219.214 195.853 209.037C236.368 200.952 272.732 194.595 304.638 189.141C313.924 187.573 322.602 186.137 331.085 184.68ZM318.16 185.062C313.723 185.769 309.265 186.672 304.632 187.358C272.705 193.008 236.363 199.169 195.652 207.234C144.002 217.479 116.627 246.984 118.275 290.324C119.527 324.514 139.749 364.719 171.985 398.304C205.857 433.255 248.18 456.054 288.296 460.795C332.331 465.961 365.613 462.438 396.17 449.314C425.704 436.475 452.232 414.798 482.678 386.219C487.539 381.598 492.4 376.976 497.044 372.53C555.633 316.508 602.049 272.236 721.365 312.481C805.113 340.757 843.234 279.747 865.998 243.406C873.925 230.604 880.38 220.413 885.299 220.748L885.887 220.812L886.146 220.246C916.96 168.146 928.172 132.336 920.21 110.685C913.938 93.5725 896.556 87.5321 883.966 83.0007C881.679 82.159 879.153 81.6875 876.606 81.4116C865.048 80.1598 850.61 83.5457 834.344 87.3278C817.057 91.3952 796.53 96.1016 774.488 96.4862C797.377 95.5994 818.423 89.7612 836.425 84.5833C855.841 79.1626 872.408 74.4233 884.713 77.9338C901.83 82.7576 917.644 88.6282 924.611 104.826C933.922 126.821 924.563 163.822 895.91 217.938C890.71 218.364 885.558 227.508 877.721 241.31C856.698 278.037 817.358 346.637 729.296 316.112C704.661 307.504 682.996 302.584 663.602 300.484C585.047 291.976 544.317 331.32 495.407 378.49C490.525 383.307 485.468 387.907 480.369 392.899C412.773 457.052 370.043 481.924 280.661 469.076C191.845 456.487 112.736 361.595 110.275 292.824C108.605 249.679 135.827 219.761 186.974 208.669C237.295 197.884 280.055 191.032 318.16 185.062ZM304.648 185.38C269.958 190.929 231.222 197.227 186.752 207.062C134.779 218.46 107.102 248.922 108.665 293.045C111.475 369.576 198.272 459.361 280.645 471.054C370.811 483.987 413.757 458.94 481.809 394.242C486.887 389.447 491.965 384.651 496.847 379.834C557.279 321.438 605.104 275.141 728.909 317.852C818.322 348.721 858.138 279.381 879.399 242.284C886.717 229.613 892.346 219.73 896.481 219.979L897.069 220.043L897.328 219.477C926.459 164.621 935.902 126.838 926.263 104.213C918.989 87.1899 902.783 81.2768 885.274 76.4107C883.553 75.8283 881.79 75.6374 879.831 75.4252C867.882 74.1309 852.945 78.453 835.986 83.1498C817.375 88.4598 795.307 94.5832 771.264 95.147C795.937 94.2555 818.545 86.8046 837.654 80.5586C856.98 74.1382 873.611 68.8118 886.196 71.5607C904.181 75.6866 922.41 81.2247 930.838 98.5706C942.023 121.561 934.258 160.318 907.071 217.364C902.655 217.876 898.154 226.496 890.925 240.167C869.738 280.242 830.33 354.972 736.406 321.832C710.442 312.684 687.644 307.245 667.467 305.06C587.148 296.361 545.27 337.165 494.972 386.165C489.873 391.156 484.774 396.147 479.458 401.313C445.172 434.228 417.713 457.191 386.939 470.489C354.514 484.4 319.511 487.341 272.988 479.53C233.083 472.832 190.427 447.621 156.005 410.433C122.673 374.155 101.943 331.321 100.665 295.545C99.6612 264.55 112.165 224.128 178.074 208.497C226.303 196.892 267.628 190.478 304.648 185.38ZM292.18 185.218C258.357 190.068 220.818 196.298 177.894 206.498C125.619 218.854 97.4229 250.448 99.0974 295.375C101.738 373.471 189.483 467.318 273.015 481.117C319.733 488.949 355.324 486.072 387.966 471.986C418.957 458.514 446.634 435.376 481.136 402.287C486.452 397.121 491.551 392.13 496.65 387.138C559.143 326.194 608.355 278.067 736.258 323.202C831.706 356.903 871.591 281.432 893.038 240.791C899.53 228.427 904.746 218.697 908.098 218.862L908.685 218.925L908.945 218.359C936.413 160.551 944.263 121.012 932.924 97.6087C924.189 79.4375 905.373 73.8358 887.017 69.4718C885.862 69.1488 884.491 69.0002 883.316 68.8729C870.778 67.515 855.169 72.5562 837.474 78.5593C817.757 84.9373 794.518 92.7159 769.3 93.1524C795.191 91.9967 818.948 83.0864 838.968 75.7512C858.378 68.548 874.919 62.2219 888.134 64.6431C907.576 68.1347 927.457 73.0598 937.52 91.7708C950.405 115.539 944.191 156.444 918.687 216.247C914.838 217.018 910.792 225.093 904.411 238.261C894.439 258.96 879.167 290.173 854.053 311.607C824.12 337.272 787.1 342.37 743.993 326.812C611.034 278.951 559.804 329.236 495.014 393.099C489.698 398.265 484.36 403.626 478.848 408.771C407.783 477.498 363.677 507.766 265.596 489.223C225.58 481.721 182.484 455.077 147.623 416.455C112.936 378.05 92.4653 334.651 91.3354 297.504C90.3957 265.922 103.202 224.543 169.65 207.585C215.899 195.963 256.028 189.618 292.18 185.218ZM278.514 185.124C245.931 189.514 209.784 195.697 168.819 206.109C101.152 223.331 88.2619 265.493 89.1168 297.858C90.2043 335.396 111.024 379.229 145.886 417.851C181.097 456.906 224.389 483.572 264.796 491.116C363.661 509.744 408.18 479.323 479.679 410.247C485.213 404.907 490.529 399.741 495.845 394.575C560.18 331.256 610.996 281.125 742.997 328.684C844.481 365.216 885.797 280.199 905.697 239.193C911.3 227.722 915.928 217.928 918.888 218.05L919.476 218.114L919.735 217.548C945.737 156.81 952.015 115.318 938.801 90.9197C928.214 71.5579 907.2 66.114 888.129 62.8606C887.346 62.7757 886.562 62.6909 885.778 62.606C872.457 61.1632 856.351 67.1404 837.962 74.0583C817.508 81.7425 793.337 90.8061 767.097 91.5279C794.01 90.087 818.504 79.8704 839.259 71.229C858.776 63.0473 875.576 56.1553 889.268 57.8362C909.186 60.5874 931.698 65.0056 943.593 85.103C958.353 109.866 953.732 152.528 929.478 215.436C926.237 216.075 923.34 222.69 917.092 236.467C897.678 280.298 857.119 371.138 750.732 332.293C613.675 282.009 560.841 334.298 494.209 400.535C488.871 405.897 483.317 411.433 477.566 416.948C403.552 489.118 357.905 520.802 257.553 499.439C217.447 490.938 174.086 463.077 138.59 423C103.289 382.945 82.3787 338.112 81.1589 299.966C80.2828 267.797 93.1946 225.439 160.162 207.35C204.453 195.515 243.797 189.085 278.514 185.124ZM268.873 184.475C236.528 188.496 200.164 194.853 159.744 205.72C91.5588 224.074 78.3661 267.193 79.3534 300.166C80.5308 338.704 101.573 384.145 137.245 424.438C172.916 464.732 216.647 492.831 257.145 501.375C358.28 522.822 404.341 490.985 478.789 418.466C484.54 412.951 490.094 407.415 495.431 402.054C561.63 336.165 614.03 284.225 750.129 334.208C796.635 351.322 836.133 345.305 867.755 316.853C893.907 293.155 908.825 259.726 918.749 237.636C923.483 226.864 927.677 217.418 930.028 217.673L930.616 217.737L930.875 217.171C955.41 153.501 960.116 110.057 945.028 84.6644C932.805 63.9375 909.922 59.2812 889.416 56.4663C889.22 56.4451 888.829 56.4027 888.633 56.3815C874.528 54.8538 857.923 61.767 838.603 69.9699C817.434 78.7646 792.528 89.1345 765.266 90.1416C793.004 88.3941 818.43 76.8926 839.9 67.1406C859.697 58.1973 876.604 50.3269 890.926 51.68C913.888 53.771 936.946 58.6442 950.016 78.8689C966.3 104.193 963.125 149.981 940.617 215.058C937.965 215.761 935.523 221.832 930.143 234.911C912.36 278.324 870.789 380.34 758.017 338.23C616.862 285.522 562.62 339.836 493.948 408.427C488.373 414.158 482.601 419.869 476.634 425.558C399.67 501.17 352.286 534.25 249.859 510.09C209.467 500.567 165.842 471.489 130.081 430.196C93.9696 388.469 72.6204 342.203 71.7237 302.904C70.9111 270.147 84.1248 226.833 151.633 207.416C195.267 194.322 234.394 188.067 268.873 184.475ZM150.886 205.157C82.1607 224.838 68.6662 268.914 69.59 302.475C70.6402 342.186 91.9471 388.844 128.429 430.809C164.561 472.341 208.535 501.852 249.34 511.221C352.551 535.467 400.348 502.234 477.767 426.077C483.734 420.388 489.331 414.46 495.081 408.945C563.319 340.704 617.127 286.738 757.324 339.145C871.816 381.838 913.885 278.885 931.731 234.885C935.513 225.593 939.511 216.126 941.099 216.1L941.883 216.185L942.142 215.619C965.428 148.845 968.344 103.623 951.382 77.235C938.661 57.4441 916.864 51.9155 894.531 49.4968C893.356 49.3695 892.181 49.2421 890.809 49.0936C876.096 47.698 858.798 55.526 838.762 64.8394C816.031 75.2469 790.998 86.7909 763.323 87.9513C791.474 86.0505 816.81 73.5493 839.864 61.9889C859.963 52.0883 877.15 43.4564 892.123 44.2862C933.669 46.806 947.762 59.4198 956.175 71.4183C974.333 97.7378 972.926 145.499 951.689 213.485C949.624 214.252 947.484 219.366 942.972 231.746C932.068 261.056 909.201 322.134 859.588 344.677C832.49 356.987 800.653 356.311 765.059 342.754C734.213 331.098 707.19 324.41 683.487 321.842C595.332 312.295 549.054 358.958 493.424 415.101C487.631 421.008 481.642 426.893 475.632 432.974C434.125 474.016 403.477 500.791 369.966 515.574C333.326 531.801 293.749 533.058 242.271 519.761C202.356 509.498 157.179 478.273 121.286 436.371C84.3435 393.168 62.7934 345.098 61.9814 305.016C61.0378 257.001 88.8798 223.19 142.775 206.852C185.604 193.87 223.948 187.529 258.014 184.091C225.928 187.546 190.348 193.988 150.886 205.157ZM142.007 204.789C72.7415 225.798 59.1412 270.853 59.8266 304.783C60.7708 345.473 82.4957 393.76 119.591 437.376C155.639 479.69 201.185 511.154 241.492 521.459C293.558 534.819 333.331 533.583 370.384 517.204C404.308 502.267 434.956 475.492 476.681 434.275C482.69 428.194 488.679 422.309 494.472 416.403C564.552 345.787 619.944 290.013 764.063 344.627C800.245 358.247 832.474 358.966 859.985 346.502C910.424 323.652 933.333 262.183 944.476 232.503C947.563 224.126 950.868 215.574 952.085 215.31L952.869 215.395L953.15 214.633C974.689 145.69 976.181 97.1459 957.673 70.3927C949.785 59.0449 936.825 46.9498 901.955 43.1731C898.821 42.8336 895.686 42.4942 892.335 42.3292C876.97 41.4571 859.587 50.0678 839.25 60.3385C815.587 72.031 789.404 85.0344 760.533 86.2632C789.859 84.4897 816.17 70.3122 840.155 57.4668C860.556 46.609 878.241 37.0409 893.648 37.5217C918.347 38.2169 945.71 41.7744 962.465 64.576C982.519 91.6947 982.663 141.604 962.675 212.695C961.002 213.504 959.535 217.899 955.542 229.148C945.013 260.478 922.898 325.597 870.505 350.017C842.517 363.221 809.288 362.592 771.994 348.257C739.841 335.865 711.86 328.875 687.177 326.202C597.063 316.442 549.614 364.76 492.64 422.342C486.63 428.423 480.599 434.699 474.176 440.933C436.856 478.073 403.047 510.248 365.168 526.934C327.289 543.621 286.95 544.597 234.053 529.761C193.852 518.477 148.411 486.035 112.078 442.7C74.5217 397.846 52.5322 348.343 51.8474 307.087C50.9885 258.288 79.1535 223.324 133.546 206.051C175.83 192.613 213.391 186.188 247.218 183.12C215.72 186.638 180.749 192.948 142.007 204.789ZM133.128 204.422C63.3435 226.562 49.4412 272.574 50.0419 307.287C50.8802 348.956 72.8274 398.85 110.733 444.138C147.241 487.69 193.052 520.37 233.645 531.696C286.934 546.575 327.861 545.662 366.153 528.823C404.27 511.766 438.275 479.613 475.616 442.277C481.843 436.022 488.07 429.767 494.079 423.686C566.002 350.696 622.802 292.897 771.216 349.955C809.076 364.549 842.718 365.025 871.315 351.689C924.338 326.941 946.713 261.256 957.262 229.73C959.852 222.289 962.203 215.218 963.289 214.346L963.877 214.409L964.157 213.648C984.426 141.795 984.367 91.1029 963.789 63.3335C950.31 45.0445 930.186 38.7071 910.009 36.5218C904.523 35.9277 898.8 35.7038 893.468 35.5223C877.452 35.1736 859.767 44.7416 839.149 55.7738C814.947 68.7938 788.028 83.1033 758.351 84.4429C788.504 82.363 815.55 66.8793 840.055 52.9021C860.975 40.9126 878.919 30.7787 894.978 30.736C919.37 30.606 949.973 33.5245 968.756 57.7337C990.879 85.8685 992.4 137.709 973.857 211.927C972.576 212.778 971.39 216.411 968.545 226.2C959.081 256.854 937.224 328.733 882.01 355.421C852.936 369.497 818.315 368.915 779.343 353.607C745.861 340.675 717.138 333.209 691.475 330.429C599.403 320.457 550.805 370.235 492.639 429.668C486.412 435.923 480.143 442.57 473.698 448.999C392.769 530.121 341.392 574.45 226.618 539.845C186.306 527.757 140.23 493.86 103.632 449.308C65.2664 402.783 43.0546 351.672 42.4757 309.437C41.7017 259.856 70.3645 223.956 125.059 205.726C166.798 191.833 203.966 185.365 237.402 182.255C205.904 185.773 171.325 192.125 133.128 204.422ZM124.27 203.858C68.5538 222.374 39.6316 258.84 40.2997 309.4C40.8361 352.026 63.3973 403.571 101.938 450.313C138.906 495.103 185.157 529.217 225.84 541.542C280.352 557.94 322.216 557.524 361.768 540.029C400.69 522.862 436.061 489.075 474.768 450.105C481.233 443.48 487.677 437.05 493.708 430.773C567.495 355.213 625.878 295.606 778.389 355.088C817.949 370.46 852.963 371.084 882.667 356.68C938.511 329.664 960.627 257.219 970.113 226.37C971.987 220.04 973.799 214.296 974.709 213.207L975.297 213.27L975.578 212.509C994.597 137.551 992.77 84.8853 970.318 56.121C956.23 37.964 935.714 31.5842 916.125 29.4625C908.876 28.6775 901.76 28.5007 895.211 28.5833C878.565 28.5623 860.382 39.0664 839.462 51.056C815.153 65.0544 788.324 80.3637 758.584 82.2904C788.605 79.6021 815.757 63.1398 840.368 48.1842C860.742 35.7396 880.032 24.1675 896.741 23.6014C922.394 22.8159 954.452 25.1002 975.306 50.3256C999.304 79.4554 1002.59 133.269 985.082 210.766C984.213 211.464 983.504 214.357 981.242 222.428C973.081 252.034 951.636 331.086 893.383 360.217C863.202 375.361 827.188 374.826 786.32 358.719C751.727 345.072 721.829 337.478 695.578 334.635C601.743 324.472 552.017 375.514 492.506 436.385C486.041 443.01 479.337 450.006 472.459 456.785C388.755 541.566 335.794 587.703 218.596 549.865C177.998 536.757 131.483 501.426 94.4245 455.637C55.4445 407.461 32.5975 354.895 32.1458 311.487C31.6524 261.144 60.4211 224.265 115.81 205.12C157.003 190.772 193.997 184.087 227.194 181.347C196.305 184.733 162.096 191.324 124.27 203.858ZM115.195 203.469C59.177 222.943 29.7571 260.344 30.3404 311.687C30.7497 355.487 53.5543 408.444 92.9049 456.858C130.138 502.865 176.828 538.412 217.818 551.563C273.531 569.675 316.55 569.582 357.166 551.41C396.935 533.741 433.434 498.69 473.507 458.086C480.407 451.112 487.089 444.312 493.575 437.491C569.162 359.948 628.933 298.511 785.346 360.395C826.584 376.741 863.207 377.143 893.801 361.846C952.684 332.387 974.388 252.77 982.571 222.968C983.906 217.965 985.177 213.548 985.696 212.417L986.088 212.459L986.172 211.676C1003.96 133.417 1000.56 78.7999 976.021 49.215C961.303 31.3858 941.025 24.6358 921.436 22.5141C912.62 21.5594 903.895 21.6043 895.953 21.7341C878.655 22.2365 859.345 34.0043 838.753 46.6233C813.078 62.2557 784.645 79.5692 753.009 80.6966C784.947 78.6119 813.486 60.3199 839.463 43.7304C860.335 30.3498 879.926 17.8204 897.483 16.7521C922.22 15.2734 957.757 16.5485 981.03 43.2239C1007.12 73.1742 1011.94 129.331 995.698 209.738C995.221 210.479 994.596 212.589 993.373 218.396C986.731 246.781 966.286 333.068 904.538 365.187C873.251 381.399 835.844 380.912 793.081 364.005C757.376 349.644 726.519 341.748 699.29 338.799C603.299 328.403 552.424 380.904 491.722 443.626C485.039 450.426 478.119 457.596 471.198 464.766C384.349 552.968 329.609 600.893 210.574 559.886C169.69 545.756 122.91 509.209 85.3914 462.182C45.6015 412.335 22.5322 358.161 22.1865 313.774C21.7991 262.452 51.0443 224.834 106.735 204.731C147.774 189.971 184.594 183.069 217.595 180.308C186.902 183.715 152.868 190.522 115.195 203.469ZM106.316 203.102C49.8002 223.511 20.0784 261.87 20.5769 313.995C20.8802 358.774 44.1029 413.36 84.0464 463.62C121.74 510.865 168.891 547.65 210.145 562.017C330.117 603.522 385.291 555.248 472.596 466.501C479.712 459.352 486.416 452.357 493.119 445.361C532.822 404.519 566.991 369.018 611.917 351.313C661.19 331.901 718.562 336.531 792.456 366.115C835.569 383.456 873.584 383.811 905.305 367.25C967.684 334.804 988.388 247.951 995.051 219.37C995.824 215.89 997.334 211.103 997.334 211.103C1013.88 129.739 1008.9 73.1694 982.486 42.5896C966.985 24.6756 946.294 18.0789 926.704 15.9571C916.322 14.8326 906.204 14.9247 897.415 15.5567C879.466 16.5826 859.658 29.2864 838.568 42.8415C812.374 59.6056 783.205 78.2252 751.135 79.7016C783.681 77.4849 812.957 57.8867 839.474 39.9698C860.844 25.6531 880.933 12.1876 899.141 10.5959C924.942 8.44058 962.348 8.92819 987.474 36.7942C1015.44 67.7394 1022.02 125.87 1006.82 209.556C1006.56 210.122 1006.21 211.471 1005.7 214.385C986.185 314.039 946.133 354.446 916.238 370.612C883.823 388.088 844.807 387.822 800.191 369.724C763.353 354.845 731.538 346.648 703.329 343.592C604.988 332.941 552.964 386.902 490.853 451.649C484.149 458.645 477.011 465.989 469.895 473.138C380.075 564.979 323.36 614.669 202.509 570.298C161.34 555.148 114.12 517.167 76.141 468.902C35.5623 417.187 12.2496 361.601 12.2059 316.257C12.0991 264.174 41.6463 225.598 97.6385 204.538C138.329 189.344 174.973 182.225 208.15 179.681C177.695 182.718 143.856 189.546 106.316 203.102ZM89.1725 204.017C129.926 188.236 166.375 181.096 199.551 178.551C168.683 181.742 134.824 188.766 97.4374 202.734C40.6192 224.101 10.6168 263.221 10.6388 316.087C10.8361 361.844 34.281 418.038 75.0344 469.97C113.167 518.648 160.778 556.671 202.34 571.864C324.149 616.537 381.298 566.497 471.552 474.307C478.69 466.963 485.61 459.793 492.51 452.819C533.144 410.692 568.224 374.101 614.389 355.936C664.901 336.065 723.84 340.864 799.805 371.464C844.987 389.821 884.591 390.151 917.44 372.326C972.385 342.638 996.873 270.252 1007.83 214.814C1008.2 213.27 1008.65 210.943 1008.65 210.943L1008.73 210.16C1024.03 125.691 1017.31 66.9519 988.994 35.5728C972.884 17.7908 952.018 10.9772 932.428 8.85544C920.479 7.5612 909.143 7.91743 899.136 8.81351C880.536 10.3628 860.23 24.0028 838.643 38.4939C813.211 55.5385 785.196 74.4811 754.132 77.6503C785.281 73.6983 813.381 53.9729 839.331 35.7965C861.199 20.5439 881.807 5.94665 900.645 4.02719C942.738 -0.323439 973.334 8.13814 993.765 29.9519C1023.82 61.7176 1031.96 121.996 1017.96 209.179C1017.83 210.353 1003.14 331.318 930.306 374.313C909.126 386.869 885.03 391.584 858.192 388.678C842.128 386.938 825.186 382.331 807.344 375.053C769.198 359.438 736.25 350.722 707.257 347.582C607.153 336.74 553.959 392.355 490.482 458.737C483.561 465.907 476.402 473.447 469.047 480.966C423.118 528.063 384.559 565.662 342.879 584.511C299.112 604.321 253.478 602.943 194.9 580.165C153.445 563.994 105.569 524.754 67.3251 475.273C26.1323 421.908 2.40147 364.692 2.48486 318.174C2.65881 265.329 32.7037 225.817 89.1725 204.017Z" fill="#FF900C"/>
</svg>
