<svg width="172" height="44" viewBox="0 0 172 44" fill="none" xmlns="http://www.w3.org/2000/svg">
<path d="M53.98 34V11.65H62.53C64.07 11.65 65.43 11.92 66.61 12.46C67.81 13 68.75 13.8 69.43 14.86C70.11 15.92 70.45 17.23 70.45 18.79C70.45 20.31 70.1 21.61 69.4 22.69C68.7 23.75 67.76 24.55 66.58 25.09L71.68 34H66.46L60.94 24.13L63.94 25.9H58.63V34H53.98ZM58.63 21.85H62.56C63.22 21.85 63.79 21.72 64.27 21.46C64.75 21.2 65.12 20.84 65.38 20.38C65.66 19.92 65.8 19.39 65.8 18.79C65.8 18.17 65.66 17.63 65.38 17.17C65.12 16.71 64.75 16.35 64.27 16.09C63.79 15.83 63.22 15.7 62.56 15.7H58.63V21.85ZM80.6416 34.36C78.9016 34.36 77.3916 33.98 76.1116 33.22C74.8316 32.44 73.8416 31.4 73.1416 30.1C72.4416 28.8 72.0916 27.36 72.0916 25.78C72.0916 24.14 72.4516 22.68 73.1716 21.4C73.9116 20.12 74.9016 19.11 76.1416 18.37C77.3816 17.63 78.7816 17.26 80.3416 17.26C81.6416 17.26 82.7916 17.47 83.7916 17.89C84.7916 18.29 85.6316 18.86 86.3116 19.6C87.0116 20.34 87.5416 21.2 87.9016 22.18C88.2616 23.14 88.4416 24.19 88.4416 25.33C88.4416 25.65 88.4216 25.97 88.3816 26.29C88.3616 26.59 88.3116 26.85 88.2316 27.07H75.9616V23.77H85.6816L83.5516 25.33C83.7516 24.47 83.7416 23.71 83.5216 23.05C83.3016 22.37 82.9116 21.84 82.3516 21.46C81.8116 21.06 81.1416 20.86 80.3416 20.86C79.5616 20.86 78.8916 21.05 78.3316 21.43C77.7716 21.81 77.3516 22.37 77.0716 23.11C76.7916 23.85 76.6816 24.75 76.7416 25.81C76.6616 26.73 76.7716 27.54 77.0716 28.24C77.3716 28.94 77.8316 29.49 78.4516 29.89C79.0716 30.27 79.8216 30.46 80.7016 30.46C81.5016 30.46 82.1816 30.3 82.7416 29.98C83.3216 29.66 83.7716 29.22 84.0916 28.66L87.6916 30.37C87.3716 31.17 86.8616 31.87 86.1616 32.47C85.4816 33.07 84.6716 33.54 83.7316 33.88C82.7916 34.2 81.7616 34.36 80.6416 34.36ZM91.0914 34V17.62H95.2914V20.86L95.0514 20.14C95.4314 19.16 96.0414 18.44 96.8814 17.98C97.7414 17.5 98.7414 17.26 99.8814 17.26C101.121 17.26 102.201 17.52 103.121 18.04C104.061 18.56 104.791 19.29 105.311 20.23C105.831 21.15 106.091 22.23 106.091 23.47V34H101.591V24.43C101.591 23.79 101.461 23.24 101.201 22.78C100.961 22.32 100.611 21.96 100.151 21.7C99.7114 21.44 99.1914 21.31 98.5914 21.31C98.0114 21.31 97.4914 21.44 97.0314 21.7C96.5714 21.96 96.2114 22.32 95.9514 22.78C95.7114 23.24 95.5914 23.79 95.5914 24.43V34H91.0914ZM116.94 34.18C114.96 34.18 113.42 33.65 112.32 32.59C111.24 31.51 110.7 30.01 110.7 28.09V21.52H107.94V17.62H108.09C108.93 17.62 109.57 17.41 110.01 16.99C110.47 16.57 110.7 15.94 110.7 15.1V13.9H115.2V17.62H119.04V21.52H115.2V27.79C115.2 28.35 115.3 28.82 115.5 29.2C115.7 29.56 116.01 29.83 116.43 30.01C116.85 30.19 117.37 30.28 117.99 30.28C118.13 30.28 118.29 30.27 118.47 30.25C118.65 30.23 118.84 30.21 119.04 30.19V34C118.74 34.04 118.4 34.08 118.02 34.12C117.64 34.16 117.28 34.18 116.94 34.18ZM121.677 40V17.62H125.877V20.74L125.487 19.84C126.027 19.02 126.757 18.39 127.677 17.95C128.617 17.49 129.687 17.26 130.887 17.26C132.447 17.26 133.857 17.64 135.117 18.4C136.377 19.16 137.377 20.19 138.117 21.49C138.857 22.77 139.227 24.21 139.227 25.81C139.227 27.39 138.857 28.83 138.117 30.13C137.397 31.43 136.407 32.46 135.147 33.22C133.887 33.98 132.457 34.36 130.857 34.36C129.737 34.36 128.697 34.16 127.737 33.76C126.797 33.34 126.037 32.73 125.457 31.93L126.177 31V40H121.677ZM130.317 30.31C131.157 30.31 131.897 30.12 132.537 29.74C133.177 29.36 133.677 28.83 134.037 28.15C134.397 27.47 134.577 26.69 134.577 25.81C134.577 24.93 134.397 24.16 134.037 23.5C133.677 22.82 133.177 22.29 132.537 21.91C131.897 21.51 131.157 21.31 130.317 21.31C129.517 21.31 128.797 21.5 128.157 21.88C127.537 22.26 127.047 22.79 126.687 23.47C126.347 24.15 126.177 24.93 126.177 25.81C126.177 26.69 126.347 27.47 126.687 28.15C127.047 28.83 127.537 29.36 128.157 29.74C128.797 30.12 129.517 30.31 130.317 30.31ZM141.863 34V17.62H146.063V21.55L145.763 20.98C146.123 19.6 146.713 18.67 147.533 18.19C148.373 17.69 149.363 17.44 150.503 17.44H151.463V21.34H150.053C148.953 21.34 148.063 21.68 147.383 22.36C146.703 23.02 146.363 23.96 146.363 25.18V34H141.863ZM161.565 34.36C159.945 34.36 158.465 33.99 157.125 33.25C155.805 32.51 154.745 31.5 153.945 30.22C153.165 28.92 152.775 27.45 152.775 25.81C152.775 24.15 153.165 22.68 153.945 21.4C154.745 20.12 155.805 19.11 157.125 18.37C158.465 17.63 159.945 17.26 161.565 17.26C163.185 17.26 164.655 17.63 165.975 18.37C167.295 19.11 168.345 20.12 169.125 21.4C169.925 22.68 170.325 24.15 170.325 25.81C170.325 27.45 169.925 28.92 169.125 30.22C168.345 31.5 167.295 32.51 165.975 33.25C164.655 33.99 163.185 34.36 161.565 34.36ZM161.565 30.31C162.385 30.31 163.095 30.12 163.695 29.74C164.315 29.36 164.795 28.83 165.135 28.15C165.495 27.47 165.675 26.69 165.675 25.81C165.675 24.93 165.495 24.16 165.135 23.5C164.795 22.82 164.315 22.29 163.695 21.91C163.095 21.51 162.385 21.31 161.565 21.31C160.745 21.31 160.025 21.51 159.405 21.91C158.785 22.29 158.295 22.82 157.935 23.5C157.595 24.16 157.425 24.93 157.425 25.81C157.425 26.69 157.595 27.47 157.935 28.15C158.295 28.83 158.785 29.36 159.405 29.74C160.025 30.12 160.745 30.31 161.565 30.31Z" fill="black"/>
<path d="M14.6509 13.6762L10.3039 13.6823L10.292 6.35701C10.2919 6.30828 10.3015 6.26001 10.32 6.21497C10.3386 6.16992 10.3659 6.12897 10.4003 6.09447C10.4347 6.05996 10.4756 6.03257 10.5206 6.01386C10.5656 5.99515 10.6138 5.98549 10.6626 5.98542L14.2674 5.98035C14.3161 5.98028 14.3644 5.98981 14.4094 6.0084C14.4545 6.02698 14.4954 6.05426 14.5299 6.08867C14.5644 6.12308 14.5918 6.16395 14.6105 6.20894C14.6292 6.25394 14.6389 6.30218 14.639 6.35091L14.6509 13.6762Z" fill="#FF7209"/>
<path d="M14.6387 6.35091C14.6387 6.30218 14.629 6.25394 14.6103 6.20894C14.5916 6.16395 14.5642 6.12308 14.5297 6.08867C14.4952 6.05426 14.4542 6.02698 14.4092 6.0084C14.3641 5.98981 14.3159 5.98028 14.2671 5.98035L12.1179 5.98336C12.3085 5.99865 12.4589 6.15635 12.4593 6.35091L12.4712 13.6762L10.3037 13.6792V13.6822L14.6507 13.6761L14.6387 6.35091Z" fill="#EB5E00"/>
<path d="M21.8385 5.84753L10.1943 16.8168L10.2176 33.4926C10.2179 33.7038 10.3021 33.9063 10.4517 34.0555C10.6013 34.2047 10.804 34.2883 11.0152 34.288L32.7412 34.2577C32.9524 34.2574 33.1549 34.1732 33.304 34.0236C33.4532 33.8741 33.5369 33.6714 33.5366 33.4601L33.5133 16.7843L21.8385 5.84753Z" fill="#F0E6FD"/>
<path d="M33.5137 16.7842L21.839 5.84753L19.9189 7.65635L29.6629 16.7842L29.6862 33.46C29.6863 33.5646 29.6659 33.6682 29.626 33.7649C29.5861 33.8616 29.5275 33.9495 29.4537 34.0235C29.3798 34.0976 29.2921 34.1564 29.1955 34.1966C29.099 34.2367 28.9954 34.2575 28.8908 34.2576H32.7418C32.953 34.2573 33.1555 34.1731 33.3047 34.0235C33.4538 33.874 33.5375 33.6713 33.5372 33.46L33.5137 16.7842Z" fill="#D7C1FA"/>
<path d="M37.6215 20.4587C37.2141 20.4598 36.8217 20.305 36.5248 20.026L21.8394 6.26916L7.19245 20.067C6.54869 20.6735 5.53523 20.6432 4.92894 19.9995C4.32248 19.3558 4.35273 18.3423 4.99649 17.736L20.7383 2.90668C21.3537 2.32686 22.314 2.32557 22.931 2.90359L38.7142 17.6889C39.3596 18.2934 39.3927 19.3068 38.7881 19.9521C38.6387 20.112 38.4581 20.2394 38.2574 20.3266C38.0567 20.4137 37.8402 20.4587 37.6215 20.4587Z" fill="#FF7209"/>
<path d="M38.7872 18.0263C38.6378 18.1861 38.4571 18.3135 38.2565 18.4007C38.0558 18.4878 37.8393 18.5328 37.6206 18.5328C37.2132 18.5338 36.8208 18.379 36.5239 18.1001L21.8385 4.34314L7.19155 18.141C6.54779 18.7475 5.53433 18.7171 4.92804 18.0735C4.88809 18.0309 4.85051 17.9861 4.81546 17.9394C4.35406 18.551 4.385 19.423 4.92804 19.9994C5.53424 20.6431 6.54779 20.6734 7.19155 20.067L21.8385 6.26917L36.5239 20.026C36.8208 20.305 37.2132 20.4598 37.6206 20.4587C37.8393 20.4587 38.0558 20.4138 38.2565 20.3266C38.4571 20.2395 38.6378 20.1121 38.7872 19.9522C39.3275 19.3755 39.357 18.5056 38.8969 17.8955C38.8626 17.941 38.826 17.9846 38.7872 18.0263Z" fill="#EB5E00"/>
<path d="M24.8512 19.595L18.8652 19.6033C18.7304 19.6035 18.6011 19.6573 18.5059 19.7528C18.4106 19.8483 18.3572 19.9777 18.3574 20.1126L18.3772 34.2777L25.3802 34.2679L25.3605 20.1028C25.3603 19.9679 25.3065 19.8386 25.211 19.7434C25.1155 19.6482 24.9861 19.5948 24.8512 19.595Z" fill="#4D4D4D"/>
<path d="M25.36 20.1029C25.3598 19.968 25.306 19.8388 25.2105 19.7435C25.115 19.6483 24.9856 19.5949 24.8507 19.5951L21.4688 19.5998C21.572 19.6322 21.6622 19.6966 21.7264 19.7838C21.7905 19.871 21.8251 19.9763 21.8253 20.0845L21.8451 34.273L25.3798 34.268L25.36 20.1029Z" fill="#1A1A1A"/>
<path d="M40.1252 27.1179L31.3024 33.0226L28.6729 32.875L28.57 31.8401C28.4168 30.2995 27.2306 29.063 25.6976 28.8461L18.6525 28.0349C17.0274 27.805 15.4626 27.2604 14.0459 26.4316C12.1116 25.3001 9.91106 24.7037 7.67016 24.7037H2.59082V36.2981L16.0154 41.3817C16.5227 41.525 17.0556 41.5679 17.5763 41.4855L17.5856 41.4841L31.101 39.5359C32.1422 39.3697 33.121 38.9311 33.9381 38.2647L42.6733 30.4084C43.4572 29.7123 43.6025 28.5424 43.0127 27.6755C42.3675 26.7273 41.0774 26.4781 40.1252 27.1179Z" fill="#FED9A8"/>
<path d="M43.1281 27.8683L34.494 35.1361C33.6769 35.8026 32.3186 36.241 31.2774 36.4073L17.5857 37.386C17.5826 37.3866 17.5795 37.3871 17.5763 37.3875C17.0556 37.4697 16.5227 37.4269 16.0155 37.2837L2.59082 32.2001V36.2982L16.0154 41.3819C16.2685 41.4538 16.5283 41.4995 16.7908 41.5183C16.8562 41.5229 16.9218 41.5257 16.9873 41.5268C17.1876 41.5301 17.3878 41.5158 17.5856 41.4842L31.101 39.536C31.4899 39.4739 31.8716 39.3735 32.2408 39.2364C32.8561 39.008 33.4295 38.6797 33.9382 38.2648L42.6734 30.4085C43.4006 29.7626 43.5772 28.7094 43.1281 27.8683Z" fill="#F4C892"/>
<path d="M4.30245 40.2364H2.29271C1.37327 40.2364 0.62793 39.4911 0.62793 38.5716V23.6992C0.62793 22.7798 1.37327 22.0344 2.29271 22.0344H4.30245C5.22189 22.0344 5.96723 22.7798 5.96723 23.6992V38.5716C5.96723 39.4911 5.22189 40.2364 4.30245 40.2364Z" fill="#6200EA"/>
</svg>
