<svg width="16" height="16" viewBox="0 0 16 16" fill="none" xmlns="http://www.w3.org/2000/svg">
<path d="M5.32725 4.97315L3.74653 4.97537L3.74219 2.31162C3.74216 2.2939 3.74563 2.27635 3.75239 2.25997C3.75915 2.24359 3.76906 2.2287 3.78158 2.21615C3.79409 2.2036 3.80895 2.19364 3.82531 2.18684C3.84168 2.18004 3.85922 2.17652 3.87694 2.1765L5.18778 2.17465C5.2055 2.17463 5.22305 2.17809 5.23943 2.18485C5.25581 2.19161 5.2707 2.20153 5.28325 2.21404C5.2958 2.22655 5.30576 2.24142 5.31256 2.25778C5.31937 2.27414 5.32288 2.29168 5.32291 2.3094L5.32725 4.97315Z" fill="#FF7209"/>
<path d="M5.32345 2.3094C5.32342 2.29168 5.31991 2.27414 5.3131 2.25778C5.3063 2.24142 5.29634 2.22655 5.28379 2.21404C5.27124 2.20153 5.25635 2.19161 5.23997 2.18485C5.22359 2.17809 5.20604 2.17463 5.18832 2.17465L4.40676 2.17575C4.47607 2.18131 4.53079 2.23865 4.53091 2.3094L4.53526 4.97315L3.74707 4.97425V4.97534L5.32779 4.97312L5.32345 2.3094Z" fill="#EB5E00"/>
<path d="M7.94128 2.12637L3.70703 6.11519L3.7155 12.1791C3.71561 12.2559 3.74622 12.3296 3.80061 12.3838C3.85501 12.4381 3.92871 12.4685 4.00553 12.4684L11.9059 12.4573C11.9827 12.4572 12.0563 12.4266 12.1106 12.3722C12.1648 12.3178 12.1952 12.2441 12.1951 12.1673L12.1867 6.10337L7.94128 2.12637Z" fill="#F0E6FD"/>
<path d="M12.1867 6.10334L7.94138 2.12637L7.24316 2.78412L10.7864 6.10334L10.7949 12.1673C10.7949 12.2053 10.7875 12.243 10.773 12.2781C10.7585 12.3133 10.7372 12.3453 10.7103 12.3722C10.6835 12.3991 10.6516 12.4205 10.6165 12.4351C10.5813 12.4497 10.5437 12.4573 10.5057 12.4573H11.906C11.9828 12.4572 12.0565 12.4266 12.1107 12.3722C12.1649 12.3178 12.1954 12.2441 12.1953 12.1673L12.1867 6.10334Z" fill="#D7C1FA"/>
<path d="M13.6804 7.43954C13.5323 7.43991 13.3896 7.38362 13.2817 7.2822L7.9415 2.2797L2.61535 7.2971C2.38125 7.51763 2.01272 7.5066 1.79225 7.27254C1.57172 7.03848 1.58272 6.66995 1.81682 6.44945L7.54113 1.05698C7.76491 0.846135 8.1141 0.845666 8.33847 1.05585L14.0778 6.43232C14.3125 6.65217 14.3245 7.02067 14.1047 7.25532C14.0503 7.31345 13.9847 7.3598 13.9117 7.39149C13.8387 7.42318 13.76 7.43954 13.6804 7.43954Z" fill="#FF7209"/>
<path d="M14.1043 6.555C14.05 6.61312 13.9843 6.65946 13.9113 6.69115C13.8384 6.72283 13.7597 6.73918 13.6801 6.73919C13.532 6.73956 13.3893 6.68327 13.2813 6.58185L7.94118 1.57932L2.61502 6.59672C2.38093 6.81725 2.01239 6.80622 1.79193 6.57216C1.7774 6.55667 1.76373 6.54039 1.75099 6.52341C1.58321 6.74581 1.59446 7.06291 1.79193 7.2725C2.01236 7.50657 2.38093 7.5176 2.61502 7.29706L7.94118 2.27969L13.2813 7.28219C13.3893 7.38361 13.532 7.43991 13.6801 7.43953C13.7597 7.43953 13.8384 7.42318 13.9114 7.3915C13.9843 7.35981 14.05 7.31347 14.1043 7.25535C14.3008 7.04563 14.3116 6.72932 14.1442 6.50744C14.1318 6.52399 14.1185 6.53986 14.1043 6.555Z" fill="#EB5E00"/>
<path d="M9.03716 7.12546L6.86044 7.12849C6.81139 7.12856 6.76439 7.14812 6.72976 7.18284C6.69513 7.21757 6.67572 7.26463 6.67578 7.31368L6.68297 12.4646L9.22953 12.4611L9.22234 7.31011C9.22227 7.26107 9.20272 7.21407 9.16799 7.17944C9.13326 7.14481 9.0862 7.12539 9.03716 7.12546Z" fill="#4D4D4D"/>
<path d="M9.22164 7.31014C9.22157 7.2611 9.20201 7.2141 9.16729 7.17947C9.13256 7.14484 9.0855 7.12542 9.03645 7.12549L7.80664 7.12721C7.84419 7.13898 7.877 7.16241 7.90032 7.19411C7.92363 7.22581 7.93624 7.26411 7.9363 7.30346L7.94348 12.4629L9.22883 12.4611L9.22164 7.31014Z" fill="#1A1A1A"/>
<path d="M14.5913 9.86103L11.3829 12.0082L10.4268 11.9545L10.3894 11.5782C10.3336 11.018 9.90229 10.5683 9.34485 10.4895L6.78301 10.1945C6.19204 10.1109 5.62304 9.91284 5.10785 9.61147C4.40449 9.20001 3.60429 8.98315 2.78941 8.98315H0.942383V13.1993L5.82404 15.0479C6.00854 15.1 6.20229 15.1156 6.39163 15.0856L6.39504 15.0851L11.3097 14.3767C11.6884 14.3162 12.0443 14.1567 12.3414 13.9144L15.5178 11.0576C15.8029 10.8044 15.8557 10.379 15.6413 10.0638C15.4066 9.719 14.9375 9.62837 14.5913 9.86103Z" fill="#FED9A8"/>
<path d="M15.6832 10.1339L12.5435 12.7768C12.2464 13.0191 11.7525 13.1785 11.3739 13.239L6.39507 13.5949C6.39394 13.5951 6.3928 13.5953 6.39166 13.5954C6.20232 13.6253 6.00854 13.6098 5.82407 13.5577L0.942383 11.7091V13.1993L5.82404 15.0479C5.91608 15.0741 6.01057 15.0907 6.10601 15.0976C6.1298 15.0992 6.15363 15.1003 6.17748 15.1006C6.25031 15.1018 6.32311 15.0967 6.39504 15.0852L11.3097 14.3767C11.4511 14.3541 11.59 14.3176 11.7242 14.2678C11.9479 14.1847 12.1565 14.0653 12.3414 13.9145L15.5179 11.0576C15.7823 10.8228 15.8465 10.4398 15.6832 10.1339Z" fill="#F4C892"/>
<path d="M1.5647 14.6314H0.833891C0.499547 14.6314 0.228516 14.3604 0.228516 14.026V8.61789C0.228516 8.28354 0.499547 8.01251 0.833891 8.01251H1.5647C1.89905 8.01251 2.17008 8.28354 2.17008 8.61789V14.026C2.17008 14.3604 1.89905 14.6314 1.5647 14.6314Z" fill="#6200EA"/>
</svg>
